<?xml version="1.0" encoding="utf-8"?>
<!-- Generator: Adobe Illustrator 18.0.0, SVG Export Plug-In . SVG Version: 6.00 Build 0)  -->
<!DOCTYPE svg PUBLIC "-//W3C//DTD SVG 1.1//EN" "http://www.w3.org/Graphics/SVG/1.1/DTD/svg11.dtd">
<svg version="1.1" id="Livello_1" xmlns="http://www.w3.org/2000/svg" xmlns:xlink="http://www.w3.org/1999/xlink" x="0px" y="0px"
	 viewBox="0 0 765.7 1579.4" enable-background="new 0 0 765.7 1579.4" xml:space="preserve">
<path fill="#8ACDB5" d="M641.7,7.4H124C60.7,7.4,9,59.1,9,122.4v1331.4c0,63.2,51.7,115,115,115h517.8c63.2,0,115-51.7,115-115
	V122.4C756.7,59.1,705,7.4,641.7,7.4z M702,1354.8H61V220.9h641V1354.8z"/>
<g>
	<g>
		<path opacity="0.7" fill="#595959" d="M61.8,363.9"/>
	</g>
	<g>
		<g>
			<g>
				<path fill="#FFFFFF" d="M580.3,255.5v-12.2h-4.4v-1.6c0.6,0,1.1,0,1.7-0.1c0.5-0.1,1-0.3,1.5-0.5c0.4-0.2,0.8-0.6,1.1-1
					c0.3-0.4,0.5-0.9,0.6-1.6h1.6v17H580.3z"/>
				<path fill="#FFFFFF" d="M587.6,245.2c0-0.7,0.1-1.3,0.2-2c0.1-0.6,0.3-1.2,0.6-1.8c0.2-0.6,0.6-1.1,1-1.5c0.4-0.4,0.9-0.8,1.6-1
					c0.6-0.3,1.4-0.4,2.3-0.4c0.9,0,1.6,0.1,2.3,0.4c0.6,0.3,1.2,0.6,1.6,1c0.4,0.4,0.7,0.9,1,1.5c0.2,0.6,0.4,1.2,0.6,1.8
					c0.1,0.6,0.2,1.3,0.2,2c0,0.7,0,1.3,0,1.9c0,0.6,0,1.3,0,1.9c0,0.7-0.1,1.3-0.2,2c-0.1,0.6-0.3,1.2-0.6,1.8
					c-0.2,0.6-0.6,1.1-1,1.5c-0.4,0.4-0.9,0.8-1.6,1c-0.6,0.2-1.4,0.4-2.3,0.4c-0.9,0-1.6-0.1-2.3-0.4c-0.6-0.2-1.2-0.6-1.6-1
					c-0.4-0.4-0.7-0.9-1-1.5c-0.2-0.6-0.4-1.2-0.6-1.8c-0.1-0.6-0.2-1.3-0.2-2c0-0.7,0-1.3,0-1.9
					C587.6,246.5,587.6,245.8,587.6,245.2z M589.8,249.2c0,0.8,0.2,1.5,0.4,2.2c0.2,0.7,0.6,1.3,1,1.8c0.5,0.5,1.2,0.7,2,0.7
					c0.9,0,1.5-0.2,2-0.7c0.5-0.5,0.8-1.1,1-1.8c0.2-0.7,0.3-1.4,0.4-2.2c0-0.8,0.1-1.5,0.1-2.1c0-0.4,0-0.9,0-1.4
					c0-0.5,0-1-0.1-1.5c-0.1-0.5-0.2-1-0.3-1.5c-0.1-0.5-0.3-0.9-0.6-1.3c-0.3-0.4-0.6-0.7-1-0.9c-0.4-0.2-0.9-0.3-1.5-0.3
					c-0.6,0-1.1,0.1-1.5,0.3c-0.4,0.2-0.7,0.5-1,0.9c-0.3,0.4-0.5,0.8-0.6,1.3c-0.1,0.5-0.2,1-0.3,1.5c-0.1,0.5-0.1,1-0.1,1.5
					c0,0.5,0,1,0,1.4C589.7,247.7,589.8,248.5,589.8,249.2z"/>
				<path fill="#FFFFFF" d="M600.4,245.2c0-0.7,0.1-1.3,0.2-2c0.1-0.6,0.3-1.2,0.6-1.8c0.2-0.6,0.6-1.1,1-1.5c0.4-0.4,0.9-0.8,1.6-1
					c0.6-0.3,1.4-0.4,2.3-0.4c0.9,0,1.6,0.1,2.3,0.4c0.6,0.3,1.2,0.6,1.6,1c0.4,0.4,0.7,0.9,1,1.5c0.2,0.6,0.4,1.2,0.6,1.8
					c0.1,0.6,0.2,1.3,0.2,2c0,0.7,0,1.3,0,1.9c0,0.6,0,1.3,0,1.9c0,0.7-0.1,1.3-0.2,2c-0.1,0.6-0.3,1.2-0.6,1.8
					c-0.2,0.6-0.6,1.1-1,1.5c-0.4,0.4-0.9,0.8-1.6,1c-0.6,0.2-1.4,0.4-2.3,0.4c-0.9,0-1.6-0.1-2.3-0.4c-0.6-0.2-1.2-0.6-1.6-1
					c-0.4-0.4-0.7-0.9-1-1.5c-0.2-0.6-0.4-1.2-0.6-1.8c-0.1-0.6-0.2-1.3-0.2-2c0-0.7,0-1.3,0-1.9
					C600.3,246.5,600.3,245.8,600.4,245.2z M602.6,249.2c0,0.8,0.2,1.5,0.4,2.2c0.2,0.7,0.6,1.3,1,1.8c0.5,0.5,1.2,0.7,2,0.7
					c0.9,0,1.5-0.2,2-0.7c0.5-0.5,0.8-1.1,1-1.8c0.2-0.7,0.3-1.4,0.4-2.2c0-0.8,0.1-1.5,0.1-2.1c0-0.4,0-0.9,0-1.4
					c0-0.5,0-1-0.1-1.5c-0.1-0.5-0.2-1-0.3-1.5c-0.1-0.5-0.3-0.9-0.6-1.3c-0.3-0.4-0.6-0.7-1-0.9c-0.4-0.2-0.9-0.3-1.5-0.3
					c-0.6,0-1.1,0.1-1.5,0.3c-0.4,0.2-0.7,0.5-1,0.9c-0.3,0.4-0.5,0.8-0.6,1.3c-0.1,0.5-0.2,1-0.3,1.5c-0.1,0.5-0.1,1-0.1,1.5
					c0,0.5,0,1,0,1.4C602.5,247.7,602.5,248.5,602.6,249.2z"/>
				<path fill="#FFFFFF" d="M614.5,241.5c0.1-0.6,0.3-1.1,0.6-1.5c0.3-0.4,0.7-0.8,1.2-1.1c0.5-0.3,1.1-0.4,1.8-0.4
					c0.8,0,1.4,0.1,1.9,0.4c0.5,0.3,0.9,0.6,1.2,1c0.3,0.4,0.5,0.9,0.6,1.5c0.1,0.6,0.2,1.2,0.2,1.9c0,0.6-0.1,1.2-0.2,1.8
					c-0.1,0.6-0.4,1.1-0.7,1.5c-0.3,0.4-0.7,0.8-1.2,1.1c-0.5,0.3-1.1,0.4-1.8,0.4c-0.7,0-1.3-0.1-1.8-0.4c-0.5-0.2-0.9-0.6-1.2-1
					c-0.3-0.4-0.5-0.9-0.7-1.5c-0.1-0.6-0.2-1.2-0.2-1.8C614.3,242.7,614.3,242.1,614.5,241.5z M616.1,244.4c0,0.4,0.1,0.8,0.3,1.1
					c0.1,0.3,0.3,0.6,0.6,0.9c0.3,0.2,0.6,0.3,1.1,0.3c0.5,0,0.8-0.1,1.1-0.3c0.3-0.2,0.5-0.5,0.6-0.9c0.2-0.3,0.3-0.7,0.3-1.1
					c0-0.4,0.1-0.8,0.1-1.2c0-0.4,0-0.7-0.1-1.1c0-0.4-0.1-0.8-0.3-1.1c-0.1-0.3-0.3-0.6-0.6-0.9c-0.3-0.2-0.6-0.3-1.1-0.3
					c-0.4,0-0.8,0.1-1.1,0.3c-0.3,0.2-0.5,0.5-0.6,0.9c-0.2,0.3-0.3,0.7-0.3,1.1c0,0.4-0.1,0.8-0.1,1.2
					C616.1,243.6,616.1,244,616.1,244.4z M631.5,238.1L618.6,256h-2.1l12.9-17.8H631.5z M626.3,249.1c0.1-0.6,0.3-1.1,0.6-1.5
					c0.3-0.4,0.7-0.8,1.2-1.1c0.5-0.3,1.1-0.4,1.8-0.4c0.8,0,1.4,0.1,1.9,0.4c0.5,0.3,0.9,0.6,1.2,1c0.3,0.4,0.5,0.9,0.6,1.5
					c0.1,0.6,0.2,1.2,0.2,1.9c0,0.6-0.1,1.2-0.2,1.8c-0.1,0.6-0.4,1.1-0.7,1.5c-0.3,0.4-0.7,0.8-1.2,1.1c-0.5,0.3-1.1,0.4-1.8,0.4
					c-0.7,0-1.3-0.1-1.8-0.4c-0.5-0.2-0.9-0.6-1.2-1c-0.3-0.4-0.5-0.9-0.7-1.5c-0.1-0.6-0.2-1.2-0.2-1.8
					C626.1,250.4,626.2,249.7,626.3,249.1z M628,252.1c0,0.4,0.1,0.8,0.3,1.1c0.1,0.3,0.3,0.6,0.6,0.9c0.3,0.2,0.6,0.3,1.1,0.3
					c0.5,0,0.8-0.1,1.1-0.3c0.3-0.2,0.5-0.5,0.6-0.9c0.2-0.3,0.3-0.7,0.3-1.1c0-0.4,0.1-0.8,0.1-1.2c0-0.4,0-0.7-0.1-1.1
					c0-0.4-0.1-0.8-0.3-1.1c-0.1-0.3-0.3-0.6-0.6-0.9c-0.3-0.2-0.6-0.3-1.1-0.3c-0.4,0-0.8,0.1-1.1,0.3c-0.3,0.2-0.5,0.5-0.6,0.9
					c-0.2,0.3-0.3,0.7-0.3,1.1c0,0.4-0.1,0.8-0.1,1.2C627.9,251.3,628,251.7,628,252.1z"/>
			</g>
		</g>
		<g>
			<g>
				<path fill="#FFFFFF" d="M343,255.8c-0.9,0-1.7-0.1-2.5-0.4c-0.8-0.2-1.4-0.6-2-1.1c-0.5-0.5-1-1.1-1.3-1.7s-0.5-1.5-0.5-2.3
					c0-1.1,0.3-2,0.9-2.8c0.6-0.8,1.4-1.2,2.3-1.5v0c-0.8-0.3-1.4-0.8-1.8-1.4c-0.4-0.6-0.6-1.4-0.6-2.2c0-1.5,0.5-2.7,1.4-3.5
					c0.9-0.8,2.3-1.3,4-1.3s3.1,0.4,4,1.3c0.9,0.8,1.4,2,1.4,3.5c0,0.9-0.2,1.6-0.6,2.2c-0.4,0.6-1,1.1-1.8,1.4v0
					c1,0.2,1.8,0.8,2.3,1.5c0.6,0.8,0.9,1.7,0.9,2.8c0,0.9-0.2,1.6-0.5,2.3s-0.7,1.3-1.3,1.7c-0.5,0.5-1.2,0.8-2,1.1
					S343.9,255.8,343,255.8z M343,253.6c0.9,0,1.7-0.3,2.4-0.8c0.6-0.6,0.9-1.4,0.9-2.4c0-1-0.3-1.7-0.9-2.3
					c-0.6-0.5-1.4-0.8-2.4-0.8c-1,0-1.7,0.3-2.4,0.8c-0.6,0.5-1,1.3-1,2.3c0,1,0.3,1.8,1,2.4C341.2,253.3,342,253.6,343,253.6z
					 M343,239.9c-0.8,0-1.4,0.2-2,0.7c-0.5,0.5-0.8,1.1-0.8,2c0,0.8,0.3,1.5,0.8,1.9c0.5,0.4,1.2,0.7,2,0.7c0.8,0,1.5-0.2,2-0.7
					c0.5-0.4,0.8-1.1,0.8-1.9c0-0.9-0.3-1.5-0.8-2C344.4,240.1,343.7,239.9,343,239.9z"/>
				<path fill="#FFFFFF" d="M351.2,242.8h3.5v3.4h-3.5V242.8z M351.2,252.1h3.5v3.4h-3.5V252.1z"/>
				<path fill="#FFFFFF" d="M357.2,240.9c0.6,0,1.2-0.1,1.8-0.2c0.6-0.1,1.1-0.3,1.5-0.5c0.5-0.2,0.9-0.5,1.2-0.9
					c0.3-0.4,0.5-0.8,0.6-1.3h2.3v17.5h-3.1v-12.3h-4.3V240.9z"/>
				<path fill="#FFFFFF" d="M382.2,255.5h-12c0-1.5,0.4-2.7,1-3.8c0.7-1.1,1.6-2,2.8-2.8c0.6-0.4,1.2-0.8,1.8-1.2
					c0.6-0.4,1.2-0.8,1.7-1.3c0.5-0.5,0.9-0.9,1.3-1.5c0.3-0.5,0.5-1.1,0.5-1.8c0-0.3,0-0.7-0.1-1s-0.2-0.7-0.4-1
					c-0.2-0.3-0.5-0.6-0.9-0.8c-0.4-0.2-0.9-0.3-1.5-0.3c-0.6,0-1,0.1-1.4,0.3c-0.4,0.2-0.7,0.5-0.9,0.9c-0.2,0.4-0.4,0.9-0.5,1.4
					c-0.1,0.5-0.2,1.1-0.2,1.7h-2.8c0-1,0.1-1.9,0.4-2.7c0.3-0.8,0.6-1.5,1.2-2.1c0.5-0.6,1.1-1.1,1.9-1.4c0.7-0.3,1.6-0.5,2.6-0.5
					c1.1,0,2,0.2,2.7,0.5c0.7,0.4,1.3,0.8,1.7,1.3c0.4,0.5,0.8,1.1,0.9,1.7s0.3,1.2,0.3,1.8c0,0.7-0.1,1.3-0.3,1.9
					c-0.2,0.6-0.5,1.1-0.9,1.6c-0.4,0.5-0.8,0.9-1.2,1.3c-0.5,0.4-1,0.8-1.5,1.1c-0.5,0.4-1,0.7-1.5,1c-0.5,0.3-1,0.6-1.4,1
					c-0.4,0.3-0.8,0.6-1.1,1c-0.3,0.3-0.5,0.7-0.7,1.1h8.5V255.5z"/>
				<path fill="#FFFFFF" d="M391,237.6h7.9c1.3,0,2.3,0.2,3.1,0.5c0.8,0.4,1.4,0.8,1.8,1.4c0.4,0.5,0.7,1.1,0.9,1.8
					c0.2,0.7,0.2,1.2,0.2,1.8s-0.1,1.1-0.2,1.8s-0.5,1.2-0.9,1.8c-0.4,0.5-1.1,1-1.8,1.4c-0.8,0.4-1.8,0.5-3.1,0.5h-4.8v6.8H391
					V237.6z M394.2,246.1h4.6c0.3,0,0.7,0,1.1-0.1c0.4-0.1,0.7-0.3,1-0.5c0.3-0.2,0.6-0.5,0.8-0.9c0.2-0.4,0.3-0.8,0.3-1.4
					c0-0.6-0.1-1.1-0.2-1.5c-0.2-0.4-0.4-0.7-0.7-0.9c-0.3-0.2-0.6-0.4-1-0.5c-0.4-0.1-0.8-0.1-1.2-0.1h-4.6V246.1z"/>
				<path fill="#FFFFFF" d="M407.2,237.6h4.4l4.9,14h0l4.8-14h4.3v17.8h-3v-13.8h0l-5,13.8h-2.6l-5-13.8h0v13.8h-3V237.6z"/>
			</g>
		</g>
		<g>
			<path fill="#FFFFFF" d="M243.9,252.4l3.4,3.5l3.4-3.5C248.9,250.5,245.8,250.5,243.9,252.4z"/>
			<path fill="#FFFFFF" d="M239.4,247.8l2.3,2.3c3.1-3.2,8.2-3.2,11.4,0l2.3-2.3C250.9,243.3,243.8,243.3,239.4,247.8z"/>
			<path fill="#FFFFFF" d="M234.8,243.2l2.3,2.3c5.6-5.7,14.8-5.7,20.5,0l2.3-2.3C252.9,236.2,241.7,236.2,234.8,243.2z"/>
		</g>
		<g>
			<circle fill="#FFFFFF" cx="80.3" cy="247.4" r="5.5"/>
			<circle fill="#FFFFFF" cx="94.3" cy="247.4" r="5.5"/>
			<path fill="#FFFFFF" d="M108.3,242.9c2.5,0,4.5,2,4.5,4.5c0,2.5-2,4.5-4.5,4.5c-2.5,0-4.5-2-4.5-4.5
				C103.8,244.9,105.9,242.9,108.3,242.9 M108.3,241.9c-3,0-5.5,2.5-5.5,5.5c0,3,2.5,5.5,5.5,5.5c3,0,5.5-2.5,5.5-5.5
				C113.8,244.4,111.4,241.9,108.3,241.9L108.3,241.9z"/>
			<path fill="#FFFFFF" d="M122.3,242.9c2.5,0,4.5,2,4.5,4.5c0,2.5-2,4.5-4.5,4.5c-2.5,0-4.5-2-4.5-4.5
				C117.8,244.9,119.9,242.9,122.3,242.9 M122.3,241.9c-3,0-5.5,2.5-5.5,5.5c0,3,2.5,5.5,5.5,5.5c3,0,5.5-2.5,5.5-5.5
				C127.8,244.4,125.4,241.9,122.3,241.9L122.3,241.9z"/>
			<path fill="#FFFFFF" d="M136.3,242.9c2.5,0,4.5,2,4.5,4.5c0,2.5-2,4.5-4.5,4.5c-2.5,0-4.5-2-4.5-4.5
				C131.8,244.9,133.9,242.9,136.3,242.9 M136.3,241.9c-3,0-5.5,2.5-5.5,5.5c0,3,2.5,5.5,5.5,5.5c3,0,5.5-2.5,5.5-5.5
				C141.8,244.4,139.4,241.9,136.3,241.9L136.3,241.9z"/>
		</g>
		<g>
			<g>
				<path fill="#FFFFFF" d="M685.8,252.9c0,1.1-0.9,2-2,2h-37c-1.1,0-2-0.9-2-2v-11c0-1.1,0.9-2,2-2h37c1.1,0,2,0.9,2,2V252.9z"/>
			</g>
			<g>
				<path fill="#FFFFFF" d="M685.8,237.9h-41c-1.1,0-2,0.9-2,2v15c0,1.1,0.9,2,2,2h41c1.1,0,2-0.9,2-2v-15
					C687.8,238.8,686.9,237.9,685.8,237.9z M686.8,253.9c0,1.1-0.9,2-2,2h-39c-1.1,0-2-0.9-2-2v-13c0-1.1,0.9-2,2-2h39
					c1.1,0,2,0.9,2,2V253.9z"/>
				<path fill="#FFFFFF" d="M688.8,244v6.9c1.7-0.2,3-1.7,3-3.4C691.8,245.6,690.5,244.2,688.8,244z"/>
			</g>
		</g>
		<g>
			<path fill="#FFFFFF" d="M162.3,240.9c-0.9-0.6-1.9-0.9-3.1-0.9c-1,0-1.9,0.2-2.6,0.6c-0.7,0.4-1.3,0.9-1.8,1.5
				c-0.5,0.6-0.8,1.4-1,2.2c-0.2,0.8-0.3,1.7-0.3,2.6c0,1,0.1,1.9,0.3,2.8c0.2,0.9,0.6,1.6,1,2.3c0.5,0.6,1.1,1.2,1.8,1.5
				c0.7,0.4,1.6,0.6,2.6,0.6c0.8,0,1.4-0.1,2-0.4c0.6-0.2,1.1-0.6,1.5-1c0.4-0.4,0.8-1,1-1.6c0.2-0.6,0.4-1.3,0.4-2h2.3
				c-0.2,2.2-1,3.8-2.2,5c-1.3,1.2-3,1.8-5.2,1.8c-1.3,0-2.5-0.2-3.5-0.7c-1-0.5-1.8-1.1-2.5-1.9c-0.7-0.8-1.1-1.7-1.5-2.8
				c-0.3-1.1-0.5-2.3-0.5-3.5c0-1.2,0.2-2.4,0.5-3.5c0.4-1.1,0.9-2.1,1.5-2.9c0.7-0.8,1.5-1.5,2.5-1.9c1-0.5,2.2-0.7,3.5-0.7
				c0.9,0,1.7,0.1,2.5,0.4c0.8,0.2,1.5,0.6,2.1,1.1c0.6,0.5,1.1,1,1.6,1.7c0.4,0.7,0.7,1.5,0.8,2.4H164
				C163.8,242.5,163.2,241.6,162.3,240.9z"/>
			<path fill="#FFFFFF" d="M178.5,255.9c-0.5,0-0.9-0.1-1.3-0.4c-0.3-0.3-0.5-0.8-0.5-1.5c-0.6,0.7-1.2,1.2-2,1.5
				c-0.7,0.3-1.5,0.4-2.4,0.4c-0.6,0-1.1-0.1-1.6-0.2c-0.5-0.1-0.9-0.3-1.3-0.6c-0.4-0.3-0.7-0.6-0.9-1.1c-0.2-0.4-0.3-1-0.3-1.6
				c0-0.7,0.1-1.3,0.4-1.7c0.2-0.4,0.6-0.8,0.9-1.1c0.4-0.3,0.8-0.5,1.3-0.6c0.5-0.1,1-0.3,1.5-0.4c0.6-0.1,1.1-0.2,1.6-0.3
				c0.5-0.1,0.9-0.1,1.3-0.2c0.4-0.1,0.7-0.3,0.9-0.5c0.2-0.2,0.3-0.5,0.3-0.9c0-0.4-0.1-0.8-0.3-1.1c-0.2-0.3-0.4-0.5-0.6-0.6
				c-0.3-0.1-0.6-0.2-0.9-0.3c-0.3,0-0.7-0.1-1-0.1c-0.9,0-1.6,0.2-2.2,0.5c-0.6,0.3-0.9,0.9-0.9,1.9h-2c0-0.8,0.2-1.4,0.5-1.9
				c0.3-0.5,0.7-1,1.2-1.3c0.5-0.3,1-0.6,1.7-0.7c0.6-0.1,1.3-0.2,2-0.2c0.6,0,1.1,0,1.7,0.1c0.6,0.1,1.1,0.2,1.5,0.5
				c0.4,0.2,0.8,0.6,1.1,1c0.3,0.4,0.4,1,0.4,1.8v6.4c0,0.5,0,0.8,0.1,1.1c0.1,0.2,0.2,0.3,0.6,0.3c0.2,0,0.4,0,0.6-0.1v1.6
				C179.6,255.8,179.1,255.9,178.5,255.9z M175.6,249.7c-0.4,0.1-0.9,0.2-1.3,0.2c-0.5,0.1-0.9,0.1-1.4,0.2
				c-0.5,0.1-0.9,0.2-1.2,0.3c-0.4,0.2-0.7,0.4-0.9,0.7c-0.2,0.3-0.3,0.7-0.3,1.2c0,0.3,0.1,0.6,0.2,0.9c0.1,0.2,0.3,0.4,0.5,0.6
				c0.2,0.1,0.5,0.2,0.8,0.3c0.3,0.1,0.6,0.1,0.9,0.1c0.7,0,1.2-0.1,1.7-0.3c0.5-0.2,0.9-0.4,1.2-0.7c0.3-0.3,0.5-0.6,0.7-0.9
				c0.1-0.3,0.2-0.6,0.2-0.9v-2.1C176.4,249.4,176,249.6,175.6,249.7z"/>
			<path fill="#FFFFFF" d="M183.7,243.2v2.6h0c0.5-1,1.1-1.8,1.8-2.2c0.7-0.5,1.6-0.7,2.7-0.7v2.2c-0.8,0-1.5,0.1-2.1,0.3
				c-0.6,0.2-1,0.6-1.4,1c-0.4,0.4-0.6,1-0.8,1.6c-0.2,0.6-0.2,1.3-0.2,2.1v5.5h-2v-12.4H183.7z"/>
			<path fill="#FFFFFF" d="M191.7,243.2v2.6h0c0.5-1,1.1-1.8,1.8-2.2c0.7-0.5,1.6-0.7,2.7-0.7v2.2c-0.8,0-1.5,0.1-2.1,0.3
				c-0.6,0.2-1,0.6-1.4,1c-0.4,0.4-0.6,1-0.8,1.6c-0.2,0.6-0.2,1.3-0.2,2.1v5.5h-2v-12.4H191.7z"/>
			<path fill="#FFFFFF" d="M197.9,241v-2.5h2v2.5H197.9z M200,243.2v12.4h-2v-12.4H200z"/>
			<path fill="#FFFFFF" d="M211.9,254.9c-0.9,0.7-2.1,1.1-3.5,1.1c-1,0-1.9-0.2-2.6-0.5c-0.7-0.3-1.3-0.8-1.8-1.3
				c-0.5-0.6-0.9-1.3-1.1-2.1c-0.2-0.8-0.4-1.7-0.4-2.6c0-0.9,0.1-1.8,0.4-2.6c0.3-0.8,0.7-1.5,1.2-2c0.5-0.6,1.1-1,1.8-1.3
				c0.7-0.3,1.5-0.5,2.3-0.5c1.1,0,2,0.2,2.7,0.7c0.7,0.5,1.3,1,1.8,1.7c0.4,0.7,0.7,1.5,0.9,2.3c0.2,0.8,0.2,1.6,0.2,2.4h-9.3
				c0,0.5,0,1.1,0.2,1.5c0.1,0.5,0.4,0.9,0.7,1.3c0.3,0.4,0.7,0.7,1.2,0.9c0.5,0.2,1.1,0.3,1.8,0.3c0.9,0,1.6-0.2,2.1-0.6
				c0.6-0.4,0.9-1,1.1-1.8h2C213.5,253.1,212.9,254.2,211.9,254.9z M211.4,246.9c-0.2-0.4-0.4-0.8-0.7-1.1c-0.3-0.3-0.7-0.6-1.1-0.7
				c-0.4-0.2-0.9-0.3-1.4-0.3c-0.5,0-1,0.1-1.4,0.3c-0.4,0.2-0.8,0.4-1.1,0.8c-0.3,0.3-0.5,0.7-0.7,1.1c-0.2,0.4-0.3,0.9-0.3,1.4
				h7.1C211.7,247.8,211.6,247.3,211.4,246.9z"/>
			<path fill="#FFFFFF" d="M217.9,243.2v2.6h0c0.5-1,1.1-1.8,1.8-2.2c0.7-0.5,1.6-0.7,2.7-0.7v2.2c-0.8,0-1.5,0.1-2.1,0.3
				c-0.6,0.2-1,0.6-1.4,1c-0.4,0.4-0.6,1-0.8,1.6c-0.2,0.6-0.2,1.3-0.2,2.1v5.5h-2v-12.4H217.9z"/>
		</g>
	</g>
	<circle opacity="0.6" fill="none" stroke="#FFFFFF" stroke-width="3" cx="130.5" cy="364.1" r="33"/>
	<g opacity="0.6">
		<path fill="#FFFFFF" stroke="#FFFFFF" stroke-width="1.5" d="M118.2,361.6h2.1v7.9h-2.1V361.6z M129.3,361.6h2.2v7.9h-2.2V361.6z
			 M140.5,361.6h2.1v7.9h-2.1V361.6z"/>
	</g>
	<circle opacity="0.6" fill="none" stroke="#FFFFFF" stroke-width="3" cx="638.9" cy="364.1" r="33"/>
	<g>
		<defs>
			<rect id="SVGID_16_" x="627.9" y="342.6" width="22" height="22"/>
		</defs>
		<clipPath id="SVGID_6_">
			<use xlink:href="#SVGID_16_"  overflow="visible"/>
		</clipPath>
		<circle opacity="0.6" clip-path="url(#SVGID_6_)" fill="none" stroke="#FFFFFF" stroke-width="3" cx="638.9" cy="353.6" r="9"/>
	</g>
	<g>
		<defs>
			<rect id="SVGID_18_" x="622.4" y="366.3" width="32.9" height="18.4"/>
		</defs>
		<clipPath id="SVGID_10_">
			<use xlink:href="#SVGID_18_"  overflow="visible"/>
		</clipPath>
		<path opacity="0.6" clip-path="url(#SVGID_10_)" fill="none" stroke="#FFFFFF" stroke-width="3" d="M653.3,383.5
			c0.4-8.4-6.3-15.3-14.7-15.2c-8.2,0.1-14.6,7.1-14.1,15.3"/>
	</g>
	<path opacity="0.6" fill="none" stroke="#FFFFFF" stroke-width="3" d="M128.5,1272.4c2.2,3.6,4.2,7.4,6,11.2
		c1.3,2.6,2.2,5.4,2.4,8.3c0.4,4.9-3.1,9.3-8.4,9.3c-4.9,0-8.1-4-8.1-8.5c0-3.2,0.9-6.2,2.2-9.1
		C124.3,1279.7,126.3,1276,128.5,1272.4z"/>
	<circle opacity="0.6" fill="none" stroke="#FFFFFF" stroke-width="3" cx="128.7" cy="1286.4" r="33"/>
	<circle opacity="0.6" fill="none" stroke="#FFFFFF" stroke-width="3" cx="640.7" cy="1286.4" r="33"/>
	<path opacity="0.6" fill="none" stroke="#FFFFFF" stroke-width="3" d="M619.3,1297.8l0.3-20.8c0-3.1,2.2-6,5.3-6h31.5
		c3.1,0,5.2,2.8,5.2,6v20.8c0,3.1-2.1,5.3-5.2,5.3H625C621.8,1303,619.3,1300.9,619.3,1297.8z"/>
	<circle opacity="0.6" fill="none" stroke="#FFFFFF" stroke-width="3" cx="640.7" cy="1288.4" r="8"/>
	<circle opacity="0.6" fill="#FFFFFF" stroke="#FFFFFF" cx="655.5" cy="1278.4" r="2"/>
	<g>
		<g opacity="0.2">
			<path fill="#474A4B" d="M381.8,1521.9c-37.2,0-67.5-30.3-67.5-67.5c0-37.2,30.3-67.5,67.5-67.5c37.2,0,67.5,30.3,67.5,67.5
				C449.3,1491.6,419,1521.9,381.8,1521.9 M381.8,1395.9c-32.2,0-58.5,26.2-58.5,58.5c0,32.2,26.2,58.5,58.5,58.5
				c32.2,0,58.5-26.2,58.5-58.5C440.3,1422.1,414.1,1395.9,381.8,1395.9"/>
			<path fill="#474A4B" d="M408.7,91.1"/>
			<path fill="#474A4B" d="M456.7,160.4"/>
			<rect x="509.8" y="0" fill="#474A4B" width="121.9" height="8"/>
			<rect x="0" y="363.8" fill="#474A4B" width="8" height="55"/>
			<rect x="0" y="216.6" fill="#474A4B" width="8" height="76"/>
			<rect x="0" y="488.8" fill="#474A4B" width="8" height="55"/>
			<g>
				<defs>
					<rect id="SVGID_20_" x="74.9" y="232.4" width="628.3" height="1134.1"/>
				</defs>
				<clipPath id="SVGID_13_">
					<use xlink:href="#SVGID_20_"  overflow="visible"/>
				</clipPath>
			</g>
			<path d="M640.7,8H122.9C59.7,8,8,59.7,8,122.9v1341.5c0,63.2,61.7,115,125,115h517.8c63.2,0,115-51.7,115-115V133
				C765.7,69.7,710.8,8,640.7,8z M701.7,1356.4H62.9V221.2h638.8V1356.4z"/>
		</g>
		<g opacity="0.2">
			<path d="M640.8,7.4H123.1c-63.2,0-115,51.7-115,115v1331.4c0,63.2,51.7,115,115,115h517.8c63.2,0,115-51.7,115-115V122.4
				C755.8,59.1,704.1,7.4,640.8,7.4z M701.8,1355.8H62.1V220.3h639.7V1355.8z"/>
			<path fill="#474A4B" d="M381.8,1521.9c-37.2,0-67.5-30.3-67.5-67.5c0-37.2,30.3-67.5,67.5-67.5c37.2,0,67.5,30.3,67.5,67.5
				C449.3,1491.6,419,1521.9,381.8,1521.9 M381.8,1395.9c-32.2,0-58.5,26.2-58.5,58.5c0,32.2,26.2,58.5,58.5,58.5
				c32.2,0,58.5-26.2,58.5-58.5C440.3,1422.1,414.1,1395.9,381.8,1395.9"/>
			<path fill="#474A4B" d="M395.8,79.7c0-7.7-6.3-14-14-14c-7.7,0-14,6.3-14,14c0,7.7,6.3,14,14,14
				C389.6,93.6,395.8,87.4,395.8,79.7"/>
			<path fill="#474A4B" d="M443.8,148.9H319.9c-5,0-9-4-9-9c0-5,4-9,9-9h123.9c5,0,9,4,9,9C452.8,144.9,448.8,148.9,443.8,148.9"/>
			<polygon fill="#474A4B" points="631.7,0 509.8,0 509.8,8 644.6,8 			"/>
			<polygon fill="#474A4B" points="8,363.8 0,363.8 0,418.8 8,427.4 			"/>
			<polygon fill="#474A4B" points="8,216.6 0,216.6 0,292.5 8,301.1 			"/>
			<polygon fill="#474A4B" points="8,488.8 0,488.8 0,543.8 8,552.4 			"/>
			<g>
				<defs>
					<rect id="SVGID_22_" x="62" y="220.9" width="639.7" height="1135.5"/>
				</defs>
				<clipPath id="SVGID_15_">
					<use xlink:href="#SVGID_22_"  overflow="visible"/>
				</clipPath>
			</g>
		</g>
		<g>
			<path opacity="0.2" fill="#474A4B" d="M395.1,84.3c2-6.2,0.2-14.3-7.5-14.3s-14,3.4-14,11.1c0,3.4,1.3,12.6,8.3,12.6
				C389,93.6,393.2,89,395.1,84.3"/>
			<path opacity="0.2" fill="#474A4B" d="M443.8,148.9H325.6c-5,0-9-1.2-9-6.1c0-5,4-7.6,9-7.6h123.9c1.9-0.1,3.3,1.4,3.3,4.7
				C452.8,145.2,448.5,148.9,443.8,148.9"/>
		</g>
	</g>
</g>
<g>
	
		<path fill="#5FC0A4" stroke="#5FC0A4" stroke-width="29.0276" stroke-linecap="round" stroke-linejoin="round" stroke-miterlimit="10" d="
		M409,821.4c0,0-0.1,0-0.1,0H350c-4.1,0-7.4-2.1-7.4-4.6c0-12.8,16.5-23.1,36.8-23.1c19.7,0,35.9,9.9,36.7,22.2
		c0.1,0.3,0.2,0.6,0.2,0.9C416.3,819.3,413,821.4,409,821.4z"/>
</g>
<g>
	<path fill="#5FC0A4" stroke="#5FC0A4" stroke-width="11.8698" stroke-miterlimit="10" d="M204.4,1010.5c0,0,0.4-0.1,0.7,0
		c0,0,130.9-17.2,174.5-17.2c43.7,0,174.8,17.2,174.8,17.2c24.3,0,43.7,19.6,43.7,43.6c0,120.3-98,218.1-218.3,218.1
		c-117.3,0-213.2-93-218-209.2c-0.7-2.8-1-5.9-1-8.9C160.8,1030,180.3,1010.5,204.4,1010.5z"/>
</g>
<g>
	<path fill="#5A4840" d="M226,700.3c0,31-18,41.7-40.1,41.7c-22.1,0-40.1-10.8-40.1-41.7c0-31,17.9-56.1,40.1-56.1
		C208,644.2,226,669.3,226,700.3z"/>
	<path fill="#5A4840" d="M613.2,700.3c0,31-18,41.7-40.1,41.7c-22.2,0-40.1-10.8-40.1-41.7c0-31,18-56.1,40.1-56.1
		C595.2,644.2,613.2,669.3,613.2,700.3z"/>
</g>
<g>
	<g>
		
			<path fill="#5FC0A4" stroke="#5FC0A4" stroke-width="36.579" stroke-linecap="round" stroke-linejoin="round" stroke-miterlimit="10" d="
			M563,539.4c25.2,0,49,9.8,66.8,27.7"/>
	</g>
	<g>
		
			<path fill="#5FC0A4" stroke="#5FC0A4" stroke-width="36.579" stroke-linecap="round" stroke-linejoin="round" stroke-miterlimit="10" d="
			M129.1,567.1c17.8-17.8,41.6-27.7,66.8-27.7"/>
	</g>
</g>
<g>
	<path fill="#8ACDB5" d="M479.2,991.7C479.2,991.7,479.2,991.7,479.2,991.7l26.5,1.5c1.8,0.1,3.2,2.4,3,5
		c-0.8,13.4-8.8,23.8-17.9,23.3c-8.9-0.5-15.5-11.2-15.2-24.2c0-0.3,0-0.7,0-1C475.8,993.7,477.3,991.6,479.2,991.7z"/>
</g>
<g>
	<path fill="#8ACDB5" d="M287.5,996.4c0,0.3,0,0.7,0,1c0.4,12.9-6.3,23.6-15.2,24.2c-9.1,0.5-17.1-9.9-17.9-23.3
		c-0.2-2.7,1.2-4.9,3-5l26.4-1.5c0,0,0.1,0,0.1,0C285.8,991.6,287.3,993.7,287.5,996.4z"/>
</g>
<rect x="60.6" y="216.6" fill="none" width="640" height="1138.3"/>
</svg>
