<?xml version="1.0" encoding="utf-8"?>
<!-- Generator: Adobe Illustrator 18.0.0, SVG Export Plug-In . SVG Version: 6.00 Build 0)  -->
<!DOCTYPE svg PUBLIC "-//W3C//DTD SVG 1.1//EN" "http://www.w3.org/Graphics/SVG/1.1/DTD/svg11.dtd">
<svg version="1.1" id="Livello_1" xmlns="http://www.w3.org/2000/svg" xmlns:xlink="http://www.w3.org/1999/xlink" x="0px" y="0px"
	 viewBox="0 0 765.7 1579.4" enable-background="new 0 0 765.7 1579.4" xml:space="preserve">
<path fill="#FFD36A" d="M642.7,7.4H124.9C61.7,7.4,10,59.1,10,122.4v1331.4c0,63.2,51.7,115,114.9,115h517.8
	c63.2,0,115-51.7,115-115V122.4C757.7,59.1,706,7.4,642.7,7.4z M704.1,1356.4H64.4V220.9h639.7V1356.4z"/>
<g>
	<g>
		<path opacity="0.7" fill="#595959" d="M62.3,363.9"/>
	</g>
	<g>
		<g>
			<g>
				<path fill="#FFFFFF" d="M580.8,255.5v-12.2h-4.4v-1.6c0.6,0,1.1,0,1.7-0.1c0.5-0.1,1-0.3,1.5-0.5c0.4-0.2,0.8-0.6,1.1-1
					c0.3-0.4,0.5-0.9,0.6-1.6h1.6v17H580.8z"/>
				<path fill="#FFFFFF" d="M588.1,245.2c0-0.7,0.1-1.3,0.2-2c0.1-0.6,0.3-1.2,0.6-1.8c0.2-0.6,0.6-1.1,1-1.5c0.4-0.4,0.9-0.8,1.6-1
					c0.6-0.3,1.4-0.4,2.3-0.4c0.9,0,1.6,0.1,2.3,0.4c0.6,0.3,1.2,0.6,1.6,1c0.4,0.4,0.7,0.9,1,1.5c0.2,0.6,0.4,1.2,0.6,1.8
					c0.1,0.6,0.2,1.3,0.2,2c0,0.7,0,1.3,0,1.9c0,0.6,0,1.3,0,1.9c0,0.7-0.1,1.3-0.2,2c-0.1,0.6-0.3,1.2-0.6,1.8
					c-0.2,0.6-0.6,1.1-1,1.5c-0.4,0.4-0.9,0.8-1.6,1c-0.6,0.2-1.4,0.4-2.3,0.4c-0.9,0-1.6-0.1-2.3-0.4c-0.6-0.2-1.2-0.6-1.6-1
					c-0.4-0.4-0.7-0.9-1-1.5c-0.2-0.6-0.4-1.2-0.6-1.8c-0.1-0.6-0.2-1.3-0.2-2c0-0.7,0-1.3,0-1.9C588,246.5,588,245.8,588.1,245.2z
					 M590.2,249.2c0,0.8,0.2,1.5,0.4,2.2c0.2,0.7,0.6,1.3,1,1.8c0.5,0.5,1.2,0.7,2,0.7c0.9,0,1.5-0.2,2-0.7c0.5-0.5,0.8-1.1,1-1.8
					c0.2-0.7,0.3-1.4,0.4-2.2c0-0.8,0.1-1.5,0.1-2.1c0-0.4,0-0.9,0-1.4c0-0.5,0-1-0.1-1.5c-0.1-0.5-0.2-1-0.3-1.5
					c-0.1-0.5-0.3-0.9-0.6-1.3c-0.3-0.4-0.6-0.7-1-0.9c-0.4-0.2-0.9-0.3-1.5-0.3c-0.6,0-1.1,0.1-1.5,0.3c-0.4,0.2-0.7,0.5-1,0.9
					c-0.3,0.4-0.5,0.8-0.6,1.3c-0.1,0.5-0.2,1-0.3,1.5c-0.1,0.5-0.1,1-0.1,1.5c0,0.5,0,1,0,1.4C590.2,247.7,590.2,248.5,590.2,249.2
					z"/>
				<path fill="#FFFFFF" d="M600.8,245.2c0-0.7,0.1-1.3,0.2-2c0.1-0.6,0.3-1.2,0.6-1.8c0.2-0.6,0.6-1.1,1-1.5c0.4-0.4,0.9-0.8,1.6-1
					c0.6-0.3,1.4-0.4,2.3-0.4c0.9,0,1.6,0.1,2.3,0.4c0.6,0.3,1.2,0.6,1.6,1c0.4,0.4,0.7,0.9,1,1.5c0.2,0.6,0.4,1.2,0.6,1.8
					c0.1,0.6,0.2,1.3,0.2,2c0,0.7,0,1.3,0,1.9c0,0.6,0,1.3,0,1.9c0,0.7-0.1,1.3-0.2,2c-0.1,0.6-0.3,1.2-0.6,1.8
					c-0.2,0.6-0.6,1.1-1,1.5c-0.4,0.4-0.9,0.8-1.6,1c-0.6,0.2-1.4,0.4-2.3,0.4c-0.9,0-1.6-0.1-2.3-0.4c-0.6-0.2-1.2-0.6-1.6-1
					c-0.4-0.4-0.7-0.9-1-1.5c-0.2-0.6-0.4-1.2-0.6-1.8c-0.1-0.6-0.2-1.3-0.2-2c0-0.7,0-1.3,0-1.9
					C600.8,246.5,600.8,245.8,600.8,245.2z M603,249.2c0,0.8,0.2,1.5,0.4,2.2c0.2,0.7,0.6,1.3,1,1.8c0.5,0.5,1.2,0.7,2,0.7
					c0.9,0,1.5-0.2,2-0.7c0.5-0.5,0.8-1.1,1-1.8c0.2-0.7,0.3-1.4,0.4-2.2c0-0.8,0.1-1.5,0.1-2.1c0-0.4,0-0.9,0-1.4
					c0-0.5,0-1-0.1-1.5c-0.1-0.5-0.2-1-0.3-1.5c-0.1-0.5-0.3-0.9-0.6-1.3c-0.3-0.4-0.6-0.7-1-0.9c-0.4-0.2-0.9-0.3-1.5-0.3
					c-0.6,0-1.1,0.1-1.5,0.3c-0.4,0.2-0.7,0.5-1,0.9c-0.3,0.4-0.5,0.8-0.6,1.3c-0.1,0.5-0.2,1-0.3,1.5c-0.1,0.5-0.1,1-0.1,1.5
					c0,0.5,0,1,0,1.4C602.9,247.7,602.9,248.5,603,249.2z"/>
				<path fill="#FFFFFF" d="M614.9,241.5c0.1-0.6,0.3-1.1,0.6-1.5c0.3-0.4,0.7-0.8,1.2-1.1c0.5-0.3,1.1-0.4,1.8-0.4
					c0.8,0,1.4,0.1,1.9,0.4c0.5,0.3,0.9,0.6,1.2,1c0.3,0.4,0.5,0.9,0.6,1.5c0.1,0.6,0.2,1.2,0.2,1.9c0,0.6-0.1,1.2-0.2,1.8
					c-0.1,0.6-0.4,1.1-0.7,1.5c-0.3,0.4-0.7,0.8-1.2,1.1c-0.5,0.3-1.1,0.4-1.8,0.4c-0.7,0-1.3-0.1-1.8-0.4c-0.5-0.2-0.9-0.6-1.2-1
					c-0.3-0.4-0.5-0.9-0.7-1.5c-0.1-0.6-0.2-1.2-0.2-1.8C614.7,242.7,614.8,242.1,614.9,241.5z M616.6,244.4c0,0.4,0.1,0.8,0.3,1.1
					c0.1,0.3,0.3,0.6,0.6,0.9c0.3,0.2,0.6,0.3,1.1,0.3c0.5,0,0.8-0.1,1.1-0.3c0.3-0.2,0.5-0.5,0.6-0.9c0.2-0.3,0.3-0.7,0.3-1.1
					c0-0.4,0.1-0.8,0.1-1.2c0-0.4,0-0.7-0.1-1.1c0-0.4-0.1-0.8-0.3-1.1c-0.1-0.3-0.3-0.6-0.6-0.9c-0.3-0.2-0.6-0.3-1.1-0.3
					c-0.4,0-0.8,0.1-1.1,0.3c-0.3,0.2-0.5,0.5-0.6,0.9c-0.2,0.3-0.3,0.7-0.3,1.1c0,0.4-0.1,0.8-0.1,1.2
					C616.5,243.6,616.5,244,616.6,244.4z M632,238.1L619.1,256H617l12.9-17.8H632z M626.7,249.1c0.1-0.6,0.3-1.1,0.6-1.5
					c0.3-0.4,0.7-0.8,1.2-1.1c0.5-0.3,1.1-0.4,1.8-0.4c0.8,0,1.4,0.1,1.9,0.4c0.5,0.3,0.9,0.6,1.2,1c0.3,0.4,0.5,0.9,0.6,1.5
					c0.1,0.6,0.2,1.2,0.2,1.9c0,0.6-0.1,1.2-0.2,1.8c-0.1,0.6-0.4,1.1-0.7,1.5c-0.3,0.4-0.7,0.8-1.2,1.1c-0.5,0.3-1.1,0.4-1.8,0.4
					c-0.7,0-1.3-0.1-1.8-0.4c-0.5-0.2-0.9-0.6-1.2-1c-0.3-0.4-0.5-0.9-0.7-1.5c-0.1-0.6-0.2-1.2-0.2-1.8
					C626.6,250.4,626.6,249.7,626.7,249.1z M628.4,252.1c0,0.4,0.1,0.8,0.3,1.1c0.1,0.3,0.3,0.6,0.6,0.9c0.3,0.2,0.6,0.3,1.1,0.3
					c0.5,0,0.8-0.1,1.1-0.3c0.3-0.2,0.5-0.5,0.6-0.9c0.2-0.3,0.3-0.7,0.3-1.1c0-0.4,0.1-0.8,0.1-1.2c0-0.4,0-0.7-0.1-1.1
					c0-0.4-0.1-0.8-0.3-1.1c-0.1-0.3-0.3-0.6-0.6-0.9c-0.3-0.2-0.6-0.3-1.1-0.3c-0.4,0-0.8,0.1-1.1,0.3c-0.3,0.2-0.5,0.5-0.6,0.9
					c-0.2,0.3-0.3,0.7-0.3,1.1c0,0.4-0.1,0.8-0.1,1.2C628.4,251.3,628.4,251.7,628.4,252.1z"/>
			</g>
		</g>
		<g>
			<g>
				<path fill="#FFFFFF" d="M343.4,255.8c-0.9,0-1.7-0.1-2.5-0.4c-0.8-0.2-1.4-0.6-2-1.1c-0.5-0.5-1-1.1-1.3-1.7s-0.5-1.5-0.5-2.3
					c0-1.1,0.3-2,0.9-2.8c0.6-0.8,1.4-1.2,2.3-1.5v0c-0.8-0.3-1.4-0.8-1.8-1.4c-0.4-0.6-0.6-1.4-0.6-2.2c0-1.5,0.5-2.7,1.4-3.5
					c0.9-0.8,2.3-1.3,4-1.3s3.1,0.4,4,1.3c0.9,0.8,1.4,2,1.4,3.5c0,0.9-0.2,1.6-0.6,2.2c-0.4,0.6-1,1.1-1.8,1.4v0
					c1,0.2,1.8,0.8,2.3,1.5c0.6,0.8,0.9,1.7,0.9,2.8c0,0.9-0.2,1.6-0.5,2.3s-0.7,1.3-1.3,1.7c-0.5,0.5-1.2,0.8-2,1.1
					S344.3,255.8,343.4,255.8z M343.4,253.6c0.9,0,1.7-0.3,2.4-0.8c0.6-0.6,0.9-1.4,0.9-2.4c0-1-0.3-1.7-0.9-2.3
					c-0.6-0.5-1.4-0.8-2.4-0.8c-1,0-1.7,0.3-2.4,0.8c-0.6,0.5-1,1.3-1,2.3c0,1,0.3,1.8,1,2.4C341.7,253.3,342.5,253.6,343.4,253.6z
					 M343.4,239.9c-0.8,0-1.4,0.2-2,0.7c-0.5,0.5-0.8,1.1-0.8,2c0,0.8,0.3,1.5,0.8,1.9c0.5,0.4,1.2,0.7,2,0.7c0.8,0,1.5-0.2,2-0.7
					c0.5-0.4,0.8-1.1,0.8-1.9c0-0.9-0.3-1.5-0.8-2C344.8,240.1,344.2,239.9,343.4,239.9z"/>
				<path fill="#FFFFFF" d="M351.6,242.8h3.5v3.4h-3.5V242.8z M351.6,252.1h3.5v3.4h-3.5V252.1z"/>
				<path fill="#FFFFFF" d="M357.6,240.9c0.6,0,1.2-0.1,1.8-0.2c0.6-0.1,1.1-0.3,1.5-0.5c0.5-0.2,0.9-0.5,1.2-0.9
					c0.3-0.4,0.5-0.8,0.6-1.3h2.3v17.5h-3.1v-12.3h-4.3V240.9z"/>
				<path fill="#FFFFFF" d="M382.6,255.5h-12c0-1.5,0.4-2.7,1-3.8c0.7-1.1,1.6-2,2.8-2.8c0.6-0.4,1.2-0.8,1.8-1.2
					c0.6-0.4,1.2-0.8,1.7-1.3c0.5-0.5,0.9-0.9,1.3-1.5c0.3-0.5,0.5-1.1,0.5-1.8c0-0.3,0-0.7-0.1-1s-0.2-0.7-0.4-1
					c-0.2-0.3-0.5-0.6-0.9-0.8c-0.4-0.2-0.9-0.3-1.5-0.3c-0.6,0-1,0.1-1.4,0.3c-0.4,0.2-0.7,0.5-0.9,0.9c-0.2,0.4-0.4,0.9-0.5,1.4
					c-0.1,0.5-0.2,1.1-0.2,1.7H371c0-1,0.1-1.9,0.4-2.7c0.3-0.8,0.6-1.5,1.2-2.1c0.5-0.6,1.1-1.1,1.9-1.4c0.7-0.3,1.6-0.5,2.6-0.5
					c1.1,0,2,0.2,2.7,0.5c0.7,0.4,1.3,0.8,1.7,1.3c0.4,0.5,0.8,1.1,0.9,1.7s0.3,1.2,0.3,1.8c0,0.7-0.1,1.3-0.3,1.9
					c-0.2,0.6-0.5,1.1-0.9,1.6c-0.4,0.5-0.8,0.9-1.2,1.3c-0.5,0.4-1,0.8-1.5,1.1c-0.5,0.4-1,0.7-1.5,1c-0.5,0.3-1,0.6-1.4,1
					c-0.4,0.3-0.8,0.6-1.1,1c-0.3,0.3-0.5,0.7-0.7,1.1h8.5V255.5z"/>
				<path fill="#FFFFFF" d="M391.5,237.6h7.9c1.3,0,2.3,0.2,3.1,0.5c0.8,0.4,1.4,0.8,1.8,1.4c0.4,0.5,0.7,1.1,0.9,1.8
					c0.2,0.7,0.2,1.2,0.2,1.8s-0.1,1.1-0.2,1.8s-0.5,1.2-0.9,1.8c-0.4,0.5-1.1,1-1.8,1.4c-0.8,0.4-1.8,0.5-3.1,0.5h-4.8v6.8h-3.1
					V237.6z M394.6,246.1h4.6c0.3,0,0.7,0,1.1-0.1c0.4-0.1,0.7-0.3,1-0.5c0.3-0.2,0.6-0.5,0.8-0.9c0.2-0.4,0.3-0.8,0.3-1.4
					c0-0.6-0.1-1.1-0.2-1.5c-0.2-0.4-0.4-0.7-0.7-0.9c-0.3-0.2-0.6-0.4-1-0.5c-0.4-0.1-0.8-0.1-1.2-0.1h-4.6V246.1z"/>
				<path fill="#FFFFFF" d="M407.6,237.6h4.4l4.9,14h0l4.8-14h4.3v17.8h-3v-13.8h0l-5,13.8h-2.6l-5-13.8h0v13.8h-3V237.6z"/>
			</g>
		</g>
		<g>
			<path fill="#FFFFFF" d="M244.3,252.4l3.4,3.5l3.4-3.5C249.3,250.5,246.2,250.5,244.3,252.4z"/>
			<path fill="#FFFFFF" d="M239.8,247.8l2.3,2.3c3.1-3.2,8.2-3.2,11.4,0l2.3-2.3C251.3,243.3,244.2,243.3,239.8,247.8z"/>
			<path fill="#FFFFFF" d="M235.3,243.2l2.3,2.3c5.6-5.7,14.8-5.7,20.5,0l2.3-2.3C253.4,236.2,242.1,236.2,235.3,243.2z"/>
		</g>
		<g>
			<circle fill="#FFFFFF" cx="80.8" cy="247.4" r="5.5"/>
			<circle fill="#FFFFFF" cx="94.8" cy="247.4" r="5.5"/>
			<path fill="#FFFFFF" d="M108.8,242.9c2.5,0,4.5,2,4.5,4.5c0,2.5-2,4.5-4.5,4.5c-2.5,0-4.5-2-4.5-4.5
				C104.3,244.9,106.3,242.9,108.8,242.9 M108.8,241.9c-3,0-5.5,2.5-5.5,5.5c0,3,2.5,5.5,5.5,5.5c3,0,5.5-2.5,5.5-5.5
				C114.3,244.4,111.8,241.9,108.8,241.9L108.8,241.9z"/>
			<path fill="#FFFFFF" d="M122.8,242.9c2.5,0,4.5,2,4.5,4.5c0,2.5-2,4.5-4.5,4.5c-2.5,0-4.5-2-4.5-4.5
				C118.3,244.9,120.3,242.9,122.8,242.9 M122.8,241.9c-3,0-5.5,2.5-5.5,5.5c0,3,2.5,5.5,5.5,5.5c3,0,5.5-2.5,5.5-5.5
				C128.3,244.4,125.8,241.9,122.8,241.9L122.8,241.9z"/>
			<path fill="#FFFFFF" d="M136.8,242.9c2.5,0,4.5,2,4.5,4.5c0,2.5-2,4.5-4.5,4.5c-2.5,0-4.5-2-4.5-4.5
				C132.3,244.9,134.3,242.9,136.8,242.9 M136.8,241.9c-3,0-5.5,2.5-5.5,5.5c0,3,2.5,5.5,5.5,5.5c3,0,5.5-2.5,5.5-5.5
				C142.3,244.4,139.8,241.9,136.8,241.9L136.8,241.9z"/>
		</g>
		<g>
			<g>
				<path fill="#FFFFFF" d="M686.3,252.9c0,1.1-0.9,2-2,2h-37c-1.1,0-2-0.9-2-2v-11c0-1.1,0.9-2,2-2h37c1.1,0,2,0.9,2,2V252.9z"/>
			</g>
			<g>
				<path fill="#FFFFFF" d="M686.3,237.9h-41c-1.1,0-2,0.9-2,2v15c0,1.1,0.9,2,2,2h41c1.1,0,2-0.9,2-2v-15
					C688.3,238.8,687.4,237.9,686.3,237.9z M687.3,253.9c0,1.1-0.9,2-2,2h-39c-1.1,0-2-0.9-2-2v-13c0-1.1,0.9-2,2-2h39
					c1.1,0,2,0.9,2,2V253.9z"/>
				<path fill="#FFFFFF" d="M689.3,244v6.9c1.7-0.2,3-1.7,3-3.4C692.3,245.6,691,244.2,689.3,244z"/>
			</g>
		</g>
		<g>
			<path fill="#FFFFFF" d="M162.7,240.9c-0.9-0.6-1.9-0.9-3.1-0.9c-1,0-1.9,0.2-2.6,0.6c-0.7,0.4-1.3,0.9-1.8,1.5
				c-0.5,0.6-0.8,1.4-1,2.2c-0.2,0.8-0.3,1.7-0.3,2.6c0,1,0.1,1.9,0.3,2.8c0.2,0.9,0.6,1.6,1,2.3c0.5,0.6,1.1,1.2,1.8,1.5
				c0.7,0.4,1.6,0.6,2.6,0.6c0.8,0,1.4-0.1,2-0.4c0.6-0.2,1.1-0.6,1.5-1c0.4-0.4,0.8-1,1-1.6c0.2-0.6,0.4-1.3,0.4-2h2.3
				c-0.2,2.2-1,3.8-2.2,5c-1.3,1.2-3,1.8-5.2,1.8c-1.3,0-2.5-0.2-3.5-0.7c-1-0.5-1.8-1.1-2.5-1.9c-0.7-0.8-1.1-1.7-1.5-2.8
				c-0.3-1.1-0.5-2.3-0.5-3.5c0-1.2,0.2-2.4,0.5-3.5c0.4-1.1,0.9-2.1,1.5-2.9c0.7-0.8,1.5-1.5,2.5-1.9c1-0.5,2.2-0.7,3.5-0.7
				c0.9,0,1.7,0.1,2.5,0.4c0.8,0.2,1.5,0.6,2.1,1.1c0.6,0.5,1.1,1,1.6,1.7c0.4,0.7,0.7,1.5,0.8,2.4h-2.3
				C164.2,242.5,163.6,241.6,162.7,240.9z"/>
			<path fill="#FFFFFF" d="M178.9,255.9c-0.5,0-0.9-0.1-1.3-0.4c-0.3-0.3-0.5-0.8-0.5-1.5c-0.6,0.7-1.2,1.2-2,1.5
				c-0.7,0.3-1.5,0.4-2.4,0.4c-0.6,0-1.1-0.1-1.6-0.2c-0.5-0.1-0.9-0.3-1.3-0.6c-0.4-0.3-0.7-0.6-0.9-1.1c-0.2-0.4-0.3-1-0.3-1.6
				c0-0.7,0.1-1.3,0.4-1.7c0.2-0.4,0.6-0.8,0.9-1.1c0.4-0.3,0.8-0.5,1.3-0.6c0.5-0.1,1-0.3,1.5-0.4c0.6-0.1,1.1-0.2,1.6-0.3
				c0.5-0.1,0.9-0.1,1.3-0.2c0.4-0.1,0.7-0.3,0.9-0.5c0.2-0.2,0.3-0.5,0.3-0.9c0-0.4-0.1-0.8-0.3-1.1c-0.2-0.3-0.4-0.5-0.6-0.6
				c-0.3-0.1-0.6-0.2-0.9-0.3c-0.3,0-0.7-0.1-1-0.1c-0.9,0-1.6,0.2-2.2,0.5c-0.6,0.3-0.9,0.9-0.9,1.9h-2c0-0.8,0.2-1.4,0.5-1.9
				c0.3-0.5,0.7-1,1.2-1.3c0.5-0.3,1-0.6,1.7-0.7c0.6-0.1,1.3-0.2,2-0.2c0.6,0,1.1,0,1.7,0.1c0.6,0.1,1.1,0.2,1.5,0.5
				c0.4,0.2,0.8,0.6,1.1,1c0.3,0.4,0.4,1,0.4,1.8v6.4c0,0.5,0,0.8,0.1,1.1c0.1,0.2,0.2,0.3,0.6,0.3c0.2,0,0.4,0,0.6-0.1v1.6
				C180,255.8,179.5,255.9,178.9,255.9z M176,249.7c-0.4,0.1-0.9,0.2-1.3,0.2c-0.5,0.1-0.9,0.1-1.4,0.2c-0.5,0.1-0.9,0.2-1.2,0.3
				c-0.4,0.2-0.7,0.4-0.9,0.7c-0.2,0.3-0.3,0.7-0.3,1.2c0,0.3,0.1,0.6,0.2,0.9c0.1,0.2,0.3,0.4,0.5,0.6c0.2,0.1,0.5,0.2,0.8,0.3
				c0.3,0.1,0.6,0.1,0.9,0.1c0.7,0,1.2-0.1,1.7-0.3c0.5-0.2,0.9-0.4,1.2-0.7c0.3-0.3,0.5-0.6,0.7-0.9c0.1-0.3,0.2-0.6,0.2-0.9v-2.1
				C176.8,249.4,176.5,249.6,176,249.7z"/>
			<path fill="#FFFFFF" d="M184.1,243.2v2.6h0c0.5-1,1.1-1.8,1.8-2.2c0.7-0.5,1.6-0.7,2.7-0.7v2.2c-0.8,0-1.5,0.1-2.1,0.3
				c-0.6,0.2-1,0.6-1.4,1c-0.4,0.4-0.6,1-0.8,1.6c-0.2,0.6-0.2,1.3-0.2,2.1v5.5h-2v-12.4H184.1z"/>
			<path fill="#FFFFFF" d="M192.1,243.2v2.6h0c0.5-1,1.1-1.8,1.8-2.2c0.7-0.5,1.6-0.7,2.7-0.7v2.2c-0.8,0-1.5,0.1-2.1,0.3
				c-0.6,0.2-1,0.6-1.4,1c-0.4,0.4-0.6,1-0.8,1.6c-0.2,0.6-0.2,1.3-0.2,2.1v5.5h-2v-12.4H192.1z"/>
			<path fill="#FFFFFF" d="M198.4,241v-2.5h2v2.5H198.4z M200.4,243.2v12.4h-2v-12.4H200.4z"/>
			<path fill="#FFFFFF" d="M212.4,254.9c-0.9,0.7-2.1,1.1-3.5,1.1c-1,0-1.9-0.2-2.6-0.5c-0.7-0.3-1.3-0.8-1.8-1.3
				c-0.5-0.6-0.9-1.3-1.1-2.1c-0.2-0.8-0.4-1.7-0.4-2.6c0-0.9,0.1-1.8,0.4-2.6c0.3-0.8,0.7-1.5,1.2-2c0.5-0.6,1.1-1,1.8-1.3
				c0.7-0.3,1.5-0.5,2.3-0.5c1.1,0,2,0.2,2.7,0.7c0.7,0.5,1.3,1,1.8,1.7c0.4,0.7,0.7,1.5,0.9,2.3c0.2,0.8,0.2,1.6,0.2,2.4h-9.3
				c0,0.5,0,1.1,0.2,1.5c0.1,0.5,0.4,0.9,0.7,1.3c0.3,0.4,0.7,0.7,1.2,0.9s1.1,0.3,1.8,0.3c0.9,0,1.6-0.2,2.1-0.6
				c0.6-0.4,0.9-1,1.1-1.8h2C213.9,253.1,213.3,254.2,212.4,254.9z M211.9,246.9c-0.2-0.4-0.4-0.8-0.7-1.1c-0.3-0.3-0.7-0.6-1.1-0.7
				c-0.4-0.2-0.9-0.3-1.4-0.3c-0.5,0-1,0.1-1.4,0.3c-0.4,0.2-0.8,0.4-1.1,0.8c-0.3,0.3-0.5,0.7-0.7,1.1c-0.2,0.4-0.3,0.9-0.3,1.4
				h7.1C212.2,247.8,212,247.3,211.9,246.9z"/>
			<path fill="#FFFFFF" d="M218.3,243.2v2.6h0c0.5-1,1.1-1.8,1.8-2.2c0.7-0.5,1.6-0.7,2.7-0.7v2.2c-0.8,0-1.5,0.1-2.1,0.3
				c-0.6,0.2-1,0.6-1.4,1c-0.4,0.4-0.6,1-0.8,1.6c-0.2,0.6-0.2,1.3-0.2,2.1v5.5h-2v-12.4H218.3z"/>
		</g>
	</g>
	<circle fill="none" stroke="#FFFFFF" stroke-width="3" cx="130.9" cy="364.1" r="33"/>
	<g>
		<path fill="#FFFFFF" stroke="#FFFFFF" stroke-width="1.5" d="M118.7,361.6h2.1v7.9h-2.1V361.6z M129.8,361.6h2.2v7.9h-2.2V361.6z
			 M140.9,361.6h2.1v7.9h-2.1V361.6z"/>
	</g>
	<circle fill="none" stroke="#FFFFFF" stroke-width="3" cx="639.3" cy="364.1" r="33"/>
	<circle fill="none" stroke="#FFFFFF" stroke-width="3" cx="639.3" cy="353.6" r="9"/>
	<path fill="none" stroke="#FFFFFF" stroke-width="3" d="M653.7,383.5c0.4-8.4-6.3-15.3-14.7-15.2c-8.2,0.1-14.6,7.1-14.1,15.3"/>
	<path fill="none" stroke="#FFFFFF" stroke-width="3" d="M128.9,1272.4c2.2,3.6,4.2,7.4,6,11.2c1.3,2.6,2.2,5.4,2.4,8.3
		c0.4,4.9-3.1,9.3-8.4,9.3c-4.9,0-8.1-4-8.1-8.5c0-3.2,0.9-6.2,2.2-9.1C124.8,1279.7,126.7,1276,128.9,1272.4z"/>
	<circle fill="none" stroke="#FFFFFF" stroke-width="3" cx="129.1" cy="1286.4" r="33"/>
	<circle fill="none" stroke="#FFFFFF" stroke-width="3" cx="641.1" cy="1286.4" r="33"/>
	<path fill="none" stroke="#FFFFFF" stroke-width="3" d="M619.7,1297.8l0.3-20.8c0-3.1,2.2-6,5.3-6h31.5c3.1,0,5.2,2.8,5.2,6v20.8
		c0,3.1-2.1,5.3-5.2,5.3h-31.5C622.3,1303,619.7,1300.9,619.7,1297.8z"/>
	<circle fill="none" stroke="#FFFFFF" stroke-width="3" cx="641.1" cy="1288.4" r="8"/>
	<circle fill="#FFFFFF" stroke="#FFFFFF" cx="656" cy="1278.4" r="2"/>
	<g>
		<g opacity="0.2">
			<path fill="#4F4F4F" d="M382.3,1521.9c-37.2,0-67.5-30.3-67.5-67.5c0-37.2,30.3-67.5,67.5-67.5c37.2,0,67.5,30.3,67.5,67.5
				C449.7,1491.6,419.5,1521.9,382.3,1521.9 M382.3,1395.9c-32.2,0-58.5,26.2-58.5,58.5c0,32.2,26.2,58.5,58.5,58.5
				c32.2,0,58.5-26.2,58.5-58.5C440.7,1422.1,414.5,1395.9,382.3,1395.9"/>
			<path fill="#4F4F4F" d="M409.1,91.1"/>
			<path fill="#4F4F4F" d="M457.1,160.4"/>
			<rect x="510.2" y="0" fill="#4F4F4F" width="121.9" height="8"/>
			<rect x="0.4" y="363.8" fill="#4F4F4F" width="8" height="55"/>
			<rect x="0.4" y="216.6" fill="#4F4F4F" width="8" height="76"/>
			<rect x="0.4" y="488.8" fill="#4F4F4F" width="8" height="55"/>
			<g>
				<defs>
					<rect id="SVGID_41_" x="75.3" y="232.4" width="628.3" height="1134.1"/>
				</defs>
				<clipPath id="SVGID_6_">
					<use xlink:href="#SVGID_41_"  overflow="visible"/>
				</clipPath>
			</g>
			<path fill="#010101" d="M641.1,8H123.4c-63.2,0-115,51.7-115,115v1341.5c0,63.2,61.7,115,125,115h517.8c63.2,0,115-51.7,115-115
				V133C766.1,69.7,711.2,8,641.1,8z M702.1,1356.4H63.3V221.2h638.8V1356.4z"/>
		</g>
		<g opacity="0.2">
			<path fill="#010101" d="M641.3,7.4H123.5c-63.2,0-115,51.7-115,115v1331.4c0,63.2,51.7,115,115,115h517.8
				c63.2,0,115-51.7,115-115V122.4C756.2,59.1,704.5,7.4,641.3,7.4z M702.2,1355.8H62.5V220.3h639.7V1355.8z"/>
			<path fill="#4F4F4F" d="M382.3,1521.9c-37.2,0-67.5-30.3-67.5-67.5c0-37.2,30.3-67.5,67.5-67.5c37.2,0,67.5,30.3,67.5,67.5
				C449.7,1491.6,419.5,1521.9,382.3,1521.9 M382.3,1395.9c-32.2,0-58.5,26.2-58.5,58.5c0,32.2,26.2,58.5,58.5,58.5
				c32.2,0,58.5-26.2,58.5-58.5C440.7,1422.1,414.5,1395.9,382.3,1395.9"/>
			<path fill="#4F4F4F" d="M396.2,79.7c0-7.7-6.3-14-14-14c-7.7,0-14,6.3-14,14c0,7.7,6.3,14,14,14C390,93.6,396.2,87.4,396.2,79.7"
				/>
			<path fill="#4F4F4F" d="M444.2,148.9H320.3c-5,0-9-4-9-9c0-5,4-9,9-9h123.9c5,0,9,4,9,9C453.2,144.9,449.2,148.9,444.2,148.9"/>
			<polygon fill="#4F4F4F" points="632.2,0 510.2,0 510.2,8 645,8 			"/>
			<polygon fill="#4F4F4F" points="8.4,363.8 0.4,363.8 0.4,418.8 8.4,427.4 			"/>
			<polygon fill="#4F4F4F" points="8.4,216.6 0.4,216.6 0.4,292.5 8.4,301.1 			"/>
			<polygon fill="#4F4F4F" points="8.4,488.8 0.4,488.8 0.4,543.8 8.4,552.4 			"/>
			<g>
				<defs>
					<rect id="SVGID_43_" x="62.4" y="220.9" width="639.7" height="1135.5"/>
				</defs>
				<clipPath id="SVGID_10_">
					<use xlink:href="#SVGID_43_"  overflow="visible"/>
				</clipPath>
			</g>
		</g>
		<g>
			<path opacity="0.2" fill="#4F4F4F" d="M395.5,84.3c2-6.2,0.2-14.3-7.5-14.3c-7.7,0-14,3.4-14,11.1c0,3.4,1.3,12.6,8.3,12.6
				C389.4,93.6,393.6,89,395.5,84.3"/>
			<path opacity="0.2" fill="#4F4F4F" d="M444.2,148.9H326c-5,0-9-1.2-9-6.1c0-5,4-7.6,9-7.6H450c1.9-0.1,3.3,1.4,3.3,4.7
				C453.2,145.2,448.9,148.9,444.2,148.9"/>
		</g>
	</g>
	<g>
		<path fill="#5A4840" d="M601.8,644.8c0,32.9-19.1,44.3-42.6,44.3c-23.5,0-42.6-11.4-42.6-44.3c0-32.9,19.1-59.5,42.6-59.5
			C582.8,585.2,601.8,611.9,601.8,644.8z"/>
		<g>
			
				<path fill="#FAB768" stroke="#FAB768" stroke-width="40.8624" stroke-linecap="round" stroke-linejoin="round" stroke-miterlimit="10" d="
				M558.3,486.8c22.6,0,43.7,8.8,59.7,24.7"/>
		</g>
	</g>
	<g>
		<path fill="#5A4840" d="M245,644.8c0,32.9-19.1,44.3-42.6,44.3c-23.5,0-42.5-11.4-42.5-44.3c0-32.9,19-59.5,42.5-59.5
			C225.9,585.2,245,611.9,245,644.8z"/>
		<g>
			
				<path fill="#FAB768" stroke="#FAB768" stroke-width="40.8624" stroke-linecap="round" stroke-linejoin="round" stroke-miterlimit="10" d="
				M143.7,511.5c15.9-16,37.1-24.7,59.7-24.7"/>
		</g>
	</g>
	
		<path fill="none" stroke="#FAB768" stroke-width="40.8624" stroke-linecap="round" stroke-linejoin="round" stroke-miterlimit="10" d="
		M295.3,1132.7c48.6,48.6,127.3,48.6,175.9,0"/>
	<g>
		<g>
			<path fill="#FFFFFF" d="M332.2,829.1c0-1.3,0.5-2.3,1.6-3l7.7-7.4c0.5-0.5,1.2-0.8,2-0.8c0.9,0,1.7,0.2,2.4,0.7
				c0.7,0.5,1.1,1.1,1.1,1.9v49c0,0.8-0.4,1.4-1.2,1.9c-0.8,0.5-1.7,0.7-2.7,0.7c-1.1,0-2-0.2-2.8-0.7c-0.8-0.5-1.1-1.1-1.1-1.9
				v-41.1l-2.6,3.3c-0.5,0.5-1,0.7-1.6,0.7c-0.7,0-1.4-0.3-1.9-1C332.4,830.6,332.2,829.9,332.2,829.1z"/>
			<path fill="#FFFFFF" d="M357.6,869.5v-7.2c0-2.2,0.8-4.4,2.4-6.5c1.6-2.1,3.6-4,5.9-5.8l7.1-5.2c2.4-1.7,4.4-3.6,6-5.7
				c1.7-2.1,2.5-4.1,2.5-6.2c0-2.1-0.7-3.9-2-5.4c-1.4-1.6-3.3-2.3-6-2.3c-2.2,0-4,0.6-5.4,1.8c-1.4,1.2-2.1,3-2.1,5.4
				c0,0.8-0.4,1.5-1.1,2.1c-0.8,0.6-1.8,0.9-3,0.9c-2.4,0-3.6-1.5-3.6-4.4c0-3.8,1.5-7,4.5-9.4c3-2.4,6.5-3.7,10.7-3.7
				c4.4,0,8.1,1.4,11.2,4.1c3.1,2.8,4.6,6.3,4.6,10.7c0,3-0.8,5.7-2.5,8.3c-1.7,2.6-3.7,4.8-6,6.6c-2.3,1.8-4.7,3.5-7,5.1
				c-2.3,1.6-4.3,3.2-6,4.8c-1.7,1.6-2.5,3.2-2.5,4.7v2.8h21.8c0.7,0,1.3,0.3,1.8,1c0.5,0.7,0.8,1.5,0.8,2.4c0,0.9-0.3,1.8-0.8,2.5
				c-0.5,0.7-1.1,1.1-1.8,1.1H361c-0.8,0-1.6-0.2-2.3-0.7C358,870.8,357.6,870.2,357.6,869.5z"/>
			<path fill="#FFFFFF" d="M397.2,859.5c0-1.3,0.3-2.2,0.8-2.6c0.5-0.5,1.5-0.7,2.8-0.7c1.6,0,2.7,0.2,3.2,0.7
				c0.6,0.5,0.9,1.2,0.9,2.3c0,1.8,0.8,3.3,2.3,4.6c1.5,1.3,3.7,1.9,6.5,1.9c3.1,0,5.3-0.7,6.8-2.2c1.5-1.5,2.2-3.8,2.2-7V855
				c0-5.4-3-8.1-9-8.1c-1.7,0-2.5-1-2.5-3.1c0-2.1,0.8-3.1,2.5-3.1c2.5,0,4.4-0.6,5.7-1.7c1.3-1.1,2-3.3,2-6.4
				c0-5.1-2.5-7.6-7.4-7.6c-2.8,0-4.7,0.6-5.9,1.7c-1.2,1.2-1.8,2.6-1.8,4.3c0,2.1-1.2,3.2-3.7,3.2c-1.7,0-2.8-0.2-3.3-0.7
				c-0.5-0.5-0.8-1.5-0.8-2.9c0-1.3,0.2-2.7,0.7-4c0.5-1.3,1.3-2.7,2.4-4c1.1-1.3,2.7-2.4,4.9-3.3c2.1-0.8,4.6-1.3,7.5-1.3
				c9.9,0,14.9,4.4,14.9,13.2c0,3-0.5,5.6-1.6,7.7c-1.1,2.2-2.5,3.7-4.3,4.6c5,2,7.5,5.8,7.5,11.5v1.4c0,5.6-1.6,9.6-4.7,12.2
				c-3.1,2.6-7.2,3.9-12.2,3.9c-5.3,0-9.4-1.3-12.2-4S397.2,862.8,397.2,859.5z"/>
		</g>
		<g>
			<path fill="#FFFFFF" d="M337.3,912.4v-12.2c0-0.3,0.1-0.5,0.4-0.7c0.3-0.2,0.7-0.3,1.1-0.3c0.4,0,0.7,0.1,1,0.3
				c0.3,0.2,0.4,0.4,0.4,0.7v1.1c0.9-1.5,2.2-2.3,4-2.3c0.9,0,1.7,0.3,2.4,0.8c0.7,0.6,1.2,1.3,1.6,2.2c0.5-1,1.2-1.7,2-2.3
				c0.8-0.5,1.7-0.8,2.6-0.8c1.4,0,2.6,0.5,3.7,1.6c1,1.1,1.5,2.5,1.5,4.3v7.4c0,0.3-0.2,0.5-0.5,0.7c-0.3,0.2-0.7,0.3-1.1,0.3
				c-0.4,0-0.8-0.1-1.1-0.3c-0.3-0.2-0.5-0.5-0.5-0.7V905c0-1-0.3-1.7-0.8-2.3c-0.6-0.6-1.2-0.8-2-0.8s-1.4,0.3-2,0.8
				c-0.6,0.6-0.9,1.3-0.9,2.2v7.5c0,0.3-0.2,0.6-0.5,0.8c-0.3,0.2-0.7,0.3-1.1,0.3c-0.4,0-0.8-0.1-1.1-0.3c-0.3-0.2-0.5-0.4-0.5-0.8
				V905c0-0.9-0.3-1.6-0.8-2.2c-0.5-0.6-1.2-0.9-2-0.9c-0.8,0-1.4,0.3-2,0.8c-0.6,0.6-0.8,1.3-0.8,2.3v7.4c0,0.3-0.2,0.5-0.5,0.7
				c-0.3,0.2-0.7,0.3-1.1,0.3c-0.4,0-0.8-0.1-1.1-0.3C337.5,912.9,337.3,912.7,337.3,912.4z"/>
			<path fill="#FFFFFF" d="M363.1,916.1c0-1.4,0.8-2.5,2.3-3.2c-0.9-0.4-1.3-1.1-1.3-2c0-0.9,0.5-1.7,1.4-2.3
				c-1.2-0.9-1.8-2.2-1.8-3.8V904c0-1.4,0.5-2.6,1.5-3.5s2.4-1.4,4-1.4c1.4,0,2.6,0.3,3.5,1c0.6-1.3,1.2-2,2-2
				c0.4,0,0.7,0.1,0.9,0.3c0.2,0.2,0.4,0.5,0.4,0.7c0,0.3-0.2,0.6-0.5,0.8c-0.6,0.3-1.1,0.7-1.5,1.2c0.6,0.8,1,1.8,1,2.9v0.8
				c0,1.4-0.5,2.6-1.6,3.6c-1.1,0.9-2.4,1.4-4.1,1.4c-0.8,0-1.5-0.1-2.1-0.4c-0.4,0.3-0.6,0.5-0.6,0.8c0,0.4,0.3,0.7,0.9,0.9
				c0.6,0.2,1.4,0.3,2.3,0.4c0.9,0.1,1.8,0.2,2.7,0.4c0.9,0.2,1.7,0.6,2.3,1.2c0.6,0.6,0.9,1.5,0.9,2.5c0,1.5-0.6,2.6-1.8,3.3
				c-1.2,0.7-2.7,1.1-4.5,1.1s-3.3-0.4-4.6-1.1C363.7,918.4,363.1,917.4,363.1,916.1z M366,915.8c0,0.7,0.3,1.3,0.9,1.7
				s1.4,0.7,2.4,0.7c1,0,1.8-0.2,2.4-0.6c0.6-0.4,0.9-1,0.9-1.7c0-0.5-0.1-0.9-0.4-1.2s-0.7-0.5-1.2-0.7c-0.5-0.2-1-0.3-1.4-0.3
				c-0.4-0.1-0.9-0.1-1.6-0.1C366.7,914,366,914.8,366,915.8z M366.8,904.8c0,0.9,0.2,1.6,0.7,2.2s1.1,0.8,1.9,0.8
				c0.8,0,1.4-0.3,1.9-0.8c0.5-0.5,0.7-1.3,0.7-2.1V904c0-0.8-0.2-1.5-0.7-2.1c-0.5-0.5-1.1-0.8-1.9-0.8c-0.8,0-1.4,0.3-1.9,0.8
				c-0.5,0.6-0.7,1.2-0.7,2.1V904.8z"/>
			<path fill="#FFFFFF" d="M383,913.4c0-0.2,0-0.3,0.1-0.5l11-22c0.2-0.4,0.5-0.5,0.9-0.5c0.3,0,0.6,0.1,0.9,0.3
				c0.3,0.2,0.4,0.5,0.4,0.8c0,0.2,0,0.3-0.1,0.5l-11,22c-0.2,0.4-0.5,0.6-1,0.6c-0.3,0-0.6-0.1-0.8-0.3
				C383.1,913.9,383,913.7,383,913.4z"/>
			<path fill="#FFFFFF" d="M400.9,907.7V905c0-1.6,0.5-3,1.6-4.2c1-1.2,2.3-1.7,3.8-1.7c0.9,0,1.7,0.2,2.3,0.7
				c0.7,0.4,1.2,1,1.6,1.6v-9.5c0-0.3,0.2-0.5,0.5-0.7c0.3-0.2,0.7-0.3,1.1-0.3c0.5,0,0.8,0.1,1.1,0.3c0.3,0.2,0.4,0.4,0.4,0.7v20.6
				c0,0.3-0.2,0.5-0.5,0.7s-0.7,0.3-1.1,0.3c-0.4,0-0.7-0.1-1-0.3s-0.4-0.5-0.4-0.7v-1.1c-0.3,0.6-0.9,1.2-1.6,1.7
				c-0.8,0.5-1.6,0.7-2.5,0.7c-1.4,0-2.6-0.6-3.7-1.8C401.4,910.7,400.9,909.3,400.9,907.7z M404.1,907.7c0,0.8,0.3,1.5,0.9,2.2
				c0.6,0.6,1.3,1,2.1,1c0.8,0,1.5-0.3,2.1-0.9c0.6-0.6,1-1.1,1-1.6V905c0-0.9-0.3-1.7-0.9-2.2s-1.3-0.9-2.1-0.9
				c-0.8,0-1.5,0.3-2.1,1s-0.9,1.4-0.9,2.1V907.7z"/>
			<path fill="#FFFFFF" d="M420,912.4v-19.9c0-0.3,0.2-0.6,0.5-0.8c0.3-0.2,0.7-0.3,1.1-0.3c0.4,0,0.8,0.1,1.1,0.3
				c0.3,0.2,0.5,0.4,0.5,0.8v18.1h7.8c0.3,0,0.5,0.1,0.7,0.4c0.2,0.3,0.3,0.6,0.3,1s-0.1,0.7-0.3,1s-0.4,0.4-0.7,0.4h-9.6
				c-0.4,0-0.7-0.1-1-0.3C420.1,913,420,912.7,420,912.4z"/>
		</g>
		<g>
			<path fill="#FFFFFF" d="M292.2,781.9l7.7-8.1l2.1,2L292,786.5l-18.7-17.7l2.4-2.5L292.2,781.9z"/>
			<path fill="#FFFFFF" d="M314.9,765.8c-0.2,0.2-0.5,0.3-0.7,0.3s-0.4-0.1-0.7-0.2l-1.3-1.1c-0.1,0.6-0.3,1.2-0.4,1.8
				c-0.2,0.6-0.4,1.1-0.6,1.6c-0.3,0.5-0.6,1-0.9,1.4c-0.4,0.4-0.8,0.9-1.4,1.3c-0.6,0.4-1.2,0.8-1.8,1s-1.2,0.3-1.8,0.3
				c-0.6,0-1.2-0.2-1.8-0.5c-0.6-0.3-1.1-0.8-1.6-1.5c-0.4-0.6-0.7-1.2-0.8-2s0.1-1.6,0.5-2.6c0.4-0.9,1.1-2,2-3.1
				c0.9-1.1,2.2-2.3,3.8-3.6l-0.9-1.1c-0.9-1.1-1.7-1.8-2.7-2c-0.9-0.2-1.9,0-2.8,0.8c-0.6,0.5-1.1,1-1.4,1.4
				c-0.3,0.5-0.5,0.9-0.7,1.4c-0.2,0.4-0.3,0.8-0.4,1.1c-0.1,0.3-0.3,0.6-0.5,0.7c-0.2,0.1-0.4,0.2-0.5,0.2c-0.2,0-0.4,0-0.6-0.1
				l-1.1-0.5c0.2-1.4,0.6-2.6,1.3-3.7c0.6-1.1,1.5-2.1,2.6-2.9c0.8-0.6,1.6-1,2.5-1.2c0.8-0.2,1.6-0.2,2.4-0.1s1.6,0.5,2.3,1
				c0.7,0.5,1.4,1.2,2,2l7.1,9.3L314.9,765.8z M308.3,768.4c0.4-0.3,0.8-0.7,1.1-1.1c0.3-0.4,0.6-0.8,0.8-1.2
				c0.2-0.4,0.4-0.9,0.5-1.3c0.1-0.5,0.2-1,0.3-1.5l-2.3-3c-1.1,0.9-2.1,1.8-2.8,2.6s-1.2,1.5-1.6,2.1c-0.3,0.6-0.5,1.2-0.5,1.7
				c0,0.5,0.2,1,0.5,1.4c0.3,0.4,0.6,0.7,0.9,0.8c0.3,0.2,0.7,0.3,1,0.3c0.3,0,0.7,0,1.1-0.2C307.6,768.8,308,768.6,308.3,768.4z"/>
			<path fill="#FFFFFF" d="M323.8,742.9c0,0.3-0.1,0.5-0.4,0.7c-0.2,0.1-0.4,0.1-0.6,0.1s-0.6,0-0.9,0c-0.4,0-0.8,0.1-1.3,0.2
				c-0.5,0.1-1,0.3-1.5,0.6c-0.5,0.3-0.9,0.5-1.2,0.9c-0.3,0.3-0.5,0.7-0.7,1c-0.2,0.4-0.2,0.7-0.2,1.1c0,0.4,0.1,0.7,0.3,1
				c0.2,0.4,0.5,0.7,0.9,0.8c0.4,0.1,0.8,0.2,1.3,0.2c0.5,0,1-0.1,1.6-0.2c0.6-0.1,1.2-0.2,1.8-0.3c0.6-0.1,1.2-0.2,1.8-0.2
				c0.6-0.1,1.2,0,1.8,0.1c0.6,0.1,1.1,0.3,1.6,0.7c0.5,0.3,0.9,0.8,1.2,1.5c0.4,0.7,0.6,1.5,0.7,2.3c0.1,0.8,0,1.5-0.3,2.3
				c-0.3,0.7-0.7,1.4-1.3,2.1c-0.6,0.7-1.4,1.3-2.4,1.8c-1.1,0.6-2.2,1-3.3,1.1c-1.1,0.1-2.1,0.1-3.1-0.2l0.1-1.4
				c0-0.2,0.1-0.3,0.1-0.5s0.2-0.3,0.4-0.4c0.2-0.1,0.4-0.1,0.7-0.1c0.3,0,0.6,0.1,1,0.1c0.4,0,0.9,0,1.4-0.1s1.1-0.3,1.7-0.7
				c0.5-0.3,1-0.6,1.3-1c0.3-0.4,0.6-0.7,0.7-1.1c0.1-0.4,0.2-0.8,0.2-1.2c0-0.4-0.2-0.8-0.3-1.1c-0.2-0.4-0.6-0.7-1-0.9
				s-0.8-0.2-1.3-0.2c-0.5,0-1,0.1-1.6,0.2c-0.6,0.1-1.2,0.2-1.8,0.3c-0.6,0.1-1.2,0.2-1.8,0.3c-0.6,0.1-1.2,0-1.8-0.1
				c-0.6-0.1-1.1-0.4-1.6-0.7c-0.5-0.4-0.9-0.9-1.3-1.6c-0.3-0.6-0.5-1.3-0.6-2c-0.1-0.7,0.1-1.4,0.3-2.1s0.7-1.4,1.2-2
				c0.6-0.6,1.3-1.2,2.2-1.7c1.1-0.6,2.1-0.9,3.1-1c1-0.1,2-0.1,2.9,0.2L323.8,742.9z"/>
			<path fill="#FFFFFF" d="M342.7,751.9c-1.3,0.5-2.5,0.5-3.5,0c-1-0.5-1.8-1.4-2.3-2.8l-3.9-10.4l-2.1,0.8c-0.2,0.1-0.4,0.1-0.5,0
				c-0.2-0.1-0.3-0.2-0.4-0.4l-0.4-1.2l2.7-1.4l-1.3-5.5c0-0.2,0-0.3,0.1-0.5c0.1-0.2,0.2-0.3,0.4-0.3l1.5-0.6l2.2,5.9l4.9-1.9
				l0.8,2.2l-4.9,1.9l3.9,10.2c0.3,0.7,0.6,1.2,1.1,1.4c0.5,0.2,1,0.2,1.5,0c0.3-0.1,0.6-0.3,0.8-0.4c0.2-0.2,0.4-0.3,0.5-0.5
				c0.1-0.2,0.2-0.3,0.3-0.4c0.1-0.1,0.2-0.2,0.3-0.2c0.2-0.1,0.3,0,0.5,0.1l1.4,1.1c-0.3,0.7-0.8,1.3-1.4,1.8
				C344.1,751.2,343.4,751.6,342.7,751.9z"/>
			<path fill="#FFFFFF" d="M365.3,735l1.1,10.7l-3.5,0.4l-2.7-25.7l7.3-0.8c1.6-0.2,3-0.1,4.3,0.1c1.2,0.2,2.2,0.6,3.1,1.1
				s1.5,1.2,1.9,2.1s0.7,1.8,0.9,2.9c0.1,0.9,0,1.8-0.2,2.6c-0.2,0.8-0.5,1.6-1,2.3c-0.5,0.7-1.1,1.3-1.8,1.8
				c-0.7,0.5-1.6,1-2.6,1.3c0.5,0.2,0.9,0.6,1.3,1l8.5,9.4l-3.1,0.3c-0.6,0.1-1.1-0.1-1.5-0.6l-7.6-8.5c-0.2-0.3-0.5-0.4-0.7-0.5
				c-0.2-0.1-0.6-0.1-1.1-0.1L365.3,735z M365,732.4l3.7-0.4c1-0.1,1.9-0.3,2.6-0.6s1.4-0.7,1.8-1.2c0.5-0.5,0.8-1.1,1-1.7
				c0.2-0.6,0.3-1.3,0.2-2.1c-0.2-1.5-0.8-2.6-1.9-3.3c-1.1-0.7-2.6-0.9-4.6-0.7l-3.8,0.4L365,732.4z"/>
			<path fill="#FFFFFF" d="M395.2,726.5c1.1,0.1,2.1,0.4,3,0.8c0.9,0.4,1.7,1,2.3,1.8s1.1,1.6,1.4,2.7c0.3,1,0.4,2.2,0.3,3.5
				c0,0.5-0.1,0.8-0.2,1c-0.1,0.2-0.3,0.2-0.6,0.2l-12.1-1c-0.1,1.1,0,2.2,0.2,3c0.2,0.9,0.6,1.6,1,2.2s1,1.1,1.7,1.4
				c0.7,0.3,1.4,0.5,2.3,0.6c0.8,0.1,1.5,0,2.1-0.1c0.6-0.1,1.1-0.3,1.5-0.5c0.4-0.2,0.8-0.4,1.1-0.5c0.3-0.2,0.5-0.2,0.8-0.2
				c0.3,0,0.5,0.1,0.6,0.4l0.8,1.2c-0.4,0.4-0.9,0.8-1.5,1.1s-1.2,0.5-1.8,0.7s-1.3,0.3-2,0.4c-0.7,0.1-1.3,0.1-2,0
				c-1.3-0.1-2.4-0.4-3.4-0.9c-1-0.5-1.9-1.2-2.6-2.1c-0.7-0.9-1.2-1.9-1.6-3.2s-0.4-2.6-0.3-4.2c0.1-1.3,0.4-2.4,0.9-3.5
				c0.5-1.1,1.1-2,1.9-2.7c0.8-0.7,1.7-1.3,2.8-1.7C392.6,726.6,393.8,726.4,395.2,726.5z M395,728.9c-1.5-0.1-2.8,0.2-3.8,1
				c-1,0.8-1.6,2-2,3.6l9.9,0.8c0.1-0.7,0-1.4-0.1-2.1c-0.2-0.6-0.4-1.2-0.8-1.7c-0.4-0.5-0.8-0.9-1.4-1.2
				C396.4,729.1,395.8,728.9,395,728.9z"/>
			<path fill="#FFFFFF" d="M418,749.5c-0.3-0.1-0.5-0.2-0.7-0.3c-0.1-0.1-0.2-0.4-0.2-0.7l0.1-1.7c-0.6,0.3-1.1,0.6-1.7,0.8
				c-0.5,0.2-1.1,0.4-1.6,0.5c-0.5,0.1-1.1,0.1-1.7,0.1c-0.6,0-1.2-0.1-1.9-0.3c-0.7-0.2-1.3-0.4-1.9-0.8c-0.6-0.3-1-0.8-1.4-1.3
				c-0.3-0.5-0.6-1.1-0.7-1.7c-0.1-0.7-0.1-1.4,0.1-2.2c0.2-0.7,0.5-1.3,1.1-1.9s1.3-1,2.3-1.2c1-0.3,2.2-0.4,3.7-0.4
				c1.5,0,3.2,0.3,5.2,0.7l0.3-1.4c0.3-1.4,0.3-2.5-0.1-3.3c-0.4-0.9-1.2-1.4-2.3-1.7c-0.8-0.2-1.4-0.3-2-0.2
				c-0.6,0.1-1.1,0.2-1.5,0.3c-0.4,0.1-0.8,0.3-1.1,0.4c-0.3,0.1-0.6,0.1-0.9,0.1c-0.2-0.1-0.4-0.2-0.5-0.3
				c-0.1-0.1-0.2-0.3-0.3-0.5l-0.3-1.1c1.2-0.7,2.4-1.1,3.7-1.3s2.6-0.1,3.9,0.3c1,0.3,1.8,0.6,2.5,1.2c0.7,0.5,1.2,1.1,1.6,1.9
				c0.4,0.7,0.6,1.5,0.7,2.4c0.1,0.9,0,1.8-0.3,2.8l-2.9,11.3L418,749.5z M411.8,745.9c0.5,0.1,1.1,0.2,1.5,0.2c0.5,0,0.9,0,1.4-0.1
				s0.9-0.3,1.3-0.5c0.4-0.2,0.9-0.4,1.3-0.7l0.9-3.7c-1.4-0.3-2.7-0.5-3.7-0.6c-1.1-0.1-1.9,0-2.6,0.1s-1.3,0.4-1.6,0.7
				c-0.4,0.3-0.6,0.7-0.8,1.2c-0.1,0.5-0.1,0.9-0.1,1.3c0.1,0.4,0.2,0.7,0.4,1c0.2,0.3,0.5,0.5,0.8,0.7
				C411,745.7,411.4,745.8,411.8,745.9z"/>
			<path fill="#FFFFFF" d="M437.6,757.3c-0.4-0.2-0.6-0.5-0.5-1l0.6-2.1c-1.1,0.5-2.2,0.9-3.4,1c-1.1,0.1-2.3-0.1-3.5-0.6
				c-1-0.4-1.7-1-2.3-1.7c-0.6-0.7-1-1.6-1.3-2.5s-0.3-2-0.1-3.2c0.2-1.2,0.6-2.5,1.2-3.9c0.5-1.2,1.2-2.3,2-3.2
				c0.8-0.9,1.7-1.6,2.6-2.1c1-0.5,2-0.8,3.1-0.8c1.1,0,2.2,0.2,3.3,0.7c1,0.5,1.8,1,2.4,1.7c0.6,0.7,1,1.4,1.3,2.3l4.1-9.2l2.9,1.3
				l-10.9,24.2L437.6,757.3z M432.9,752.7c1,0.4,1.9,0.6,2.8,0.5s1.9-0.4,2.8-1l3.6-8c-0.2-1-0.6-1.7-1.1-2.3
				c-0.5-0.6-1.1-1-1.9-1.4c-1.5-0.7-3-0.7-4.3,0.1c-1.3,0.7-2.5,2.1-3.4,4.2c-0.5,1.1-0.8,2.1-1,2.9s-0.2,1.6,0,2.3
				s0.4,1.2,0.8,1.7C431.7,752,432.2,752.4,432.9,752.7z"/>
			<path fill="#FFFFFF" d="M457.8,748.1l-9.7,15.5l-2.7-1.7l9.7-15.5L457.8,748.1z M461.4,743.6c-0.2,0.3-0.4,0.5-0.6,0.6
				c-0.2,0.2-0.5,0.3-0.8,0.3c-0.3,0.1-0.6,0.1-0.9,0c-0.3,0-0.6-0.2-0.9-0.3s-0.5-0.4-0.6-0.6c-0.2-0.2-0.3-0.5-0.3-0.8
				s-0.1-0.6,0-0.9c0-0.3,0.1-0.6,0.3-0.8c0.2-0.3,0.4-0.5,0.6-0.7s0.5-0.3,0.8-0.4c0.3-0.1,0.6-0.1,0.9,0c0.3,0,0.6,0.1,0.8,0.3
				c0.3,0.2,0.5,0.4,0.7,0.6s0.3,0.5,0.4,0.8c0.1,0.3,0.1,0.6,0,0.9C461.7,743,461.6,743.3,461.4,743.6z"/>
			<path fill="#FFFFFF" d="M454.2,767.4l11.7-14l1.5,1.2c0.4,0.3,0.4,0.6,0.2,1.1l-1.1,1.7c1.2-0.2,2.3-0.1,3.4,0.1
				c1.1,0.2,2.1,0.7,3.1,1.6c0.8,0.6,1.3,1.3,1.7,2.1c0.4,0.7,0.6,1.5,0.6,2.3c0,0.8-0.2,1.6-0.5,2.4s-0.8,1.6-1.5,2.4l-7.4,8.9
				l-2.5-2.1l7.4-8.9c0.9-1.1,1.3-2.1,1.3-3.1c0-1-0.5-1.9-1.5-2.7c-0.7-0.6-1.6-1-2.5-1.2c-0.9-0.2-1.9-0.2-2.9,0l-8.6,10.3
				L454.2,767.4z"/>
			<path fill="#FFFFFF" d="M488.7,774.6c0.5,0.6,0.9,1.2,1.2,1.9c0.3,0.6,0.5,1.3,0.6,1.9l3.2,3.8l-0.9,0.8
				c-0.3,0.3-0.7,0.2-1.1-0.1l-1.6-1.4c-0.3,0.8-0.9,1.5-1.6,2.2c-0.7,0.6-1.4,1-2.2,1.2c-0.8,0.2-1.6,0.3-2.3,0.1s-1.5-0.4-2.3-0.9
				c-0.8-0.5-1.5-1.1-2.1-1.8c-0.6-0.7-1-1.3-1.3-2c-0.4-0.1-0.8-0.2-1.2-0.2c-0.3,0-0.6,0.1-0.8,0.3c-0.3,0.3-0.5,0.6-0.4,1
				c0.1,0.4,0.2,0.9,0.5,1.4c0.3,0.5,0.7,1,1.1,1.6c0.5,0.6,0.9,1.2,1.4,1.8c0.5,0.6,0.9,1.3,1.3,1.9c0.4,0.6,0.6,1.3,0.8,1.9
				c0.1,0.6,0.1,1.3,0,1.9c-0.2,0.6-0.6,1.2-1.2,1.7c-0.6,0.5-1.3,0.8-2.1,1c-0.8,0.2-1.7,0.2-2.6,0c-0.9-0.2-1.8-0.6-2.8-1.2
				s-1.9-1.4-2.7-2.4c-0.9-1-1.5-2-2-2.9c-0.4-0.9-0.7-1.8-0.8-2.6c-0.1-0.8,0-1.5,0.2-2.1c0.2-0.6,0.6-1.1,1.1-1.6
				c0.7-0.6,1.4-0.9,2.3-0.8c0.8,0,1.7,0.3,2.6,0.8c-0.2-0.6-0.2-1.1-0.1-1.6c0.1-0.5,0.4-1,0.9-1.4c0.2-0.2,0.4-0.3,0.7-0.4
				c0.3-0.1,0.6-0.2,0.9-0.2c0.3,0,0.7,0,1.1,0c0.4,0.1,0.8,0.2,1.2,0.3c-0.2-1-0.1-2,0.2-2.9c0.3-0.9,0.9-1.7,1.7-2.5
				c0.7-0.6,1.4-1,2.2-1.2c0.8-0.2,1.6-0.2,2.3-0.1c0.8,0.1,1.6,0.4,2.3,0.9S488,773.8,488.7,774.6z M477.5,791.6
				c0.3-0.3,0.5-0.6,0.6-1s0-0.8-0.2-1.2c-0.2-0.4-0.4-0.9-0.7-1.3c-0.3-0.5-0.7-1-1-1.5c-0.4-0.5-0.8-1-1.2-1.5
				c-0.4-0.5-0.8-1-1.1-1.5c-0.7-0.3-1.3-0.5-2-0.5s-1.2,0.2-1.7,0.6c-0.3,0.3-0.5,0.6-0.7,1c-0.1,0.4-0.2,0.8-0.1,1.3
				s0.3,1,0.6,1.6c0.3,0.6,0.8,1.2,1.3,1.9c0.6,0.7,1.1,1.2,1.7,1.6c0.6,0.4,1.1,0.7,1.6,0.9c0.5,0.2,1,0.2,1.5,0.2
				S477.2,791.9,477.5,791.6z M481.3,780.8c0.4,0.5,0.9,0.9,1.3,1.1c0.5,0.3,0.9,0.4,1.4,0.5s0.9,0,1.4-0.2c0.5-0.2,0.9-0.4,1.3-0.8
				c0.8-0.7,1.3-1.6,1.4-2.5c0.1-0.9-0.3-1.9-1.2-2.9c-0.8-1-1.7-1.5-2.7-1.6c-0.9-0.1-1.8,0.2-2.7,1c-0.4,0.3-0.7,0.7-1,1.2
				s-0.4,0.9-0.4,1.3s0,0.9,0.2,1.4C480.6,779.8,480.9,780.3,481.3,780.8z"/>
		</g>
		<g>
			<path fill="#FFFFFF" d="M298.6,950c0.7,0.7,1.3,1.5,1.7,2.4c0.4,0.9,0.6,1.7,0.7,2.6c0,0.9-0.1,1.7-0.5,2.6
				c-0.3,0.9-0.9,1.6-1.7,2.4c-0.7,0.6-1.3,1.1-2.1,1.5c-0.7,0.3-1.5,0.6-2.4,0.7c-0.8,0.2-1.7,0.2-2.6,0.3c-0.9,0-1.8,0-2.8,0
				l-9.2-0.1c0.4,0.2,0.8,0.5,1.2,0.8c0.4,0.3,0.7,0.6,1,0.9l5.7,5.9c0.2,0.2,0.3,0.5,0.3,0.8c0,0.3-0.1,0.5-0.3,0.7l-1.3,1.3
				L275,961.1l0.7-0.7c0.2-0.1,0.3-0.3,0.6-0.4s0.5-0.1,0.7-0.1l11.1,0.2c0.9,0,1.8,0,2.6,0c0.8,0,1.6-0.1,2.3-0.3
				c0.7-0.2,1.3-0.4,1.9-0.7s1.1-0.7,1.7-1.2c0.5-0.5,0.9-1,1.1-1.6s0.3-1.1,0.3-1.6s-0.2-1-0.4-1.5c-0.2-0.5-0.6-1-1-1.4
				c-0.4-0.4-0.9-0.8-1.4-1s-1-0.4-1.5-0.5c-0.5-0.1-1,0-1.5,0.1c-0.5,0.1-1,0.3-1.5,0.6c-0.4,0.2-0.7,0.2-1,0.2
				c-0.3-0.1-0.5-0.3-0.8-0.6l-0.9-1.3c0.9-0.7,1.8-1.1,2.8-1.4s1.9-0.3,2.8-0.2s1.8,0.4,2.6,0.8C297.1,948.7,297.8,949.3,298.6,950
				z"/>
			<path fill="#FFFFFF" d="M312.9,977.6c-1.2,1.7-2.5,3.1-3.8,4.1c-1.3,1-2.5,1.7-3.8,2c-1.2,0.4-2.4,0.4-3.6,0.2
				c-1.2-0.2-2.3-0.7-3.3-1.4c-1-0.7-1.8-1.6-2.4-2.6c-0.6-1-0.9-2.2-0.9-3.5c0-1.3,0.2-2.7,0.7-4.2c0.5-1.5,1.4-3.2,2.7-4.9
				c1.2-1.7,2.5-3.1,3.8-4.1s2.5-1.7,3.8-2.1c1.2-0.4,2.4-0.4,3.6-0.2c1.2,0.2,2.2,0.7,3.3,1.4c1,0.7,1.8,1.6,2.4,2.6
				c0.6,1,0.9,2.2,0.9,3.5s-0.2,2.7-0.8,4.2S314.1,975.8,312.9,977.6z M310.3,975.7c1.1-1.5,1.9-2.9,2.4-4.1
				c0.5-1.2,0.7-2.3,0.8-3.2c0-0.9-0.1-1.7-0.5-2.4c-0.4-0.7-0.9-1.2-1.5-1.7c-0.6-0.4-1.3-0.7-2-0.9c-0.8-0.1-1.6,0-2.4,0.3
				c-0.9,0.3-1.8,0.9-2.8,1.7c-1,0.8-2,2-3.1,3.5c-1.1,1.5-1.9,2.9-2.4,4.1c-0.5,1.2-0.7,2.3-0.8,3.2c0,0.9,0.1,1.7,0.5,2.4
				c0.4,0.7,0.9,1.2,1.5,1.7c0.6,0.4,1.3,0.7,2,0.9c0.8,0.1,1.6,0,2.5-0.3c0.9-0.3,1.8-0.9,2.8-1.7
				C308.2,978.4,309.2,977.2,310.3,975.7z"/>
			<path fill="#FFFFFF" d="M338.1,994c0,0.3,0,0.6,0.1,1c0.2-0.3,0.4-0.5,0.6-0.7c0.2-0.2,0.4-0.5,0.7-0.7l12.7-11.5
				c0.2-0.2,0.4-0.3,0.6-0.3s0.4,0,0.7,0.1l2.3,0.8l-8,23l-2.7-0.9l5.9-16.9c0.1-0.2,0.2-0.5,0.3-0.7c0.1-0.3,0.2-0.5,0.3-0.8
				L338.6,998c-0.4,0.4-0.9,0.5-1.4,0.3l-0.4-0.2c-0.5-0.2-0.8-0.5-0.9-1.1l-3.1-17.2c-0.1,0.3-0.1,0.6-0.2,0.8
				c-0.1,0.3-0.2,0.5-0.2,0.7l-5.9,16.9l-2.7-0.9l8-23l2.3,0.8c0.3,0.1,0.5,0.2,0.6,0.3s0.2,0.3,0.3,0.6l3,16.9
				C338,993.3,338.1,993.6,338.1,994z"/>
			<path fill="#FFFFFF" d="M363.4,990.8l-2.9,17l-3-0.5l2.9-17L363.4,990.8z M364.9,985.6c0,0.3-0.2,0.6-0.3,0.8
				c-0.2,0.2-0.4,0.4-0.6,0.6c-0.2,0.2-0.5,0.3-0.8,0.3c-0.3,0.1-0.6,0.1-0.9,0c-0.3,0-0.6-0.2-0.8-0.3c-0.2-0.2-0.4-0.3-0.6-0.6
				s-0.3-0.5-0.3-0.7c-0.1-0.3-0.1-0.6,0-0.8c0-0.3,0.2-0.6,0.3-0.8c0.2-0.2,0.3-0.4,0.6-0.6c0.2-0.2,0.5-0.3,0.7-0.3s0.6-0.1,0.8,0
				c0.3,0,0.6,0.2,0.8,0.3c0.2,0.2,0.4,0.3,0.6,0.6c0.2,0.2,0.3,0.5,0.4,0.8C365,985,365,985.3,364.9,985.6z"/>
			<path fill="#FFFFFF" d="M368.8,1009l0.9-17.2l1.8,0.1c0.4,0,0.7,0.2,0.8,0.7l0.1,1.9c0.8-0.8,1.7-1.4,2.6-1.9s2-0.7,3.2-0.6
				c0.9,0,1.8,0.2,2.5,0.6c0.7,0.3,1.3,0.8,1.7,1.4s0.8,1.3,1,2.1s0.3,1.7,0.2,2.7l-0.6,11l-3-0.2l0.6-11c0.1-1.3-0.2-2.3-0.7-3.1
				c-0.6-0.7-1.4-1.2-2.7-1.2c-0.9,0-1.8,0.1-2.6,0.5c-0.8,0.4-1.5,0.9-2.2,1.6l-0.6,12.7L368.8,1009z"/>
			<path fill="#FFFFFF" d="M392.8,992l1.2,10.9c0.1,1.3,0.5,2.3,1.2,2.9c0.7,0.6,1.6,0.9,2.8,0.8c0.9-0.1,1.7-0.4,2.4-0.9
				s1.4-1.2,2-2l-1.4-12.6l3-0.3l1.8,17.1l-1.8,0.2c-0.4,0-0.7-0.1-0.9-0.5l-0.4-1.8c-0.7,0.9-1.4,1.7-2.3,2.3
				c-0.9,0.6-1.9,1-3.1,1.1c-0.9,0.1-1.8,0-2.5-0.2c-0.7-0.2-1.4-0.6-1.9-1.1s-1-1.2-1.3-1.9c-0.3-0.8-0.5-1.6-0.6-2.6l-1.2-10.9
				L392.8,992z"/>
			<path fill="#FFFFFF" d="M419.4,1005.3c-1.3,0.3-2.4,0.2-3.3-0.4c-0.9-0.6-1.5-1.5-1.8-2.9l-2.5-10.2l-2,0.5c-0.2,0-0.3,0-0.5,0
				c-0.1-0.1-0.2-0.2-0.3-0.4l-0.3-1.2l2.7-1l-0.6-5.3c0-0.2,0-0.3,0.1-0.5s0.2-0.2,0.4-0.3l1.5-0.4l1.4,5.8l4.8-1.2l0.5,2.1
				l-4.8,1.2l2.4,10c0.2,0.7,0.5,1.2,0.9,1.4s0.9,0.3,1.4,0.2c0.3-0.1,0.6-0.2,0.8-0.3s0.4-0.3,0.5-0.4c0.1-0.1,0.3-0.3,0.4-0.4
				c0.1-0.1,0.2-0.2,0.3-0.2c0.2,0,0.3,0,0.5,0.2l1.2,1.2c-0.4,0.6-0.9,1.1-1.6,1.6C420.8,1004.8,420.1,1005.1,419.4,1005.3z"/>
			<path fill="#FFFFFF" d="M429.7,983.3c1-0.4,1.9-0.6,2.9-0.5c0.9,0,1.8,0.2,2.7,0.6c0.8,0.4,1.6,0.9,2.3,1.7s1.2,1.7,1.7,2.9
				c0.2,0.4,0.2,0.8,0.2,0.9c0,0.2-0.2,0.3-0.5,0.4l-10.7,4.1c0.4,1,0.9,1.8,1.4,2.5c0.5,0.7,1.1,1.1,1.8,1.5c0.6,0.3,1.3,0.5,2,0.5
				c0.7,0,1.4-0.1,2.2-0.4c0.7-0.3,1.3-0.6,1.7-1c0.5-0.4,0.8-0.7,1.1-1c0.3-0.3,0.5-0.6,0.7-0.9s0.4-0.4,0.5-0.5
				c0.2-0.1,0.4-0.1,0.6,0.1l1.2,0.7c-0.2,0.6-0.5,1.1-0.8,1.6c-0.4,0.5-0.8,1-1.3,1.4c-0.5,0.4-1,0.8-1.5,1.1s-1.1,0.6-1.7,0.8
				c-1.1,0.4-2.2,0.6-3.3,0.6c-1.1,0-2.1-0.3-3.1-0.7c-1-0.5-1.8-1.2-2.6-2.1c-0.8-0.9-1.5-2.1-2-3.5c-0.4-1.1-0.7-2.2-0.7-3.3
				c0-1.1,0.1-2.1,0.5-3.1c0.4-1,0.9-1.8,1.7-2.6S428.6,983.8,429.7,983.3z M430.6,985.4c-1.4,0.5-2.3,1.3-2.8,2.4
				c-0.5,1.1-0.5,2.4-0.2,3.8l8.8-3.4c-0.3-0.7-0.6-1.2-1-1.7c-0.4-0.5-0.8-0.8-1.4-1.1c-0.5-0.3-1.1-0.4-1.6-0.4
				C431.9,985,431.2,985.2,430.6,985.4z"/>
			<path fill="#FFFFFF" d="M451.2,976.3c0,0.3-0.1,0.5-0.4,0.6c-0.1,0.1-0.3,0.1-0.6,0.1c-0.2,0-0.5,0-0.9,0c-0.3,0-0.7,0.1-1.2,0.2
				c-0.4,0.1-0.9,0.3-1.4,0.6c-0.4,0.2-0.8,0.5-1.1,0.8c-0.3,0.3-0.5,0.6-0.7,1c-0.1,0.3-0.2,0.7-0.2,1c0,0.3,0.1,0.7,0.3,1
				c0.2,0.4,0.5,0.6,0.9,0.8c0.4,0.1,0.8,0.2,1.3,0.2c0.5,0,1-0.1,1.5-0.2c0.5-0.1,1.1-0.2,1.7-0.3s1.2-0.2,1.7-0.3
				c0.6-0.1,1.1,0,1.7,0c0.5,0.1,1,0.3,1.5,0.6c0.5,0.3,0.9,0.8,1.2,1.4c0.4,0.7,0.6,1.4,0.7,2.1c0.1,0.7,0,1.4-0.2,2.1
				c-0.2,0.7-0.7,1.4-1.2,2s-1.3,1.2-2.2,1.7c-1,0.6-2.1,0.9-3.1,1.1c-1,0.1-2,0.1-2.9-0.1l0.1-1.4c0-0.2,0-0.3,0.1-0.5
				c0.1-0.1,0.2-0.2,0.4-0.3c0.2-0.1,0.4-0.1,0.7-0.1c0.3,0,0.6,0,1,0.1s0.8,0,1.3-0.1c0.5-0.1,1-0.3,1.6-0.6c0.5-0.3,0.9-0.6,1.2-1
				c0.3-0.3,0.5-0.7,0.7-1.1s0.2-0.7,0.1-1.1s-0.2-0.7-0.3-1.1c-0.2-0.4-0.5-0.7-0.9-0.8c-0.4-0.1-0.8-0.2-1.3-0.2
				c-0.5,0-1,0.1-1.5,0.2c-0.5,0.1-1.1,0.2-1.7,0.3c-0.6,0.1-1.2,0.2-1.7,0.3c-0.6,0.1-1.1,0-1.7-0.1c-0.5-0.1-1-0.3-1.5-0.6
				c-0.5-0.3-0.9-0.8-1.2-1.5c-0.3-0.6-0.5-1.2-0.6-1.9s0-1.3,0.3-2c0.2-0.7,0.6-1.3,1.1-1.9c0.5-0.6,1.2-1.1,2.1-1.6
				c1-0.6,2-0.9,2.9-1s1.9-0.1,2.8,0.1L451.2,976.3z"/>
			<path fill="#FFFFFF" d="M490,963.4l-1.9,1.7c-0.2,0.2-0.4,0.3-0.7,0.3c-0.2,0-0.5,0-0.7-0.1l-5.7-2.8l-8,7.4l2.3,5.9
				c0.1,0.2,0.1,0.4,0.1,0.7c0,0.2-0.2,0.5-0.4,0.7l-1.9,1.7l-9.4-24.5l2.4-2.3L490,963.4z M472.1,967.6l6.7-6.2l-9.5-4.7
				c-0.3-0.1-0.6-0.3-1-0.5c-0.3-0.2-0.7-0.4-1.1-0.7c0.2,0.4,0.4,0.8,0.6,1.2s0.3,0.7,0.4,1L472.1,967.6z"/>
			<path fill="#FFFFFF" d="M484,942.7c0.5-0.6,0.9-1.1,1.5-1.5c0.5-0.4,1.1-0.7,1.7-1l2.9-3.7l0.9,0.7c0.3,0.2,0.3,0.6,0.1,1l-1,1.7
				c0.8,0.1,1.6,0.5,2.3,1c0.7,0.5,1.2,1.1,1.5,1.8c0.3,0.7,0.5,1.4,0.6,2.1c0,0.7-0.1,1.5-0.4,2.3s-0.7,1.5-1.3,2.3
				c-0.5,0.6-1,1.2-1.6,1.6c0,0.4,0,0.8,0.1,1.1c0.1,0.3,0.2,0.5,0.4,0.7c0.3,0.2,0.7,0.3,1,0.2c0.4-0.1,0.8-0.4,1.2-0.8
				s0.8-0.8,1.3-1.4c0.4-0.5,0.9-1.1,1.4-1.6c0.5-0.5,1-1.1,1.5-1.5c0.5-0.5,1.1-0.8,1.6-1.1c0.6-0.3,1.1-0.4,1.7-0.3
				c0.6,0,1.2,0.3,1.8,0.8c0.6,0.5,1,1,1.4,1.7s0.5,1.5,0.5,2.4c0,0.9-0.2,1.8-0.5,2.8s-0.9,2-1.7,3c-0.8,1-1.5,1.8-2.3,2.4
				c-0.8,0.6-1.5,1-2.2,1.2s-1.4,0.3-2,0.2c-0.6-0.1-1.2-0.3-1.7-0.7c-0.7-0.5-1.1-1.2-1.2-2c-0.1-0.8-0.1-1.6,0.2-2.6
				c-0.5,0.3-1,0.4-1.5,0.4c-0.5,0-1-0.2-1.5-0.6c-0.2-0.2-0.4-0.3-0.5-0.6c-0.2-0.2-0.3-0.5-0.4-0.8c-0.1-0.3-0.1-0.6-0.2-1
				c0-0.4,0-0.7,0.1-1.1c-0.9,0.4-1.8,0.5-2.7,0.4c-0.9-0.1-1.8-0.5-2.6-1.1c-0.7-0.5-1.2-1.1-1.5-1.8c-0.3-0.7-0.5-1.4-0.6-2.1
				c0-0.8,0.1-1.5,0.4-2.3C483,944.2,483.5,943.5,484,942.7z M491.2,948.3c0.4-0.5,0.6-1,0.8-1.4c0.1-0.5,0.2-0.9,0.2-1.4
				c0-0.4-0.2-0.8-0.4-1.2s-0.6-0.7-1-1c-0.8-0.6-1.7-0.9-2.6-0.8c-0.9,0.1-1.7,0.7-2.4,1.6c-0.7,1-1.1,1.9-1,2.8s0.6,1.7,1.4,2.3
				c0.4,0.3,0.8,0.5,1.3,0.7c0.4,0.1,0.9,0.2,1.3,0.1c0.4-0.1,0.9-0.2,1.3-0.5C490.5,949.1,490.9,948.8,491.2,948.3z M502,949.7
				c-0.3-0.3-0.7-0.4-1-0.3c-0.4,0-0.7,0.2-1.1,0.4c-0.4,0.2-0.7,0.5-1.1,0.9c-0.4,0.4-0.8,0.8-1.1,1.2s-0.8,0.9-1.2,1.4
				c-0.4,0.5-0.8,0.9-1.2,1.3c-0.2,0.7-0.2,1.3-0.1,1.9c0.1,0.6,0.4,1.1,0.9,1.4c0.3,0.2,0.6,0.4,1,0.4c0.4,0,0.8,0,1.2-0.2
				c0.4-0.2,0.9-0.5,1.4-0.9c0.5-0.4,1-0.9,1.5-1.6c0.5-0.6,0.9-1.3,1.2-1.9c0.3-0.6,0.4-1.2,0.5-1.7s0-1-0.1-1.4
				C502.6,950.3,502.3,949.9,502,949.7z"/>
			<path fill="#FFFFFF" d="M495.1,925.9c0.6-1.1,1.3-2,2.2-2.7c0.9-0.7,1.8-1.2,2.8-1.4c1-0.3,2.1-0.3,3.2-0.1
				c1.1,0.2,2.3,0.6,3.5,1.3c1.2,0.7,2.2,1.4,2.9,2.3s1.3,1.8,1.7,2.8c0.3,1,0.4,2,0.3,3.1c-0.1,1.1-0.5,2.2-1.1,3.3
				c-0.6,1.1-1.3,2-2.2,2.7s-1.8,1.2-2.8,1.4c-1,0.3-2.1,0.3-3.2,0.1c-1.1-0.2-2.3-0.6-3.5-1.3c-1.2-0.6-2.2-1.4-2.9-2.3
				c-0.8-0.9-1.3-1.8-1.7-2.8c-0.3-1-0.4-2-0.3-3.1S494.5,927,495.1,925.9z M508.6,933.3c0.8-1.5,0.9-2.9,0.3-4.2
				c-0.6-1.3-1.8-2.4-3.6-3.4c-1.8-1-3.4-1.4-4.8-1.2c-1.4,0.2-2.5,1-3.3,2.5c-0.4,0.8-0.6,1.5-0.7,2.2c0,0.7,0.1,1.4,0.3,2
				c0.3,0.6,0.7,1.2,1.3,1.8c0.6,0.6,1.4,1.1,2.3,1.6c1.8,1,3.4,1.4,4.8,1.2C506.7,935.6,507.8,934.8,508.6,933.3z"/>
		</g>
	</g>
</g>
</svg>
