<?xml version="1.0" encoding="utf-8"?>
<!-- Generator: Adobe Illustrator 16.0.0, SVG Export Plug-In . SVG Version: 6.00 Build 0)  -->
<!DOCTYPE svg PUBLIC "-//W3C//DTD SVG 1.1//EN" "http://www.w3.org/Graphics/SVG/1.1/DTD/svg11.dtd">
<svg version="1.1" xmlns="http://www.w3.org/2000/svg" xmlns:xlink="http://www.w3.org/1999/xlink" x="0px" y="0px"
	 width="483.134px" height="83.414px" viewBox="0 0 483.134 83.414" enable-background="new 0 0 483.134 83.414"
	 xml:space="preserve">
<g id="Layer_1" display="none">
	
		<image display="inline" overflow="visible" width="1074" height="154" xlink:href="A2E409C00B40F4AA.jpg"  transform="matrix(0.9999 0 0 0.9999 -36.1157 -11.2051)">
	</image>
</g>
<g id="Layer_2" display="none">
	<circle display="inline" fill="none" stroke="#000000" stroke-width="4" cx="404.134" cy="71.155" r="28.75"/>
	<polyline display="inline" fill="none" stroke="#000000" stroke-width="4" points="111.384,99.905 111.384,42.405 149.884,42.405 
		149.884,99.905 	"/>
	<path display="inline" fill="none" stroke="#000000" stroke-width="4" d="M227.884,99.905"/>
	<polyline display="inline" fill="none" stroke="#000000" stroke-width="4" points="449.384,99.905 449.384,42.405 487.884,42.405 
		487.884,99.905 	"/>
	<polyline display="inline" fill="none" stroke="#000000" stroke-width="4" points="170.884,99.905 170.884,42.405 209.384,42.405 
		209.384,99.905 	"/>
	<polyline display="inline" fill="none" stroke="#000000" stroke-width="4" points="286.384,99.905 286.384,42.405 356.884,42.405 
		356.884,99.905 	"/>
	<line display="inline" fill="none" stroke="#000000" stroke-width="4" x1="321.884" y1="42.405" x2="321.884" y2="99.905"/>
	<line display="inline" fill="none" stroke="#000000" stroke-width="4" x1="89.384" y1="42.405" x2="89.384" y2="99.905"/>
	<line display="inline" fill="none" stroke="#000000" stroke-width="4" x1="89.384" y1="21.905" x2="89.384" y2="35.572"/>
	<path display="inline" fill="none" stroke="#000000" stroke-width="4" d="M74.39,91.644c-6.619,5.176-14.952,8.262-24.006,8.262
		c-21.539,0-39-17.461-39-39s17.461-39,39-39c9.056,0,17.39,3.086,24.01,8.264"/>
	<polyline display="inline" fill="none" stroke="#000000" stroke-width="4" points="227.884,42.405 266.384,42.405 266.384,98.905 
		227.884,98.905 227.884,70.239 266.384,70.239 	"/>
	<path display="inline" fill="none" stroke="#000000" stroke-width="4" d="M266.384,71.572"/>
</g>
<g id="Layer_2_copy">
	<g>
		<g>
			<path d="M364.384,51.664c0-16.984,13.768-30.75,30.75-30.75l0,0c16.984,0,30.75,13.765,30.75,30.75l0,0
				c0,16.981-13.765,30.747-30.75,30.749l0,0C378.151,82.41,364.384,68.645,364.384,51.664L364.384,51.664z M368.383,51.664
				c0.027,14.772,11.978,26.723,26.75,26.75l0,0c14.773-0.027,26.723-11.978,26.75-26.75l0,0
				c-0.027-14.773-11.977-26.724-26.75-26.75l0,0C380.361,24.94,368.41,36.891,368.383,51.664L368.383,51.664z"/>
		</g>
		<g>
			<polygon points="138.883,80.414 138.883,24.912 104.384,24.912 104.384,80.414 100.384,80.414 100.384,20.913 142.884,20.913 
				142.884,80.414 138.883,80.414 			"/>
		</g>
		<g>
			<path d="M218.884,83.414"/>
		</g>
		<g>
			<polygon points="476.884,80.414 476.884,24.912 442.383,24.912 442.383,80.414 438.385,80.414 438.385,20.913 480.883,20.913 
				480.885,80.414 476.884,80.414 			"/>
		</g>
		<g>
			<polygon points="198.384,80.414 198.384,24.912 163.883,24.912 163.883,80.414 159.885,80.414 159.885,20.913 202.385,20.913 
				202.385,80.414 198.384,80.414 			"/>
		</g>
		<g>
			<polygon points="345.884,80.414 345.884,24.912 279.383,24.912 279.383,80.414 275.383,80.414 275.383,20.913 349.884,20.913 
				349.884,80.414 345.884,80.414 			"/>
		</g>
		<g>
			<polygon points="310.883,80.414 310.883,22.913 314.884,22.913 314.884,80.414 310.883,80.414 			"/>
		</g>
		<g>
			<polygon points="78.384,80.414 78.384,22.913 82.384,22.913 82.384,80.414 78.384,80.414 			"/>
		</g>
		<g>
			<polygon points="78.385,16.081 78.385,2.413 82.385,2.413 82.385,16.081 78.385,16.081 			"/>
		</g>
		<g>
			<path d="M216.883,81.414V48.748h38.5V24.914h-36.5v-4.001h40.5v60.501H216.883L216.883,81.414z M220.884,77.412h34.499V52.746
				h-34.499V77.412L220.884,77.412z"/>
		</g>
		<g>
			<path d="M257.384,52.081"/>
		</g>
		<g>
			<path d="M65.379,8.165c-6.746-4.876-15.042-7.753-23.996-7.751l0,0c-22.644,0-40.999,18.355-41.001,41.001l0,0
				C0.385,64.055,18.74,82.41,41.383,82.412l0,0c0.003,0,0.006,0,0.008,0l0,0c8.94,0.002,17.224-2.869,23.961-7.732l0.031-5.105
				c-6.465,5.514-14.835,8.838-24.001,8.84l0,0c-10.222-0.002-19.459-4.141-26.162-10.838l0,0
				c-6.7-6.703-10.835-15.94-10.838-26.162l0,0C4.386,31.19,8.521,21.953,15.222,15.25l0,0C21.924,8.552,31.161,4.415,41.383,4.413
				l0,0c9.165,0.002,17.535,3.326,24.001,8.84L65.379,8.165z"/>
		</g>
	</g>
</g>
</svg>
