<?xml version="1.0" encoding="utf-8"?>
<!-- Generator: Adobe Illustrator 18.0.0, SVG Export Plug-In . SVG Version: 6.00 Build 0)  -->
<!DOCTYPE svg PUBLIC "-//W3C//DTD SVG 1.1//EN" "http://www.w3.org/Graphics/SVG/1.1/DTD/svg11.dtd">
<svg version="1.1" id="Layer_1" xmlns="http://www.w3.org/2000/svg" xmlns:xlink="http://www.w3.org/1999/xlink" x="0px" y="0px"
	 viewBox="0 0 483.1 83.4" enable-background="new 0 0 483.1 83.4" xml:space="preserve">
<g id="Layer_2_copy">
	<g>
		<g>
			<path fill="#9A8B4F" d="M364.4,51.7c0-17,13.8-30.8,30.8-30.8l0,0c17,0,30.8,13.8,30.8,30.8l0,0c0,17-13.8,30.7-30.8,30.7l0,0
				C378.2,82.4,364.4,68.6,364.4,51.7L364.4,51.7z M368.4,51.7c0,14.8,12,26.7,26.8,26.8l0,0c14.8,0,26.7-12,26.8-26.8l0,0
				c0-14.8-12-26.7-26.8-26.8l0,0C380.4,24.9,368.4,36.9,368.4,51.7L368.4,51.7z"/>
		</g>
		<g>
			<polygon fill="#9A8B4F" points="138.9,80.4 138.9,24.9 104.4,24.9 104.4,80.4 100.4,80.4 100.4,20.9 142.9,20.9 142.9,80.4 			
				"/>
		</g>
		<g>
			<path fill="#9A8B4F" d="M218.9,83.4"/>
		</g>
		<g>
			<polygon fill="#9A8B4F" points="476.9,80.4 476.9,24.9 442.4,24.9 442.4,80.4 438.4,80.4 438.4,20.9 480.9,20.9 480.9,80.4 			
				"/>
		</g>
		<g>
			<polygon fill="#9A8B4F" points="198.4,80.4 198.4,24.9 163.9,24.9 163.9,80.4 159.9,80.4 159.9,20.9 202.4,20.9 202.4,80.4 			
				"/>
		</g>
		<g>
			<polygon fill="#9A8B4F" points="345.9,80.4 345.9,24.9 279.4,24.9 279.4,80.4 275.4,80.4 275.4,20.9 349.9,20.9 349.9,80.4 			
				"/>
		</g>
		<g>
			<polygon fill="#9A8B4F" points="310.9,80.4 310.9,22.9 314.9,22.9 314.9,80.4 			"/>
		</g>
		<g>
			<polygon fill="#9A8B4F" points="78.4,80.4 78.4,22.9 82.4,22.9 82.4,80.4 			"/>
		</g>
		<g>
			<polygon fill="#9A8B4F" points="78.4,16.1 78.4,2.4 82.4,2.4 82.4,16.1 			"/>
		</g>
		<g>
			<path fill="#9A8B4F" d="M216.9,81.4V48.7h38.5V24.9h-36.5v-4h40.5v60.5H216.9L216.9,81.4z M220.9,77.4h34.5V52.7h-34.5V77.4
				L220.9,77.4z"/>
		</g>
		<g>
			<path fill="#9A8B4F" d="M257.4,52.1"/>
		</g>
		<g>
			<path fill="#9A8B4F" d="M65.4,8.2c-6.7-4.9-15-7.8-24-7.8l0,0c-22.6,0-41,18.4-41,41l0,0c0,22.6,18.4,41,41,41l0,0c0,0,0,0,0,0
				l0,0c8.9,0,17.2-2.9,24-7.7l0-5.1c-6.5,5.5-14.8,8.8-24,8.8l0,0c-10.2,0-19.5-4.1-26.2-10.8l0,0C8.5,60.9,4.4,51.6,4.4,41.4l0,0
				c0-10.2,4.1-19.5,10.8-26.2l0,0C21.9,8.6,31.2,4.4,41.4,4.4l0,0c9.2,0,17.5,3.3,24,8.8L65.4,8.2z"/>
		</g>
	</g>
</g>
</svg>
