<?xml version="1.0" encoding="utf-8"?>
<!-- Generator: Adobe Illustrator 16.0.0, SVG Export Plug-In . SVG Version: 6.00 Build 0)  -->
<!DOCTYPE svg PUBLIC "-//W3C//DTD SVG 1.1//EN" "http://www.w3.org/Graphics/SVG/1.1/DTD/svg11.dtd">
<svg version="1.1" id="Livello_1" xmlns="http://www.w3.org/2000/svg" xmlns:xlink="http://www.w3.org/1999/xlink" x="0px" y="0px"
	 width="419.831px" height="419.836px" viewBox="0 0 419.831 419.836" enable-background="new 0 0 419.831 419.836"
	 xml:space="preserve">
<path fill="none" stroke="#010202" stroke-width="2" d="M209.919,1C94.536,1,1,94.532,1,209.917
	c0,115.384,93.536,208.919,208.919,208.919c115.378,0,208.912-93.535,208.912-208.919C418.831,94.532,325.298,1,209.919,1z"/>
<g>
	<path fill="#FFFFFF" stroke="#010202" stroke-width="5" d="M215.823,106.829c0,0-21.247-15.344-44.264-5.311
		c-23.011,10.033-37.172,25.965-38.947,71.402c-1.767,45.438,15.937,96.781,41.605,122.746
		c25.67,25.966,44.555,33.047,79.961,18.882c35.406-14.161,36.586-62.939,30.096-73.958c-6.489-11.02-23.012-31.084-30.096-53.506
		C247.099,164.661,240.122,115.387,215.823,106.829z"/>
	<g>
		<path fill="#010202" d="M209.628,152.713c0,0,0.124,0.362,0.354,1.042c0.224,0.681,0.592,1.668,0.996,2.933
			c0.416,1.263,0.982,2.783,1.545,4.541c0.572,1.756,1.325,3.707,2.026,5.861c0.355,1.076,0.746,2.19,1.187,3.331
			c0.43,1.144,0.833,2.337,1.269,3.557c0.815,2.459,1.904,4.966,2.874,7.608c0.943,2.657,2.14,5.301,3.255,8.026
			c1.067,2.753,2.391,5.417,3.671,8.105l0.94,2.024l0.469,1.011c0.008,0.019,0.065,0.136,0.033,0.074l0.067,0.125l0.135,0.25
			l0.27,0.499c0.709,1.335,1.416,2.665,2.117,3.984c1.362,2.696,2.838,5.113,4.2,7.557c0.652,1.229,1.43,2.379,2.111,3.547
			c0.703,1.157,1.364,2.306,2.06,3.398c1.418,2.167,2.696,4.258,3.925,6.193c1.242,1.904,2.296,3.757,3.229,5.375
			c0.919,1.638,1.586,3.154,2.18,4.352c0.948,2.546,1.415,3.984,1.415,3.984s-0.878-1.283-2.283-3.499
			c-0.821-1.049-1.765-2.333-2.898-3.771c-1.181-1.416-2.513-3.013-3.966-4.756c-1.473-1.73-3.044-3.666-4.661-5.741
			c-0.811-1.038-1.599-2.145-2.431-3.256c-0.828-1.116-1.663-2.256-2.446-3.486c-1.569-2.435-3.291-4.96-4.689-7.569
			c-0.731-1.303-1.47-2.615-2.21-3.933l-0.275-0.497l-0.137-0.248l-0.069-0.125l-0.09-0.181l-0.499-1.045l-0.997-2.095
			c-0.652-1.403-1.304-2.806-1.953-4.204l-0.484-1.047l-0.408-1.072c-0.271-0.714-0.542-1.425-0.811-2.134
			c-1.07-2.836-2.158-5.617-2.941-8.387c-0.839-2.753-1.663-5.41-2.255-7.977c-0.633-2.556-1.253-4.963-1.658-7.226
			c-0.446-2.252-0.852-4.312-1.118-6.16c-0.288-1.842-0.507-3.45-0.663-4.781C209.707,154.239,209.628,152.713,209.628,152.713z"/>
	<line fill="none" stroke="#010202" stroke-width="2" x1="211.821" y1="163.18" x2="201.594" y2="190.877"/>
	<line fill="none" stroke="#010202" stroke-width="2" x1="223.68" y1="196.258" x2="216.63" y2="215.359"/>
	<line fill="none" stroke="#010202" stroke-width="2" x1="239.141" y1="225.645" x2="234.558" y2="238.063"/>
	<line fill="none" stroke="#010202" stroke-width="2" x1="217.43" y1="181.195" x2="245.594" y2="190.056"/>
	<line fill="none" stroke="#010202" stroke-width="2" x1="231.512" y1="212.302" x2="250.933" y2="218.416"/>
	</g>
</g>
</svg>
