<?xml version="1.0" encoding="utf-8"?>
<!-- Generator: Adobe Illustrator 18.0.0, SVG Export Plug-In . SVG Version: 6.00 Build 0)  -->
<!DOCTYPE svg PUBLIC "-//W3C//DTD SVG 1.1//EN" "http://www.w3.org/Graphics/SVG/1.1/DTD/svg11.dtd">
<svg version="1.1" id="Layer_1" xmlns="http://www.w3.org/2000/svg" xmlns:xlink="http://www.w3.org/1999/xlink" x="0px" y="0px"
	 viewBox="0 0 1314.5 1465" enable-background="new 0 0 1314.5 1465" xml:space="preserve">
<polygon fill="#D8DE3B" stroke="#D8DE3B" stroke-width="1.2546" points="604,306.2 620.7,317.1 639.7,310.9 653,325.8 672.9,324.6 
	681.9,342.5 701.5,346.5 705.5,366.1 723.4,375.1 722.2,395 737.1,408.3 730.9,427.3 741.8,444 730.9,460.7 737.1,479.7 722.2,493 
	723.4,512.9 705.5,521.9 701.5,541.5 681.9,545.6 672.9,563.4 653,562.3 639.7,577.2 620.7,570.9 604,581.9 587.3,570.9 
	568.3,577.2 555,562.3 535.1,563.4 526.1,545.6 506.5,541.5 502.4,521.9 484.6,512.9 485.7,493 470.8,479.7 477.1,460.7 466.1,444 
	477.1,427.3 470.8,408.3 485.7,395 484.6,375.1 502.4,366.1 506.5,346.5 526.1,342.5 535.1,324.6 555,325.8 568.3,310.9 
	587.3,317.1 "/>
<path fill="#F7E799" d="M71.3,582.1"/>
<circle fill="#CCEBF2" cx="204.9" cy="559.6" r="133.3"/>
<circle fill="#CCEBF2" cx="155" cy="507.1" r="99.4"/>
<circle fill="#CCEBF2" cx="204.9" cy="529.1" r="70.9"/>
<circle fill="#CCEBF2" cx="160.8" cy="523.4" r="51.8"/>
<circle fill="#F7E799" cx="171.2" cy="533.1" r="18.5"/>
<path fill="#F0B0CE" d="M544.6,186c26.7,75.4-12.8,158.2-88.2,184.9c-75.4,26.7-158.2-12.8-184.9-88.2
	c-26.7-75.4,12.8-158.2,88.2-184.9C435.1,71.1,517.9,110.6,544.6,186z"/>
<path fill="#F0B0CE" d="M461.5,262c18.3,51.8-8.8,108.6-60.5,126.9c-51.8,18.3-108.6-8.8-126.9-60.5
	c-18.3-51.8,8.8-108.6,60.5-126.9C386.4,183.1,443.2,210.2,461.5,262z"/>
<circle fill="#F0B0CE" cx="422.2" cy="299.2" r="70.9"/>
<circle fill="#F0B0CE" cx="378.7" cy="308.5" r="51.8"/>
<circle fill="#F7E799" cx="387.2" cy="306" r="18.5"/>
<path fill="#D8DE3B" stroke="#D8DE3B" stroke-width="1.2546" d="M633.5,551.1c-51.8,18.3-108.6-8.8-126.9-60.5
	c-18.3-51.8,8.8-108.6,60.5-126.9c51.8-18.3,108.6,8.8,126.9,60.5C712.3,476,685.2,532.8,633.5,551.1z"/>
<circle fill="#D8DE3B" stroke="#D8DE3B" stroke-width="1.2546" cx="596.2" cy="511.8" r="70.9"/>
<circle fill="#D8DE3B" stroke="#D8DE3B" stroke-width="1.2546" cx="586.9" cy="468.3" r="51.8"/>
<path fill="#F7E799" d="M599.6,500.3c-9.6,3.4-20.2-1.6-23.6-11.3c-3.4-9.6,1.6-20.2,11.3-23.6c9.6-3.4,20.2,1.6,23.6,11.3
	C614.3,486.3,609.3,496.9,599.6,500.3z"/>
<g>
	<path fill="#F07472" d="M579.3,589.4c-57,43.8-67.6,125.6-23.8,182.6c43.8,57,125.6,67.6,182.6,23.8c57-43.8,67.6-125.6,23.8-182.6
		C718,556.2,636.3,545.5,579.3,589.4z"/>
	<path fill="#F07472" d="M756.3,618.1c-4-5.3-3.1-12.8,2.2-16.8c5.3-4.1,12.8-3.1,16.9,2.2c4.1,5.3,3.1,12.8-2.2,16.9
		C767.9,624.4,760.4,623.4,756.3,618.1z"/>
	<path fill="#F07472" d="M732.3,804c-4-5.3-3.1-12.8,2.2-16.9c5.3-4.1,12.8-3.1,16.9,2.2c4,5.3,3.1,12.8-2.2,16.9
		C743.9,810.3,736.4,809.3,732.3,804z"/>
	<path fill="#F07472" d="M515.8,695.7c-4.1-5.3-3.1-12.8,2.2-16.9c5.3-4,12.8-3.1,16.9,2.2c4,5.3,3.1,12.8-2.2,16.9
		C527.4,701.9,519.8,700.9,515.8,695.7z"/>
	<path fill="#F07472" d="M637.1,569.7c-4-5.3-3.1-12.8,2.2-16.8c5.3-4,12.8-3.1,16.9,2.2c4.1,5.3,3.1,12.8-2.2,16.9
		C648.7,575.9,641.1,574.9,637.1,569.7z"/>
	<path fill="#F07472" d="M554.7,786.1c-4-5.3-3.1-12.8,2.2-16.8c5.3-4.1,12.8-3.1,16.9,2.2c4,5.3,3.1,12.8-2.2,16.9
		C566.3,792.4,558.8,791.4,554.7,786.1z"/>
	<path fill="#F07472" d="M776.1,730.3c-4-5.3-3.1-12.8,2.2-16.9c5.3-4.1,12.8-3.1,16.8,2.2c4.1,5.3,3.1,12.8-2.2,16.9
		C787.6,736.6,780.1,735.6,776.1,730.3z"/>
	<path fill="#F07472" d="M568.1,603.9c-4.1-5.3-3.1-12.8,2.2-16.9c5.3-4.1,12.8-3.1,16.8,2.2c4.1,5.3,3.1,12.8-2.2,16.9
		C579.7,610.2,572.2,609.2,568.1,603.9z"/>
</g>
<circle fill="#F07472" cx="663.3" cy="678" r="99.4"/>
<circle fill="#F07472" cx="637" cy="725.8" r="70.9"/>
<circle fill="#F07472" cx="646.6" cy="682.4" r="51.8"/>
<path fill="#F7E799" d="M644,706.8c-10.2-0.9-17.7-9.9-16.8-20.1c0.9-10.2,9.9-17.7,20.1-16.8c10.2,0.9,17.7,9.9,16.8,20.1
	C663.2,700.2,654.2,707.7,644,706.8z"/>
<g>
	<path fill="none" stroke="#8A7C46" stroke-width="2.5093" d="M594.2,503.8c-11.7,0-21.3-9.5-21.3-21.3c0-11.7,9.5-21.3,21.3-21.3
		c11.7,0,21.3,9.5,21.3,21.3C615.5,494.3,605.9,503.8,594.2,503.8z"/>
	<line fill="none" stroke="#8A7C46" stroke-width="2.5093" x1="388" y1="685.6" x2="577.7" y2="495.9"/>
</g>
<g>
	<path fill="none" stroke="#8A7C46" stroke-width="2.5093" d="M388,687.3"/>
</g>
<path fill="none" stroke="#8A7C46" stroke-width="2.5093" d="M594.2,409.5c-40.3,0-73,32.7-73,73.1c0,40.3,32.7,73.1,73,73.1
	c40.3,0,73-32.7,73-73.1C667.2,442.2,634.5,409.5,594.2,409.5z"/>
<ellipse fill="none" stroke="#8A7C46" stroke-width="2.5093" cx="594.2" cy="482.5" rx="63" ry="63"/>
<ellipse fill="none" stroke="#8A7C46" stroke-width="2.5093" cx="170.8" cy="532.9" rx="52" ry="52"/>
<g>
	<path fill="none" stroke="#8A7C46" stroke-width="2.5093" d="M388,284.9c11.7,0,21.3,9.5,21.3,21.3c0,11.7-9.5,21.3-21.3,21.3
		c-11.7,0-21.3-9.5-21.3-21.3C366.8,294.4,376.3,284.9,388,284.9z"/>
	<path fill="none" stroke="#8A7C46" stroke-width="2.5093" d="M388,252.4c-29.7,0-53.7,24.1-53.7,53.7c0,29.7,24.1,53.8,53.7,53.8
		c29.7,0,53.7-24.1,53.7-53.8C441.8,276.5,417.7,252.4,388,252.4z"/>
	<circle fill="none" stroke="#8A7C46" stroke-width="2.5093" cx="388" cy="306.2" r="97.5"/>
	<path fill="none" stroke="#8A7C46" stroke-width="2.5093" d="M388,232.4c-40.7,0-73.8,33-73.8,73.7c0,40.7,33,73.7,73.8,73.7
		c40.7,0,73.7-33,73.7-73.7C461.8,265.4,428.8,232.4,388,232.4z"/>
	<g>
		<line fill="none" stroke="#8A7C46" stroke-width="2.5093" x1="290.5" y1="364.2" x2="290.5" y2="247.5"/>
		<path fill="none" stroke="#8A7C46" stroke-width="2.5093" d="M290.5,382.2c-5,0-9-4-9-9c0-5,4-9,9-9c5,0,9,4,9,9
			C299.5,378.2,295.5,382.2,290.5,382.2z"/>
		<path fill="none" stroke="#8A7C46" stroke-width="2.5093" d="M290.5,247.5c-5,0-9-4-9-9c0-5,4-9,9-9c5,0,9,4,9,9
			C299.5,243.4,295.5,247.5,290.5,247.5z"/>
	</g>
	<g>
		<line fill="none" stroke="#8A7C46" stroke-width="2.5093" x1="485.5" y1="364.2" x2="485.5" y2="247.5"/>
		<path fill="none" stroke="#8A7C46" stroke-width="2.5093" d="M485.5,382.2c-5,0-9-4-9-9c0-5,4-9,9-9c5,0,9,4,9,9
			C494.5,378.2,490.5,382.2,485.5,382.2z"/>
		<path fill="none" stroke="#8A7C46" stroke-width="2.5093" d="M485.5,247.5c-5,0-9-4-9-9c0-5,4-9,9-9c5,0,9,4,9,9
			C494.5,243.4,490.5,247.5,485.5,247.5z"/>
	</g>
	<g>
		<line fill="none" stroke="#8A7C46" stroke-width="2.5093" x1="329.7" y1="208.7" x2="446.4" y2="208.7"/>
		<path fill="none" stroke="#8A7C46" stroke-width="2.5093" d="M311.7,208.7c0-5,4-9,9-9c5,0,9,4,9,9c0,5-4,9-9,9
			C315.7,217.7,311.7,213.6,311.7,208.7z"/>
		<path fill="none" stroke="#8A7C46" stroke-width="2.5093" d="M446.4,208.7c0-5,4-9,9-9c5,0,9,4,9,9c0,5-4,9-9,9
			C450.4,217.7,446.4,213.6,446.4,208.7z"/>
	</g>
	<g>
		<line fill="none" stroke="#8A7C46" stroke-width="2.5093" x1="329.7" y1="403.7" x2="446.4" y2="403.7"/>
		<circle fill="none" stroke="#8A7C46" stroke-width="2.5093" cx="320.7" cy="403.7" r="9"/>
		<circle fill="none" stroke="#8A7C46" stroke-width="2.5093" cx="455.4" cy="403.7" r="9"/>
	</g>
</g>
<g>
	<line fill="none" stroke="#8A7C46" stroke-width="2.5093" x1="388" y1="687.3" x2="624.7" y2="687.3"/>
	<path fill="none" stroke="#8A7C46" stroke-width="2.5093" d="M646,666c11.7,0,21.3,9.5,21.3,21.3c0,11.7-9.5,21.3-21.3,21.3
		c-11.7,0-21.3-9.5-21.3-21.3C624.7,675.5,634.2,666,646,666z"/>
	<path fill="none" stroke="#8A7C46" stroke-width="2.5093" d="M646,633.5c-29.7,0-53.7,24.1-53.7,53.7c0,29.7,24.1,53.8,53.7,53.8
		c29.7,0,53.7-24.1,53.7-53.8C699.7,657.6,675.6,633.5,646,633.5z"/>
	<circle fill="none" stroke="#8A7C46" stroke-width="2.5093" cx="646" cy="687.3" r="97.5"/>
	<path fill="none" stroke="#8A7C46" stroke-width="2.5093" d="M646,613.5c-40.7,0-73.8,33-73.8,73.7c0,40.7,33,73.7,73.8,73.7
		c40.7,0,73.7-33,73.7-73.7C719.7,646.5,686.7,613.5,646,613.5z"/>
	<path fill="none" stroke="#8A7C46" stroke-width="2.5093" d="M743.5,687.3c0-5,4-9,9-9c5,0,9,4,9,9c0,5-4,9-9,9
		C747.5,696.3,743.5,692.2,743.5,687.3z"/>
	<path fill="none" stroke="#8A7C46" stroke-width="2.5093" d="M530.4,687.3c0-5,4-9,9-9c5,0,9,4,9,9c0,5-4,9-9,9
		C534.5,696.3,530.4,692.2,530.4,687.3z"/>
	<path fill="none" stroke="#8A7C46" stroke-width="2.5093" d="M637,793.8c0-5,4-9,9-9c5,0,9,4,9,9c0,5-4,9-9,9
		C641,802.8,637,798.7,637,793.8z"/>
	<path fill="none" stroke="#8A7C46" stroke-width="2.5093" d="M573.4,601.8c0-5,4-9,9-9c5,0,9,4,9,9c0,5-4,9-9,9
		C577.4,610.8,573.4,606.8,573.4,601.8z"/>
	<path fill="none" stroke="#8A7C46" stroke-width="2.5093" d="M705.3,605.6c0-5,4-9,9-9c5,0,9,4,9,9c0,5-4,9-9,9
		C709.3,614.6,705.3,610.6,705.3,605.6z"/>
	<path fill="none" stroke="#8A7C46" stroke-width="2.5093" d="M564.6,767.5c0-5,4-9,9-9c5,0,9,4,9,9c0,5-4,9-9,9
		C568.6,776.5,564.6,772.5,564.6,767.5z"/>
	<path fill="none" stroke="#8A7C46" stroke-width="2.5093" d="M705.5,768.8c0-5,4-9,9-9c5,0,9,4,9,9c0,5-4,9-9,9
		C709.5,777.8,705.5,773.8,705.5,768.8z"/>
	<path fill="none" stroke="#8A7C46" stroke-width="2.5093" d="M637,580.7c0-5,4-9,9-9c5,0,9,4,9,9c0,5-4,9-9,9
		C641,589.7,637,585.7,637,580.7z"/>
</g>
<polygon fill="none" stroke="#8A7C46" stroke-width="2.5093" points="593.9,395.5 604.5,402.4 616.5,398.5 624.9,407.9 637.5,407.2 
	643.1,418.4 655.5,421 658.1,433.3 669.3,439 668.6,451.6 678,460 674.1,472 681,482.5 674.1,493.1 678,505.1 668.6,513.5 
	669.3,526.1 658.1,531.7 655.5,544.1 643.1,546.7 637.5,557.9 624.9,557.2 616.5,566.6 604.5,562.7 593.9,569.6 583.4,562.7 
	571.4,566.6 563,557.2 550.4,557.9 544.8,546.7 532.4,544.1 529.8,531.7 518.6,526.1 519.3,513.5 509.9,505.1 513.8,493.1 
	506.9,482.5 513.8,472 509.9,460 519.3,451.6 518.6,439 529.8,433.3 532.4,421 544.8,418.4 550.4,407.2 563,407.9 571.4,398.5 
	583.4,402.4 "/>
<g>
	<g>
		<path fill="none" stroke="#8A7C46" stroke-width="2.5093" d="M192.1,532.9c0,11.8-9.5,21.3-21.3,21.3c-11.7,0-21.3-9.5-21.3-21.3
			c0-11.7,9.5-21.3,21.3-21.3C182.6,511.6,192.1,521.1,192.1,532.9z"/>
		<line fill="none" stroke="#8A7C46" stroke-width="2.5093" x1="388" y1="686.6" x2="184.2" y2="549.4"/>
	</g>
	<path fill="none" stroke="#8A7C46" stroke-width="2.5093" d="M170.8,461.3c-39.5,0-71.5,32-71.5,71.5c0,39.5,32,71.5,71.5,71.5
		c39.5,0,71.5-32,71.5-71.5C242.3,493.4,210.3,461.3,170.8,461.3z"/>
	<path fill="none" stroke="#8A7C46" stroke-width="2.5093" d="M170.8,494.9c-20.9,0-37.9,17-37.9,37.9c0,20.9,17,37.9,37.9,37.9
		c20.9,0,37.9-17,37.9-37.9C208.7,511.9,191.8,494.9,170.8,494.9z"/>
</g>
<line fill="none" stroke="#8A7C46" stroke-width="2.5093" x1="388" y1="5643" x2="388" y2="359.9"/>
<line fill="none" stroke="#8A7C46" stroke-width="2.5093" x1="170.6" y1="432" x2="170.8" y2="448.2"/>
<line fill="none" stroke="#8A7C46" stroke-width="2.5093" x1="196.7" y1="435.5" x2="192.5" y2="451"/>
<line fill="none" stroke="#8A7C46" stroke-width="2.5093" x1="221" y1="445.5" x2="213" y2="459.5"/>
<line fill="none" stroke="#8A7C46" stroke-width="2.5093" x1="241.9" y1="461.6" x2="230.7" y2="473"/>
<line fill="none" stroke="#8A7C46" stroke-width="2.5093" x1="257.9" y1="482.4" x2="244.1" y2="490.4"/>
<line fill="none" stroke="#8A7C46" stroke-width="2.5093" x1="268" y1="506.8" x2="252.6" y2="510.9"/>
<line fill="none" stroke="#8A7C46" stroke-width="2.5093" x1="268" y1="559" x2="252.6" y2="554.8"/>
<line fill="none" stroke="#8A7C46" stroke-width="2.5093" x1="244.1" y1="575.3" x2="257.9" y2="583.3"/>
<line fill="none" stroke="#8A7C46" stroke-width="2.5093" x1="213" y1="606.3" x2="221" y2="620.2"/>
<line fill="none" stroke="#8A7C46" stroke-width="2.5093" x1="192.5" y1="614.7" x2="196.7" y2="630.3"/>
<line fill="none" stroke="#8A7C46" stroke-width="2.5093" x1="148.7" y1="614.6" x2="144.5" y2="630.3"/>
<line fill="none" stroke="#8A7C46" stroke-width="2.5093" x1="128.3" y1="606.1" x2="120.2" y2="620.2"/>
<line fill="none" stroke="#8A7C46" stroke-width="2.5093" x1="111" y1="592.7" x2="99.3" y2="604.2"/>
<line fill="none" stroke="#8A7C46" stroke-width="2.5093" x1="97.5" y1="575.1" x2="83.2" y2="583.3"/>
<line fill="none" stroke="#8A7C46" stroke-width="2.5093" x1="89.1" y1="554.7" x2="73.2" y2="559"/>
<line fill="none" stroke="#8A7C46" stroke-width="2.5093" x1="86.2" y1="532.9" x2="69.7" y2="532.9"/>
<line fill="none" stroke="#8A7C46" stroke-width="2.5093" x1="89.1" y1="511" x2="73.2" y2="506.8"/>
<line fill="none" stroke="#8A7C46" stroke-width="2.5093" x1="83.2" y1="482.4" x2="97.5" y2="490.6"/>
<line fill="none" stroke="#8A7C46" stroke-width="2.5093" x1="99.3" y1="461.6" x2="110.9" y2="473.2"/>
<line fill="none" stroke="#8A7C46" stroke-width="2.5093" x1="120.2" y1="445.5" x2="128.4" y2="459.6"/>
<line fill="none" stroke="#8A7C46" stroke-width="2.5093" x1="144.5" y1="435.5" x2="148.8" y2="451.1"/>
<line fill="none" stroke="#8A7C46" stroke-width="2.5093" x1="170.6" y1="633.7" x2="170.6" y2="617.5"/>
<path fill="none" stroke="#8A7C46" stroke-width="2.5093" d="M594.2,444.6c-20.9,0-37.9,17-37.9,37.9c0,20.9,17,37.9,37.9,37.9
	c20.9,0,37.9-17,37.9-37.9C632.1,461.6,615.1,444.6,594.2,444.6z"/>
</svg>
