<?xml version="1.0" encoding="UTF-8" standalone="no"?>
<svg width="189px" height="44px" viewBox="0 0 189 44" version="1.1" xmlns="http://www.w3.org/2000/svg" xmlns:xlink="http://www.w3.org/1999/xlink" xmlns:sketch="http://www.bohemiancoding.com/sketch/ns">
    <!-- Generator: Sketch 3.1.1 (8761) - http://www.bohemiancoding.com/sketch -->
    <title>svg-logo</title>
    <desc>Created with Sketch.</desc>
    <defs></defs>
    <g id="Symbols" stroke="none" stroke-width="1" fill="none" fill-rule="evenodd" sketch:type="MSPage">
        <g id="svg-logo" sketch:type="MSArtboardGroup" fill="#E5C4A9">
            <g id="Brand-/-Logotype-2" sketch:type="MSLayerGroup">
                <path d="M34.9287865,11.6603437 L36.3083485,11.6603437 L36.3083485,32.2853437 L34.9287865,32.2853437 L34.9287865,11.6603437 Z" id="Fill-7" sketch:type="MSShapeGroup"></path>
                <path d="M136.326597,21.9731875 C136.326597,16.2769062 140.959511,11.6603437 146.673312,11.6603437 C152.388838,11.6603437 157.020027,16.2769062 157.020027,21.9731875 C157.020027,27.6684375 152.388838,32.285 146.673312,32.2853438 C140.959511,32.285 136.326597,27.6684375 136.326597,21.9731875 L136.326597,21.9731875 Z M137.672359,21.9731875 C137.681327,26.9276563 141.70275,30.9354375 146.673312,30.944375 C151.643874,30.9354375 155.665642,26.9276563 155.674609,21.9731875 C155.665642,17.0187188 151.643874,13.0105938 146.673312,13.0016562 C141.70275,13.0105938 137.681327,17.0187188 137.672359,21.9731875 L137.672359,21.9731875 Z" id="Fill-1" sketch:type="MSShapeGroup"></path>
                <path d="M55.9836624,32.2853438 L55.9836624,13.0181562 L44.2249653,13.0181562 L44.2249653,32.2853438 L42.8612682,32.2853438 L42.8612682,11.6603437 L57.3466697,11.6603437 L57.3466697,32.2853438 L55.9836624,32.2853438" id="Fill-2" sketch:type="MSShapeGroup"></path>
                <path d="M176.350451,32.2853438 L176.350451,13.0185 L164.591064,13.0185 L164.591064,32.2853438 L163.228057,32.2853438 L163.228057,11.6603437 L177.712768,11.6603437 L177.713458,32.2853438 L176.350451,32.2853438" id="Fill-4" sketch:type="MSShapeGroup"></path>
                <path d="M76.6764033,32.2853438 L76.6764033,13.0178125 L64.9177062,13.0178125 L64.9177062,32.2853438 L63.5546989,32.2853438 L63.5546989,11.6603437 L78.0401004,11.6603437 L78.0401004,32.2853438 L76.6764033,32.2853438" id="Fill-5" sketch:type="MSShapeGroup"></path>
                <path d="M104.94156,11.6603437 L104.94156,32.2853438 L106.312155,32.2853438 L106.312155,13.0185 L117.103089,13.0185 L117.103089,32.2853438 L118.473684,32.2853438 L118.473684,13.0185 L129.093208,13.0185 L129.093208,32.2853438 L130.463458,32.2853438 L130.463458,11.6603437 L104.94156,11.6603437" id="Fill-6" sketch:type="MSShapeGroup"></path>
                <path d="M84.2481296,32.2853438 L84.2481296,20.6614375 L97.3701788,20.6614375 L97.3701788,13.0243437 L85.6118266,13.0243437 L85.6118266,11.6603437 L98.733531,11.6603437 L98.733531,32.2853438 L84.2481296,32.2853438 L84.2481296,32.2853438 Z M85.6118266,30.83575 L97.3701788,30.83575 L97.3701788,21.9391563 L85.6118266,21.9391563 L85.6118266,30.83575 Z" id="Fill-8" sketch:type="MSShapeGroup"></path>
                <path d="M22.327177,30.944375 C17.2803942,30.9354375 13.1968905,26.9269688 13.1875785,21.9728437 C13.1968905,17.0187187 17.2803942,13.0105938 22.327177,13.0013125 C24.8507409,13.006125 27.1328814,14.0105625 28.7855967,15.6327188 L29.7554288,14.6801875 C27.8550821,12.8146562 25.228396,11.6603437 22.327177,11.6603437 C16.5254288,11.6603437 11.8211223,16.27725 11.8211223,21.9728437 C11.8211223,27.66775 16.5254288,32.2846562 22.327177,32.2853438 C25.228396,32.285 27.8550821,31.1310312 29.7554288,29.2648125 L28.7859416,28.312625 C27.1328814,29.9354687 24.8510858,30.9399062 22.327177,30.944375" id="Fill-10" sketch:type="MSShapeGroup"></path>
                <path d="M1.47440693,1.34784375 L187.715283,1.34784375 L187.715283,42.5978437 L1.47440693,42.5978437 L1.47440693,1.34784375 Z M0.0948448905,43.9728437 L189.094845,43.9728437 L189.094845,-0.02715625 L0.0948448905,-0.02715625 L0.0948448905,43.9728437 Z" id="Fill-13" sketch:type="MSShapeGroup"></path>
            </g>
        </g>
    </g>
</svg>