<?xml version="1.0" encoding="utf-8"?>
<!-- Generator: Adobe Illustrator 18.0.0, SVG Export Plug-In . SVG Version: 6.00 Build 0)  -->
<!DOCTYPE svg PUBLIC "-//W3C//DTD SVG 1.1//EN" "http://www.w3.org/Graphics/SVG/1.1/DTD/svg11.dtd">
<svg version="1.1" id="Layer_1" xmlns="http://www.w3.org/2000/svg" xmlns:xlink="http://www.w3.org/1999/xlink" x="0px" y="0px"
	 viewBox="0 0 1314.5 1451.7" enable-background="new 0 0 1314.5 1451.7" xml:space="preserve">
<circle fill="#CCEBF2" cx="1215.1" cy="1207.2" r="99.4"/>
<path fill="#CCEBF2" d="M1094.1,1186.4c-0.4-39.1,31-71.2,70.2-71.6c39.1-0.4,71.2,31,71.6,70.2c0.4,39.1-31,71.2-70.2,71.6
	C1126.5,1257,1094.4,1225.6,1094.1,1186.4z"/>
<circle fill="#CCEBF2" cx="1209.1" cy="1191" r="51.8"/>
<path fill="#F7E799" d="M1182.6,1193.6c-0.1-6.1,4.8-11,10.9-11.1c6.1-0.1,11,4.8,11.1,10.9c0.1,6.1-4.8,11-10.9,11.1
	C1187.7,1204.5,1182.7,1199.6,1182.6,1193.6z"/>
<path fill="#F0B0CE" d="M1068.3,1363.6c-24.2-14-32.4-45-18.4-69.2c14-24.2,45-32.4,69.2-18.4c24.2,14,32.4,45,18.4,69.2
	C1123.5,1369.3,1092.5,1377.6,1068.3,1363.6z"/>
<circle fill="#F0B0CE" cx="1071.3" cy="1336.2" r="36.1"/>
<circle fill="#F0B0CE" cx="1085" cy="1318.2" r="26.3"/>
<path fill="#F7E799" d="M1083.8,1332.5c-4.5-2.6-6-8.4-3.4-12.9c2.6-4.5,8.4-6,12.9-3.4c4.5,2.6,6,8.4,3.4,12.9
	C1094.1,1333.6,1088.3,1335.1,1083.8,1332.5z"/>
<g>
	<path fill="#D8DE3B" d="M1158.7,1080.9c-2.8,24.1-24.6,41.5-48.7,38.7c-24.1-2.8-41.5-24.6-38.7-48.7c2.8-24.1,24.6-41.5,48.7-38.7
		C1144.1,1034.9,1161.5,1056.7,1158.7,1080.9z"/>
	<circle fill="#D8DE3B" cx="1096.8" cy="1088.1" r="31.4"/>
	<path fill="#D8DE3B" d="M1100.5,1085.9c-1.4,12.6-12.8,21.6-25.3,20.1c-12.6-1.4-21.6-12.8-20.1-25.3c1.4-12.6,12.8-21.6,25.3-20.1
		C1092.9,1062,1101.9,1073.4,1100.5,1085.9z"/>
	<circle fill="#F7E799" cx="1088.8" cy="1085.6" r="8.2"/>
</g>
<g>
	<path fill="#F07472" d="M1217.8,1254.1c18.9,22.6,15.9,56.2-6.6,75.1c-22.6,18.9-56.2,15.9-75.1-6.6c-18.9-22.6-15.9-56.2,6.6-75.1
		C1165.3,1228.6,1198.9,1231.6,1217.8,1254.1z"/>
	<circle fill="#F07472" cx="1205.1" cy="1280.2" r="38"/>
	<circle fill="#F07472" cx="1185" cy="1293" r="27.7"/>
	<circle fill="#F7E799" cx="1184" cy="1289" r="9"/>
</g>
<path fill="none" stroke="#8A7C46" stroke-width="1.7609" d="M513.2,911.5h116.5c0,0-44.7,31.7-71.6,31.7
	C531.2,943.2,513.2,911.5,513.2,911.5z"/>
<line fill="none" stroke="#8A7C46" stroke-width="1.7609" x1="513.2" y1="911.5" x2="388.5" y2="911.5"/>
<line fill="none" stroke="#8A7C46" stroke-width="1.7609" x1="535.8" y1="911.5" x2="546" y2="921.7"/>
<line fill="none" stroke="#8A7C46" stroke-width="1.7609" x1="552" y1="911.5" x2="559" y2="918.6"/>
<line fill="none" stroke="#8A7C46" stroke-width="1.7609" x1="568.9" y1="911.5" x2="573.5" y2="916.1"/>
<g>
	<g>
		<path fill="#C6B978" d="M513.2,901.2h128c0,0-49.1,34.8-78.7,34.8C533,936,513.2,901.2,513.2,901.2z"/>
	</g>
</g>
<g>
	<g>
		<path fill="#C6B978" d="M513,921.7h160.1c0,0-61.5,43.6-98.4,43.6C537.7,965.3,513,921.7,513,921.7z"/>
	</g>
</g>
<path fill="none" stroke="#8A7C46" stroke-width="2.5093" d="M1175.8,1288.5c0-4.7,3.8-8.5,8.5-8.5c4.7,0,8.5,3.8,8.5,8.5
	c0,4.7-3.8,8.5-8.5,8.5C1179.6,1297,1175.8,1293.2,1175.8,1288.5z"/>
<line fill="none" stroke="#8A7C46" stroke-width="2.5093" x1="1089.2" y1="1192" x2="1179" y2="1281.8"/>
<line fill="none" stroke="#8A7C46" stroke-width="2.5093" x1="388" y1="1192" x2="1183" y2="1192"/>
<line fill="none" stroke="#8A7C46" stroke-width="2.5093" x1="1089.2" y1="1192" x2="1089.2" y2="1315.9"/>
<g>
	<circle fill="none" stroke="#8A7C46" stroke-width="2.5093" cx="1142.3" cy="1140.2" r="8.5"/>
	<line fill="none" stroke="#8A7C46" stroke-width="2.5093" x1="1089.2" y1="1192" x2="1135.6" y2="1145.6"/>
</g>
<g>
	<circle fill="none" stroke="#8A7C46" stroke-width="2.5093" cx="1088.5" cy="1085.8" r="29.6"/>
	<path fill="none" stroke="#8A7C46" stroke-width="2.5093" d="M1082.5,1079.7c3.3-3.3,8.7-3.3,12.1,0c3.3,3.3,3.3,8.7,0,12.1
		c-3.3,3.3-8.7,3.3-12.1,0C1079.2,1088.5,1079.2,1083.1,1082.5,1079.7z"/>
	<circle fill="none" stroke="#8A7C46" stroke-width="2.5093" cx="1088.6" cy="1085.8" r="15.2"/>
</g>
<g>
	<path fill="none" stroke="#8A7C46" stroke-width="2.5093" d="M1211,1210.9c9.8-9.8,9.8-25.7,0-35.6c-9.8-9.8-25.7-9.8-35.6,0
		c-9.8,9.8-9.8,25.7,0,35.6S1201.2,1220.7,1211,1210.9z"/>
	<g>
		<g>
			<path fill="none" stroke="#8A7C46" stroke-width="2.5093" d="M1185.9,1200.4c-4-4-4-10.5,0-14.5c4-4,10.5-4,14.5,0
				c4,4,4,10.5,0,14.5C1196.5,1204.4,1189.9,1204.4,1185.9,1200.4z"/>
		</g>
		<path fill="none" stroke="#8A7C46" stroke-width="2.5093" d="M1217.7,1217.6c13.5-13.5,13.5-35.4,0-48.9
			c-13.5-13.5-35.4-13.5-48.9,0c-13.5,13.5-13.5,35.4,0,48.9C1182.2,1231.1,1204.2,1231.1,1217.7,1217.6z"/>
		<circle fill="none" stroke="#8A7C46" stroke-width="2.5093" cx="1193.2" cy="1193.1" r="18.3"/>
	</g>
	<line fill="none" stroke="#8A7C46" stroke-width="2.5093" x1="1227.8" y1="1227.5" x2="1222.1" y2="1222.1"/>
	<line fill="none" stroke="#8A7C46" stroke-width="2.5093" x1="1217.7" y1="1235.3" x2="1213.8" y2="1228.5"/>
	<line fill="none" stroke="#8A7C46" stroke-width="2.5093" x1="1205.9" y1="1240.1" x2="1203.9" y2="1232.6"/>
	<line fill="none" stroke="#8A7C46" stroke-width="2.5093" x1="1193.3" y1="1241.8" x2="1193.2" y2="1234.1"/>
	<line fill="none" stroke="#8A7C46" stroke-width="2.5093" x1="1180.7" y1="1240.1" x2="1182.6" y2="1232.7"/>
	<line fill="none" stroke="#8A7C46" stroke-width="2.5093" x1="1168.9" y1="1235.3" x2="1172.7" y2="1228.6"/>
	<line fill="none" stroke="#8A7C46" stroke-width="2.5093" x1="1158.8" y1="1227.5" x2="1164.2" y2="1222.1"/>
	<line fill="none" stroke="#8A7C46" stroke-width="2.5093" x1="1151" y1="1217.4" x2="1157.7" y2="1213.6"/>
	<line fill="none" stroke="#8A7C46" stroke-width="2.5093" x1="1153.6" y1="1203.7" x2="1146.2" y2="1205.6"/>
	<line fill="none" stroke="#8A7C46" stroke-width="2.5093" x1="1153.7" y1="1182.4" x2="1146.2" y2="1180.4"/>
	<line fill="none" stroke="#8A7C46" stroke-width="2.5093" x1="1157.8" y1="1172.5" x2="1151" y2="1168.6"/>
	<line fill="none" stroke="#8A7C46" stroke-width="2.5093" x1="1172.8" y1="1157.6" x2="1168.9" y2="1150.8"/>
	<line fill="none" stroke="#8A7C46" stroke-width="2.5093" x1="1182.7" y1="1153.5" x2="1180.7" y2="1145.9"/>
	<line fill="none" stroke="#8A7C46" stroke-width="2.5093" x1="1193.2" y1="1152.2" x2="1193.3" y2="1144.2"/>
	<line fill="none" stroke="#8A7C46" stroke-width="2.5093" x1="1203.8" y1="1153.6" x2="1205.9" y2="1145.9"/>
	<line fill="none" stroke="#8A7C46" stroke-width="2.5093" x1="1213.7" y1="1157.7" x2="1217.7" y2="1150.8"/>
	<line fill="none" stroke="#8A7C46" stroke-width="2.5093" x1="1222.1" y1="1164.2" x2="1227.8" y2="1158.5"/>
	<line fill="none" stroke="#8A7C46" stroke-width="2.5093" x1="1228.6" y1="1172.6" x2="1235.5" y2="1168.6"/>
	<line fill="none" stroke="#8A7C46" stroke-width="2.5093" x1="1240.4" y1="1180.4" x2="1232.7" y2="1182.5"/>
	<line fill="none" stroke="#8A7C46" stroke-width="2.5093" x1="1242.1" y1="1193" x2="1234.1" y2="1193"/>
	<line fill="none" stroke="#8A7C46" stroke-width="2.5093" x1="1240.4" y1="1205.6" x2="1232.8" y2="1203.6"/>
	<line fill="none" stroke="#8A7C46" stroke-width="2.5093" x1="1235.5" y1="1217.4" x2="1228.7" y2="1213.5"/>
	<line fill="none" stroke="#8A7C46" stroke-width="2.5093" x1="1158.8" y1="1158.5" x2="1164.3" y2="1164.1"/>
</g>
<g>
	<path fill="none" stroke="#8A7C46" stroke-width="2.5093" d="M1211,1210.9c9.8-9.8,9.8-25.7,0-35.6c-9.8-9.8-25.7-9.8-35.6,0
		c-9.8,9.8-9.8,25.7,0,35.6S1201.2,1220.7,1211,1210.9z"/>
	<g>
		<g>
			<path fill="none" stroke="#8A7C46" stroke-width="2.5093" d="M1185.9,1200.4c-4-4-4-10.5,0-14.5c4-4,10.5-4,14.5,0
				c4,4,4,10.5,0,14.5C1196.5,1204.4,1189.9,1204.4,1185.9,1200.4z"/>
		</g>
		<path fill="none" stroke="#8A7C46" stroke-width="2.5093" d="M1217.7,1217.6c13.5-13.5,13.5-35.4,0-48.9
			c-13.5-13.5-35.4-13.5-48.9,0c-13.5,13.5-13.5,35.4,0,48.9C1182.2,1231.1,1204.2,1231.1,1217.7,1217.6z"/>
		<circle fill="none" stroke="#8A7C46" stroke-width="2.5093" cx="1193.2" cy="1193.1" r="18.3"/>
	</g>
	<line fill="none" stroke="#8A7C46" stroke-width="2.5093" x1="1227.8" y1="1227.5" x2="1222.1" y2="1222.1"/>
	<line fill="none" stroke="#8A7C46" stroke-width="2.5093" x1="1217.7" y1="1235.3" x2="1213.8" y2="1228.5"/>
	<line fill="none" stroke="#8A7C46" stroke-width="2.5093" x1="1205.9" y1="1240.1" x2="1203.9" y2="1232.6"/>
	<line fill="none" stroke="#8A7C46" stroke-width="2.5093" x1="1193.3" y1="1241.8" x2="1193.2" y2="1234.1"/>
	<line fill="none" stroke="#8A7C46" stroke-width="2.5093" x1="1180.7" y1="1240.1" x2="1182.6" y2="1232.7"/>
	<line fill="none" stroke="#8A7C46" stroke-width="2.5093" x1="1168.9" y1="1235.3" x2="1172.7" y2="1228.6"/>
	<line fill="none" stroke="#8A7C46" stroke-width="2.5093" x1="1158.8" y1="1227.5" x2="1164.2" y2="1222.1"/>
	<line fill="none" stroke="#8A7C46" stroke-width="2.5093" x1="1151" y1="1217.4" x2="1157.7" y2="1213.6"/>
	<line fill="none" stroke="#8A7C46" stroke-width="2.5093" x1="1153.6" y1="1203.7" x2="1146.2" y2="1205.6"/>
	<line fill="none" stroke="#8A7C46" stroke-width="2.5093" x1="1153.7" y1="1182.4" x2="1146.2" y2="1180.4"/>
	<line fill="none" stroke="#8A7C46" stroke-width="2.5093" x1="1157.8" y1="1172.5" x2="1151" y2="1168.6"/>
	<line fill="none" stroke="#8A7C46" stroke-width="2.5093" x1="1172.8" y1="1157.6" x2="1168.9" y2="1150.8"/>
	<line fill="none" stroke="#8A7C46" stroke-width="2.5093" x1="1182.7" y1="1153.5" x2="1180.7" y2="1145.9"/>
	<line fill="none" stroke="#8A7C46" stroke-width="2.5093" x1="1193.2" y1="1152.2" x2="1193.3" y2="1144.2"/>
	<line fill="none" stroke="#8A7C46" stroke-width="2.5093" x1="1203.8" y1="1153.6" x2="1205.9" y2="1145.9"/>
	<line fill="none" stroke="#8A7C46" stroke-width="2.5093" x1="1213.7" y1="1157.7" x2="1217.7" y2="1150.8"/>
	<line fill="none" stroke="#8A7C46" stroke-width="2.5093" x1="1222.1" y1="1164.2" x2="1227.8" y2="1158.5"/>
	<line fill="none" stroke="#8A7C46" stroke-width="2.5093" x1="1228.6" y1="1172.6" x2="1235.5" y2="1168.6"/>
	<line fill="none" stroke="#8A7C46" stroke-width="2.5093" x1="1240.4" y1="1180.4" x2="1232.7" y2="1182.5"/>
	<line fill="none" stroke="#8A7C46" stroke-width="2.5093" x1="1242.1" y1="1193" x2="1234.1" y2="1193"/>
	<line fill="none" stroke="#8A7C46" stroke-width="2.5093" x1="1240.4" y1="1205.6" x2="1232.8" y2="1203.6"/>
	<line fill="none" stroke="#8A7C46" stroke-width="2.5093" x1="1235.5" y1="1217.4" x2="1228.7" y2="1213.5"/>
	<line fill="none" stroke="#8A7C46" stroke-width="2.5093" x1="1158.8" y1="1158.5" x2="1164.3" y2="1164.1"/>
</g>
<path fill="none" stroke="#8A7C46" stroke-width="2.5093" d="M1169.1,1288.5c0,8.4,6.8,15.2,15.2,15.2c8.4,0,15.2-6.8,15.2-15.2
	c0-8.4-6.8-15.2-15.2-15.2C1176,1273.2,1169.1,1280.1,1169.1,1288.5z"/>
<g>
	<circle fill="none" stroke="#8A7C46" stroke-width="2.5093" cx="1089.2" cy="1325" r="10.1"/>
	<circle fill="none" stroke="#8A7C46" stroke-width="2.5093" cx="1089.2" cy="1325" r="25.6"/>
	<circle fill="none" stroke="#8A7C46" stroke-width="2.5093" cx="1089.2" cy="1325" r="46.4"/>
	<circle fill="none" stroke="#8A7C46" stroke-width="2.5093" cx="1089.2" cy="1325" r="35.1"/>
	<g>
		<line fill="none" stroke="#8A7C46" stroke-width="2.5093" x1="1042.7" y1="1352.7" x2="1042.7" y2="1297.1"/>
		<circle fill="none" stroke="#8A7C46" stroke-width="2.5093" cx="1042.7" cy="1356.9" r="4.3"/>
		<path fill="none" stroke="#8A7C46" stroke-width="2.5093" d="M1042.7,1297.1c-2.4,0-4.3-1.9-4.3-4.3c0-2.4,1.9-4.3,4.3-4.3
			s4.3,1.9,4.3,4.3C1047,1295.1,1045.1,1297.1,1042.7,1297.1z"/>
	</g>
	<g>
		<line fill="none" stroke="#8A7C46" stroke-width="2.5093" x1="1135.6" y1="1352.7" x2="1135.6" y2="1297.1"/>
		<path fill="none" stroke="#8A7C46" stroke-width="2.5093" d="M1135.6,1361.2c-2.4,0-4.3-1.9-4.3-4.3c0-2.4,1.9-4.3,4.3-4.3
			c2.4,0,4.3,1.9,4.3,4.3C1139.9,1359.3,1138,1361.2,1135.6,1361.2z"/>
		<path fill="none" stroke="#8A7C46" stroke-width="2.5093" d="M1135.6,1297.1c-2.4,0-4.3-1.9-4.3-4.3c0-2.4,1.9-4.3,4.3-4.3
			c2.4,0,4.3,1.9,4.3,4.3C1139.9,1295.1,1138,1297.1,1135.6,1297.1z"/>
	</g>
	<g>
		<line fill="none" stroke="#8A7C46" stroke-width="2.5093" x1="1061.4" y1="1278.6" x2="1117" y2="1278.6"/>
		<circle fill="none" stroke="#8A7C46" stroke-width="2.5093" cx="1057.1" cy="1278.6" r="4.3"/>
		<circle fill="none" stroke="#8A7C46" stroke-width="2.5093" cx="1121.3" cy="1278.6" r="4.3"/>
	</g>
	<g>
		<line fill="none" stroke="#8A7C46" stroke-width="2.5093" x1="1061.4" y1="1371.5" x2="1117" y2="1371.5"/>
		<circle fill="none" stroke="#8A7C46" stroke-width="2.5093" cx="1057.1" cy="1371.5" r="4.3"/>
		<circle fill="none" stroke="#8A7C46" stroke-width="2.5093" cx="1121.3" cy="1371.5" r="4.3"/>
	</g>
</g>
<line fill="none" stroke="#8A7C46" stroke-width="2.5093" x1="1089.2" y1="1192" x2="1089.2" y2="1094.3"/>
<path fill="none" stroke="#8A7C46" stroke-width="2.5093" d="M1214,1288.5c0-16.4-13.3-29.6-29.6-29.6c-16.3,0-29.6,13.3-29.6,29.6
	c0,16.4,13.3,29.6,29.6,29.6C1200.7,1318.1,1214,1304.8,1214,1288.5z"/>
<line fill="none" stroke="#8A7C46" stroke-width="2.5093" x1="388" y1="4178" x2="388" y2="-1105.1"/>
</svg>
