<?xml version="1.0" encoding="utf-8"?>
<!-- Generator: Adobe Illustrator 18.0.0, SVG Export Plug-In . SVG Version: 6.00 Build 0)  -->
<!DOCTYPE svg PUBLIC "-//W3C//DTD SVG 1.1//EN" "http://www.w3.org/Graphics/SVG/1.1/DTD/svg11.dtd">
<svg version="1.1" class="img-responsive" xmlns="http://www.w3.org/2000/svg" xmlns:xlink="http://www.w3.org/1999/xlink" x="0px" y="0px"
	 viewBox="0 0 1314.5 1368.2" enable-background="new 0 0 1314.5 1368.2" xml:space="preserve">
<g>
	<g>
		<path fill="#C6B978" d="M296.9,890.9H64.4c0,0,89.2,63.2,142.9,63.2C261,954.2,296.9,890.9,296.9,890.9z"/>
	</g>
</g>
<g>
	<g>
		<path fill="#C6B978" d="M342.3,925.9H51.5c0,0,111.6,79.1,178.8,79.1C297.4,1005,342.3,925.9,342.3,925.9z"/>
	</g>
</g>
<g>
	<g>
		<path fill="none" stroke="#8A7C46" stroke-width="2.5093" d="M275.1,902.2H42.6c0,0,89.2,63.2,142.9,63.2
			C239.2,965.4,275.1,902.2,275.1,902.2z"/>
		<line fill="none" stroke="#8A7C46" stroke-width="2.5093" x1="275.1" y1="902.2" x2="388" y2="902.2"/>
	</g>
	<line fill="none" stroke="#8A7C46" stroke-width="2.5093" x1="230.1" y1="902.2" x2="209.7" y2="922.5"/>
	<line fill="none" stroke="#8A7C46" stroke-width="2.5093" x1="197.8" y1="902.2" x2="183.7" y2="916.2"/>
	<line fill="none" stroke="#8A7C46" stroke-width="2.5093" x1="164.1" y1="902.2" x2="154.9" y2="911.3"/>
</g>
<line fill="none" stroke="#8A7C46" stroke-width="2.5093" x1="388" y1="1319.8" x2="388" y2="-3963.3"/>
<line fill="none" stroke="#8A7C46" stroke-width="2.5093" x1="388" y1="1327.8" x2="388" y2="1340.6"/>
<line fill="none" stroke="#8A7C46" stroke-width="2.5093" x1="388" y1="1346.8" x2="388" y2="1359.6"/>
<g class="ci-animated-flower ci-flower-success">
	<g class="ci-flower-petals">
		<polygon class="ci-flower-petal" fill="#D8DE3B" stroke="#D8DE3B" stroke-width="0.5129" points="467.3,1298.8 474.1,1294.3 
			481.9,1296.9 487.3,1290.8 495.4,1291.2 499.1,1284 507.1,1282.3 508.8,1274.3 516.1,1270.6 515.6,1262.5 521.7,1257 
			519.1,1249.3 523.6,1242.4 519.1,1235.6 521.7,1227.9 515.6,1222.4 516.1,1214.3 508.8,1210.6 507.1,1202.6 499.1,1200.9 
			495.4,1193.6 487.3,1194.1 481.9,1188 474.1,1190.6 467.3,1186.1 460.4,1190.6 452.7,1188 447.2,1194.1 439.1,1193.6 
			435.4,1200.9 427.4,1202.6 425.8,1210.6 418.5,1214.3 418.9,1222.4 412.8,1227.9 415.4,1235.6 410.9,1242.4 415.4,1249.3 
			412.8,1257 418.9,1262.5 418.5,1270.6 425.8,1274.3 427.4,1282.3 435.4,1284 439.1,1291.2 447.2,1290.8 452.7,1296.9 
			460.4,1294.3 		"/>
		<circle class="ci-flower-petal" fill="#D8DE3B" stroke="#D8DE3B" stroke-width="0.446" cx="473.3" cy="1245" r="35.3"/>
		<circle class="ci-flower-petal" fill="#D8DE3B" stroke="#D8DE3B" stroke-width="0.446" cx="468.5" cy="1241.2" r="18.4"/>
	</g>
	<g class="ci-body">
		<circle fill="none" stroke="#8A7C46" stroke-width="2.5093" cx="469.6" cy="1234.7" r="10.2"/>
		<line fill="none" stroke="#8A7C46" stroke-width="2.5093" x1="486.7" y1="1145.6" x2="468.7" y2="1224.4"/>
	</g>
	<g class="ci-flower-disc">
		<path fill="none" stroke="#8A7C46" stroke-width="2.5093" d="M439.8,1204.9c16.5-16.5,43.2-16.5,59.6,0
			c16.5,16.5,16.5,43.2,0,59.6c-16.5,16.5-43.2,16.5-59.6,0C423.4,1248.1,423.4,1221.4,439.8,1204.9z"/>
		<circle fill="none" stroke="#8A7C46" stroke-width="2.5093" cx="469.6" cy="1234.7" r="36.4"/>
		<path fill="none" stroke="#8A7C46" stroke-width="2.5093" d="M454.2,1219.2c8.5-8.5,22.4-8.5,30.9,0c8.5,8.5,8.5,22.4,0,30.9
			c-8.5,8.5-22.4,8.5-30.9,0C445.6,1241.6,445.6,1227.8,454.2,1219.2z"/>
		<polygon fill="none" stroke="#8A7C46" stroke-width="2.5093" points="434.2,1199.1 432.7,1206.2 426.2,1209.5 426.7,1216.8 
			421.2,1221.6 423.5,1228.5 419.5,1234.6 423.5,1240.7 421.2,1247.6 426.7,1252.5 426.2,1259.7 432.7,1263 434.2,1270.1 
			441.4,1271.6 444.6,1278.1 451.9,1277.7 456.7,1283.1 463.7,1280.9 469.7,1284.8 475.8,1280.9 482.7,1283.1 487.6,1277.7 
			494.9,1278.1 498.1,1271.6 505.3,1270.1 506.7,1263 513.2,1259.7 512.8,1252.5 518.3,1247.6 516,1240.7 520,1234.6 516,1228.5 
			518.3,1221.6 512.8,1216.8 513.2,1209.5 506.7,1206.2 505.3,1199.1 498.1,1197.6 494.9,1191.1 487.6,1191.5 482.7,1186.1 
			475.8,1188.4 469.7,1184.4 463.7,1188.4 456.7,1186.1 451.9,1191.5 444.6,1191.1 441.4,1197.6 		"/>
	</g>
	<path class="ci-flower-pollen" fill="#F7E799" d="M472.3,1226.2c-4.6-1.4-9.6,1.2-11,5.9c-1.4,4.7,1.2,9.6,5.9,11
		c4.7,1.4,9.6-1.2,11-5.9C479.6,1232.5,477,1227.6,472.3,1226.2z"/>
</g>
<g class="ci-animated-flower ci-flower-warning">
	<g class="ci-flower-petals">
		<path class="ci-flower-petal" fill="#E683B4" d="M666.1,1185.9c-8.7-36.7-45.6-59.4-82.3-50.7c-36.7,8.7-59.4,45.6-50.7,82.3
			c8.7,36.7,45.6,59.4,82.3,50.7C652.1,1259.5,674.8,1222.6,666.1,1185.9z"/>
		<path class="ci-flower-petal" fill="#E683B4" d="M623.8,1167.2c-6-25.4-31.5-41.1-56.9-35.1c-25.4,6-41.1,31.5-35.1,56.9
			c6,25.4,31.5,41.1,56.9,35.1C614.1,1218.1,629.8,1192.6,623.8,1167.2z"/>
		<path class="ci-flower-petal" fill="#E683B4" d="M631.3,1154.7c-4.3-18.1-22.5-29.3-40.6-25c-18.1,4.3-29.3,22.5-25,40.6
			c4.3,18.1,22.5,29.3,40.6,25C624.4,1190.9,635.6,1172.8,631.3,1154.7z"/>
		<path class="ci-flower-petal" fill="#E683B4" d="M602.6,1164.3c-3.1-13.2-16.4-21.4-29.6-18.2c-13.2,3.1-21.4,16.4-18.3,29.6
			c3.1,13.2,16.4,21.4,29.6,18.2C597.6,1190.8,605.8,1177.5,602.6,1164.3z"/>
	</g>
	<path class="ci-flower-pollen" fill="#F7E799" d="M576.2,1157.2c-4.6-1.4-9.6,1.2-11,5.9c-1.4,4.7,1.2,9.6,5.9,11
		c4.7,1.4,9.6-1.2,11-5.9C583.5,1163.6,580.9,1158.7,576.2,1157.2z"/>
	<g class="ci-body">
		<circle fill="none" stroke="#8A7C46" stroke-width="2.5093" cx="574.2" cy="1165.6" r="10.2"/>
		<polyline fill="none" stroke="#8A7C46" stroke-width="2.5093" points="388,1145.6 487.8,1145.6 564,1165.6 		"/>
	</g>
	<g class="ci-flower-disc">
		<circle fill="none" stroke="#8A7C46" stroke-width="2.5093" cx="574.2" cy="1165.6" r="18.3"/>
		<path fill="none" stroke="#8A7C46" stroke-width="2.5093" d="M538.7,1165.6c0-19.6,15.9-35.5,35.5-35.5
			c19.6,0,35.5,15.9,35.5,35.5c0,19.6-15.9,35.5-35.5,35.5C554.6,1201.2,538.7,1185.2,538.7,1165.6z"/>
	</g>
</g>
<g class="ci-animated-flower ci-flower-primary">
	<g class="ci-flower-petals">
		<g class="ci-flower-petal">
			<circle fill="#F07472" cx="552.1" cy="1069.4" r="50.8"/>
			<path fill="#F07472" d="M522.4,1107c-2-1.6-5-1.3-6.6,0.7c-1.6,2-1.3,5,0.7,6.6c2,1.6,5,1.3,6.6-0.7
				C524.7,1111.5,524.4,1108.6,522.4,1107z"/>
			<path fill="#F07472" d="M595.1,1099c-2-1.6-5-1.3-6.6,0.7c-1.6,2-1.3,5,0.7,6.6c2,1.6,5,1.3,6.6-0.7
				C597.5,1103.5,597.2,1100.6,595.1,1099z"/>
			<circle fill="#F07472" cx="551.5" cy="1017.3" r="4.7"/>
			<path fill="#F07472" d="M504.3,1060c-2-1.6-5-1.3-6.6,0.7c-1.6,2-1.3,5,0.7,6.6c2,1.6,5,1.3,6.6-0.7
				C506.7,1064.6,506.4,1061.7,504.3,1060z"/>
			<path fill="#F07472" d="M589.5,1029.5c-2-1.6-5-1.3-6.6,0.7c-1.6,2-1.3,5,0.7,6.6c2,1.6,5,1.3,6.6-0.7
				C591.8,1034.1,591.5,1031.1,589.5,1029.5z"/>
			<path fill="#F07472" d="M566,1115.5c-2-1.6-5-1.3-6.6,0.7c-1.6,2-1.3,5,0.7,6.6c2,1.6,5,1.3,6.6-0.7
				C568.4,1120.1,568.1,1117.1,566,1115.5z"/>
			<path fill="#F07472" d="M518.2,1033.4c-2-1.6-5-1.3-6.6,0.7c-1.6,2-1.3,5,0.7,6.6c2,1.6,5,1.3,6.6-0.7
				C520.6,1038,520.3,1035,518.2,1033.4z"/>
		</g>
		<circle class="ci-flower-petal" fill="#F07472" cx="560.6" cy="1054.2" r="38.8"/>
		<circle class="ci-flower-petal" fill="#F07472" cx="528.8" cy="1090.7" r="27.7"/>
		<path class="ci-flower-petal" fill="#F07472" d="M574,1081.4c-0.8-11.1-10.4-19.5-21.5-18.8c-11.1,0.8-19.5,10.4-18.8,21.5
			c0.8,11.1,10.4,19.5,21.5,18.8C566.3,1102.2,574.7,1092.5,574,1081.4z"/>
	</g>
	<path class="ci-flower-pollen" fill="#F7E799" d="M556.7,1084.6c1.4-4.3-0.9-8.9-5.2-10.3c-4.3-1.4-8.9,1-10.3,5.2
		c-1.4,4.3,0.9,8.9,5.2,10.3C550.7,1091.2,555.3,1088.9,556.7,1084.6z"/>
	<g class="ci-flower-disc">
		<path fill="none" stroke="#8A7C46" stroke-width="2.5093" d="M526.6,1072.7c5.1-12,19-17.6,31.1-12.5c12,5.1,17.6,19,12.5,31.1
			c-5.1,12-19,17.6-31.1,12.5C527.1,1098.7,521.5,1084.8,526.6,1072.7z"/>
		<circle fill="none" stroke="#8A7C46" stroke-width="2.5093" cx="548.4" cy="1082" r="43"/>
		<circle fill="none" stroke="#8A7C46" stroke-width="2.5093" cx="548.4" cy="1082" r="32.5"/>
		<circle fill="none" stroke="#8A7C46" stroke-width="2.5093" cx="530" cy="1125.2" r="4"/>
		<circle fill="none" stroke="#8A7C46" stroke-width="2.5093" cx="566.8" cy="1038.8" r="4"/>
		<circle fill="none" stroke="#8A7C46" stroke-width="2.5093" cx="591.6" cy="1100.4" r="4"/>
		<circle fill="none" stroke="#8A7C46" stroke-width="2.5093" cx="524.7" cy="1041.5" r="4"/>
		<circle fill="none" stroke="#8A7C46" stroke-width="2.5093" cx="503.5" cy="1095.6" r="4"/>
		<path fill="none" stroke="#8A7C46" stroke-width="2.5093" d="M595,1062.9c-2-0.9-4.3,0.1-5.2,2.1c-0.9,2,0.1,4.3,2.1,5.2
			c2,0.9,4.3-0.1,5.2-2.1C597.9,1066.1,597,1063.7,595,1062.9z"/>
		<circle fill="none" stroke="#8A7C46" stroke-width="2.5093" cx="569.6" cy="1123.9" r="4"/>
		<circle fill="none" stroke="#8A7C46" stroke-width="2.5093" cx="505.2" cy="1063.6" r="4"/>
	</g>
	<g class="ci-body">
		<circle fill="none" stroke="#8A7C46" stroke-width="2.5093" cx="548.8" cy="1082" r="10.2"/>
		<line fill="none" stroke="#8A7C46" stroke-width="2.5093" x1="486.7" y1="1145.6" x2="542.4" y2="1089.9"/>
	</g>
</g>
<g class="ci-animated-flower ci-flower-info">
	<g class="ci-flower-petals">
		<circle class="ci-flower-petal" fill="#CCEBF2" cx="458" cy="1037" r="39.5"/>
		<circle class="ci-flower-petal" fill="#CCEBF2" cx="468.9" cy="1052" r="27.3"/>
		<circle class="ci-flower-petal" fill="#CCEBF2" cx="455.9" cy="1059.5" r="19.5"/>
		<path class="ci-flower-petal" fill="#CCEBF2" d="M453.7,1058.2c0.9,7.8,7.9,13.4,15.7,12.5c7.8-0.9,13.4-7.9,12.5-15.7
			c-0.9-7.8-7.9-13.4-15.7-12.5C458.4,1043.4,452.8,1050.4,453.7,1058.2z"/>
	</g>
	<path class="ci-flower-pollen" fill="#F7E799" d="M455.5,1058c0.6,5.4,5.5,9.3,10.9,8.6c5.4-0.6,9.3-5.5,8.6-10.9
		c-0.6-5.4-5.5-9.3-10.9-8.6C458.8,1047.8,454.9,1052.6,455.5,1058z"/>
	<g class="ci-body">
		<circle fill="none" stroke="#8A7C46" stroke-width="2.5093" cx="466.4" cy="1056.6" r="10.2"/>
		<line fill="none" stroke="#8A7C46" stroke-width="2.5093" x1="486.7" y1="1145.6" x2="467.5" y2="1066.8"/>
	</g>
	<circle class="ci-flower-disc" fill="none" stroke="#8A7C46" stroke-width="2.5093" cx="466.4" cy="1056.6" r="18.3"/>
</g>
</svg>
