<?xml version="1.0" encoding="utf-8"?>
<!-- Generator: Adobe Illustrator 16.0.0, SVG Export Plug-In . SVG Version: 6.00 Build 0)  -->
<!DOCTYPE svg PUBLIC "-//W3C//DTD SVG 1.1//EN" "http://www.w3.org/Graphics/SVG/1.1/DTD/svg11.dtd">
<svg version="1.1" id="Livello_1" xmlns="http://www.w3.org/2000/svg" xmlns:xlink="http://www.w3.org/1999/xlink" x="0px" y="0px"
	 width="960.385px" height="3456.769px" viewBox="0 0 960.385 3456.769" enable-background="new 0 0 960.385 3456.769"
	 xml:space="preserve">
<g>
	<g>
		<g>
			<path fill="none" stroke="#010202" stroke-width="2" d="M414.411,1249.445H282.055c0,0,50.794,36,81.37,36
				S414.411,1249.445,414.411,1249.445z"/>
			<line fill="none" stroke="#010202" stroke-width="2" x1="414.411" y1="1249.445" x2="478.719" y2="1249.445"/>
		</g>
		<line fill="none" stroke="#010202" stroke-width="2" x1="388.81" y1="1249.445" x2="377.21" y2="1261.044"/>
		<line fill="none" stroke="#010202" stroke-width="2" x1="370.411" y1="1249.445" x2="362.411" y2="1257.444"/>
		<line fill="none" stroke="#010202" stroke-width="2" x1="351.21" y1="1249.445" x2="346.01" y2="1254.645"/>
	</g>
	<g>
		<circle fill="#FFFFFF" stroke="#010202" stroke-width="2" cx="288.859" cy="2221.713" r="6.804"/>
		<g>
			<circle fill="#FFFFFF" stroke="#010202" stroke-width="2" cx="305.725" cy="2179.407" r="6.803"/>
			<line fill="none" stroke="#010202" stroke-width="2" x1="347.029" y1="2221.713" x2="310.007" y2="2184.69"/>
		</g>
		<line fill="none" stroke="#010202" stroke-width="2" x1="478.719" y1="2221.713" x2="295.663" y2="2221.713"/>
		<g>
			<circle fill="#FFFFFF" stroke="#010202" stroke-width="2" cx="347.737" cy="2162.592" r="6.803"/>
			<line fill="none" stroke="#010202" stroke-width="2" x1="347.029" y1="2221.713" x2="347.029" y2="2169.355"/>
		</g>
		<g>
			<circle fill="#FFFFFF" stroke="#010202" stroke-width="2" cx="346.321" cy="2280.834" r="6.803"/>
			<line fill="none" stroke="#010202" stroke-width="2" x1="347.029" y1="2221.713" x2="347.028" y2="2274.069"/>
		</g>
		<g>
			<circle fill="#FFFFFF" stroke="#010202" stroke-width="2" cx="304.724" cy="2263.017" r="6.804"/>
			<line fill="none" stroke="#010202" stroke-width="2" x1="347.029" y1="2221.713" x2="310.006" y2="2258.734"/>
		</g>
	</g>
	<g>
		<g>
			<circle fill="#FFFFFF" stroke="#010202" stroke-width="2" cx="706.686" cy="2376.817" r="6.803"/>
			<line fill="none" stroke="#010202" stroke-width="2" x1="665.381" y1="2334.513" x2="702.403" y2="2371.534"/>
		</g>
		<line fill="none" stroke="#010202" stroke-width="2" x1="478.719" y1="2334.513" x2="753.22" y2="2334.513"/>
		<g>
			<circle fill="#FFFFFF" stroke="#010202" stroke-width="2" cx="666.088" cy="2275.392" r="6.803"/>
			<line fill="none" stroke="#010202" stroke-width="2" x1="665.381" y1="2334.513" x2="665.382" y2="2282.155"/>
		</g>
		<g>
			<circle fill="#FFFFFF" stroke="#010202" stroke-width="2" cx="707.687" cy="2293.208" r="6.804"/>
			<line fill="none" stroke="#010202" stroke-width="2" x1="665.381" y1="2334.513" x2="702.404" y2="2297.49"/>
		</g>
	</g>
	<circle fill="none" stroke="#010202" stroke-width="2" cx="288.859" cy="2221.713" r="12.134"/>
	<circle fill="none" stroke="#010202" stroke-width="2" cx="347.736" cy="2162.592" r="12.133"/>
	<circle fill="none" stroke="#010202" stroke-width="2" cx="288.859" cy="2221.713" r="23.597"/>
	<g>
		<line fill="none" stroke="#010202" stroke-width="2" x1="672.049" y1="1890.062" x2="741.448" y2="1959.461"/>
	</g>
	<line fill="none" stroke="#010202" stroke-width="2" x1="478.719" y1="1890.062" x2="783.751" y2="1890.062"/>
	<g>
		<circle fill="#FFFFFF" stroke="#010202" stroke-width="2" cx="671.341" cy="1975.375" r="6.803"/>
		<line fill="none" stroke="#010202" stroke-width="2" x1="672.049" y1="1890.062" x2="672.049" y2="1968.612"/>
	</g>
	<g>
		<line fill="none" stroke="#010202" stroke-width="2" x1="672.049" y1="1890.062" x2="672.05" y2="1811.941"/>
	</g>
	<g>
		<circle fill="#FFFFFF" stroke="#010202" stroke-width="2" cx="714.354" cy="1848.758" r="6.804"/>
		<line fill="none" stroke="#010202" stroke-width="2" x1="672.049" y1="1890.062" x2="709.072" y2="1853.04"/>
	</g>
	<circle fill="none" stroke="#010202" stroke-width="2" cx="671.342" cy="1975.376" r="12.133"/>
	<g>
		<circle fill="#FFFFFF" stroke="#010202" stroke-width="2" cx="666.478" cy="2120.912" r="6.803"/>
		<g>
			<circle fill="#FFFFFF" stroke="#010202" stroke-width="2" cx="649.612" cy="2163.218" r="6.803"/>
			<line fill="none" stroke="#010202" stroke-width="2" x1="608.307" y1="2120.912" x2="645.33" y2="2157.935"/>
		</g>
		<line fill="none" stroke="#010202" stroke-width="2" x1="476.617" y1="2120.912" x2="659.674" y2="2120.912"/>
		<g>
			<circle fill="#FFFFFF" stroke="#010202" stroke-width="2" cx="607.6" cy="2180.033" r="6.803"/>
			<line fill="none" stroke="#010202" stroke-width="2" x1="608.307" y1="2120.912" x2="608.307" y2="2173.27"/>
		</g>
		<g>
			<circle fill="#FFFFFF" stroke="#010202" stroke-width="2" cx="609.015" cy="2061.791" r="6.803"/>
			<line fill="none" stroke="#010202" stroke-width="2" x1="608.307" y1="2120.912" x2="608.309" y2="2068.556"/>
		</g>
		<g>
			<circle fill="#FFFFFF" stroke="#010202" stroke-width="2" cx="650.613" cy="2079.608" r="6.804"/>
			<line fill="none" stroke="#010202" stroke-width="2" x1="608.307" y1="2120.912" x2="645.331" y2="2083.891"/>
		</g>
	</g>
	<circle fill="none" stroke="#010202" stroke-width="2" cx="649.613" cy="2163.218" r="23.597"/>
	<circle fill="none" stroke="#010202" stroke-width="2" cx="649.613" cy="2163.218" r="17.197"/>
	<circle fill="none" stroke="#010202" stroke-width="2" cx="666.478" cy="2120.912" r="17.197"/>
	<circle fill="none" stroke="#010202" stroke-width="2" cx="609.017" cy="2061.791" r="12.133"/>
	<g>
		<g>
			<path fill="none" stroke="#010202" stroke-width="2" d="M388.686,978.754H203.389c0,0,71.111,50.4,113.918,50.4
				S388.686,978.754,388.686,978.754z"/>
			<line fill="none" stroke="#010202" stroke-width="2" x1="388.686" y1="978.754" x2="478.718" y2="978.754"/>
		</g>
		<line fill="none" stroke="#010202" stroke-width="2" x1="352.845" y1="978.754" x2="336.606" y2="994.992"/>
		<line fill="none" stroke="#010202" stroke-width="2" x1="327.086" y1="978.754" x2="315.886" y2="989.953"/>
		<line fill="none" stroke="#010202" stroke-width="2" x1="300.207" y1="978.754" x2="292.926" y2="986.033"/>
	</g>
	<g>
		<g>
			<path fill="none" stroke="#010202" stroke-width="2" d="M540.477,1053.154h238.239c0,0-91.429,64.8-146.464,64.8
				C577.215,1117.954,540.477,1053.154,540.477,1053.154z"/>
			<line fill="none" stroke="#010202" stroke-width="2" x1="540.477" y1="1053.154" x2="478.718" y2="1053.154"/>
		</g>
		<line fill="none" stroke="#010202" stroke-width="2" x1="586.56" y1="1053.154" x2="607.437" y2="1074.033"/>
		<line fill="none" stroke="#010202" stroke-width="2" x1="619.677" y1="1053.154" x2="634.077" y2="1067.551"/>
		<line fill="none" stroke="#010202" stroke-width="2" x1="654.236" y1="1053.154" x2="663.597" y2="1062.513"/>
	</g>
	<g>
		<g>
			<path fill="none" stroke="#010202" stroke-width="2" d="M388.686,2014.521H203.389c0,0,71.111,50.4,113.918,50.4
				S388.686,2014.521,388.686,2014.521z"/>
			<line fill="none" stroke="#010202" stroke-width="2" x1="388.686" y1="2014.521" x2="478.718" y2="2014.521"/>
		</g>
		<line fill="none" stroke="#010202" stroke-width="2" x1="352.845" y1="2014.521" x2="336.606" y2="2030.76"/>
		<line fill="none" stroke="#010202" stroke-width="2" x1="327.086" y1="2014.521" x2="315.886" y2="2025.721"/>
		<line fill="none" stroke="#010202" stroke-width="2" x1="300.207" y1="2014.521" x2="292.926" y2="2021.801"/>
	</g>
	<circle fill="none" stroke="#010202" stroke-width="2" cx="347.736" cy="1445.35" r="23.597"/>
	<g>
		<g>
			<circle fill="none" stroke="#010202" stroke-width="2" cx="305.725" cy="1462.164" r="6.803"/>
			<line fill="none" stroke="#010202" stroke-width="2" x1="347.029" y1="1504.471" x2="310.007" y2="1467.447"/>
		</g>
		<line fill="none" stroke="#010202" stroke-width="2" x1="478.719" y1="1504.471" x2="272.21" y2="1504.471"/>
		<g>
			<circle fill="none" stroke="#010202" stroke-width="2" cx="347.737" cy="1445.35" r="6.803"/>
			<line fill="none" stroke="#010202" stroke-width="2" x1="347.029" y1="1504.471" x2="347.029" y2="1452.113"/>
		</g>
		<g>
			<circle fill="none" stroke="#010202" stroke-width="2" cx="346.321" cy="1563.592" r="6.803"/>
			<line fill="none" stroke="#010202" stroke-width="2" x1="347.029" y1="1504.471" x2="347.028" y2="1556.826"/>
		</g>
		<g>
			<circle fill="none" stroke="#010202" stroke-width="2" cx="304.724" cy="1545.774" r="6.804"/>
			<line fill="none" stroke="#010202" stroke-width="2" x1="347.029" y1="1504.471" x2="310.006" y2="1541.492"/>
		</g>
	</g>
	<circle fill="none" stroke="#010202" stroke-width="2" cx="347.736" cy="1445.35" r="12.133"/>
	<g>
		<path fill="none" stroke="#010202" stroke-width="2" d="M249.952,1489.435c-7.826,7.826-7.824,20.519,0.003,28.346
			c7.828,7.828,20.519,7.828,28.344,0.002c7.83-7.829,7.829-20.519,0.001-28.347
			C270.472,1481.607,257.781,1481.605,249.952,1489.435z"/>
		<g>
			<g>
				<path fill="#FFFFFF" stroke="#010202" stroke-width="2" d="M269.916,1497.82c3.203,3.202,3.201,8.392-0.002,11.595
					c-3.202,3.202-8.394,3.202-11.593,0c-3.204-3.201-3.201-8.391-0.002-11.595C261.521,1494.617,266.716,1494.62,269.916,1497.82z"
					/>
			</g>
			<path fill="none" stroke="#010202" stroke-width="2" d="M244.618,1484.117c-10.771,10.771-10.77,28.231,0,39.001
				c10.766,10.767,28.23,10.771,39-0.001c10.769-10.768,10.766-28.232,0-38.999C272.848,1473.349,255.386,1473.35,244.618,1484.117z
				"/>
			<circle fill="none" stroke="#010202" stroke-width="2" cx="264.116" cy="1503.618" r="14.622"/>
		</g>
		<line fill="none" stroke="#010202" stroke-width="2" x1="236.558" y1="1476.19" x2="241.048" y2="1480.531"/>
		<line fill="none" stroke="#010202" stroke-width="2" x1="244.61" y1="1470.013" x2="247.73" y2="1475.383"/>
		<line fill="none" stroke="#010202" stroke-width="2" x1="253.989" y1="1466.127" x2="255.603" y2="1472.1"/>
		<line fill="none" stroke="#010202" stroke-width="2" x1="264.051" y1="1464.802" x2="264.127" y2="1470.973"/>
		<line fill="none" stroke="#010202" stroke-width="2" x1="274.116" y1="1466.128" x2="272.531" y2="1472.069"/>
		<line fill="none" stroke="#010202" stroke-width="2" x1="283.493" y1="1470.012" x2="280.426" y2="1475.33"/>
		<line fill="none" stroke="#010202" stroke-width="2" x1="291.544" y1="1476.191" x2="287.203" y2="1480.533"/>
		<line fill="none" stroke="#010202" stroke-width="2" x1="297.724" y1="1484.242" x2="292.406" y2="1487.309"/>
		<line fill="none" stroke="#010202" stroke-width="2" x1="295.665" y1="1495.203" x2="301.608" y2="1493.619"/>
		<line fill="none" stroke="#010202" stroke-width="2" x1="295.635" y1="1512.132" x2="301.608" y2="1513.746"/>
		<line fill="none" stroke="#010202" stroke-width="2" x1="292.351" y1="1520.004" x2="297.723" y2="1523.126"/>
		<line fill="none" stroke="#010202" stroke-width="2" x1="280.373" y1="1531.92" x2="283.493" y2="1537.355"/>
		<line fill="none" stroke="#010202" stroke-width="2" x1="272.5" y1="1535.154" x2="274.114" y2="1541.239"/>
		<line fill="none" stroke="#010202" stroke-width="2" x1="264.127" y1="1536.242" x2="264.051" y2="1542.562"/>
		<line fill="none" stroke="#010202" stroke-width="2" x1="255.637" y1="1535.124" x2="253.988" y2="1541.239"/>
		<line fill="none" stroke="#010202" stroke-width="2" x1="247.789" y1="1531.861" x2="244.61" y2="1537.355"/>
		<line fill="none" stroke="#010202" stroke-width="2" x1="241.053" y1="1526.683" x2="236.558" y2="1531.177"/>
		<line fill="none" stroke="#010202" stroke-width="2" x1="235.874" y1="1519.945" x2="230.38" y2="1523.125"/>
		<line fill="none" stroke="#010202" stroke-width="2" x1="226.497" y1="1513.748" x2="232.612" y2="1512.1"/>
		<line fill="none" stroke="#010202" stroke-width="2" x1="225.17" y1="1503.683" x2="231.495" y2="1503.683"/>
		<line fill="none" stroke="#010202" stroke-width="2" x1="226.496" y1="1493.621" x2="232.587" y2="1495.208"/>
		<line fill="none" stroke="#010202" stroke-width="2" x1="230.38" y1="1484.242" x2="235.829" y2="1487.341"/>
		<line fill="none" stroke="#010202" stroke-width="2" x1="291.544" y1="1531.177" x2="287.128" y2="1526.761"/>
	</g>
	<g>
		<path fill="none" stroke="#010202" stroke-width="2" d="M249.952,1489.435c-7.826,7.826-7.824,20.519,0.003,28.346
			c7.828,7.828,20.519,7.828,28.344,0.002c7.83-7.829,7.829-20.519,0.001-28.347
			C270.472,1481.607,257.781,1481.605,249.952,1489.435z"/>
		<g>
			<g>
				<path fill="#FFFFFF" stroke="#010202" stroke-width="2" d="M269.916,1497.82c3.203,3.202,3.201,8.392-0.002,11.595
					c-3.202,3.202-8.394,3.202-11.593,0c-3.204-3.201-3.201-8.391-0.002-11.595C261.521,1494.617,266.716,1494.62,269.916,1497.82z"
					/>
			</g>
			<path fill="none" stroke="#010202" stroke-width="2" d="M244.618,1484.117c-10.771,10.771-10.77,28.231,0,39.001
				c10.766,10.767,28.23,10.771,39-0.001c10.769-10.768,10.766-28.232,0-38.999C272.848,1473.349,255.386,1473.35,244.618,1484.117z
				"/>
			<circle fill="none" stroke="#010202" stroke-width="2" cx="264.116" cy="1503.618" r="14.622"/>
		</g>
		<line fill="none" stroke="#010202" stroke-width="2" x1="236.558" y1="1476.19" x2="241.048" y2="1480.531"/>
		<line fill="none" stroke="#010202" stroke-width="2" x1="244.61" y1="1470.013" x2="247.73" y2="1475.383"/>
		<line fill="none" stroke="#010202" stroke-width="2" x1="253.989" y1="1466.127" x2="255.603" y2="1472.1"/>
		<line fill="none" stroke="#010202" stroke-width="2" x1="264.051" y1="1464.802" x2="264.127" y2="1470.973"/>
		<line fill="none" stroke="#010202" stroke-width="2" x1="274.116" y1="1466.128" x2="272.531" y2="1472.069"/>
		<line fill="none" stroke="#010202" stroke-width="2" x1="283.493" y1="1470.012" x2="280.426" y2="1475.33"/>
		<line fill="none" stroke="#010202" stroke-width="2" x1="291.544" y1="1476.191" x2="287.203" y2="1480.533"/>
		<line fill="none" stroke="#010202" stroke-width="2" x1="297.724" y1="1484.242" x2="292.406" y2="1487.309"/>
		<line fill="none" stroke="#010202" stroke-width="2" x1="295.665" y1="1495.203" x2="301.608" y2="1493.619"/>
		<line fill="none" stroke="#010202" stroke-width="2" x1="295.635" y1="1512.132" x2="301.608" y2="1513.746"/>
		<line fill="none" stroke="#010202" stroke-width="2" x1="292.351" y1="1520.004" x2="297.723" y2="1523.126"/>
		<line fill="none" stroke="#010202" stroke-width="2" x1="280.373" y1="1531.92" x2="283.493" y2="1537.355"/>
		<line fill="none" stroke="#010202" stroke-width="2" x1="272.5" y1="1535.154" x2="274.114" y2="1541.239"/>
		<line fill="none" stroke="#010202" stroke-width="2" x1="264.127" y1="1536.242" x2="264.051" y2="1542.562"/>
		<line fill="none" stroke="#010202" stroke-width="2" x1="255.637" y1="1535.124" x2="253.988" y2="1541.239"/>
		<line fill="none" stroke="#010202" stroke-width="2" x1="247.789" y1="1531.861" x2="244.61" y2="1537.355"/>
		<line fill="none" stroke="#010202" stroke-width="2" x1="241.053" y1="1526.683" x2="236.558" y2="1531.177"/>
		<line fill="none" stroke="#010202" stroke-width="2" x1="235.874" y1="1519.945" x2="230.38" y2="1523.125"/>
		<line fill="none" stroke="#010202" stroke-width="2" x1="226.497" y1="1513.748" x2="232.612" y2="1512.1"/>
		<line fill="none" stroke="#010202" stroke-width="2" x1="225.17" y1="1503.683" x2="231.495" y2="1503.683"/>
		<line fill="none" stroke="#010202" stroke-width="2" x1="226.496" y1="1493.621" x2="232.587" y2="1495.208"/>
		<line fill="none" stroke="#010202" stroke-width="2" x1="230.38" y1="1484.242" x2="235.829" y2="1487.341"/>
		<line fill="none" stroke="#010202" stroke-width="2" x1="291.544" y1="1531.177" x2="287.128" y2="1526.761"/>
	</g>
	<circle fill="none" stroke="#010202" stroke-width="2" cx="305.725" cy="1462.166" r="12.134"/>
	<g>
		<circle fill="none" stroke="#010202" stroke-width="2" cx="761.293" cy="2334.514" r="8.072"/>
		<circle fill="none" stroke="#010202" stroke-width="2" cx="761.293" cy="2334.515" r="20.405"/>
		<circle fill="none" stroke="#010202" stroke-width="2" cx="761.293" cy="2334.513" r="37.019"/>
		<circle fill="none" stroke="#010202" stroke-width="2" cx="761.293" cy="2334.513" r="27.997"/>
		<g>
			<line fill="none" stroke="#010202" stroke-width="2" x1="724.274" y1="2356.539" x2="724.274" y2="2312.224"/>
			<circle fill="none" stroke="#010202" stroke-width="2" cx="724.274" cy="2359.957" r="3.418"/>
			<path fill="none" stroke="#010202" stroke-width="2" d="M724.274,2312.224c-1.888,0-3.417-1.528-3.417-3.419
				c0-1.887,1.529-3.416,3.417-3.416c1.889,0,3.418,1.529,3.418,3.416C727.692,2310.695,726.163,2312.224,724.274,2312.224z"/>
		</g>
		<g>
			<line fill="none" stroke="#010202" stroke-width="2" x1="798.312" y1="2356.539" x2="798.312" y2="2312.224"/>
			<circle fill="none" stroke="#010202" stroke-width="2" cx="798.312" cy="2359.957" r="3.418"/>
			<path fill="none" stroke="#010202" stroke-width="2" d="M798.312,2312.224c-1.889,0-3.419-1.528-3.419-3.419
				c0-1.887,1.53-3.416,3.419-3.416c1.887,0,3.417,1.529,3.417,3.416C801.729,2310.695,800.199,2312.224,798.312,2312.224z"/>
		</g>
		<g>
			<line fill="none" stroke="#010202" stroke-width="2" x1="739.135" y1="2297.494" x2="783.451" y2="2297.494"/>
			<circle fill="none" stroke="#010202" stroke-width="2" cx="735.717" cy="2297.494" r="3.418"/>
			<circle fill="none" stroke="#010202" stroke-width="2" cx="786.869" cy="2297.494" r="3.418"/>
		</g>
		<g>
			<line fill="none" stroke="#010202" stroke-width="2" x1="739.135" y1="2371.532" x2="783.451" y2="2371.532"/>
			<circle fill="none" stroke="#010202" stroke-width="2" cx="735.717" cy="2371.532" r="3.418"/>
			<circle fill="none" stroke="#010202" stroke-width="2" cx="786.869" cy="2371.532" r="3.418"/>
		</g>
	</g>
	<circle fill="none" stroke="#010202" stroke-width="2" cx="666.089" cy="2275.392" r="23.597"/>
	<circle fill="none" stroke="#010202" stroke-width="2" cx="666.089" cy="2275.392" r="17.197"/>
	<line fill="none" stroke="#010202" stroke-width="2" x1="665.381" y1="2334.513" x2="665.381" y2="2414.059"/>
	<g>
		<g>
			<circle fill="none" stroke="#010202" stroke-width="2" cx="665.381" cy="2418.861" r="28.011"/>
			<circle fill="none" stroke="#010202" stroke-width="2" cx="665.381" cy="2418.861" r="24.162"/>
			<circle fill="none" stroke="#010202" stroke-width="2" cx="665.382" cy="2418.862" r="14.54"/>
			<polygon fill="none" stroke="#010202" stroke-width="2" points="688.913,2395.2 689.9,2399.934 694.216,2402.111 
				693.945,2406.938 697.55,2410.16 696.039,2414.753 698.686,2418.797 696.039,2422.842 697.55,2427.434 693.945,2430.655 
				694.216,2435.482 689.9,2437.661 688.913,2442.394 684.179,2443.38 682.001,2447.696 677.174,2447.425 673.954,2451.03 
				669.361,2449.519 665.316,2452.167 661.272,2449.519 656.679,2451.03 653.458,2447.425 648.631,2447.696 646.453,2443.38 
				641.72,2442.394 640.733,2437.661 636.417,2435.481 636.689,2430.655 633.083,2427.434 634.595,2422.841 631.947,2418.797 
				634.595,2414.752 633.083,2410.16 636.689,2406.938 636.417,2402.111 640.733,2399.934 641.72,2395.2 646.453,2394.214 
				648.631,2389.897 653.458,2390.169 656.679,2386.563 661.272,2388.075 665.316,2385.427 669.361,2388.075 673.953,2386.563 
				677.174,2390.169 682.001,2389.897 684.179,2394.214 			"/>
		</g>
		<circle fill="#FFFFFF" stroke="#010202" stroke-width="2" cx="665.381" cy="2418.862" r="6.803"/>
	</g>
	<g>
		<path fill="#FFFFFF" stroke="#010202" stroke-width="2" d="M795.22,1881.482c4.433,1.618,6.716,6.523,5.097,10.959
			c-1.618,4.434-6.524,6.714-10.957,5.096s-6.717-6.522-5.1-10.955C785.88,1882.145,790.787,1879.863,795.22,1881.482z"/>
		<circle fill="none" stroke="#010202" stroke-width="2" cx="792.29" cy="1889.51" r="21.601"/>
		<circle fill="none" stroke="#010202" stroke-width="2" cx="792.291" cy="1889.508" r="39.191"/>
		<circle fill="none" stroke="#010202" stroke-width="2" cx="792.291" cy="1889.509" r="29.64"/>
		<circle fill="none" stroke="#010202" stroke-width="2" cx="832.503" cy="1904.186" r="3.618"/>
		<circle fill="none" stroke="#010202" stroke-width="2" cx="752.076" cy="1874.83" r="3.618"/>
		<path fill="none" stroke="#010202" stroke-width="2" d="M774.213,1928.479c0.686-1.878,2.763-2.842,4.639-2.156
			c1.878,0.685,2.844,2.76,2.159,4.638c-0.686,1.879-2.763,2.844-4.64,2.159C774.495,1932.435,773.528,1930.358,774.213,1928.479z"
			/>
		<path fill="none" stroke="#010202" stroke-width="2" d="M776.662,1847.25c0.686-1.878,2.762-2.842,4.64-2.156
			s2.844,2.761,2.159,4.638c-0.688,1.879-2.763,2.845-4.641,2.159C776.943,1851.205,775.975,1849.13,776.662,1847.25z"/>
		<circle fill="none" stroke="#010202" stroke-width="2" cx="829.351" cy="1868.094" r="3.618"/>
		<path fill="none" stroke="#010202" stroke-width="2" d="M750.518,1908.585c0.685-1.878,2.762-2.842,4.639-2.158
			c1.878,0.687,2.844,2.762,2.159,4.639c-0.687,1.88-2.763,2.845-4.64,2.159C750.798,1912.539,749.833,1910.464,750.518,1908.585z"
			/>
		<path fill="none" stroke="#010202" stroke-width="2" d="M803.532,1928.493c0.684-1.877,2.761-2.843,4.638-2.158
			c1.879,0.686,2.845,2.762,2.159,4.639c-0.687,1.881-2.762,2.846-4.641,2.159C803.812,1932.448,802.845,1930.373,803.532,1928.493z
			"/>
		<circle fill="none" stroke="#010202" stroke-width="2" cx="806.968" cy="1849.294" r="3.618"/>
	</g>
	<g>
		<g>
			<path fill="#FFFFFF" stroke="#010202" stroke-width="2" d="M678.431,1798.276c3.133,3.13,3.133,8.211,0,11.347
				s-8.216,3.136-11.349,0c-3.134-3.132-3.134-8.212-0.002-11.347C670.215,1795.14,675.298,1795.14,678.431,1798.276z"/>
		</g>
		<path fill="none" stroke="#010202" stroke-width="2" stroke-dasharray="6" d="M672.757,1770.162
			c-18.661,0-33.785,15.127-33.785,33.786c0,18.655,15.124,33.786,33.785,33.786c18.659,0,33.785-15.131,33.785-33.786
			C706.542,1785.289,691.417,1770.162,672.757,1770.162z"/>
		<path fill="none" stroke="#010202" stroke-width="2" d="M672.757,1776.958c-14.908,0-26.992,12.082-26.992,26.99
			c0,14.903,12.084,26.992,26.992,26.992c14.906,0,26.991-12.089,26.991-26.992C699.749,1789.04,687.664,1776.958,672.757,1776.958z
			"/>
		<circle fill="none" stroke="#010202" stroke-width="2" cx="672.757" cy="1803.949" r="14.312"/>
	</g>
	<circle fill="none" stroke="#010202" stroke-width="2" cx="671.342" cy="1975.376" r="23.597"/>
	<g>
		<circle fill="#FFFFFF" stroke="#010202" stroke-width="2" cx="745.756" cy="1964.726" r="6.804"/>
		<g>
			<circle fill="none" stroke="#010202" stroke-width="2" cx="745.756" cy="1964.725" r="28.011"/>
			<circle fill="none" stroke="#010202" stroke-width="2" cx="745.756" cy="1964.725" r="24.162"/>
			<circle fill="none" stroke="#010202" stroke-width="2" cx="745.757" cy="1964.726" r="14.54"/>
			<polygon fill="none" stroke="#010202" stroke-width="2" points="769.288,1941.063 770.275,1945.797 774.591,1947.975 
				774.32,1952.802 777.925,1956.023 776.414,1960.616 779.061,1964.66 776.414,1968.705 777.925,1973.297 774.32,1976.519 
				774.591,1981.346 770.275,1983.524 769.288,1988.257 764.554,1989.243 762.376,1993.56 757.549,1993.288 754.329,1996.894 
				749.736,1995.382 745.691,1998.03 741.647,1995.382 737.054,1996.894 733.833,1993.288 729.006,1993.56 726.828,1989.243 
				722.095,1988.257 721.108,1983.524 716.792,1981.345 717.064,1976.519 713.458,1973.297 714.97,1968.704 712.322,1964.66 
				714.97,1960.615 713.458,1956.023 717.064,1952.802 716.792,1947.975 721.108,1945.797 722.095,1941.063 726.828,1940.077 
				729.006,1935.761 733.833,1936.032 737.054,1932.427 741.647,1933.938 745.691,1931.29 749.736,1933.938 754.328,1932.427 
				757.549,1936.032 762.376,1935.761 764.554,1940.077 			"/>
		</g>
	</g>
	<circle fill="none" stroke="#010202" stroke-width="2" cx="714.356" cy="1848.758" r="14.312"/>
	<g>
		<g>
			<path fill="none" stroke="#010202" stroke-width="2" d="M540.477,1606.48h238.239c0,0-91.429,64.8-146.464,64.8
				C577.215,1671.28,540.477,1606.48,540.477,1606.48z"/>
			<line fill="none" stroke="#010202" stroke-width="2" x1="540.477" y1="1606.48" x2="478.718" y2="1606.48"/>
		</g>
		<line fill="none" stroke="#010202" stroke-width="2" x1="586.56" y1="1606.48" x2="607.437" y2="1627.359"/>
		<line fill="none" stroke="#010202" stroke-width="2" x1="619.677" y1="1606.48" x2="634.077" y2="1620.877"/>
		<line fill="none" stroke="#010202" stroke-width="2" x1="654.236" y1="1606.48" x2="663.597" y2="1615.839"/>
	</g>
	<g>
		<g>
			<line fill="none" stroke="#010202" stroke-width="2" x1="285.389" y1="1759.496" x2="215.991" y2="1690.097"/>
		</g>
		<line fill="none" stroke="#010202" stroke-width="2" x1="478.719" y1="1759.496" x2="173.687" y2="1759.496"/>
		<g>
			<circle fill="#FFFFFF" stroke="#010202" stroke-width="2" cx="286.097" cy="1674.182" r="6.803"/>
			<line fill="none" stroke="#010202" stroke-width="2" x1="285.389" y1="1759.496" x2="285.389" y2="1680.945"/>
		</g>
		<g>
			<line fill="none" stroke="#010202" stroke-width="2" x1="285.389" y1="1759.496" x2="285.388" y2="1837.616"/>
		</g>
		<g>
			<circle fill="#FFFFFF" stroke="#010202" stroke-width="2" cx="243.084" cy="1800.8" r="6.804"/>
			<line fill="none" stroke="#010202" stroke-width="2" x1="285.389" y1="1759.496" x2="248.367" y2="1796.518"/>
		</g>
		<circle fill="none" stroke="#010202" stroke-width="2" cx="286.097" cy="1674.182" r="12.133"/>
		<g>
			<path fill="#FFFFFF" stroke="#010202" stroke-width="2" d="M162.218,1768.075c-4.433-1.618-6.716-6.523-5.097-10.959
				c1.618-4.434,6.524-6.714,10.957-5.096s6.717,6.522,5.1,10.955C171.558,1767.413,166.652,1769.694,162.218,1768.075z"/>
			<circle fill="none" stroke="#010202" stroke-width="2" cx="165.148" cy="1760.048" r="21.601"/>
			<circle fill="none" stroke="#010202" stroke-width="2" cx="165.148" cy="1760.049" r="39.191"/>
			<circle fill="none" stroke="#010202" stroke-width="2" cx="165.148" cy="1760.048" r="29.64"/>
			<circle fill="none" stroke="#010202" stroke-width="2" cx="124.935" cy="1745.372" r="3.618"/>
			<circle fill="none" stroke="#010202" stroke-width="2" cx="205.362" cy="1774.728" r="3.618"/>
			<path fill="none" stroke="#010202" stroke-width="2" d="M183.225,1721.078c-0.686,1.878-2.763,2.842-4.639,2.156
				c-1.878-0.685-2.844-2.76-2.159-4.638c0.686-1.879,2.763-2.844,4.64-2.159C182.944,1717.123,183.911,1719.199,183.225,1721.078z"
				/>
			<path fill="none" stroke="#010202" stroke-width="2" d="M180.777,1802.308c-0.686,1.878-2.762,2.842-4.64,2.156
				s-2.844-2.761-2.159-4.638c0.688-1.879,2.763-2.845,4.641-2.159C180.496,1798.353,181.463,1800.428,180.777,1802.308z"/>
			<circle fill="none" stroke="#010202" stroke-width="2" cx="128.087" cy="1781.463" r="3.618"/>
			<path fill="none" stroke="#010202" stroke-width="2" d="M206.92,1740.973c-0.685,1.878-2.762,2.842-4.639,2.158
				c-1.878-0.687-2.844-2.762-2.159-4.639c0.687-1.88,2.763-2.845,4.64-2.159C206.64,1737.019,207.606,1739.094,206.92,1740.973z"/>
			<path fill="none" stroke="#010202" stroke-width="2" d="M153.907,1721.064c-0.684,1.877-2.761,2.843-4.638,2.158
				c-1.879-0.686-2.845-2.762-2.159-4.639c0.687-1.881,2.762-2.846,4.641-2.159C153.626,1717.109,154.593,1719.185,153.907,1721.064
				z"/>
			<circle fill="none" stroke="#010202" stroke-width="2" cx="150.471" cy="1800.263" r="3.618"/>
		</g>
		<g>
			<g>
				<path fill="#FFFFFF" stroke="#010202" stroke-width="2" d="M279.007,1851.281c-3.133-3.13-3.133-8.211,0-11.347
					s8.216-3.136,11.349,0c3.134,3.132,3.134,8.212,0.002,11.347C287.223,1854.418,282.14,1854.418,279.007,1851.281z"/>
			</g>
			<path fill="none" stroke="#010202" stroke-width="2" stroke-dasharray="6" d="M284.681,1879.396
				c18.661,0,33.785-15.127,33.785-33.786c0-18.655-15.124-33.786-33.785-33.786c-18.659,0-33.785,15.131-33.785,33.786
				C250.896,1864.269,266.022,1879.396,284.681,1879.396z"/>
			<path fill="none" stroke="#010202" stroke-width="2" d="M284.681,1872.6c14.908,0,26.992-12.082,26.992-26.99
				c0-14.903-12.084-26.992-26.992-26.992c-14.906,0-26.991,12.089-26.991,26.992C257.69,1860.518,269.775,1872.6,284.681,1872.6z"
				/>
			<circle fill="none" stroke="#010202" stroke-width="2" cx="284.681" cy="1845.608" r="14.312"/>
		</g>
		<circle fill="none" stroke="#010202" stroke-width="2" cx="286.096" cy="1674.182" r="23.597"/>
		<g>
			<circle fill="#FFFFFF" stroke="#010202" stroke-width="2" cx="211.682" cy="1684.832" r="6.804"/>
			<g>
				<circle fill="none" stroke="#010202" stroke-width="2" cx="211.682" cy="1684.833" r="28.011"/>
				<circle fill="none" stroke="#010202" stroke-width="2" cx="211.682" cy="1684.833" r="24.162"/>
				<circle fill="none" stroke="#010202" stroke-width="2" cx="211.682" cy="1684.832" r="14.54"/>
				<polygon fill="none" stroke="#010202" stroke-width="2" points="188.151,1708.494 187.164,1703.761 182.847,1701.583 
					183.119,1696.756 179.513,1693.534 181.025,1688.941 178.377,1684.897 181.025,1680.853 179.513,1676.261 183.119,1673.039 
					182.847,1668.212 187.164,1666.033 188.151,1661.301 192.884,1660.314 195.062,1655.998 199.889,1656.27 203.11,1652.664 
					207.703,1654.176 211.748,1651.527 215.792,1654.176 220.384,1652.664 223.605,1656.27 228.432,1655.998 230.611,1660.314 
					235.343,1661.301 236.331,1666.033 240.646,1668.213 240.375,1673.039 243.98,1676.261 242.468,1680.854 245.117,1684.897 
					242.468,1688.942 243.98,1693.534 240.375,1696.756 240.646,1701.583 236.331,1703.761 235.343,1708.494 230.611,1709.48 
					228.432,1713.797 223.605,1713.525 220.384,1717.131 215.792,1715.619 211.748,1718.268 207.703,1715.619 203.111,1717.131 
					199.889,1713.525 195.062,1713.797 192.884,1709.48 				"/>
			</g>
		</g>
		<circle fill="none" stroke="#010202" stroke-width="2" cx="243.083" cy="1800.8" r="14.312"/>
	</g>
	<circle fill="none" stroke="#010202" stroke-width="2" cx="686.276" cy="1446.327" r="6.803"/>
	<line fill="none" stroke="#010202" stroke-width="2" x1="610.409" y1="1369.457" x2="681.994" y2="1441.044"/>
	<line fill="none" stroke="#010202" stroke-width="2" x1="478.718" y1="1369.457" x2="685.227" y2="1369.457"/>
	<line fill="none" stroke="#010202" stroke-width="2" x1="610.409" y1="1369.457" x2="610.409" y2="1471.392"/>
	<g>
		<circle fill="none" stroke="#010202" stroke-width="2" cx="652.714" cy="1328.153" r="6.804"/>
		<line fill="none" stroke="#010202" stroke-width="2" x1="610.409" y1="1369.457" x2="647.431" y2="1332.436"/>
	</g>
	<g>
		<circle fill="none" stroke="#010202" stroke-width="2" cx="609.911" cy="1284.771" r="23.597"/>
		<circle fill="none" stroke="#010202" stroke-width="2" cx="609.911" cy="1284.771" r="6.803"/>
		<circle fill="none" stroke="#010202" stroke-width="2" cx="609.911" cy="1284.771" r="12.133"/>
	</g>
	<g>
		<circle fill="none" stroke="#010202" stroke-width="2" cx="693.312" cy="1370.319" r="20.045"/>
		<g>
			<g>
				<circle fill="#FFFFFF" stroke="#010202" stroke-width="2" cx="693.32" cy="1370.31" r="8.199"/>
			</g>
			<path fill="none" stroke="#010202" stroke-width="2" d="M712.82,1389.811c10.771-10.771,10.771-28.231,0.001-39.001
				c-10.767-10.767-28.23-10.771-39.001,0.001c-10.769,10.768-10.766,28.232,0.001,38.999
				C684.59,1400.579,702.051,1400.578,712.82,1389.811z"/>
			<circle fill="none" stroke="#010202" stroke-width="2" cx="693.321" cy="1370.31" r="14.622"/>
		</g>
		<line fill="none" stroke="#010202" stroke-width="2" x1="720.879" y1="1397.737" x2="716.389" y2="1393.396"/>
		<line fill="none" stroke="#010202" stroke-width="2" x1="712.828" y1="1403.915" x2="709.708" y2="1398.545"/>
		<line fill="none" stroke="#010202" stroke-width="2" x1="703.448" y1="1407.801" x2="701.834" y2="1401.828"/>
		<line fill="none" stroke="#010202" stroke-width="2" x1="693.386" y1="1409.126" x2="693.31" y2="1402.955"/>
		<line fill="none" stroke="#010202" stroke-width="2" x1="683.321" y1="1407.8" x2="684.907" y2="1401.858"/>
		<line fill="none" stroke="#010202" stroke-width="2" x1="673.944" y1="1403.916" x2="677.011" y2="1398.598"/>
		<line fill="none" stroke="#010202" stroke-width="2" x1="665.893" y1="1397.736" x2="670.235" y2="1393.395"/>
		<line fill="none" stroke="#010202" stroke-width="2" x1="659.713" y1="1389.686" x2="665.032" y2="1386.619"/>
		<line fill="none" stroke="#010202" stroke-width="2" x1="661.772" y1="1378.725" x2="655.83" y2="1380.309"/>
		<line fill="none" stroke="#010202" stroke-width="2" x1="661.802" y1="1361.796" x2="655.83" y2="1360.182"/>
		<line fill="none" stroke="#010202" stroke-width="2" x1="665.086" y1="1353.924" x2="659.715" y2="1350.802"/>
		<line fill="none" stroke="#010202" stroke-width="2" x1="677.065" y1="1342.008" x2="673.945" y2="1336.572"/>
		<line fill="none" stroke="#010202" stroke-width="2" x1="684.938" y1="1338.773" x2="683.323" y2="1332.688"/>
		<line fill="none" stroke="#010202" stroke-width="2" x1="693.311" y1="1337.686" x2="693.386" y2="1331.365"/>
		<line fill="none" stroke="#010202" stroke-width="2" x1="701.801" y1="1338.804" x2="703.45" y2="1332.688"/>
		<line fill="none" stroke="#010202" stroke-width="2" x1="709.649" y1="1342.066" x2="712.827" y2="1336.572"/>
		<line fill="none" stroke="#010202" stroke-width="2" x1="716.385" y1="1347.245" x2="720.879" y2="1342.751"/>
		<line fill="none" stroke="#010202" stroke-width="2" x1="721.564" y1="1353.982" x2="727.057" y2="1350.803"/>
		<line fill="none" stroke="#010202" stroke-width="2" x1="730.941" y1="1360.18" x2="724.825" y2="1361.828"/>
		<line fill="none" stroke="#010202" stroke-width="2" x1="732.267" y1="1370.245" x2="725.943" y2="1370.245"/>
		<line fill="none" stroke="#010202" stroke-width="2" x1="730.942" y1="1380.307" x2="724.85" y2="1378.72"/>
		<line fill="none" stroke="#010202" stroke-width="2" x1="727.057" y1="1389.686" x2="721.609" y2="1386.587"/>
		<line fill="none" stroke="#010202" stroke-width="2" x1="665.893" y1="1342.751" x2="670.309" y2="1347.167"/>
	</g>
	<g>
		<circle fill="none" stroke="#010202" stroke-width="2" cx="693.312" cy="1370.319" r="20.045"/>
		<g>
			<g>
				<circle fill="#FFFFFF" stroke="#010202" stroke-width="2" cx="693.32" cy="1370.31" r="8.199"/>
			</g>
			<path fill="none" stroke="#010202" stroke-width="2" d="M712.82,1389.811c10.771-10.771,10.771-28.231,0.001-39.001
				c-10.767-10.767-28.23-10.771-39.001,0.001c-10.769,10.768-10.766,28.232,0.001,38.999
				C684.59,1400.579,702.051,1400.578,712.82,1389.811z"/>
			<circle fill="none" stroke="#010202" stroke-width="2" cx="693.321" cy="1370.31" r="14.622"/>
		</g>
		<line fill="none" stroke="#010202" stroke-width="2" x1="720.879" y1="1397.737" x2="716.389" y2="1393.396"/>
		<line fill="none" stroke="#010202" stroke-width="2" x1="712.828" y1="1403.915" x2="709.708" y2="1398.545"/>
		<line fill="none" stroke="#010202" stroke-width="2" x1="703.448" y1="1407.801" x2="701.834" y2="1401.828"/>
		<line fill="none" stroke="#010202" stroke-width="2" x1="693.386" y1="1409.126" x2="693.31" y2="1402.955"/>
		<line fill="none" stroke="#010202" stroke-width="2" x1="683.321" y1="1407.8" x2="684.907" y2="1401.858"/>
		<line fill="none" stroke="#010202" stroke-width="2" x1="673.944" y1="1403.916" x2="677.011" y2="1398.598"/>
		<line fill="none" stroke="#010202" stroke-width="2" x1="665.893" y1="1397.736" x2="670.235" y2="1393.395"/>
		<line fill="none" stroke="#010202" stroke-width="2" x1="659.713" y1="1389.686" x2="665.032" y2="1386.619"/>
		<line fill="none" stroke="#010202" stroke-width="2" x1="661.772" y1="1378.725" x2="655.83" y2="1380.309"/>
		<line fill="none" stroke="#010202" stroke-width="2" x1="661.802" y1="1361.796" x2="655.83" y2="1360.182"/>
		<line fill="none" stroke="#010202" stroke-width="2" x1="665.086" y1="1353.924" x2="659.715" y2="1350.802"/>
		<line fill="none" stroke="#010202" stroke-width="2" x1="677.065" y1="1342.008" x2="673.945" y2="1336.572"/>
		<line fill="none" stroke="#010202" stroke-width="2" x1="684.938" y1="1338.773" x2="683.323" y2="1332.688"/>
		<line fill="none" stroke="#010202" stroke-width="2" x1="693.311" y1="1337.686" x2="693.386" y2="1331.365"/>
		<line fill="none" stroke="#010202" stroke-width="2" x1="701.801" y1="1338.804" x2="703.45" y2="1332.688"/>
		<line fill="none" stroke="#010202" stroke-width="2" x1="709.649" y1="1342.066" x2="712.827" y2="1336.572"/>
		<line fill="none" stroke="#010202" stroke-width="2" x1="716.385" y1="1347.245" x2="720.879" y2="1342.751"/>
		<line fill="none" stroke="#010202" stroke-width="2" x1="721.564" y1="1353.982" x2="727.057" y2="1350.803"/>
		<line fill="none" stroke="#010202" stroke-width="2" x1="730.941" y1="1360.18" x2="724.825" y2="1361.828"/>
		<line fill="none" stroke="#010202" stroke-width="2" x1="732.267" y1="1370.245" x2="725.943" y2="1370.245"/>
		<line fill="none" stroke="#010202" stroke-width="2" x1="730.942" y1="1380.307" x2="724.85" y2="1378.72"/>
		<line fill="none" stroke="#010202" stroke-width="2" x1="727.057" y1="1389.686" x2="721.609" y2="1386.587"/>
		<line fill="none" stroke="#010202" stroke-width="2" x1="665.893" y1="1342.751" x2="670.309" y2="1347.167"/>
	</g>
	<circle fill="none" stroke="#010202" stroke-width="2" cx="686.276" cy="1446.325" r="12.134"/>
	<g>
		<circle fill="none" stroke="#010202" stroke-width="2" cx="610.409" cy="1475.464" r="8.072"/>
		<circle fill="none" stroke="#010202" stroke-width="2" cx="610.409" cy="1475.465" r="20.405"/>
		<circle fill="none" stroke="#010202" stroke-width="2" cx="610.409" cy="1475.463" r="37.019"/>
		<circle fill="none" stroke="#010202" stroke-width="2" cx="610.409" cy="1475.463" r="27.997"/>
		<g>
			<line fill="none" stroke="#010202" stroke-width="2" x1="573.389" y1="1497.489" x2="573.389" y2="1453.174"/>
			<circle fill="none" stroke="#010202" stroke-width="2" cx="573.389" cy="1500.907" r="3.418"/>
			<path fill="none" stroke="#010202" stroke-width="2" d="M573.389,1453.174c-1.888,0-3.417-1.528-3.417-3.419
				c0-1.887,1.529-3.416,3.417-3.416c1.889,0,3.418,1.529,3.418,3.416C576.807,1451.646,575.278,1453.174,573.389,1453.174z"/>
		</g>
		<g>
			<line fill="none" stroke="#010202" stroke-width="2" x1="647.427" y1="1497.489" x2="647.427" y2="1453.174"/>
			<circle fill="none" stroke="#010202" stroke-width="2" cx="647.427" cy="1500.907" r="3.418"/>
			<path fill="none" stroke="#010202" stroke-width="2" d="M647.427,1453.174c-1.889,0-3.419-1.528-3.419-3.419
				c0-1.887,1.53-3.416,3.419-3.416c1.887,0,3.417,1.529,3.417,3.416C650.844,1451.646,649.314,1453.174,647.427,1453.174z"/>
		</g>
		<g>
			<line fill="none" stroke="#010202" stroke-width="2" x1="588.25" y1="1438.444" x2="632.566" y2="1438.444"/>
			<circle fill="none" stroke="#010202" stroke-width="2" cx="584.833" cy="1438.444" r="3.418"/>
			<circle fill="none" stroke="#010202" stroke-width="2" cx="635.984" cy="1438.444" r="3.418"/>
		</g>
		<g>
			<line fill="none" stroke="#010202" stroke-width="2" x1="588.25" y1="1512.482" x2="632.566" y2="1512.482"/>
			<circle fill="none" stroke="#010202" stroke-width="2" cx="584.833" cy="1512.482" r="3.418"/>
			<circle fill="none" stroke="#010202" stroke-width="2" cx="635.984" cy="1512.482" r="3.418"/>
		</g>
	</g>
	<line fill="none" stroke="#010202" stroke-width="2" x1="610.409" y1="1369.457" x2="610.409" y2="1291.551"/>
	<circle fill="none" stroke="#010202" stroke-width="2" cx="686.277" cy="1446.325" r="23.597"/>
	<g>
		<rect x="477.719" fill="#010202" width="2" height="3456.768"/>
	</g>
	<g>
		<g>
			<path fill="#C6B979" d="M381.415,1991.221H196.118c0,0,71.111,50.399,113.918,50.399S381.415,1991.221,381.415,1991.221z"/>
		</g>
	</g>
	<g>
		<g>
			<path fill="#C6B979" d="M417.427,2004.736H185.633c0,0,88.956,63.046,142.504,63.046S417.427,2004.736,417.427,2004.736z"/>
		</g>
	</g>
	<g>
		<g>
			<path fill="#C6B979" d="M389.171,1247.711H243.786c0,0,55.795,39.544,89.381,39.544
				C366.753,1287.255,389.171,1247.711,389.171,1247.711z"/>
		</g>
	</g>
	<g>
		<g>
			<path fill="#C6B979" d="M417.427,1258.316H235.559c0,0,69.795,49.466,111.81,49.466
				C389.383,1307.782,417.427,1258.316,417.427,1258.316z"/>
		</g>
	</g>
	<g>
		<g>
			<path fill="#C6B979" d="M381.415,969.221H196.118c0,0,71.111,50.399,113.918,50.399S381.415,969.221,381.415,969.221z"/>
		</g>
	</g>
	<g>
		<g>
			<path fill="#C6B979" d="M417.427,982.736H185.633c0,0,88.956,63.046,142.504,63.046S417.427,982.736,417.427,982.736z"/>
		</g>
	</g>
	<g>
		<g>
			<path fill="#C6B979" d="M510.309,1049.254h334.596c0,0-128.407,91.008-205.704,91.008
				C561.903,1140.262,510.309,1049.254,510.309,1049.254z"/>
		</g>
	</g>
	<g>
		<g>
			<path fill="#C6B979" d="M528.763,1061.27h240.848c0,0-92.429,65.508-148.07,65.508
				C565.902,1126.777,528.763,1061.27,528.763,1061.27z"/>
		</g>
	</g>
	<g>
		<g>
			<path fill="#C6B979" d="M510.309,1589.254h334.596c0,0-128.407,91.008-205.704,91.008
				C561.903,1680.262,510.309,1589.254,510.309,1589.254z"/>
		</g>
	</g>
	<g>
		<g>
			<path fill="#C6B979" d="M528.763,1601.27h240.848c0,0-92.429,65.508-148.07,65.508
				C565.902,1666.777,528.763,1601.27,528.763,1601.27z"/>
		</g>
	</g>
	<circle fill="#CCE9F2" cx="715.333" cy="1384.914" r="79.248"/>
	<circle fill="#CCE9F2" cx="675.372" cy="1367.781" r="56.498"/>
	<circle fill="#CCE9F2" cx="710.581" cy="1372.002" r="41.248"/>
	<circle fill="#F8E79B" cx="701.426" cy="1369.139" r="14.748"/>
	<circle fill="#CCE9F2" cx="242.908" cy="1493.44" r="79.248"/>
	<circle fill="#CCE9F2" cx="282.869" cy="1510.573" r="56.498"/>
	<circle fill="#CCE9F2" cx="247.659" cy="1506.353" r="41.248"/>
	<circle fill="#F8E79B" cx="256.814" cy="1509.216" r="14.748"/>
	<g>
		<path fill="#D7DB32" d="M241.49,1668.546c-1.748,27.307-25.298,48.028-52.611,46.279c-27.31-1.747-48.031-25.303-46.284-52.61
			c1.749-27.31,25.303-48.032,52.614-46.284C222.519,1617.679,243.239,1641.233,241.49,1668.546z"/>
		<circle fill="#D7DB32" cx="214.303" cy="1669.931" r="38.287"/>
		<circle fill="#D7DB32" cx="204.527" cy="1684.995" r="26.466"/>
		<circle fill="#D7DB32" cx="217.412" cy="1691.686" r="18.869"/>
		<path fill="#D7DB32" d="M219.539,1690.291c-0.488,7.594-7.038,13.354-14.628,12.866c-7.592-0.484-13.354-7.032-12.869-14.624
			c0.487-7.595,7.036-13.354,14.627-12.868C214.263,1676.149,220.024,1682.699,219.539,1690.291z"/>
		<path fill="#F8E79B" d="M213.695,1688.532c-0.176,2.712-2.515,4.772-5.231,4.6c-2.715-0.175-4.775-2.515-4.601-5.23
			c0.173-2.714,2.516-4.775,5.23-4.601C211.809,1683.476,213.868,1685.814,213.695,1688.532z"/>
	</g>
	<g>
		<circle fill="#D7DB32" cx="669.414" cy="2179.48" r="33.618"/>
		<circle fill="#D7DB32" cx="658.443" cy="2168.155" r="23.238"/>
		<circle fill="#D7DB32" cx="650.186" cy="2177.867" r="16.567"/>
		<circle fill="#D7DB32" cx="654.415" cy="2168.369" r="12.096"/>
		<circle fill="#F8E79B" cx="654.851" cy="2171.161" r="4.326"/>
	</g>
	<g>
		<path fill="#D7DB32" d="M717.56,1990.519c-3.592-27.126,15.482-52.029,42.615-55.621c27.127-3.593,52.032,15.486,55.624,42.613
			c3.592,27.129-15.486,52.033-42.615,55.626C746.054,2036.729,721.152,2017.65,717.56,1990.519z"/>
		<circle fill="#D7DB32" cx="743.96" cy="1983.877" r="38.287"/>
		<circle fill="#D7DB32" cx="750.622" cy="1967.2" r="26.466"/>
		<circle fill="#D7DB32" cx="736.682" cy="1963.141" r="18.868"/>
		<path fill="#D7DB32" d="M734.868,1964.922c-0.997-7.544,4.307-14.467,11.848-15.463c7.542-1.001,14.467,4.303,15.465,11.844
			c0.998,7.545-4.307,14.467-11.847,15.466C742.79,1977.769,735.866,1972.464,734.868,1964.922z"/>
		<circle fill="#F8E79B" cx="745.825" cy="1964.866" r="4.926"/>
	</g>
	<g>
		<path fill="#D7DB32" d="M627.733,2427.639c9.002-25.84,37.242-39.493,63.088-30.489c25.842,9,39.496,37.247,30.494,63.088
			c-9.002,25.842-37.247,39.496-63.091,30.494S618.73,2453.484,627.733,2427.639z"/>
		<circle fill="#D7DB32" cx="654.297" cy="2433.59" r="38.287"/>
		<circle fill="#D7DB32" cx="667.752" cy="2421.696" r="26.466"/>
		<circle fill="#D7DB32" cx="657.131" cy="2411.797" r="18.868"/>
		<path fill="#D7DB32" d="M654.708,2412.57c2.505-7.185,10.358-10.98,17.54-8.476c7.185,2.501,10.982,10.354,8.479,17.537
			c-2.505,7.187-10.356,10.979-17.54,8.479C656.001,2427.608,652.207,2419.755,654.708,2412.57z"/>
		<path fill="#F8E79B" d="M659.868,2415.831c0.896-2.565,3.7-3.924,6.271-3.03c2.568,0.896,3.927,3.702,3.031,6.272
			c-0.895,2.568-3.703,3.927-6.271,3.031C660.329,2421.208,658.973,2418.403,659.868,2415.831z"/>
	</g>
	<g>
		<circle fill="#F1B1D1" cx="622.158" cy="1504.003" r="58.753"/>
		<circle fill="#F1B1D1" cx="618.586" cy="1474.63" r="40.338"/>
		<circle fill="#F1B1D1" cx="600.716" cy="1487.686" r="28.757"/>
		<circle fill="#F1B1D1" cx="611.699" cy="1473.361" r="20.996"/>
		<circle fill="#F8E79B" cx="611.304" cy="1478.251" r="7.507"/>
	</g>
	<g>
		<circle fill="#E383B4" cx="295.577" cy="1663.002" r="31.779"/>
		<circle fill="#E383B4" cx="283.014" cy="1671.029" r="21.967"/>
		<circle fill="#E383B4" cx="290.455" cy="1680.509" r="15.661"/>
		<circle fill="#E383B4" cx="282.453" cy="1674.8" r="11.434"/>
		<circle fill="#F8E79B" cx="285.122" cy="1674.924" r="4.088"/>
	</g>
	<g>
		<circle fill="#E383B4" cx="662.423" cy="1981.627" r="31.779"/>
		<circle fill="#E383B4" cx="676.425" cy="1976.511" r="21.967"/>
		<circle fill="#E383B4" cx="671.213" cy="1965.645" r="15.661"/>
		<circle fill="#E383B4" cx="677.79" cy="1972.95" r="11.434"/>
		<circle fill="#F8E79B" cx="675.211" cy="1972.252" r="4.089"/>
	</g>
	<g>
		<circle fill="#E383B4" cx="273.569" cy="2225.182" r="31.779"/>
		<circle fill="#E383B4" cx="288.128" cy="2228.39" r="21.967"/>
		<circle fill="#E383B4" cx="289.57" cy="2216.424" r="15.661"/>
		<circle fill="#E383B4" cx="291.191" cy="2226.12" r="11.434"/>
		<circle fill="#F8E79B" cx="289.392" cy="2224.145" r="4.088"/>
	</g>
	<g>
		<circle fill="#EE7473" cx="164.886" cy="1765.226" r="55.609"/>
		<path fill="#EE7473" d="M109.744,1758.043c-0.366,2.812-2.94,4.793-5.752,4.428c-2.813-0.367-4.795-2.941-4.429-5.754
			c0.366-2.814,2.941-4.793,5.756-4.427C108.129,1752.656,110.111,1755.229,109.744,1758.043z"/>
		<path fill="#EE7473" d="M177.824,1705.656c-0.366,2.812-2.942,4.793-5.753,4.427c-2.814-0.366-4.795-2.94-4.429-5.752
			c0.367-2.814,2.941-4.795,5.754-4.429C176.208,1700.27,178.19,1702.842,177.824,1705.656z"/>
		<path fill="#EE7473" d="M199.638,1818.887c-0.366,2.812-2.942,4.793-5.754,4.427c-2.812-0.366-4.794-2.94-4.428-5.753
			c0.367-2.814,2.942-4.795,5.754-4.428C198.021,1813.498,200.005,1816.073,199.638,1818.887z"/>
		<path fill="#EE7473" d="M125.307,1807.037c-0.366,2.811-2.942,4.793-5.752,4.427c-2.813-0.366-4.796-2.94-4.43-5.753
			c0.367-2.815,2.942-4.795,5.756-4.428C123.69,1801.649,125.673,1804.223,125.307,1807.037z"/>
		<path fill="#EE7473" d="M216.806,1725.852c-0.367,2.812-2.941,4.792-5.752,4.426c-2.813-0.367-4.795-2.939-4.43-5.752
			c0.368-2.814,2.942-4.794,5.756-4.428C215.19,1720.463,217.172,1723.037,216.806,1725.852z"/>
		<path fill="#EE7473" d="M137.228,1714.735c-0.367,2.812-2.943,4.792-5.754,4.426c-2.814-0.367-4.796-2.941-4.428-5.752
			c0.367-2.815,2.94-4.795,5.753-4.429C135.611,1709.347,137.594,1711.92,137.228,1714.735z"/>
		<path fill="#EE7473" d="M162.132,1826.123c-0.366,2.813-2.941,4.793-5.755,4.426c-2.812-0.365-4.793-2.939-4.427-5.751
			c0.367-2.813,2.941-4.795,5.753-4.429C160.516,1820.734,162.498,1823.311,162.132,1826.123z"/>
	</g>
	<circle fill="#EE7473" cx="159.108" cy="1768.219" r="42.473"/>
	<circle fill="#EE7473" cx="181.487" cy="1761.721" r="30.281"/>
	<circle fill="#EE7473" cx="165.468" cy="1771.95" r="22.107"/>
	<circle fill="#F8E79B" cx="165.469" cy="1771.951" r="7.905"/>
	<g>
		<circle fill="#EE7473" cx="797.15" cy="1891.56" r="54.963"/>
		<circle fill="#EE7473" cx="844.729" cy="1854.947" r="5.074"/>
		<path fill="#EE7473" d="M829.741,1942.234c-1.71-2.222-1.294-5.406,0.928-7.115c2.223-1.71,5.406-1.296,7.115,0.925
			c1.711,2.224,1.295,5.407-0.928,7.117C834.635,1944.87,831.452,1944.458,829.741,1942.234z"/>
		<circle fill="#EE7473" cx="739.381" cy="1875.25" r="5.075"/>
		<path fill="#EE7473" d="M795.589,1834.676c-1.708-2.22-1.293-5.405,0.927-7.114c2.223-1.709,5.408-1.296,7.117,0.925
			c1.711,2.225,1.294,5.408-0.928,7.118C800.485,1837.312,797.301,1836.899,795.589,1834.676z"/>
		<path fill="#EE7473" d="M788.381,1955.364c-1.708-2.221-1.293-5.404,0.928-7.113c2.223-1.71,5.405-1.297,7.115,0.925
			c1.711,2.224,1.295,5.407-0.928,7.117C793.278,1958.001,790.093,1957.588,788.381,1955.364z"/>
		<path fill="#EE7473" d="M851.768,1907.517c-1.709-2.22-1.293-5.406,0.929-7.114c2.222-1.71,5.405-1.296,7.114,0.925
			c1.711,2.225,1.297,5.406-0.926,7.117C856.664,1910.153,853.479,1909.741,851.768,1907.517z"/>
		<path fill="#EE7473" d="M756.513,1847.074c-1.71-2.222-1.293-5.405,0.929-7.115c2.221-1.71,5.404-1.296,7.115,0.925
			c1.71,2.224,1.295,5.407-0.927,7.117S758.223,1849.296,756.513,1847.074z"/>
	</g>
	<circle fill="#EE7473" cx="799.096" cy="1885.431" r="41.98"/>
	<circle fill="#EE7473" cx="787.997" cy="1905.612" r="29.929"/>
	<circle fill="#EE7473" cx="792.043" cy="1887.268" r="21.851"/>
	<circle fill="#F8E79B" cx="792.043" cy="1887.267" r="7.813"/>
	<g>
		<circle fill="#F1B1D1" cx="772.146" cy="2360.264" r="58.753"/>
		<circle fill="#F1B1D1" cx="768.574" cy="2330.891" r="40.338"/>
		<circle fill="#F1B1D1" cx="750.705" cy="2343.946" r="28.757"/>
		<circle fill="#F1B1D1" cx="761.688" cy="2329.622" r="20.996"/>
		<circle fill="#F8E79B" cx="761.292" cy="2334.512" r="7.507"/>
	</g>
	<g>
		<circle fill="#EE7473" cx="657.917" cy="2274.471" r="42.473"/>
		<circle fill="#EE7473" cx="680.296" cy="2267.973" r="30.281"/>
		<circle fill="#EE7473" cx="664.277" cy="2278.202" r="22.107"/>
		<circle fill="#F8E79B" cx="664.277" cy="2278.203" r="7.905"/>
	</g>
	<g>
		<circle fill="#F8E79B" cx="287.136" cy="1870.734" r="50.717"/>
		<circle fill="#F8E79B" cx="291.638" cy="1847.373" r="35.058"/>
		<circle fill="#F8E79B" cx="272.488" cy="1845.575" r="24.994"/>
		<circle fill="#F8E79B" cx="287.887" cy="1842.581" r="18.247"/>
		<circle fill="#F8E79B" cx="284.813" cy="1845.535" r="6.524"/>
	</g>
	<g>
		<circle fill="#F8E79B" cx="682.08" cy="1786.535" r="50.717"/>
		<circle fill="#F8E79B" cx="668.149" cy="1805.821" r="35.058"/>
		<circle fill="#F8E79B" cx="684.757" cy="1815.523" r="24.994"/>
		<circle fill="#F8E79B" cx="669.53" cy="1811.748" r="18.247"/>
		<circle fill="#F8E79B" cx="673.564" cy="1810.364" r="6.524"/>
	</g>
	<g>
		<circle fill="#F8E79B" cx="604.496" cy="1280.228" r="35.058"/>
		<circle fill="#F8E79B" cx="621.104" cy="1289.931" r="24.994"/>
		<circle fill="#F8E79B" cx="605.876" cy="1286.155" r="18.247"/>
		<circle fill="#F8E79B" cx="609.911" cy="1284.771" r="6.524"/>
	</g>
	<g>
		<circle fill="#F8E79B" cx="603.602" cy="2057.249" r="35.058"/>
		<circle fill="#F8E79B" cx="620.209" cy="2066.951" r="24.994"/>
		<circle fill="#F8E79B" cx="604.982" cy="2063.175" r="18.247"/>
		<circle fill="#F8E79B" cx="609.016" cy="2061.792" r="6.524"/>
	</g>
	<g>
		<circle fill="#F8E79B" cx="343.063" cy="2151.568" r="35.058"/>
		<circle fill="#F8E79B" cx="359.67" cy="2161.271" r="24.994"/>
		<circle fill="#F8E79B" cx="344.443" cy="2157.495" r="18.247"/>
		<circle fill="#F8E79B" cx="348.478" cy="2156.111" r="6.524"/>
	</g>
	<g>
		<circle fill="#F8E79B" cx="341.582" cy="1442.478" r="35.058"/>
		<circle fill="#F8E79B" cx="358.189" cy="1452.181" r="24.994"/>
		<circle fill="#F8E79B" cx="342.962" cy="1448.405" r="18.247"/>
		<circle fill="#F8E79B" cx="346.996" cy="1447.021" r="6.524"/>
	</g>
	<g>
		<circle fill="#E383B4" cx="657.873" cy="2081.587" r="15.661"/>
		<circle fill="#E383B4" cx="649.871" cy="2075.878" r="11.434"/>
		<circle fill="#F8E79B" cx="652.54" cy="2076.002" r="4.088"/>
	</g>
	<g>
		<circle fill="#CCE9F2" cx="693.604" cy="2381.605" r="23.89"/>
		<circle fill="#CCE9F2" cx="708.494" cy="2383.391" r="17.442"/>
		<circle fill="#F8E79B" cx="704.622" cy="2382.18" r="6.236"/>
	</g>
	<g>
		<circle fill="#CCE9F2" cx="725.446" cy="1841.105" r="23.891"/>
		<circle fill="#CCE9F2" cx="718.153" cy="1854.208" r="17.442"/>
		<path fill="#F8E79B" d="M723.045,1845.29c3.201,1.273,4.764,4.898,3.49,8.1c-1.272,3.199-4.898,4.763-8.099,3.489
			c-3.2-1.272-4.764-4.898-3.492-8.099C716.22,1845.579,719.845,1844.017,723.045,1845.29z"/>
	</g>
	<g>
		<circle fill="#CCE9F2" cx="232.634" cy="1800.288" r="23.89"/>
		<circle fill="#CCE9F2" cx="247.523" cy="1802.073" r="17.442"/>
		<circle fill="#F8E79B" cx="243.651" cy="1800.862" r="6.236"/>
	</g>
	<g>
		<circle fill="#CCE9F2" cx="596.583" cy="2179.459" r="23.89"/>
		<circle fill="#CCE9F2" cx="611.472" cy="2181.244" r="17.442"/>
		<circle fill="#F8E79B" cx="607.601" cy="2180.033" r="6.236"/>
	</g>
	<g>
		<circle fill="#EE7473" cx="684.994" cy="1449.579" r="42.473"/>
		<circle fill="#EE7473" cx="707.373" cy="1443.081" r="30.281"/>
		<circle fill="#EE7473" cx="691.353" cy="1453.309" r="22.107"/>
		<circle fill="#F8E79B" cx="691.354" cy="1453.31" r="7.905"/>
	</g>
</g>
</svg>
