<?xml version="1.0" encoding="utf-8"?>
<!-- Generator: Adobe Illustrator 16.0.0, SVG Export Plug-In . SVG Version: 6.00 Build 0)  -->
<!DOCTYPE svg PUBLIC "-//W3C//DTD SVG 1.1//EN" "http://www.w3.org/Graphics/SVG/1.1/DTD/svg11.dtd">
<svg version="1.1" id="Livello_1" xmlns="http://www.w3.org/2000/svg" xmlns:xlink="http://www.w3.org/1999/xlink" x="0px" y="0px"
	 width="960.385px" height="3456.769px" viewBox="0 0 960.385 3456.769" enable-background="new 0 0 960.385 3456.769"
	 xml:space="preserve">
<g>
	<g>
		<circle fill="#FFFFFF" stroke="#010202" stroke-width="2" cx="290.331" cy="1035.453" r="6.804"/>
		<g>
			<circle fill="#FFFFFF" stroke="#010202" stroke-width="2" cx="307.197" cy="993.147" r="6.803"/>
			<line fill="none" stroke="#010202" stroke-width="2" x1="348.501" y1="1035.453" x2="311.479" y2="998.431"/>
		</g>
		<line fill="none" stroke="#010202" stroke-width="2" x1="480.191" y1="1035.453" x2="297.135" y2="1035.453"/>
		<g>
			<circle fill="#FFFFFF" stroke="#010202" stroke-width="2" cx="349.209" cy="976.333" r="6.803"/>
			<line fill="none" stroke="#010202" stroke-width="2" x1="348.501" y1="1035.453" x2="348.501" y2="983.096"/>
		</g>
		<g>
			<circle fill="#FFFFFF" stroke="#010202" stroke-width="2" cx="347.793" cy="1094.574" r="6.803"/>
			<line fill="none" stroke="#010202" stroke-width="2" x1="348.501" y1="1035.453" x2="348.5" y2="1087.81"/>
		</g>
		<g>
			<circle fill="#FFFFFF" stroke="#010202" stroke-width="2" cx="306.196" cy="1076.757" r="6.804"/>
			<line fill="none" stroke="#010202" stroke-width="2" x1="348.501" y1="1035.453" x2="311.479" y2="1072.475"/>
		</g>
	</g>
	<g>
		<g>
			<circle fill="#FFFFFF" stroke="#010202" stroke-width="2" cx="708.158" cy="1190.558" r="6.803"/>
			<line fill="none" stroke="#010202" stroke-width="2" x1="666.854" y1="1148.253" x2="703.875" y2="1185.274"/>
		</g>
		<line fill="none" stroke="#010202" stroke-width="2" x1="480.191" y1="1148.253" x2="754.692" y2="1148.253"/>
		<g>
			<circle fill="#FFFFFF" stroke="#010202" stroke-width="2" cx="667.561" cy="1089.132" r="6.803"/>
			<line fill="none" stroke="#010202" stroke-width="2" x1="666.854" y1="1148.253" x2="666.854" y2="1095.896"/>
		</g>
		<g>
			<circle fill="#FFFFFF" stroke="#010202" stroke-width="2" cx="709.159" cy="1106.949" r="6.804"/>
			<line fill="none" stroke="#010202" stroke-width="2" x1="666.854" y1="1148.253" x2="703.876" y2="1111.23"/>
		</g>
	</g>
	<circle fill="none" stroke="#010202" stroke-width="2" cx="290.331" cy="1035.453" r="12.134"/>
	<circle fill="none" stroke="#010202" stroke-width="2" cx="349.208" cy="976.332" r="12.133"/>
	<circle fill="none" stroke="#010202" stroke-width="2" cx="290.331" cy="1035.453" r="23.597"/>
	<g>
		<circle fill="#FFFFFF" stroke="#010202" stroke-width="2" cx="667.95" cy="934.652" r="6.803"/>
		<g>
			<circle fill="#FFFFFF" stroke="#010202" stroke-width="2" cx="651.084" cy="976.958" r="6.803"/>
			<line fill="none" stroke="#010202" stroke-width="2" x1="609.779" y1="934.652" x2="646.802" y2="971.675"/>
		</g>
		<line fill="none" stroke="#010202" stroke-width="2" x1="478.089" y1="934.652" x2="661.146" y2="934.652"/>
		<g>
			<circle fill="#FFFFFF" stroke="#010202" stroke-width="2" cx="609.072" cy="993.773" r="6.803"/>
			<line fill="none" stroke="#010202" stroke-width="2" x1="609.779" y1="934.652" x2="609.779" y2="987.01"/>
		</g>
		<g>
			<circle fill="#FFFFFF" stroke="#010202" stroke-width="2" cx="610.487" cy="875.531" r="6.803"/>
			<line fill="none" stroke="#010202" stroke-width="2" x1="609.779" y1="934.652" x2="609.781" y2="882.296"/>
		</g>
		<g>
			<circle fill="#FFFFFF" stroke="#010202" stroke-width="2" cx="652.085" cy="893.349" r="6.804"/>
			<line fill="none" stroke="#010202" stroke-width="2" x1="609.779" y1="934.652" x2="646.803" y2="897.631"/>
		</g>
	</g>
	<circle fill="none" stroke="#010202" stroke-width="2" cx="651.085" cy="976.958" r="23.597"/>
	<circle fill="none" stroke="#010202" stroke-width="2" cx="306.217" cy="1234.975" r="23.597"/>
	<circle fill="none" stroke="#010202" stroke-width="2" cx="651.085" cy="976.958" r="17.197"/>
	<circle fill="none" stroke="#010202" stroke-width="2" cx="667.95" cy="934.652" r="17.197"/>
	<circle fill="none" stroke="#010202" stroke-width="2" cx="610.489" cy="875.531" r="12.133"/>
	<circle fill="none" stroke="#010202" stroke-width="2" cx="670.052" cy="1406.896" r="12.134"/>
	<circle fill="none" stroke="#010202" stroke-width="2" cx="670.052" cy="1406.896" r="23.597"/>
	<g>
		<g>
			<path fill="none" stroke="#010202" stroke-width="2" d="M390.158,1490.895H204.861c0,0,71.111,50.4,113.918,50.4
				S390.158,1490.895,390.158,1490.895z"/>
			<line fill="none" stroke="#010202" stroke-width="2" x1="390.158" y1="1490.895" x2="480.19" y2="1490.895"/>
		</g>
		<line fill="none" stroke="#010202" stroke-width="2" x1="354.317" y1="1490.895" x2="338.078" y2="1507.133"/>
		<line fill="none" stroke="#010202" stroke-width="2" x1="328.559" y1="1490.895" x2="317.358" y2="1502.094"/>
		<line fill="none" stroke="#010202" stroke-width="2" x1="301.679" y1="1490.895" x2="294.398" y2="1498.174"/>
	</g>
	<g>
		<g>
			<path fill="none" stroke="#010202" stroke-width="2" d="M390.158,828.262H204.861c0,0,71.111,50.4,113.918,50.4
				S390.158,828.262,390.158,828.262z"/>
			<line fill="none" stroke="#010202" stroke-width="2" x1="390.158" y1="828.262" x2="480.19" y2="828.262"/>
		</g>
		<line fill="none" stroke="#010202" stroke-width="2" x1="354.317" y1="828.262" x2="338.078" y2="844.5"/>
		<line fill="none" stroke="#010202" stroke-width="2" x1="328.559" y1="828.262" x2="317.358" y2="839.461"/>
		<line fill="none" stroke="#010202" stroke-width="2" x1="301.679" y1="828.262" x2="294.398" y2="835.541"/>
	</g>
	<g>
		<g>
			<path fill="none" stroke="#010202" stroke-width="2" d="M541.949,1565.295h238.239c0,0-91.429,64.8-146.464,64.8
				C578.688,1630.095,541.949,1565.295,541.949,1565.295z"/>
			<line fill="none" stroke="#010202" stroke-width="2" x1="541.949" y1="1565.295" x2="480.19" y2="1565.295"/>
		</g>
		<line fill="none" stroke="#010202" stroke-width="2" x1="588.032" y1="1565.295" x2="608.909" y2="1586.174"/>
		<line fill="none" stroke="#010202" stroke-width="2" x1="621.149" y1="1565.295" x2="635.549" y2="1579.691"/>
		<line fill="none" stroke="#010202" stroke-width="2" x1="655.708" y1="1565.295" x2="665.069" y2="1574.653"/>
	</g>
	<g>
		<g>
			<circle fill="none" stroke="#010202" stroke-width="2" cx="264.205" cy="1251.789" r="6.803"/>
			<line fill="none" stroke="#010202" stroke-width="2" x1="305.509" y1="1294.096" x2="268.487" y2="1257.072"/>
		</g>
		<line fill="none" stroke="#010202" stroke-width="2" x1="480.191" y1="1294.096" x2="230.69" y2="1294.096"/>
		<g>
			<circle fill="none" stroke="#010202" stroke-width="2" cx="306.217" cy="1234.975" r="6.803"/>
			<line fill="none" stroke="#010202" stroke-width="2" x1="305.509" y1="1294.096" x2="305.509" y2="1241.738"/>
		</g>
		<g>
			<circle fill="none" stroke="#010202" stroke-width="2" cx="304.801" cy="1353.217" r="6.803"/>
			<line fill="none" stroke="#010202" stroke-width="2" x1="305.509" y1="1294.096" x2="305.508" y2="1346.451"/>
		</g>
		<g>
			<circle fill="none" stroke="#010202" stroke-width="2" cx="263.204" cy="1335.399" r="6.804"/>
			<line fill="none" stroke="#010202" stroke-width="2" x1="305.509" y1="1294.096" x2="268.486" y2="1331.117"/>
		</g>
	</g>
	<g>
		<circle fill="none" stroke="#010202" stroke-width="2" cx="670.052" cy="1406.895" r="6.803"/>
		<g>
			<circle fill="none" stroke="#010202" stroke-width="2" cx="653.187" cy="1449.199" r="6.803"/>
			<line fill="none" stroke="#010202" stroke-width="2" x1="611.883" y1="1406.895" x2="648.904" y2="1443.916"/>
		</g>
		<line fill="none" stroke="#010202" stroke-width="2" x1="480.191" y1="1406.895" x2="663.249" y2="1406.895"/>
		<g>
			<circle fill="none" stroke="#010202" stroke-width="2" cx="612.59" cy="1347.773" r="6.803"/>
			<line fill="none" stroke="#010202" stroke-width="2" x1="611.883" y1="1406.895" x2="611.884" y2="1354.537"/>
		</g>
		<g>
			<circle fill="none" stroke="#010202" stroke-width="2" cx="654.188" cy="1365.591" r="6.804"/>
			<line fill="none" stroke="#010202" stroke-width="2" x1="611.883" y1="1406.895" x2="648.905" y2="1369.873"/>
		</g>
	</g>
	<circle fill="none" stroke="#010202" stroke-width="2" cx="306.216" cy="1234.975" r="12.133"/>
	<g>
		<path fill="none" stroke="#010202" stroke-width="2" d="M208.432,1279.06c-7.825,7.826-7.824,20.519,0.004,28.346
			c7.827,7.828,20.519,7.828,28.344,0.002c7.83-7.829,7.829-20.519,0.001-28.347S216.261,1271.23,208.432,1279.06z"/>
		<g>
			<g>
				<path fill="#FFFFFF" stroke="#010202" stroke-width="2" d="M228.396,1287.445c3.203,3.202,3.201,8.392-0.002,11.595
					c-3.202,3.202-8.394,3.202-11.593,0c-3.204-3.201-3.201-8.391-0.002-11.595C220.002,1284.242,225.196,1284.245,228.396,1287.445
					z"/>
			</g>
			<path fill="none" stroke="#010202" stroke-width="2" d="M203.098,1273.742c-10.771,10.771-10.77,28.231,0,39.001
				c10.766,10.767,28.229,10.771,39-0.001c10.769-10.768,10.766-28.232,0-38.999
				C231.328,1262.974,213.866,1262.975,203.098,1273.742z"/>
			<circle fill="none" stroke="#010202" stroke-width="2" cx="222.596" cy="1293.243" r="14.622"/>
		</g>
		<line fill="none" stroke="#010202" stroke-width="2" x1="195.038" y1="1265.815" x2="199.528" y2="1270.156"/>
		<line fill="none" stroke="#010202" stroke-width="2" x1="203.09" y1="1259.638" x2="206.21" y2="1265.008"/>
		<line fill="none" stroke="#010202" stroke-width="2" x1="212.47" y1="1255.752" x2="214.083" y2="1261.725"/>
		<line fill="none" stroke="#010202" stroke-width="2" x1="222.531" y1="1254.427" x2="222.607" y2="1260.598"/>
		<line fill="none" stroke="#010202" stroke-width="2" x1="232.597" y1="1255.753" x2="231.011" y2="1261.694"/>
		<line fill="none" stroke="#010202" stroke-width="2" x1="241.974" y1="1259.637" x2="238.906" y2="1264.955"/>
		<line fill="none" stroke="#010202" stroke-width="2" x1="250.024" y1="1265.816" x2="245.683" y2="1270.158"/>
		<line fill="none" stroke="#010202" stroke-width="2" x1="256.204" y1="1273.867" x2="250.886" y2="1276.934"/>
		<line fill="none" stroke="#010202" stroke-width="2" x1="254.146" y1="1284.828" x2="260.088" y2="1283.244"/>
		<line fill="none" stroke="#010202" stroke-width="2" x1="254.115" y1="1301.757" x2="260.088" y2="1303.371"/>
		<line fill="none" stroke="#010202" stroke-width="2" x1="250.831" y1="1309.629" x2="256.203" y2="1312.751"/>
		<line fill="none" stroke="#010202" stroke-width="2" x1="238.854" y1="1321.545" x2="241.973" y2="1326.98"/>
		<line fill="none" stroke="#010202" stroke-width="2" x1="230.979" y1="1324.779" x2="232.595" y2="1330.864"/>
		<line fill="none" stroke="#010202" stroke-width="2" x1="222.607" y1="1325.867" x2="222.531" y2="1332.188"/>
		<line fill="none" stroke="#010202" stroke-width="2" x1="214.117" y1="1324.749" x2="212.468" y2="1330.864"/>
		<line fill="none" stroke="#010202" stroke-width="2" x1="206.27" y1="1321.486" x2="203.091" y2="1326.98"/>
		<line fill="none" stroke="#010202" stroke-width="2" x1="199.533" y1="1316.308" x2="195.039" y2="1320.802"/>
		<line fill="none" stroke="#010202" stroke-width="2" x1="194.354" y1="1309.57" x2="188.86" y2="1312.75"/>
		<line fill="none" stroke="#010202" stroke-width="2" x1="184.977" y1="1303.373" x2="191.093" y2="1301.725"/>
		<line fill="none" stroke="#010202" stroke-width="2" x1="183.65" y1="1293.308" x2="189.975" y2="1293.308"/>
		<line fill="none" stroke="#010202" stroke-width="2" x1="184.976" y1="1283.246" x2="191.067" y2="1284.833"/>
		<line fill="none" stroke="#010202" stroke-width="2" x1="188.86" y1="1273.867" x2="194.309" y2="1276.966"/>
		<line fill="none" stroke="#010202" stroke-width="2" x1="250.024" y1="1320.802" x2="245.608" y2="1316.386"/>
	</g>
	<g>
		<path fill="none" stroke="#010202" stroke-width="2" d="M208.432,1279.06c-7.825,7.826-7.824,20.519,0.004,28.346
			c7.827,7.828,20.519,7.828,28.344,0.002c7.83-7.829,7.829-20.519,0.001-28.347S216.261,1271.23,208.432,1279.06z"/>
		<g>
			<g>
				<path fill="#FFFFFF" stroke="#010202" stroke-width="2" d="M228.396,1287.445c3.203,3.202,3.201,8.392-0.002,11.595
					c-3.202,3.202-8.394,3.202-11.593,0c-3.204-3.201-3.201-8.391-0.002-11.595C220.002,1284.242,225.196,1284.245,228.396,1287.445
					z"/>
			</g>
			<path fill="none" stroke="#010202" stroke-width="2" d="M203.098,1273.742c-10.771,10.771-10.77,28.231,0,39.001
				c10.766,10.767,28.229,10.771,39-0.001c10.769-10.768,10.766-28.232,0-38.999
				C231.328,1262.974,213.866,1262.975,203.098,1273.742z"/>
			<circle fill="none" stroke="#010202" stroke-width="2" cx="222.596" cy="1293.243" r="14.622"/>
		</g>
		<line fill="none" stroke="#010202" stroke-width="2" x1="195.038" y1="1265.815" x2="199.528" y2="1270.156"/>
		<line fill="none" stroke="#010202" stroke-width="2" x1="203.09" y1="1259.638" x2="206.21" y2="1265.008"/>
		<line fill="none" stroke="#010202" stroke-width="2" x1="212.47" y1="1255.752" x2="214.083" y2="1261.725"/>
		<line fill="none" stroke="#010202" stroke-width="2" x1="222.531" y1="1254.427" x2="222.607" y2="1260.598"/>
		<line fill="none" stroke="#010202" stroke-width="2" x1="232.597" y1="1255.753" x2="231.011" y2="1261.694"/>
		<line fill="none" stroke="#010202" stroke-width="2" x1="241.974" y1="1259.637" x2="238.906" y2="1264.955"/>
		<line fill="none" stroke="#010202" stroke-width="2" x1="250.024" y1="1265.816" x2="245.683" y2="1270.158"/>
		<line fill="none" stroke="#010202" stroke-width="2" x1="256.204" y1="1273.867" x2="250.886" y2="1276.934"/>
		<line fill="none" stroke="#010202" stroke-width="2" x1="254.146" y1="1284.828" x2="260.088" y2="1283.244"/>
		<line fill="none" stroke="#010202" stroke-width="2" x1="254.115" y1="1301.757" x2="260.088" y2="1303.371"/>
		<line fill="none" stroke="#010202" stroke-width="2" x1="250.831" y1="1309.629" x2="256.203" y2="1312.751"/>
		<line fill="none" stroke="#010202" stroke-width="2" x1="238.854" y1="1321.545" x2="241.973" y2="1326.98"/>
		<line fill="none" stroke="#010202" stroke-width="2" x1="230.979" y1="1324.779" x2="232.595" y2="1330.864"/>
		<line fill="none" stroke="#010202" stroke-width="2" x1="222.607" y1="1325.867" x2="222.531" y2="1332.188"/>
		<line fill="none" stroke="#010202" stroke-width="2" x1="214.117" y1="1324.749" x2="212.468" y2="1330.864"/>
		<line fill="none" stroke="#010202" stroke-width="2" x1="206.27" y1="1321.486" x2="203.091" y2="1326.98"/>
		<line fill="none" stroke="#010202" stroke-width="2" x1="199.533" y1="1316.308" x2="195.039" y2="1320.802"/>
		<line fill="none" stroke="#010202" stroke-width="2" x1="194.354" y1="1309.57" x2="188.86" y2="1312.75"/>
		<line fill="none" stroke="#010202" stroke-width="2" x1="184.977" y1="1303.373" x2="191.093" y2="1301.725"/>
		<line fill="none" stroke="#010202" stroke-width="2" x1="183.65" y1="1293.308" x2="189.975" y2="1293.308"/>
		<line fill="none" stroke="#010202" stroke-width="2" x1="184.976" y1="1283.246" x2="191.067" y2="1284.833"/>
		<line fill="none" stroke="#010202" stroke-width="2" x1="188.86" y1="1273.867" x2="194.309" y2="1276.966"/>
		<line fill="none" stroke="#010202" stroke-width="2" x1="250.024" y1="1320.802" x2="245.608" y2="1316.386"/>
	</g>
	<circle fill="none" stroke="#010202" stroke-width="2" cx="264.206" cy="1251.791" r="12.133"/>
	<g>
		<circle fill="none" stroke="#010202" stroke-width="2" cx="762.766" cy="1148.254" r="8.072"/>
		<circle fill="none" stroke="#010202" stroke-width="2" cx="762.766" cy="1148.255" r="20.405"/>
		<circle fill="none" stroke="#010202" stroke-width="2" cx="762.766" cy="1148.253" r="37.019"/>
		<circle fill="none" stroke="#010202" stroke-width="2" cx="762.766" cy="1148.253" r="27.997"/>
		<g>
			<line fill="none" stroke="#010202" stroke-width="2" x1="725.746" y1="1170.279" x2="725.746" y2="1125.964"/>
			<circle fill="none" stroke="#010202" stroke-width="2" cx="725.746" cy="1173.697" r="3.418"/>
			<path fill="none" stroke="#010202" stroke-width="2" d="M725.746,1125.964c-1.888,0-3.417-1.528-3.417-3.419
				c0-1.887,1.529-3.416,3.417-3.416c1.889,0,3.418,1.529,3.418,3.416C729.164,1124.436,727.635,1125.964,725.746,1125.964z"/>
		</g>
		<g>
			<line fill="none" stroke="#010202" stroke-width="2" x1="799.784" y1="1170.279" x2="799.784" y2="1125.964"/>
			<circle fill="none" stroke="#010202" stroke-width="2" cx="799.784" cy="1173.697" r="3.418"/>
			<path fill="none" stroke="#010202" stroke-width="2" d="M799.784,1125.964c-1.889,0-3.419-1.528-3.419-3.419
				c0-1.887,1.53-3.416,3.419-3.416c1.887,0,3.417,1.529,3.417,3.416C803.201,1124.436,801.671,1125.964,799.784,1125.964z"/>
		</g>
		<g>
			<line fill="none" stroke="#010202" stroke-width="2" x1="740.607" y1="1111.234" x2="784.923" y2="1111.234"/>
			<circle fill="none" stroke="#010202" stroke-width="2" cx="737.189" cy="1111.234" r="3.418"/>
			<circle fill="none" stroke="#010202" stroke-width="2" cx="788.341" cy="1111.234" r="3.418"/>
		</g>
		<g>
			<line fill="none" stroke="#010202" stroke-width="2" x1="740.607" y1="1185.272" x2="784.923" y2="1185.272"/>
			<circle fill="none" stroke="#010202" stroke-width="2" cx="737.189" cy="1185.272" r="3.418"/>
			<circle fill="none" stroke="#010202" stroke-width="2" cx="788.341" cy="1185.272" r="3.418"/>
		</g>
	</g>
	<circle fill="none" stroke="#010202" stroke-width="2" cx="667.562" cy="1089.132" r="23.597"/>
	<circle fill="none" stroke="#010202" stroke-width="2" cx="667.562" cy="1089.132" r="17.197"/>
	<line fill="none" stroke="#010202" stroke-width="2" x1="666.854" y1="1148.253" x2="666.854" y2="1227.799"/>
	<g>
		<g>
			<circle fill="none" stroke="#010202" stroke-width="2" cx="666.854" cy="1232.602" r="28.011"/>
			<circle fill="none" stroke="#010202" stroke-width="2" cx="666.854" cy="1232.602" r="24.162"/>
			<circle fill="none" stroke="#010202" stroke-width="2" cx="666.854" cy="1232.603" r="14.54"/>
			<polygon fill="none" stroke="#010202" stroke-width="2" points="690.385,1208.94 691.372,1213.674 695.688,1215.852 
				695.417,1220.679 699.022,1223.9 697.511,1228.493 700.158,1232.537 697.511,1236.582 699.022,1241.174 695.417,1244.396 
				695.688,1249.223 691.372,1251.401 690.385,1256.134 685.651,1257.12 683.474,1261.437 678.646,1261.165 675.426,1264.771 
				670.833,1263.259 666.788,1265.907 662.744,1263.259 658.151,1264.771 654.931,1261.165 650.104,1261.437 647.925,1257.12 
				643.192,1256.134 642.205,1251.401 637.89,1249.222 638.161,1244.396 634.556,1241.174 636.067,1236.581 633.419,1232.537 
				636.067,1228.492 634.556,1223.9 638.161,1220.679 637.89,1215.852 642.205,1213.674 643.192,1208.94 647.925,1207.954 
				650.104,1203.638 654.931,1203.909 658.151,1200.304 662.744,1201.815 666.788,1199.167 670.833,1201.815 675.425,1200.304 
				678.646,1203.909 683.474,1203.638 685.651,1207.954 			"/>
		</g>
		<circle fill="#FFFFFF" stroke="#010202" stroke-width="2" cx="666.853" cy="1232.603" r="6.803"/>
	</g>
	<g>
		<g>
			<path fill="none" stroke="#010202" stroke-width="2" d="M415.883,1715.572H283.527c0,0,50.794,36,81.37,36
				S415.883,1715.572,415.883,1715.572z"/>
			<line fill="none" stroke="#010202" stroke-width="2" x1="415.883" y1="1715.572" x2="480.191" y2="1715.572"/>
		</g>
		<line fill="none" stroke="#010202" stroke-width="2" x1="390.282" y1="1715.572" x2="378.683" y2="1727.172"/>
		<line fill="none" stroke="#010202" stroke-width="2" x1="371.883" y1="1715.572" x2="363.883" y2="1723.571"/>
		<line fill="none" stroke="#010202" stroke-width="2" x1="352.683" y1="1715.572" x2="347.482" y2="1720.771"/>
	</g>
	<g>
		<line fill="none" stroke="#010202" stroke-width="2" x1="673.521" y1="2356.188" x2="742.92" y2="2425.588"/>
	</g>
	<line fill="none" stroke="#010202" stroke-width="2" x1="480.191" y1="2356.188" x2="785.224" y2="2356.188"/>
	<g>
		<circle fill="#FFFFFF" stroke="#010202" stroke-width="2" cx="672.813" cy="2441.502" r="6.803"/>
		<line fill="none" stroke="#010202" stroke-width="2" x1="673.521" y1="2356.188" x2="673.521" y2="2434.739"/>
	</g>
	<g>
		<line fill="none" stroke="#010202" stroke-width="2" x1="673.521" y1="2356.188" x2="673.522" y2="2278.068"/>
	</g>
	<g>
		<circle fill="#FFFFFF" stroke="#010202" stroke-width="2" cx="715.827" cy="2314.885" r="6.804"/>
		<line fill="none" stroke="#010202" stroke-width="2" x1="673.521" y1="2356.188" x2="710.544" y2="2319.167"/>
	</g>
	<circle fill="none" stroke="#010202" stroke-width="2" cx="672.814" cy="2441.504" r="12.133"/>
	<g>
		<circle fill="#FFFFFF" stroke="#010202" stroke-width="2" cx="667.95" cy="2587.039" r="6.803"/>
		<g>
			<circle fill="#FFFFFF" stroke="#010202" stroke-width="2" cx="651.084" cy="2629.345" r="6.803"/>
			<line fill="none" stroke="#010202" stroke-width="2" x1="609.779" y1="2587.039" x2="646.802" y2="2624.062"/>
		</g>
		<line fill="none" stroke="#010202" stroke-width="2" x1="478.089" y1="2587.039" x2="661.146" y2="2587.039"/>
		<g>
			<circle fill="#FFFFFF" stroke="#010202" stroke-width="2" cx="609.072" cy="2646.16" r="6.803"/>
			<line fill="none" stroke="#010202" stroke-width="2" x1="609.779" y1="2587.039" x2="609.779" y2="2639.396"/>
		</g>
		<g>
			<circle fill="#FFFFFF" stroke="#010202" stroke-width="2" cx="610.487" cy="2527.918" r="6.803"/>
			<line fill="none" stroke="#010202" stroke-width="2" x1="609.779" y1="2587.039" x2="609.781" y2="2534.683"/>
		</g>
		<g>
			<circle fill="#FFFFFF" stroke="#010202" stroke-width="2" cx="652.085" cy="2545.735" r="6.804"/>
			<line fill="none" stroke="#010202" stroke-width="2" x1="609.779" y1="2587.039" x2="646.803" y2="2550.018"/>
		</g>
	</g>
	<circle fill="none" stroke="#010202" stroke-width="2" cx="651.085" cy="2629.345" r="23.597"/>
	<circle fill="none" stroke="#010202" stroke-width="2" cx="651.085" cy="2629.345" r="17.197"/>
	<circle fill="none" stroke="#010202" stroke-width="2" cx="667.95" cy="2587.039" r="17.197"/>
	<circle fill="none" stroke="#010202" stroke-width="2" cx="610.489" cy="2527.918" r="12.133"/>
	<g>
		<rect x="479.191" fill="#010202" width="1.999" height="3456.769"/>
	</g>
	<g>
		<g>
			<path fill="none" stroke="#010202" stroke-width="2" d="M390.158,2480.648H204.861c0,0,71.111,50.4,113.918,50.4
				S390.158,2480.648,390.158,2480.648z"/>
			<line fill="none" stroke="#010202" stroke-width="2" x1="390.158" y1="2480.648" x2="480.19" y2="2480.648"/>
		</g>
		<line fill="none" stroke="#010202" stroke-width="2" x1="354.317" y1="2480.648" x2="338.078" y2="2496.887"/>
		<line fill="none" stroke="#010202" stroke-width="2" x1="328.559" y1="2480.648" x2="317.358" y2="2491.848"/>
		<line fill="none" stroke="#010202" stroke-width="2" x1="301.679" y1="2480.648" x2="294.398" y2="2487.928"/>
	</g>
	<circle fill="none" stroke="#010202" stroke-width="2" cx="349.209" cy="1911.477" r="23.597"/>
	<g>
		<g>
			<circle fill="none" stroke="#010202" stroke-width="2" cx="307.197" cy="1928.291" r="6.803"/>
			<line fill="none" stroke="#010202" stroke-width="2" x1="348.501" y1="1970.598" x2="311.479" y2="1933.574"/>
		</g>
		<line fill="none" stroke="#010202" stroke-width="2" x1="480.191" y1="1970.598" x2="273.683" y2="1970.598"/>
		<g>
			<circle fill="none" stroke="#010202" stroke-width="2" cx="349.209" cy="1911.477" r="6.803"/>
			<line fill="none" stroke="#010202" stroke-width="2" x1="348.501" y1="1970.598" x2="348.501" y2="1918.24"/>
		</g>
		<g>
			<circle fill="none" stroke="#010202" stroke-width="2" cx="347.793" cy="2029.719" r="6.803"/>
			<line fill="none" stroke="#010202" stroke-width="2" x1="348.501" y1="1970.598" x2="348.5" y2="2022.953"/>
		</g>
		<g>
			<circle fill="none" stroke="#010202" stroke-width="2" cx="306.196" cy="2011.901" r="6.804"/>
			<line fill="none" stroke="#010202" stroke-width="2" x1="348.501" y1="1970.598" x2="311.479" y2="2007.619"/>
		</g>
	</g>
	<circle fill="none" stroke="#010202" stroke-width="2" cx="349.208" cy="1911.477" r="12.133"/>
	<g>
		<path fill="none" stroke="#010202" stroke-width="2" d="M251.424,1955.562c-7.825,7.826-7.824,20.519,0.004,28.346
			c7.827,7.828,20.519,7.828,28.344,0.002c7.83-7.829,7.829-20.519,0.001-28.347S259.253,1947.732,251.424,1955.562z"/>
		<g>
			<g>
				<path fill="#FFFFFF" stroke="#010202" stroke-width="2" d="M271.388,1963.947c3.203,3.202,3.201,8.392-0.002,11.595
					c-3.202,3.202-8.394,3.202-11.593,0c-3.204-3.201-3.201-8.391-0.002-11.595C262.994,1960.744,268.188,1960.747,271.388,1963.947
					z"/>
			</g>
			<path fill="none" stroke="#010202" stroke-width="2" d="M246.09,1950.244c-10.771,10.771-10.77,28.231,0,39.001
				c10.766,10.767,28.229,10.771,39-0.001c10.769-10.768,10.766-28.232,0-38.999C274.32,1939.476,256.858,1939.477,246.09,1950.244z
				"/>
			<circle fill="none" stroke="#010202" stroke-width="2" cx="265.588" cy="1969.745" r="14.622"/>
		</g>
		<line fill="none" stroke="#010202" stroke-width="2" x1="238.03" y1="1942.317" x2="242.521" y2="1946.658"/>
		<line fill="none" stroke="#010202" stroke-width="2" x1="246.082" y1="1936.14" x2="249.202" y2="1941.51"/>
		<line fill="none" stroke="#010202" stroke-width="2" x1="255.462" y1="1932.254" x2="257.075" y2="1938.227"/>
		<line fill="none" stroke="#010202" stroke-width="2" x1="265.523" y1="1930.929" x2="265.6" y2="1937.1"/>
		<line fill="none" stroke="#010202" stroke-width="2" x1="275.589" y1="1932.255" x2="274.003" y2="1938.196"/>
		<line fill="none" stroke="#010202" stroke-width="2" x1="284.966" y1="1936.139" x2="281.898" y2="1941.457"/>
		<line fill="none" stroke="#010202" stroke-width="2" x1="293.017" y1="1942.318" x2="288.675" y2="1946.66"/>
		<line fill="none" stroke="#010202" stroke-width="2" x1="299.196" y1="1950.369" x2="293.878" y2="1953.436"/>
		<line fill="none" stroke="#010202" stroke-width="2" x1="297.138" y1="1961.33" x2="303.08" y2="1959.746"/>
		<line fill="none" stroke="#010202" stroke-width="2" x1="297.107" y1="1978.259" x2="303.08" y2="1979.873"/>
		<line fill="none" stroke="#010202" stroke-width="2" x1="293.823" y1="1986.131" x2="299.195" y2="1989.253"/>
		<line fill="none" stroke="#010202" stroke-width="2" x1="281.846" y1="1998.047" x2="284.965" y2="2003.482"/>
		<line fill="none" stroke="#010202" stroke-width="2" x1="273.972" y1="2001.281" x2="275.587" y2="2007.366"/>
		<line fill="none" stroke="#010202" stroke-width="2" x1="265.6" y1="2002.369" x2="265.523" y2="2008.689"/>
		<line fill="none" stroke="#010202" stroke-width="2" x1="257.109" y1="2001.251" x2="255.46" y2="2007.366"/>
		<line fill="none" stroke="#010202" stroke-width="2" x1="249.262" y1="1997.988" x2="246.083" y2="2003.482"/>
		<line fill="none" stroke="#010202" stroke-width="2" x1="242.525" y1="1992.81" x2="238.03" y2="1997.304"/>
		<line fill="none" stroke="#010202" stroke-width="2" x1="237.346" y1="1986.072" x2="231.853" y2="1989.252"/>
		<line fill="none" stroke="#010202" stroke-width="2" x1="227.969" y1="1979.875" x2="234.085" y2="1978.227"/>
		<line fill="none" stroke="#010202" stroke-width="2" x1="226.643" y1="1969.81" x2="232.967" y2="1969.81"/>
		<line fill="none" stroke="#010202" stroke-width="2" x1="227.968" y1="1959.748" x2="234.06" y2="1961.335"/>
		<line fill="none" stroke="#010202" stroke-width="2" x1="231.853" y1="1950.369" x2="237.301" y2="1953.468"/>
		<line fill="none" stroke="#010202" stroke-width="2" x1="293.017" y1="1997.304" x2="288.601" y2="1992.888"/>
	</g>
	<g>
		<path fill="none" stroke="#010202" stroke-width="2" d="M251.424,1955.562c-7.825,7.826-7.824,20.519,0.004,28.346
			c7.827,7.828,20.519,7.828,28.344,0.002c7.83-7.829,7.829-20.519,0.001-28.347S259.253,1947.732,251.424,1955.562z"/>
		<g>
			<g>
				<path fill="#FFFFFF" stroke="#010202" stroke-width="2" d="M271.388,1963.947c3.203,3.202,3.201,8.392-0.002,11.595
					c-3.202,3.202-8.394,3.202-11.593,0c-3.204-3.201-3.201-8.391-0.002-11.595C262.994,1960.744,268.188,1960.747,271.388,1963.947
					z"/>
			</g>
			<path fill="none" stroke="#010202" stroke-width="2" d="M246.09,1950.244c-10.771,10.771-10.77,28.231,0,39.001
				c10.766,10.767,28.229,10.771,39-0.001c10.769-10.768,10.766-28.232,0-38.999C274.32,1939.476,256.858,1939.477,246.09,1950.244z
				"/>
			<circle fill="none" stroke="#010202" stroke-width="2" cx="265.588" cy="1969.745" r="14.622"/>
		</g>
		<line fill="none" stroke="#010202" stroke-width="2" x1="238.03" y1="1942.317" x2="242.521" y2="1946.658"/>
		<line fill="none" stroke="#010202" stroke-width="2" x1="246.082" y1="1936.14" x2="249.202" y2="1941.51"/>
		<line fill="none" stroke="#010202" stroke-width="2" x1="255.462" y1="1932.254" x2="257.075" y2="1938.227"/>
		<line fill="none" stroke="#010202" stroke-width="2" x1="265.523" y1="1930.929" x2="265.6" y2="1937.1"/>
		<line fill="none" stroke="#010202" stroke-width="2" x1="275.589" y1="1932.255" x2="274.003" y2="1938.196"/>
		<line fill="none" stroke="#010202" stroke-width="2" x1="284.966" y1="1936.139" x2="281.898" y2="1941.457"/>
		<line fill="none" stroke="#010202" stroke-width="2" x1="293.017" y1="1942.318" x2="288.675" y2="1946.66"/>
		<line fill="none" stroke="#010202" stroke-width="2" x1="299.196" y1="1950.369" x2="293.878" y2="1953.436"/>
		<line fill="none" stroke="#010202" stroke-width="2" x1="297.138" y1="1961.33" x2="303.08" y2="1959.746"/>
		<line fill="none" stroke="#010202" stroke-width="2" x1="297.107" y1="1978.259" x2="303.08" y2="1979.873"/>
		<line fill="none" stroke="#010202" stroke-width="2" x1="293.823" y1="1986.131" x2="299.195" y2="1989.253"/>
		<line fill="none" stroke="#010202" stroke-width="2" x1="281.846" y1="1998.047" x2="284.965" y2="2003.482"/>
		<line fill="none" stroke="#010202" stroke-width="2" x1="273.972" y1="2001.281" x2="275.587" y2="2007.366"/>
		<line fill="none" stroke="#010202" stroke-width="2" x1="265.6" y1="2002.369" x2="265.523" y2="2008.689"/>
		<line fill="none" stroke="#010202" stroke-width="2" x1="257.109" y1="2001.251" x2="255.46" y2="2007.366"/>
		<line fill="none" stroke="#010202" stroke-width="2" x1="249.262" y1="1997.988" x2="246.083" y2="2003.482"/>
		<line fill="none" stroke="#010202" stroke-width="2" x1="242.525" y1="1992.81" x2="238.03" y2="1997.304"/>
		<line fill="none" stroke="#010202" stroke-width="2" x1="237.346" y1="1986.072" x2="231.853" y2="1989.252"/>
		<line fill="none" stroke="#010202" stroke-width="2" x1="227.969" y1="1979.875" x2="234.085" y2="1978.227"/>
		<line fill="none" stroke="#010202" stroke-width="2" x1="226.643" y1="1969.81" x2="232.967" y2="1969.81"/>
		<line fill="none" stroke="#010202" stroke-width="2" x1="227.968" y1="1959.748" x2="234.06" y2="1961.335"/>
		<line fill="none" stroke="#010202" stroke-width="2" x1="231.853" y1="1950.369" x2="237.301" y2="1953.468"/>
		<line fill="none" stroke="#010202" stroke-width="2" x1="293.017" y1="1997.304" x2="288.601" y2="1992.888"/>
	</g>
	<circle fill="none" stroke="#010202" stroke-width="2" cx="307.197" cy="1928.293" r="12.134"/>
	<g>
		<path fill="#FFFFFF" stroke="#010202" stroke-width="2" d="M796.692,2347.609c4.433,1.618,6.716,6.523,5.097,10.959
			c-1.618,4.434-6.524,6.714-10.957,5.096s-6.717-6.522-5.1-10.955C787.353,2348.271,792.259,2345.99,796.692,2347.609z"/>
		<circle fill="none" stroke="#010202" stroke-width="2" cx="793.762" cy="2355.637" r="21.601"/>
		<circle fill="none" stroke="#010202" stroke-width="2" cx="793.763" cy="2355.635" r="39.191"/>
		<circle fill="none" stroke="#010202" stroke-width="2" cx="793.763" cy="2355.636" r="29.64"/>
		<circle fill="none" stroke="#010202" stroke-width="2" cx="833.976" cy="2370.312" r="3.618"/>
		<circle fill="none" stroke="#010202" stroke-width="2" cx="753.548" cy="2340.957" r="3.618"/>
		<path fill="none" stroke="#010202" stroke-width="2" d="M775.686,2394.606c0.686-1.878,2.763-2.842,4.639-2.156
			c1.878,0.685,2.844,2.76,2.159,4.638c-0.686,1.879-2.763,2.844-4.64,2.159C775.967,2398.562,775,2396.485,775.686,2394.606z"/>
		<path fill="none" stroke="#010202" stroke-width="2" d="M778.134,2313.377c0.686-1.878,2.762-2.842,4.64-2.156
			s2.844,2.761,2.159,4.638c-0.688,1.879-2.763,2.845-4.641,2.159C778.415,2317.332,777.447,2315.257,778.134,2313.377z"/>
		<circle fill="none" stroke="#010202" stroke-width="2" cx="830.823" cy="2334.222" r="3.618"/>
		<circle fill="none" stroke="#010202" stroke-width="2" cx="755.389" cy="2375.953" r="3.618"/>
		<path fill="none" stroke="#010202" stroke-width="2" d="M805.004,2394.62c0.684-1.877,2.761-2.843,4.638-2.157
			c1.879,0.685,2.845,2.761,2.159,4.638c-0.687,1.881-2.762,2.846-4.641,2.159C805.284,2398.575,804.317,2396.5,805.004,2394.62z"/>
		<circle fill="none" stroke="#010202" stroke-width="2" cx="808.44" cy="2315.421" r="3.618"/>
	</g>
	<g>
		<g>
			<path fill="#FFFFFF" stroke="#010202" stroke-width="2" d="M679.903,2264.403c3.133,3.13,3.133,8.211,0,11.347
				s-8.216,3.136-11.349,0c-3.134-3.132-3.134-8.212-0.002-11.347C671.688,2261.267,676.771,2261.267,679.903,2264.403z"/>
		</g>
		<path fill="none" stroke="#010202" stroke-width="2" stroke-dasharray="6" d="M674.229,2236.289
			c-18.661,0-33.785,15.127-33.785,33.786c0,18.655,15.124,33.786,33.785,33.786c18.659,0,33.785-15.131,33.785-33.786
			C708.015,2251.416,692.889,2236.289,674.229,2236.289z"/>
		<path fill="none" stroke="#010202" stroke-width="2" d="M674.229,2243.085c-14.908,0-26.992,12.082-26.992,26.99
			c0,14.903,12.084,26.992,26.992,26.992c14.906,0,26.991-12.089,26.991-26.992C701.221,2255.167,689.136,2243.085,674.229,2243.085
			z"/>
		<circle fill="none" stroke="#010202" stroke-width="2" cx="674.229" cy="2270.076" r="14.312"/>
	</g>
	<circle fill="none" stroke="#010202" stroke-width="2" cx="672.814" cy="2441.504" r="23.597"/>
	<g>
		<circle fill="#FFFFFF" stroke="#010202" stroke-width="2" cx="747.229" cy="2430.853" r="6.804"/>
		<g>
			<circle fill="none" stroke="#010202" stroke-width="2" cx="747.229" cy="2430.852" r="28.011"/>
			<circle fill="none" stroke="#010202" stroke-width="2" cx="747.229" cy="2430.852" r="24.162"/>
			<circle fill="none" stroke="#010202" stroke-width="2" cx="747.229" cy="2430.853" r="14.54"/>
			<polygon fill="none" stroke="#010202" stroke-width="2" points="770.76,2407.19 771.747,2411.924 776.063,2414.102 
				775.792,2418.929 779.397,2422.15 777.886,2426.743 780.533,2430.787 777.886,2434.832 779.397,2439.424 775.792,2442.646 
				776.063,2447.473 771.747,2449.651 770.76,2454.384 766.026,2455.37 763.849,2459.687 759.021,2459.415 755.801,2463.021 
				751.208,2461.509 747.163,2464.157 743.119,2461.509 738.526,2463.021 735.306,2459.415 730.479,2459.687 728.3,2455.37 
				723.567,2454.384 722.58,2449.651 718.265,2447.472 718.536,2442.646 714.931,2439.424 716.442,2434.831 713.794,2430.787 
				716.442,2426.742 714.931,2422.15 718.536,2418.929 718.265,2414.102 722.58,2411.924 723.567,2407.19 728.3,2406.204 
				730.479,2401.888 735.306,2402.159 738.526,2398.554 743.119,2400.065 747.163,2397.417 751.208,2400.065 755.8,2398.554 
				759.021,2402.159 763.849,2401.888 766.026,2406.204 			"/>
		</g>
	</g>
	<circle fill="none" stroke="#010202" stroke-width="2" cx="715.828" cy="2314.885" r="14.312"/>
	<g>
		<g>
			<path fill="none" stroke="#010202" stroke-width="2" d="M541.949,2072.607h238.239c0,0-91.429,64.8-146.464,64.8
				C578.688,2137.407,541.949,2072.607,541.949,2072.607z"/>
			<line fill="none" stroke="#010202" stroke-width="2" x1="541.949" y1="2072.607" x2="480.19" y2="2072.607"/>
		</g>
		<line fill="none" stroke="#010202" stroke-width="2" x1="588.032" y1="2072.607" x2="608.909" y2="2093.486"/>
		<line fill="none" stroke="#010202" stroke-width="2" x1="621.149" y1="2072.607" x2="635.549" y2="2087.004"/>
		<line fill="none" stroke="#010202" stroke-width="2" x1="655.708" y1="2072.607" x2="665.069" y2="2081.966"/>
	</g>
	<g>
		<g>
			<line fill="none" stroke="#010202" stroke-width="2" x1="286.861" y1="2225.623" x2="217.463" y2="2156.224"/>
		</g>
		<line fill="none" stroke="#010202" stroke-width="2" x1="480.191" y1="2225.623" x2="175.159" y2="2225.623"/>
		<g>
			<circle fill="#FFFFFF" stroke="#010202" stroke-width="2" cx="287.569" cy="2140.309" r="6.803"/>
			<line fill="none" stroke="#010202" stroke-width="2" x1="286.861" y1="2225.623" x2="286.861" y2="2147.072"/>
		</g>
		<g>
			<line fill="none" stroke="#010202" stroke-width="2" x1="286.861" y1="2225.623" x2="286.86" y2="2303.743"/>
		</g>
		<g>
			<circle fill="#FFFFFF" stroke="#010202" stroke-width="2" cx="244.556" cy="2266.927" r="6.804"/>
			<line fill="none" stroke="#010202" stroke-width="2" x1="286.861" y1="2225.623" x2="249.839" y2="2262.645"/>
		</g>
		<circle fill="none" stroke="#010202" stroke-width="2" cx="287.569" cy="2140.309" r="12.133"/>
		<g>
			<path fill="#FFFFFF" stroke="#010202" stroke-width="2" d="M163.69,2234.202c-4.433-1.618-6.716-6.523-5.097-10.959
				c1.618-4.434,6.524-6.714,10.957-5.096s6.717,6.522,5.1,10.955C173.03,2233.54,168.124,2235.821,163.69,2234.202z"/>
			<circle fill="none" stroke="#010202" stroke-width="2" cx="166.621" cy="2226.175" r="21.601"/>
			<circle fill="none" stroke="#010202" stroke-width="2" cx="166.62" cy="2226.176" r="39.191"/>
			<circle fill="none" stroke="#010202" stroke-width="2" cx="166.62" cy="2226.175" r="29.64"/>
			<circle fill="none" stroke="#010202" stroke-width="2" cx="126.407" cy="2211.499" r="3.618"/>
			<circle fill="none" stroke="#010202" stroke-width="2" cx="206.834" cy="2240.854" r="3.618"/>
			<path fill="none" stroke="#010202" stroke-width="2" d="M184.697,2187.205c-0.686,1.878-2.763,2.842-4.639,2.156
				c-1.878-0.685-2.844-2.76-2.159-4.638c0.686-1.879,2.763-2.844,4.64-2.159C184.416,2183.25,185.383,2185.326,184.697,2187.205z"
				/>
			<path fill="none" stroke="#010202" stroke-width="2" d="M182.249,2268.435c-0.686,1.878-2.762,2.842-4.64,2.156
				s-2.844-2.761-2.159-4.638c0.688-1.879,2.763-2.845,4.641-2.159C181.968,2264.479,182.936,2266.555,182.249,2268.435z"/>
			<circle fill="none" stroke="#010202" stroke-width="2" cx="129.56" cy="2247.59" r="3.618"/>
			<path fill="none" stroke="#010202" stroke-width="2" d="M208.393,2207.1c-0.685,1.878-2.762,2.842-4.639,2.158
				c-1.878-0.687-2.844-2.762-2.159-4.639c0.687-1.88,2.763-2.845,4.64-2.159C208.112,2203.146,209.078,2205.221,208.393,2207.1z"/>
			<path fill="none" stroke="#010202" stroke-width="2" d="M155.379,2187.191c-0.684,1.877-2.761,2.843-4.638,2.158
				c-1.879-0.686-2.845-2.762-2.159-4.639c0.687-1.881,2.762-2.846,4.641-2.159C155.099,2183.236,156.065,2185.312,155.379,2187.191
				z"/>
			<circle fill="none" stroke="#010202" stroke-width="2" cx="151.943" cy="2266.39" r="3.618"/>
		</g>
		<g>
			<g>
				<path fill="#FFFFFF" stroke="#010202" stroke-width="2" d="M280.479,2317.408c-3.133-3.13-3.133-8.211,0-11.347
					s8.216-3.136,11.349,0c3.134,3.132,3.134,8.212,0.002,11.347C288.695,2320.545,283.612,2320.545,280.479,2317.408z"/>
			</g>
			<path fill="none" stroke="#010202" stroke-width="2" stroke-dasharray="6" d="M286.153,2345.522
				c18.661,0,33.785-15.127,33.785-33.786c0-18.655-15.124-33.786-33.785-33.786c-18.659,0-33.785,15.131-33.785,33.786
				C252.368,2330.396,267.494,2345.522,286.153,2345.522z"/>
			<path fill="none" stroke="#010202" stroke-width="2" d="M286.153,2338.727c14.908,0,26.992-12.082,26.992-26.99
				c0-14.903-12.084-26.992-26.992-26.992c-14.906,0-26.991,12.089-26.991,26.992
				C259.162,2326.645,271.247,2338.727,286.153,2338.727z"/>
			<circle fill="none" stroke="#010202" stroke-width="2" cx="286.153" cy="2311.735" r="14.312"/>
		</g>
		<circle fill="none" stroke="#010202" stroke-width="2" cx="287.568" cy="2140.309" r="23.597"/>
		<g>
			<circle fill="#FFFFFF" stroke="#010202" stroke-width="2" cx="213.154" cy="2150.959" r="6.804"/>
			<g>
				<circle fill="none" stroke="#010202" stroke-width="2" cx="213.154" cy="2150.96" r="28.011"/>
				<circle fill="none" stroke="#010202" stroke-width="2" cx="213.154" cy="2150.96" r="24.162"/>
				<circle fill="none" stroke="#010202" stroke-width="2" cx="213.154" cy="2150.959" r="14.54"/>
				<polygon fill="none" stroke="#010202" stroke-width="2" points="189.623,2174.621 188.636,2169.888 184.319,2167.71 
					184.591,2162.883 180.985,2159.661 182.497,2155.068 179.85,2151.024 182.497,2146.979 180.985,2142.388 184.591,2139.166 
					184.319,2134.339 188.636,2132.16 189.623,2127.428 194.356,2126.441 196.534,2122.125 201.361,2122.396 204.582,2118.791 
					209.175,2120.303 213.22,2117.654 217.264,2120.303 221.856,2118.791 225.077,2122.396 229.904,2122.125 232.083,2126.441 
					236.815,2127.428 237.803,2132.16 242.118,2134.34 241.847,2139.166 245.452,2142.388 243.94,2146.98 246.589,2151.024 
					243.94,2155.069 245.452,2159.661 241.847,2162.883 242.118,2167.71 237.803,2169.888 236.815,2174.621 232.083,2175.607 
					229.904,2179.924 225.077,2179.652 221.856,2183.258 217.264,2181.746 213.22,2184.395 209.175,2181.746 204.583,2183.258 
					201.361,2179.652 196.534,2179.924 194.356,2175.607 				"/>
			</g>
		</g>
		<circle fill="none" stroke="#010202" stroke-width="2" cx="244.555" cy="2266.927" r="14.312"/>
	</g>
	<circle fill="none" stroke="#010202" stroke-width="2" cx="687.749" cy="1912.454" r="6.803"/>
	<line fill="none" stroke="#010202" stroke-width="2" x1="611.881" y1="1835.584" x2="683.466" y2="1907.172"/>
	<line fill="none" stroke="#010202" stroke-width="2" x1="480.19" y1="1835.584" x2="686.699" y2="1835.584"/>
	<line fill="none" stroke="#010202" stroke-width="2" x1="611.881" y1="1835.584" x2="611.881" y2="1937.519"/>
	<g>
		<circle fill="none" stroke="#010202" stroke-width="2" cx="654.186" cy="1794.28" r="6.804"/>
		<line fill="none" stroke="#010202" stroke-width="2" x1="611.881" y1="1835.584" x2="648.903" y2="1798.562"/>
	</g>
	<g>
		<circle fill="none" stroke="#010202" stroke-width="2" cx="611.383" cy="1750.897" r="23.597"/>
		<circle fill="none" stroke="#010202" stroke-width="2" cx="611.383" cy="1750.897" r="6.803"/>
		<circle fill="none" stroke="#010202" stroke-width="2" cx="611.383" cy="1750.897" r="12.133"/>
	</g>
	<g>
		<circle fill="none" stroke="#010202" stroke-width="2" cx="694.784" cy="1836.446" r="20.045"/>
		<g>
			<g>
				<circle fill="#FFFFFF" stroke="#010202" stroke-width="2" cx="694.792" cy="1836.437" r="8.199"/>
			</g>
			<path fill="none" stroke="#010202" stroke-width="2" d="M714.292,1855.938c10.771-10.771,10.771-28.231,0.001-39.001
				c-10.767-10.767-28.23-10.771-39.001,0.001c-10.769,10.768-10.766,28.232,0.001,38.999
				C686.062,1866.706,703.523,1866.705,714.292,1855.938z"/>
			<circle fill="none" stroke="#010202" stroke-width="2" cx="694.793" cy="1836.437" r="14.622"/>
		</g>
		<line fill="none" stroke="#010202" stroke-width="2" x1="722.352" y1="1863.864" x2="717.861" y2="1859.523"/>
		<line fill="none" stroke="#010202" stroke-width="2" x1="714.3" y1="1870.042" x2="711.18" y2="1864.672"/>
		<line fill="none" stroke="#010202" stroke-width="2" x1="704.92" y1="1873.928" x2="703.307" y2="1867.955"/>
		<line fill="none" stroke="#010202" stroke-width="2" x1="694.858" y1="1875.253" x2="694.782" y2="1869.082"/>
		<line fill="none" stroke="#010202" stroke-width="2" x1="684.793" y1="1873.927" x2="686.379" y2="1867.985"/>
		<line fill="none" stroke="#010202" stroke-width="2" x1="675.416" y1="1870.043" x2="678.483" y2="1864.725"/>
		<line fill="none" stroke="#010202" stroke-width="2" x1="667.365" y1="1863.863" x2="671.707" y2="1859.521"/>
		<line fill="none" stroke="#010202" stroke-width="2" x1="661.186" y1="1855.812" x2="666.504" y2="1852.746"/>
		<line fill="none" stroke="#010202" stroke-width="2" x1="663.244" y1="1844.852" x2="657.302" y2="1846.436"/>
		<line fill="none" stroke="#010202" stroke-width="2" x1="663.274" y1="1827.923" x2="657.302" y2="1826.309"/>
		<line fill="none" stroke="#010202" stroke-width="2" x1="666.559" y1="1820.051" x2="661.188" y2="1816.929"/>
		<line fill="none" stroke="#010202" stroke-width="2" x1="678.537" y1="1808.135" x2="675.417" y2="1802.699"/>
		<line fill="none" stroke="#010202" stroke-width="2" x1="686.41" y1="1804.9" x2="684.795" y2="1798.815"/>
		<line fill="none" stroke="#010202" stroke-width="2" x1="694.783" y1="1803.812" x2="694.858" y2="1797.492"/>
		<line fill="none" stroke="#010202" stroke-width="2" x1="703.273" y1="1804.931" x2="704.922" y2="1798.815"/>
		<line fill="none" stroke="#010202" stroke-width="2" x1="711.121" y1="1808.193" x2="714.299" y2="1802.699"/>
		<line fill="none" stroke="#010202" stroke-width="2" x1="717.857" y1="1813.372" x2="722.352" y2="1808.878"/>
		<line fill="none" stroke="#010202" stroke-width="2" x1="723.036" y1="1820.109" x2="728.529" y2="1816.93"/>
		<line fill="none" stroke="#010202" stroke-width="2" x1="732.413" y1="1826.307" x2="726.297" y2="1827.955"/>
		<line fill="none" stroke="#010202" stroke-width="2" x1="733.739" y1="1836.372" x2="727.415" y2="1836.372"/>
		<line fill="none" stroke="#010202" stroke-width="2" x1="732.414" y1="1846.434" x2="726.322" y2="1844.847"/>
		<line fill="none" stroke="#010202" stroke-width="2" x1="728.529" y1="1855.812" x2="723.081" y2="1852.714"/>
		<line fill="none" stroke="#010202" stroke-width="2" x1="667.365" y1="1808.878" x2="671.781" y2="1813.294"/>
	</g>
	<g>
		<circle fill="none" stroke="#010202" stroke-width="2" cx="694.784" cy="1836.446" r="20.045"/>
		<g>
			<g>
				<circle fill="#FFFFFF" stroke="#010202" stroke-width="2" cx="694.792" cy="1836.437" r="8.199"/>
			</g>
			<path fill="none" stroke="#010202" stroke-width="2" d="M714.292,1855.938c10.771-10.771,10.771-28.231,0.001-39.001
				c-10.767-10.767-28.23-10.771-39.001,0.001c-10.769,10.768-10.766,28.232,0.001,38.999
				C686.062,1866.706,703.523,1866.705,714.292,1855.938z"/>
			<circle fill="none" stroke="#010202" stroke-width="2" cx="694.793" cy="1836.437" r="14.622"/>
		</g>
		<line fill="none" stroke="#010202" stroke-width="2" x1="722.352" y1="1863.864" x2="717.861" y2="1859.523"/>
		<line fill="none" stroke="#010202" stroke-width="2" x1="714.3" y1="1870.042" x2="711.18" y2="1864.672"/>
		<line fill="none" stroke="#010202" stroke-width="2" x1="704.92" y1="1873.928" x2="703.307" y2="1867.955"/>
		<line fill="none" stroke="#010202" stroke-width="2" x1="694.858" y1="1875.253" x2="694.782" y2="1869.082"/>
		<line fill="none" stroke="#010202" stroke-width="2" x1="684.793" y1="1873.927" x2="686.379" y2="1867.985"/>
		<line fill="none" stroke="#010202" stroke-width="2" x1="675.416" y1="1870.043" x2="678.483" y2="1864.725"/>
		<line fill="none" stroke="#010202" stroke-width="2" x1="667.365" y1="1863.863" x2="671.707" y2="1859.521"/>
		<line fill="none" stroke="#010202" stroke-width="2" x1="661.186" y1="1855.812" x2="666.504" y2="1852.746"/>
		<line fill="none" stroke="#010202" stroke-width="2" x1="663.244" y1="1844.852" x2="657.302" y2="1846.436"/>
		<line fill="none" stroke="#010202" stroke-width="2" x1="663.274" y1="1827.923" x2="657.302" y2="1826.309"/>
		<line fill="none" stroke="#010202" stroke-width="2" x1="666.559" y1="1820.051" x2="661.188" y2="1816.929"/>
		<line fill="none" stroke="#010202" stroke-width="2" x1="678.537" y1="1808.135" x2="675.417" y2="1802.699"/>
		<line fill="none" stroke="#010202" stroke-width="2" x1="686.41" y1="1804.9" x2="684.795" y2="1798.815"/>
		<line fill="none" stroke="#010202" stroke-width="2" x1="694.783" y1="1803.812" x2="694.858" y2="1797.492"/>
		<line fill="none" stroke="#010202" stroke-width="2" x1="703.273" y1="1804.931" x2="704.922" y2="1798.815"/>
		<line fill="none" stroke="#010202" stroke-width="2" x1="711.121" y1="1808.193" x2="714.299" y2="1802.699"/>
		<line fill="none" stroke="#010202" stroke-width="2" x1="717.857" y1="1813.372" x2="722.352" y2="1808.878"/>
		<line fill="none" stroke="#010202" stroke-width="2" x1="723.036" y1="1820.109" x2="728.529" y2="1816.93"/>
		<line fill="none" stroke="#010202" stroke-width="2" x1="732.413" y1="1826.307" x2="726.297" y2="1827.955"/>
		<line fill="none" stroke="#010202" stroke-width="2" x1="733.739" y1="1836.372" x2="727.415" y2="1836.372"/>
		<line fill="none" stroke="#010202" stroke-width="2" x1="732.414" y1="1846.434" x2="726.322" y2="1844.847"/>
		<line fill="none" stroke="#010202" stroke-width="2" x1="728.529" y1="1855.812" x2="723.081" y2="1852.714"/>
		<line fill="none" stroke="#010202" stroke-width="2" x1="667.365" y1="1808.878" x2="671.781" y2="1813.294"/>
	</g>
	<circle fill="none" stroke="#010202" stroke-width="2" cx="687.748" cy="1912.452" r="12.134"/>
	<g>
		<circle fill="none" stroke="#010202" stroke-width="2" cx="611.881" cy="1941.591" r="8.072"/>
		<circle fill="none" stroke="#010202" stroke-width="2" cx="611.881" cy="1941.592" r="20.405"/>
		<circle fill="none" stroke="#010202" stroke-width="2" cx="611.881" cy="1941.59" r="37.019"/>
		<circle fill="none" stroke="#010202" stroke-width="2" cx="611.881" cy="1941.59" r="27.998"/>
		<g>
			<line fill="none" stroke="#010202" stroke-width="2" x1="574.861" y1="1963.616" x2="574.861" y2="1919.301"/>
			<circle fill="none" stroke="#010202" stroke-width="2" cx="574.861" cy="1967.034" r="3.418"/>
			<path fill="none" stroke="#010202" stroke-width="2" d="M574.861,1919.301c-1.888,0-3.417-1.528-3.417-3.419
				c0-1.887,1.529-3.416,3.417-3.416c1.889,0,3.418,1.529,3.418,3.416C578.279,1917.772,576.75,1919.301,574.861,1919.301z"/>
		</g>
		<g>
			<line fill="none" stroke="#010202" stroke-width="2" x1="648.899" y1="1963.616" x2="648.899" y2="1919.301"/>
			<circle fill="none" stroke="#010202" stroke-width="2" cx="648.899" cy="1967.034" r="3.418"/>
			<path fill="none" stroke="#010202" stroke-width="2" d="M648.899,1919.301c-1.889,0-3.419-1.528-3.419-3.419
				c0-1.887,1.53-3.416,3.419-3.416c1.887,0,3.417,1.529,3.417,3.416C652.316,1917.772,650.786,1919.301,648.899,1919.301z"/>
		</g>
		<g>
			<line fill="none" stroke="#010202" stroke-width="2" x1="589.723" y1="1904.571" x2="634.038" y2="1904.571"/>
			<circle fill="none" stroke="#010202" stroke-width="2" cx="586.305" cy="1904.571" r="3.418"/>
			<circle fill="none" stroke="#010202" stroke-width="2" cx="637.456" cy="1904.571" r="3.418"/>
		</g>
		<g>
			<line fill="none" stroke="#010202" stroke-width="2" x1="589.723" y1="1978.609" x2="634.038" y2="1978.609"/>
			<circle fill="none" stroke="#010202" stroke-width="2" cx="586.305" cy="1978.609" r="3.418"/>
			<circle fill="none" stroke="#010202" stroke-width="2" cx="637.456" cy="1978.609" r="3.418"/>
		</g>
	</g>
	<line fill="none" stroke="#010202" stroke-width="2" x1="611.881" y1="1835.584" x2="611.881" y2="1757.678"/>
	<circle fill="none" stroke="#010202" stroke-width="2" cx="687.749" cy="1912.452" r="23.597"/>
	<g>
		<g>
			<path fill="#C6B979" d="M382.887,808.538H197.59c0,0,71.111,50.399,113.918,50.399S382.887,808.538,382.887,808.538z"/>
		</g>
	</g>
	<g>
		<g>
			<path fill="#C6B979" d="M418.899,822.054H187.105c0,0,88.955,63.046,142.504,63.046
				C383.157,885.1,418.899,822.054,418.899,822.054z"/>
		</g>
	</g>
	<g>
		<g>
			<path fill="#C6B979" d="M382.887,1476.538H197.59c0,0,71.111,50.399,113.918,50.399S382.887,1476.538,382.887,1476.538z"/>
		</g>
	</g>
	<g>
		<g>
			<path fill="#C6B979" d="M418.899,1490.054H187.105c0,0,88.955,63.046,142.504,63.046
				C383.157,1553.1,418.899,1490.054,418.899,1490.054z"/>
		</g>
	</g>
	<g>
		<g>
			<path fill="#C6B979" d="M382.887,2458.187H197.59c0,0,71.111,50.399,113.918,50.399S382.887,2458.187,382.887,2458.187z"/>
		</g>
	</g>
	<g>
		<g>
			<path fill="#C6B979" d="M418.899,2471.702H187.105c0,0,88.955,63.046,142.504,63.046
				C383.157,2534.748,418.899,2471.702,418.899,2471.702z"/>
		</g>
	</g>
	<g>
		<g>
			<path fill="#C6B979" d="M401.644,1698.645H256.258c0,0,55.795,39.544,89.381,39.544
				C379.226,1738.188,401.644,1698.645,401.644,1698.645z"/>
		</g>
	</g>
	<g>
		<g>
			<path fill="#C6B979" d="M429.899,1709.25H248.031c0,0,69.796,49.466,111.811,49.466
				C401.855,1758.716,429.899,1709.25,429.899,1709.25z"/>
		</g>
	</g>
	<g>
		<g>
			<path fill="#C6B979" d="M511.781,1535.366h334.596c0,0-128.407,91.008-205.704,91.008
				C563.375,1626.374,511.781,1535.366,511.781,1535.366z"/>
		</g>
	</g>
	<g>
		<g>
			<path fill="#C6B979" d="M530.235,1547.382h240.848c0,0-92.429,65.508-148.07,65.508
				C567.374,1612.89,530.235,1547.382,530.235,1547.382z"/>
		</g>
	</g>
	<g>
		<g>
			<path fill="#C6B979" d="M511.781,2059.366h334.596c0,0-128.407,91.008-205.704,91.008
				C563.375,2150.374,511.781,2059.366,511.781,2059.366z"/>
		</g>
	</g>
	<g>
		<g>
			<path fill="#C6B979" d="M530.235,2071.382h240.848c0,0-92.429,65.508-148.07,65.508
				C567.374,2136.89,530.235,2071.382,530.235,2071.382z"/>
		</g>
	</g>
	<circle fill="#CCE9F2" cx="715.586" cy="1852.395" r="79.248"/>
	<circle fill="#CCE9F2" cx="675.625" cy="1835.262" r="56.498"/>
	<circle fill="#CCE9F2" cx="710.834" cy="1839.482" r="41.248"/>
	<circle fill="#F8E79B" cx="701.68" cy="1836.619" r="14.748"/>
	<circle fill="#CCE9F2" cx="200.755" cy="1275.442" r="79.248"/>
	<circle fill="#CCE9F2" cx="240.716" cy="1292.575" r="56.498"/>
	<circle fill="#CCE9F2" cx="205.506" cy="1288.354" r="41.248"/>
	<circle fill="#F8E79B" cx="214.661" cy="1291.218" r="14.748"/>
	<circle fill="#CCE9F2" cx="248.422" cy="1955.733" r="79.248"/>
	<circle fill="#CCE9F2" cx="279.095" cy="1986.548" r="56.498"/>
	<circle fill="#CCE9F2" cx="248.008" cy="1969.486" r="41.248"/>
	<circle fill="#F8E79B" cx="255.432" cy="1975.561" r="14.748"/>
	<g>
		<circle fill="#D7DB32" cx="683.788" cy="1404.775" r="33.618"/>
		<circle fill="#D7DB32" cx="669.394" cy="1398.337" r="23.238"/>
		<circle fill="#D7DB32" cx="665.336" cy="1410.421" r="16.567"/>
		<circle fill="#D7DB32" cx="665.733" cy="1400.032" r="12.096"/>
		<circle fill="#F8E79B" cx="667.175" cy="1402.462" r="4.326"/>
	</g>
	<g>
		<circle fill="#D7DB32" cx="357.667" cy="1902.461" r="33.618"/>
		<circle fill="#D7DB32" cx="349.084" cy="1915.688" r="23.238"/>
		<circle fill="#D7DB32" cx="360.397" cy="1921.563" r="16.567"/>
		<circle fill="#D7DB32" cx="350.193" cy="1919.567" r="12.096"/>
		<circle fill="#F8E79B" cx="352.817" cy="1918.517" r="4.325"/>
	</g>
	<g>
		<path fill="#D7DB32" d="M631.894,1242.788c9.002-25.84,37.242-39.493,63.088-30.489c25.842,9,39.496,37.247,30.494,63.088
			c-9.002,25.842-37.247,39.496-63.091,30.494S622.891,1268.634,631.894,1242.788z"/>
		<circle fill="#D7DB32" cx="658.458" cy="1248.739" r="38.287"/>
		<circle fill="#D7DB32" cx="671.913" cy="1236.845" r="26.466"/>
		<circle fill="#D7DB32" cx="661.292" cy="1226.946" r="18.868"/>
		<path fill="#D7DB32" d="M658.869,1227.72c2.505-7.185,10.358-10.98,17.54-8.476c7.185,2.501,10.982,10.354,8.479,17.537
			c-2.505,7.187-10.356,10.979-17.54,8.479C660.162,1242.758,656.367,1234.904,658.869,1227.72z"/>
		<path fill="#F8E79B" d="M664.028,1230.98c0.896-2.565,3.7-3.924,6.271-3.03c2.568,0.896,3.927,3.702,3.031,6.272
			c-0.895,2.568-3.703,3.927-6.271,3.031C664.489,1236.357,663.134,1233.553,664.028,1230.98z"/>
	</g>
	<g>
		<path fill="#D7DB32" d="M246.478,2133.685c-5.759,26.75-32.107,43.77-58.864,38.01c-26.752-5.757-43.773-32.112-38.015-58.863
			c5.759-26.752,32.112-43.772,58.866-38.015S252.236,2106.928,246.478,2133.685z"/>
		<circle fill="#D7DB32" cx="219.383" cy="2131.042" r="38.287"/>
		<path fill="#D7DB32" d="M233.365,2150.068c-3.076,14.288-17.154,23.381-31.443,20.305c-14.291-3.075-23.382-17.154-20.304-31.442
			c3.075-14.289,17.151-23.382,31.441-20.304C227.348,2121.699,236.438,2135.779,233.365,2150.068z"/>
		<path fill="#D7DB32" d="M237.693,2156.988c-2.19,10.189-12.226,16.67-22.414,14.477c-10.188-2.193-16.669-12.229-14.477-22.416
			c2.193-10.189,12.229-16.668,22.418-14.477C233.406,2136.766,239.89,2146.802,237.693,2156.988z"/>
		<path fill="#D7DB32" d="M221.558,2151.953c-1.604,7.438-8.931,12.17-16.366,10.566c-7.438-1.6-12.171-8.926-10.569-16.362
			c1.603-7.44,8.929-12.169,16.365-10.569C218.427,2137.188,223.157,2144.516,221.558,2151.953z"/>
		<path fill="#F8E79B" d="M216.037,2149.352c-0.574,2.655-3.19,4.348-5.853,3.777c-2.658-0.574-4.352-3.191-3.778-5.853
			c0.572-2.659,3.192-4.353,5.852-3.778C214.919,2144.071,216.608,2146.688,216.037,2149.352z"/>
	</g>
	<g>
		<path fill="#D7DB32" d="M709.646,2438.859c9.002-25.84,37.242-39.493,63.088-30.489c25.842,9,39.496,37.247,30.494,63.088
			c-9.002,25.842-37.247,39.496-63.091,30.494S700.643,2464.705,709.646,2438.859z"/>
		<circle fill="#D7DB32" cx="736.21" cy="2444.811" r="38.287"/>
		<circle fill="#D7DB32" cx="749.665" cy="2432.917" r="26.466"/>
		<circle fill="#D7DB32" cx="739.043" cy="2423.018" r="18.868"/>
		<path fill="#D7DB32" d="M736.621,2423.791c2.505-7.185,10.358-10.98,17.54-8.476c7.185,2.501,10.982,10.354,8.479,17.537
			c-2.505,7.187-10.356,10.979-17.54,8.479C737.914,2438.829,734.119,2430.976,736.621,2423.791z"/>
		<path fill="#F8E79B" d="M741.78,2427.052c0.896-2.565,3.7-3.923,6.271-3.03c2.568,0.896,3.927,3.702,3.031,6.272
			c-0.895,2.568-3.703,3.927-6.271,3.031C742.241,2432.429,740.886,2429.624,741.78,2427.052z"/>
	</g>
	<path fill="#F1B1D1" d="M808.635,1214.239c-30.652,10.875-64.317-5.159-75.192-35.812c-10.875-30.652,5.16-64.316,35.813-75.193
		c30.655-10.873,64.317,5.158,75.19,35.814C855.323,1169.702,839.29,1203.363,808.635,1214.239z"/>
	<circle fill="#F1B1D1" cx="764.202" cy="1142.383" r="40.432"/>
	<circle fill="#F1B1D1" cx="762.561" cy="1164.506" r="28.826"/>
	<circle fill="#F1B1D1" cx="758.762" cy="1146.815" r="21.045"/>
	<path fill="#F8E79B" d="M764.754,1157.386c-3.918,1.391-8.219-0.658-9.609-4.576c-1.39-3.916,0.659-8.219,4.576-9.604
		c3.916-1.392,8.218,0.655,9.606,4.574C770.718,1151.694,768.669,1155.995,764.754,1157.386z"/>
	<path fill="#F1B1D1" d="M550.759,1986.368c-11.416-30.455,4.021-64.398,34.477-75.813c30.455-11.415,64.398,4.022,75.815,34.478
		c11.413,30.459-4.021,64.399-34.479,75.812C596.114,2032.263,562.175,2016.827,550.759,1986.368z"/>
	<path fill="#F1B1D1" d="M583.958,1954.862c-7.84-20.911,2.759-44.214,23.67-52.052c20.911-7.837,44.213,2.762,52.049,23.671
		c7.838,20.911-2.758,44.213-23.668,52.051C615.097,1986.371,591.794,1975.772,583.958,1954.862z"/>
	<circle fill="#F1B1D1" cx="599.669" cy="1939.422" r="28.826"/>
	<path fill="#F1B1D1" d="M597.583,1942.697c-4.08-10.886,1.438-23.014,12.32-27.096c10.883-4.078,23.013,1.44,27.093,12.323
		c4.078,10.883-1.438,23.012-12.321,27.091C613.79,1959.094,601.662,1953.577,597.583,1942.697z"/>
	<circle fill="#F8E79B" cx="613.872" cy="1931.329" r="7.524"/>
	<g>
		<circle fill="#E383B4" cx="657.948" cy="992.68" r="31.779"/>
		<circle fill="#E383B4" cx="655.078" cy="978.051" r="21.968"/>
		<circle fill="#E383B4" cx="643.532" cy="981.504" r="15.661"/>
		<circle fill="#E383B4" cx="651.775" cy="976.148" r="11.434"/>
		<path fill="#F8E79B" d="M647.569,981.236c-1.463-1.717-1.256-4.297,0.463-5.764c1.719-1.461,4.298-1.257,5.762,0.463
			c1.465,1.719,1.258,4.299-0.46,5.764C651.613,983.162,649.034,982.957,647.569,981.236z"/>
	</g>
	<g>
		<circle fill="#E383B4" cx="321.481" cy="1227.865" r="31.779"/>
		<circle fill="#E383B4" cx="308.919" cy="1235.891" r="21.967"/>
		<circle fill="#E383B4" cx="316.36" cy="1245.372" r="15.661"/>
		<circle fill="#E383B4" cx="308.357" cy="1239.662" r="11.434"/>
		<circle fill="#F8E79B" cx="311.027" cy="1239.786" r="4.088"/>
	</g>
	<g>
		<circle fill="#E383B4" cx="656.771" cy="2456.595" r="31.778"/>
		<circle fill="#E383B4" cx="670.923" cy="2451.91" r="21.968"/>
		<circle fill="#E383B4" cx="666.045" cy="2440.889" r="15.66"/>
		<circle fill="#E383B4" cx="672.396" cy="2448.393" r="11.434"/>
		<path fill="#F8E79B" d="M666.818,2444.861c1.52-1.668,4.105-1.787,5.777-0.268c1.665,1.522,1.786,4.107,0.264,5.775
			c-1.521,1.67-4.106,1.788-5.775,0.268C665.416,2449.114,665.296,2446.53,666.818,2444.861z"/>
	</g>
	<g>
		<circle fill="#E383B4" cx="242.447" cy="2263.033" r="21.967"/>
		<circle fill="#E383B4" cx="249.889" cy="2272.513" r="15.661"/>
		<circle fill="#E383B4" cx="241.886" cy="2266.804" r="11.434"/>
		<circle fill="#F8E79B" cx="244.555" cy="2266.928" r="4.088"/>
	</g>
	<g>
		<circle fill="#E383B4" cx="665.843" cy="2583.145" r="21.967"/>
		<circle fill="#E383B4" cx="673.283" cy="2592.625" r="15.661"/>
		<circle fill="#E383B4" cx="665.281" cy="2586.916" r="11.434"/>
		<circle fill="#F8E79B" cx="667.95" cy="2587.04" r="4.088"/>
	</g>
	<g>
		<circle fill="#EE7473" cx="794.339" cy="2362.281" r="54.963"/>
		<path fill="#EE7473" d="M848.84,2369.38c0.363-2.779,2.908-4.736,5.687-4.376c2.782,0.362,4.741,2.908,4.378,5.687
			c-0.361,2.781-2.907,4.738-5.688,4.375C850.438,2374.704,848.479,2372.162,848.84,2369.38z"/>
		<path fill="#EE7473" d="M781.553,2421.159c0.361-2.78,2.907-4.737,5.687-4.376c2.781,0.362,4.739,2.906,4.378,5.685
			c-0.363,2.783-2.908,4.74-5.689,4.377C783.149,2426.483,781.189,2423.94,781.553,2421.159z"/>
		<circle fill="#EE7473" cx="765.023" cy="2309.899" r="5.075"/>
		<path fill="#EE7473" d="M833.459,2320.954c0.361-2.777,2.908-4.736,5.686-4.375c2.78,0.363,4.74,2.908,4.379,5.687
			c-0.363,2.782-2.909,4.739-5.689,4.377C835.057,2326.28,833.098,2323.737,833.459,2320.954z"/>
		<path fill="#EE7473" d="M743.022,2401.197c0.362-2.778,2.907-4.734,5.686-4.374c2.781,0.363,4.739,2.905,4.378,5.686
			c-0.363,2.781-2.908,4.738-5.689,4.377C744.62,2406.524,742.66,2403.979,743.022,2401.197z"/>
		<path fill="#EE7473" d="M821.678,2412.185c0.36-2.777,2.908-4.736,5.687-4.373c2.78,0.361,4.738,2.905,4.376,5.684
			c-0.363,2.783-2.905,4.74-5.687,4.379C823.274,2417.511,821.314,2414.968,821.678,2412.185z"/>
		<path fill="#EE7473" d="M797.061,2302.091c0.362-2.78,2.908-4.736,5.688-4.375c2.779,0.361,4.737,2.905,4.377,5.686
			c-0.363,2.781-2.907,4.738-5.688,4.377S796.699,2304.87,797.061,2302.091z"/>
	</g>
	<circle fill="#EE7473" cx="800.049" cy="2359.323" r="41.98"/>
	<circle fill="#EE7473" cx="777.93" cy="2365.745" r="29.929"/>
	<circle fill="#EE7473" cx="793.763" cy="2355.635" r="21.851"/>
	<circle fill="#F8E79B" cx="793.764" cy="2355.634" r="7.813"/>
	<g>
		<circle fill="#EE7473" cx="166.044" cy="2219.529" r="54.963"/>
		<path fill="#EE7473" d="M111.544,2212.431c-0.363,2.779-2.908,4.736-5.687,4.376c-2.782-0.362-4.74-2.908-4.377-5.687
			c0.36-2.781,2.906-4.738,5.688-4.375C109.946,2207.106,111.905,2209.648,111.544,2212.431z"/>
		<path fill="#EE7473" d="M178.831,2160.651c-0.361,2.781-2.907,4.738-5.687,4.376c-2.781-0.362-4.739-2.906-4.378-5.685
			c0.363-2.783,2.908-4.74,5.689-4.377C177.234,2155.327,179.194,2157.87,178.831,2160.651z"/>
		<circle fill="#EE7473" cx="195.36" cy="2271.912" r="5.075"/>
		<path fill="#EE7473" d="M126.925,2260.856c-0.361,2.777-2.907,4.736-5.686,4.375c-2.78-0.363-4.74-2.908-4.379-5.687
			c0.363-2.782,2.909-4.739,5.689-4.377C125.328,2255.53,127.287,2258.073,126.925,2260.856z"/>
		<path fill="#EE7473" d="M217.361,2180.613c-0.362,2.778-2.907,4.735-5.686,4.374c-2.781-0.363-4.739-2.905-4.378-5.686
			c0.363-2.781,2.908-4.738,5.689-4.377C215.764,2175.286,217.724,2177.831,217.361,2180.613z"/>
		<path fill="#EE7473" d="M138.707,2169.626c-0.361,2.777-2.908,4.736-5.688,4.373c-2.78-0.361-4.738-2.905-4.376-5.684
			c0.363-2.783,2.905-4.74,5.687-4.379C137.109,2164.3,139.07,2166.843,138.707,2169.626z"/>
		<path fill="#EE7473" d="M163.323,2279.72c-0.362,2.78-2.908,4.736-5.688,4.375c-2.779-0.361-4.737-2.905-4.377-5.686
			c0.363-2.781,2.907-4.737,5.688-4.377C161.726,2274.394,163.685,2276.94,163.323,2279.72z"/>
	</g>
	<circle fill="#EE7473" cx="160.335" cy="2222.488" r="41.98"/>
	<circle fill="#EE7473" cx="182.454" cy="2216.066" r="29.929"/>
	<circle fill="#EE7473" cx="166.621" cy="2226.176" r="21.851"/>
	<circle fill="#F8E79B" cx="166.62" cy="2226.176" r="7.813"/>
	<g>
		<circle fill="#EE7473" cx="612.9" cy="1742.306" r="42.473"/>
		<circle fill="#EE7473" cx="635.279" cy="1735.808" r="30.281"/>
		<circle fill="#EE7473" cx="619.26" cy="1746.037" r="22.107"/>
		<circle fill="#F8E79B" cx="619.26" cy="1746.038" r="7.905"/>
	</g>
	<g>
		<circle fill="#EE7473" cx="657.168" cy="2633.341" r="42.473"/>
		<circle fill="#EE7473" cx="635.988" cy="2643.059" r="30.281"/>
		<circle fill="#EE7473" cx="650.33" cy="2630.586" r="22.108"/>
		<circle fill="#F8E79B" cx="650.329" cy="2630.585" r="7.904"/>
	</g>
	<g>
		<circle fill="#F8E79B" cx="682.039" cy="2247.24" r="50.717"/>
		<circle fill="#F8E79B" cx="668.108" cy="2266.526" r="35.058"/>
		<circle fill="#F8E79B" cx="684.715" cy="2276.229" r="24.994"/>
		<circle fill="#F8E79B" cx="669.488" cy="2272.453" r="18.247"/>
		<circle fill="#F8E79B" cx="673.522" cy="2271.069" r="6.524"/>
	</g>
	<g>
		<circle fill="#F8E79B" cx="274.82" cy="2324.798" r="50.717"/>
		<circle fill="#F8E79B" cx="295.085" cy="2312.334" r="35.058"/>
		<circle fill="#F8E79B" cx="283.472" cy="2297.001" r="24.994"/>
		<circle fill="#F8E79B" cx="296.085" cy="2306.332" r="18.247"/>
		<circle fill="#F8E79B" cx="291.828" cy="2306.061" r="6.524"/>
	</g>
	<g>
		<circle fill="#F8E79B" cx="284.917" cy="1030.911" r="35.058"/>
		<circle fill="#F8E79B" cx="301.524" cy="1040.613" r="24.994"/>
		<circle fill="#F8E79B" cx="286.297" cy="1036.837" r="18.247"/>
		<circle fill="#F8E79B" cx="290.331" cy="1035.454" r="6.524"/>
	</g>
	<g>
		<circle fill="#F8E79B" cx="662.147" cy="1084.589" r="35.058"/>
		<circle fill="#F8E79B" cx="678.754" cy="1094.292" r="24.994"/>
		<circle fill="#F8E79B" cx="663.527" cy="1090.516" r="18.247"/>
		<circle fill="#F8E79B" cx="667.562" cy="1089.132" r="6.524"/>
	</g>
	<g>
		<circle fill="#F8E79B" cx="682.268" cy="1914.043" r="35.058"/>
		<circle fill="#F8E79B" cx="698.875" cy="1923.746" r="24.994"/>
		<circle fill="#F8E79B" cx="683.648" cy="1919.97" r="18.247"/>
		<circle fill="#F8E79B" cx="687.683" cy="1918.586" r="6.524"/>
	</g>
	<g>
		<circle fill="#F8E79B" cx="605.074" cy="2523.375" r="35.058"/>
		<circle fill="#F8E79B" cx="621.681" cy="2533.078" r="24.994"/>
		<circle fill="#F8E79B" cx="606.454" cy="2529.302" r="18.247"/>
		<circle fill="#F8E79B" cx="610.488" cy="2527.918" r="6.524"/>
	</g>
	<g>
		<circle fill="#E383B4" cx="316.016" cy="1931.172" r="15.661"/>
		<circle fill="#E383B4" cx="308.014" cy="1925.463" r="11.434"/>
		<circle fill="#F8E79B" cx="310.683" cy="1925.587" r="4.088"/>
	</g>
	<g>
		<circle fill="#E383B4" cx="658.52" cy="1454.787" r="15.661"/>
		<circle fill="#E383B4" cx="650.518" cy="1449.077" r="11.434"/>
		<circle fill="#F8E79B" cx="653.187" cy="1449.201" r="4.088"/>
	</g>
	<g>
		<circle fill="#CCE9F2" cx="605.369" cy="875.02" r="23.89"/>
		<circle fill="#CCE9F2" cx="620.258" cy="876.805" r="17.442"/>
		<circle fill="#F8E79B" cx="616.386" cy="875.594" r="6.236"/>
	</g>
	<g>
		<circle fill="#CCE9F2" cx="338.191" cy="975.758" r="23.89"/>
		<circle fill="#CCE9F2" cx="353.08" cy="977.543" r="17.442"/>
		<circle fill="#F8E79B" cx="349.208" cy="976.332" r="6.236"/>
	</g>
	<g>
		<circle fill="#CCE9F2" cx="716.422" cy="1206.352" r="23.89"/>
		<circle fill="#CCE9F2" cx="710.17" cy="1192.722" r="17.442"/>
		<circle fill="#F8E79B" cx="711.159" cy="1196.656" r="6.236"/>
	</g>
	<g>
		<circle fill="#D7DB32" cx="272.208" cy="1244.067" r="23.238"/>
		<circle fill="#D7DB32" cx="268.15" cy="1256.152" r="16.567"/>
		<circle fill="#D7DB32" cx="268.548" cy="1245.762" r="12.096"/>
		<circle fill="#F8E79B" cx="269.99" cy="1248.192" r="4.326"/>
	</g>
	<g>
		<circle fill="#F8E79B" cx="683" cy="938.733" r="35.058"/>
		<circle fill="#F8E79B" cx="666.937" cy="928.153" r="24.994"/>
		<circle fill="#F8E79B" cx="681.939" cy="932.741" r="18.246"/>
		<circle fill="#F8E79B" cx="677.836" cy="933.906" r="6.523"/>
	</g>
</g>
</svg>
