<?xml version="1.0" encoding="utf-8"?>
<!-- Generator: Adobe Illustrator 18.0.0, SVG Export Plug-In . SVG Version: 6.00 Build 0)  -->
<!DOCTYPE svg PUBLIC "-//W3C//DTD SVG 1.1//EN" "http://www.w3.org/Graphics/SVG/1.1/DTD/svg11.dtd">
<svg version="1.1" id="Layer_1" xmlns="http://www.w3.org/2000/svg" xmlns:xlink="http://www.w3.org/1999/xlink" x="0px" y="0px"
	 viewBox="0 0 1314.5 1406.5" enable-background="new 0 0 1314.5 1406.5" xml:space="preserve">
<g>
	<g>
		<path fill="#C6B978" d="M306.4,572.6H124c0,0,70,49.6,112.1,49.6C278.2,622.3,306.4,572.6,306.4,572.6z"/>
	</g>
</g>
<g>
	<g>
		<path fill="#C6B978" d="M329.3,601.1H101.1c0,0,87.6,62.1,140.3,62.1C294.1,663.2,329.3,601.1,329.3,601.1z"/>
	</g>
</g>
<g>
	<g>
		<path fill="#C6B978" d="M299.8,1113.4H117.4c0,0,70,49.6,112.1,49.6C271.7,1163,299.8,1113.4,299.8,1113.4z"/>
	</g>
</g>
<g>
	<g>
		<path fill="#C6B978" d="M356.2,1135.5H128c0,0,87.6,62.1,140.3,62.1C321,1197.6,356.2,1135.5,356.2,1135.5z"/>
	</g>
</g>
<g>
	<g>
		<path fill="#C6B978" d="M697.3,982.1h419.8c0,0-161.1,114.2-258.1,114.2C762,1096.2,697.3,982.1,697.3,982.1z"/>
	</g>
</g>
<g>
	<g>
		<path fill="#C6B978" d="M735.5,941h302.2c0,0-116,82.2-185.8,82.2C782.1,1023.2,735.5,941,735.5,941z"/>
	</g>
</g>
<circle fill="#CCEBF2" cx="99.4" cy="807.8" r="99.4"/>
<circle fill="#CCEBF2" cx="149.6" cy="829.3" r="70.9"/>
<circle fill="#CCEBF2" cx="105.4" cy="824" r="51.8"/>
<circle fill="#F7E799" cx="118.8" cy="833.8" r="18.5"/>
<g>
	<path fill="#D8DE3B" d="M689,1348.5c-4.5-34,19.4-65.3,53.5-69.8c34-4.5,65.3,19.4,69.8,53.5c4.5,34-19.4,65.3-53.5,69.8
		C724.7,1406.5,693.5,1382.5,689,1348.5z"/>
	<path fill="#D8DE3B" d="M674.5,1346.5c-3.5-26.3,15-50.4,41.3-53.9c26.3-3.5,50.4,15,53.9,41.3c3.5,26.3-15,50.4-41.3,53.9
		C702.1,1391.3,677.9,1372.8,674.5,1346.5z"/>
	<path fill="#D8DE3B" d="M697.5,1323.6c-2.4-18.2,10.4-34.9,28.6-37.3s34.9,10.4,37.3,28.6c2.4,18.2-10.4,34.9-28.6,37.3
		C716.6,1354.6,699.9,1341.8,697.5,1323.6z"/>
	<path fill="#D8DE3B" d="M689.5,1317.3c-1.7-13,7.4-24.9,20.4-26.6c13-1.7,24.9,7.4,26.6,20.4c1.7,13-7.4,24.9-20.4,26.6
		C703.1,1339.3,691.2,1330.2,689.5,1317.3z"/>
	<path fill="#D8DE3B" d="M710.7,1316.4c-1.3-9.5,5.4-18.2,14.9-19.4c9.5-1.3,18.2,5.4,19.4,14.9c1.3,9.5-5.4,18.2-14.9,19.4
		C720.6,1332.5,711.9,1325.8,710.7,1316.4z"/>
	<path fill="#F7E799" d="M718.3,1317.1c-0.4-3.4,1.9-6.5,5.3-6.9c3.4-0.4,6.5,1.9,6.9,5.3c0.4,3.4-1.9,6.5-5.3,6.9
		C721.8,1322.9,718.7,1320.5,718.3,1317.1z"/>
</g>
<g>
	<path fill="#E683B4" d="M561.3,1308.9c21.1-24.6,58-27.4,82.6-6.4c24.6,21.1,27.4,58,6.3,82.6c-21.1,24.6-58,27.4-82.6,6.3
		C543.1,1370.4,540.2,1333.4,561.3,1308.9z"/>
	<path fill="#E683B4" d="M600.8,1311.2c14.6-17,40.1-18.9,57.1-4.4c17,14.6,18.9,40.1,4.4,57.1c-14.6,17-40.1,18.9-57.1,4.4
		C588.2,1353.7,586.3,1328.2,600.8,1311.2z"/>
	<path fill="#E683B4" d="M600,1298.7c10.4-12.1,28.6-13.5,40.7-3.1c12.1,10.4,13.5,28.6,3.1,40.7c-10.4,12.1-28.6,13.5-40.7,3.1
		C591.1,1329.1,589.7,1310.8,600,1298.7z"/>
	<path fill="#E683B4" d="M618.1,1317.3c7.6-8.8,20.9-9.9,29.7-2.3c8.8,7.6,9.9,20.9,2.3,29.7c-7.6,8.8-20.9,9.9-29.7,2.3
		C611.5,1339.4,610.5,1326.1,618.1,1317.3z"/>
	<path fill="#F7E799" d="M623.6,1324.8c2.7-3.2,7.5-3.5,10.6-0.8c3.2,2.7,3.5,7.5,0.8,10.6c-2.7,3.2-7.5,3.5-10.6,0.8
		C621.3,1332.7,620.9,1328,623.6,1324.8z"/>
</g>
<g>
	<circle fill="#F07472" cx="788.8" cy="1225.3" r="69"/>
	<path fill="#F07472" d="M838.4,1187.2c-2.1-2.8-1.6-6.8,1.2-8.9c2.8-2.1,6.8-1.6,8.9,1.2c2.1,2.8,1.6,6.8-1.2,8.9
		C844.6,1190.5,840.6,1190,838.4,1187.2z"/>
	<path fill="#F07472" d="M825.8,1283.9c-2.1-2.8-1.6-6.8,1.2-8.9c2.8-2.1,6.8-1.6,8.9,1.2c2.1,2.8,1.6,6.8-1.2,8.9
		C832,1287.2,828,1286.7,825.8,1283.9z"/>
	<path fill="#F07472" d="M716.3,1208.8c-2.1-2.8-1.6-6.8,1.2-8.9c2.8-2.1,6.8-1.6,8.9,1.2c2.1,2.8,1.6,6.8-1.2,8.9
		C722.4,1212.1,718.4,1211.6,716.3,1208.8z"/>
	<path fill="#F07472" d="M799.3,1160.3c-2.1-2.8-1.6-6.8,1.2-8.9c2.8-2.1,6.8-1.6,8.9,1.2c2.1,2.8,1.6,6.8-1.2,8.9
		C805.5,1163.7,801.5,1163.1,799.3,1160.3z"/>
	<path fill="#F07472" d="M787.1,1299c-2.1-2.8-1.6-6.8,1.2-8.9c2.8-2.1,6.8-1.6,8.9,1.2c2.1,2.8,1.6,6.8-1.2,8.9
		C793.3,1302.3,789.3,1301.8,787.1,1299z"/>
	<path fill="#F07472" d="M851,1245.9c-2.1-2.8-1.6-6.8,1.2-8.9s6.8-1.6,8.9,1.2c2.1,2.8,1.6,6.8-1.2,8.9
		C857.1,1249.2,853.1,1248.6,851,1245.9z"/>
	<path fill="#F07472" d="M756.5,1165.2c-2.1-2.8-1.6-6.8,1.2-8.9c2.8-2.1,6.8-1.6,8.9,1.2c2.1,2.8,1.6,6.8-1.2,8.9
		C762.7,1168.5,758.7,1168,756.5,1165.2z"/>
</g>
<path fill="#F07472" d="M786.6,1269.1c-29-2.6-50.4-28.1-47.8-57.1c2.6-29,28.1-50.4,57.1-47.8c29,2.6,50.4,28.1,47.8,57.1
	C841.2,1250.3,815.6,1271.7,786.6,1269.1z"/>
<circle fill="#F07472" cx="777.3" cy="1242" r="37.6"/>
<circle fill="#F07472" cx="782.4" cy="1219" r="27.4"/>
<circle fill="#F7E799" cx="781.4" cy="1221" r="9.8"/>
<g>
	<path fill="#CCEBF2" d="M705.7,1090.8c-4,34.9-35.5,60-70.4,56c-34.9-4-60-35.5-56-70.4c4-34.9,35.5-60,70.4-56
		C684.6,1024.3,709.6,1055.9,705.7,1090.8z"/>
	<circle fill="#CCEBF2" cx="625" cy="1107.8" r="44"/>
	<circle fill="#CCEBF2" cx="645.8" cy="1119.9" r="31.4"/>
	<path fill="#CCEBF2" d="M649.4,1117.8c-1.4,12.6-12.8,21.6-25.3,20.1s-21.6-12.8-20.1-25.3c1.4-12.6,12.8-21.6,25.3-20.1
		C641.9,1093.9,650.9,1105.2,649.4,1117.8z"/>
	<circle fill="#F7E799" cx="631.8" cy="1113.5" r="8.2"/>
</g>
<g>
	<circle fill="#E683B4" cx="217.2" cy="754.9" r="44"/>
	<circle fill="#E683B4" cx="238.1" cy="767.1" r="31.4"/>
	<circle fill="#E683B4" cx="219" cy="762.3" r="22.9"/>
	<circle fill="#F7E799" cx="224" cy="760.6" r="8.2"/>
</g>
<g>
	<g>
		<path fill="none" stroke="#8A7C46" stroke-width="2.5093" d="M307.4,582.9H141.3c0,0,63.7,45.2,102.1,45.2
			C281.7,628.1,307.4,582.9,307.4,582.9z"/>
		<line fill="none" stroke="#8A7C46" stroke-width="2.5093" x1="307.4" y1="582.9" x2="388" y2="582.9"/>
	</g>
	<line fill="none" stroke="#8A7C46" stroke-width="2.5093" x1="275.2" y1="582.9" x2="260.7" y2="597.5"/>
	<line fill="none" stroke="#8A7C46" stroke-width="2.5093" x1="252.1" y1="582.9" x2="242.1" y2="592.9"/>
	<line fill="none" stroke="#8A7C46" stroke-width="2.5093" x1="228.1" y1="582.9" x2="221.5" y2="589.4"/>
</g>
<g>
	<g>
		<path fill="none" stroke="#8A7C46" stroke-width="2.5093" d="M307.4,1115.6H141.3c0,0,63.7,45.2,102.1,45.2
			C281.7,1160.7,307.4,1115.6,307.4,1115.6z"/>
		<line fill="none" stroke="#8A7C46" stroke-width="2.5093" x1="307.4" y1="1115.6" x2="388" y2="1115.6"/>
	</g>
	<line fill="none" stroke="#8A7C46" stroke-width="2.5093" x1="275.2" y1="1115.6" x2="260.7" y2="1130.1"/>
	<line fill="none" stroke="#8A7C46" stroke-width="2.5093" x1="252.1" y1="1115.6" x2="242.1" y2="1125.6"/>
	<line fill="none" stroke="#8A7C46" stroke-width="2.5093" x1="228.1" y1="1115.6" x2="221.5" y2="1122.1"/>
</g>
<g>
	<line fill="none" stroke="#8A7C46" stroke-width="2.5093" x1="630.6" y1="1221.6" x2="717.7" y2="1308.7"/>
</g>
<line fill="none" stroke="#8A7C46" stroke-width="2.5093" x1="388" y1="1221.6" x2="770.7" y2="1221.6"/>
<g>
	<path fill="none" stroke="#8A7C46" stroke-width="2.5093" d="M623.7,1322.7c3.3-3.3,8.7-3.3,12.1,0c3.3,3.3,3.3,8.7,0,12.1
		c-3.3,3.3-8.7,3.3-12.1,0C620.3,1331.4,620.3,1326,623.7,1322.7z"/>
	<line fill="none" stroke="#8A7C46" stroke-width="2.5093" x1="630.6" y1="1221.6" x2="630.6" y2="1320.2"/>
</g>
<g>
	<line fill="none" stroke="#8A7C46" stroke-width="2.5093" x1="630.6" y1="1221.6" x2="630.6" y2="1123.6"/>
</g>
<g>
	<path fill="none" stroke="#8A7C46" stroke-width="2.5093" d="M630.6,1221.6"/>
</g>
<circle fill="none" stroke="#8A7C46" stroke-width="2.5093" cx="629.7" cy="1328.7" r="15.2"/>
<circle fill="none" stroke="#8A7C46" stroke-width="2.5093" cx="223.7" cy="760.7" r="29.6"/>
<g>
	<g>
		<path fill="none" stroke="#8A7C46" stroke-width="2.5093" d="M179.5,781.8c0,4.7-3.8,8.5-8.5,8.5c-4.7,0-8.5-3.8-8.5-8.5
			c0-4.7,3.8-8.5,8.5-8.5C175.7,773.3,179.5,777.1,179.5,781.8z"/>
		<line fill="none" stroke="#8A7C46" stroke-width="2.5093" x1="222.8" y1="834.9" x2="176.4" y2="788.4"/>
	</g>
	<line fill="none" stroke="#8A7C46" stroke-width="2.5093" x1="388" y1="834.9" x2="128.9" y2="834.9"/>
	<g>
		<circle fill="none" stroke="#8A7C46" stroke-width="2.5093" cx="223.7" cy="760.7" r="8.5"/>
		<line fill="none" stroke="#8A7C46" stroke-width="2.5093" x1="222.8" y1="834.9" x2="222.8" y2="769.2"/>
	</g>
	<g>
		<circle fill="none" stroke="#8A7C46" stroke-width="2.5093" cx="221.9" cy="909" r="8.5"/>
		<line fill="none" stroke="#8A7C46" stroke-width="2.5093" x1="222.8" y1="834.9" x2="222.8" y2="900.6"/>
	</g>
	<g>
		<circle fill="none" stroke="#8A7C46" stroke-width="2.5093" cx="169.7" cy="886.7" r="8.5"/>
		<line fill="none" stroke="#8A7C46" stroke-width="2.5093" x1="222.8" y1="834.9" x2="176.4" y2="881.3"/>
	</g>
</g>
<circle fill="none" stroke="#8A7C46" stroke-width="2.5093" cx="223.7" cy="760.7" r="15.2"/>
<g>
	<path fill="none" stroke="#8A7C46" stroke-width="2.5093" d="M101,816c-9.8,9.8-9.8,25.7,0,35.6c9.8,9.8,25.7,9.8,35.6,0
		c9.8-9.8,9.8-25.7,0-35.6C126.8,806.2,110.8,806.2,101,816z"/>
	<g>
		<g>
			<path fill="none" stroke="#8A7C46" stroke-width="2.5093" d="M126.1,826.5c4,4,4,10.5,0,14.5c-4,4-10.5,4-14.5,0
				c-4-4-4-10.5,0-14.5C115.5,822.5,122,822.5,126.1,826.5z"/>
		</g>
		<path fill="none" stroke="#8A7C46" stroke-width="2.5093" d="M94.3,809.3c-13.5,13.5-13.5,35.4,0,48.9c13.5,13.5,35.4,13.5,48.9,0
			c13.5-13.5,13.5-35.4,0-48.9C129.7,795.8,107.8,795.8,94.3,809.3z"/>
		<circle fill="none" stroke="#8A7C46" stroke-width="2.5093" cx="118.8" cy="833.8" r="18.3"/>
	</g>
	<line fill="none" stroke="#8A7C46" stroke-width="2.5093" x1="84.2" y1="799.4" x2="89.8" y2="804.8"/>
	<line fill="none" stroke="#8A7C46" stroke-width="2.5093" x1="94.3" y1="791.6" x2="98.2" y2="798.4"/>
	<line fill="none" stroke="#8A7C46" stroke-width="2.5093" x1="106.1" y1="786.8" x2="108.1" y2="794.3"/>
	<line fill="none" stroke="#8A7C46" stroke-width="2.5093" x1="118.7" y1="785.1" x2="118.8" y2="792.8"/>
	<line fill="none" stroke="#8A7C46" stroke-width="2.5093" x1="131.3" y1="786.8" x2="129.3" y2="794.2"/>
	<line fill="none" stroke="#8A7C46" stroke-width="2.5093" x1="143.1" y1="791.6" x2="139.2" y2="798.3"/>
	<line fill="none" stroke="#8A7C46" stroke-width="2.5093" x1="153.2" y1="799.4" x2="147.7" y2="804.8"/>
	<line fill="none" stroke="#8A7C46" stroke-width="2.5093" x1="160.9" y1="809.5" x2="154.3" y2="813.3"/>
	<line fill="none" stroke="#8A7C46" stroke-width="2.5093" x1="158.4" y1="823.2" x2="165.8" y2="821.3"/>
	<line fill="none" stroke="#8A7C46" stroke-width="2.5093" x1="158.3" y1="844.5" x2="165.8" y2="846.5"/>
	<line fill="none" stroke="#8A7C46" stroke-width="2.5093" x1="154.2" y1="854.4" x2="160.9" y2="858.3"/>
	<line fill="none" stroke="#8A7C46" stroke-width="2.5093" x1="139.2" y1="869.3" x2="143.1" y2="876.1"/>
	<line fill="none" stroke="#8A7C46" stroke-width="2.5093" x1="129.3" y1="873.4" x2="131.3" y2="881"/>
	<line fill="none" stroke="#8A7C46" stroke-width="2.5093" x1="118.8" y1="874.7" x2="118.7" y2="882.7"/>
	<line fill="none" stroke="#8A7C46" stroke-width="2.5093" x1="108.1" y1="873.3" x2="106.1" y2="881"/>
	<line fill="none" stroke="#8A7C46" stroke-width="2.5093" x1="98.3" y1="869.2" x2="94.3" y2="876.1"/>
	<line fill="none" stroke="#8A7C46" stroke-width="2.5093" x1="89.8" y1="862.7" x2="84.2" y2="868.4"/>
	<line fill="none" stroke="#8A7C46" stroke-width="2.5093" x1="83.3" y1="854.3" x2="76.5" y2="858.3"/>
	<line fill="none" stroke="#8A7C46" stroke-width="2.5093" x1="71.6" y1="846.5" x2="79.3" y2="844.4"/>
	<line fill="none" stroke="#8A7C46" stroke-width="2.5093" x1="69.9" y1="833.9" x2="77.9" y2="833.9"/>
	<line fill="none" stroke="#8A7C46" stroke-width="2.5093" x1="71.6" y1="821.3" x2="79.2" y2="823.2"/>
	<line fill="none" stroke="#8A7C46" stroke-width="2.5093" x1="76.5" y1="809.5" x2="83.3" y2="813.4"/>
	<line fill="none" stroke="#8A7C46" stroke-width="2.5093" x1="153.2" y1="868.4" x2="147.7" y2="862.8"/>
</g>
<g>
	<path fill="none" stroke="#8A7C46" stroke-width="2.5093" d="M101,816c-9.8,9.8-9.8,25.7,0,35.6c9.8,9.8,25.7,9.8,35.6,0
		c9.8-9.8,9.8-25.7,0-35.6C126.8,806.2,110.8,806.2,101,816z"/>
	<g>
		<g>
			<path fill="none" stroke="#8A7C46" stroke-width="2.5093" d="M126.1,826.5c4,4,4,10.5,0,14.5c-4,4-10.5,4-14.5,0
				c-4-4-4-10.5,0-14.5C115.5,822.5,122,822.5,126.1,826.5z"/>
		</g>
		<path fill="none" stroke="#8A7C46" stroke-width="2.5093" d="M94.3,809.3c-13.5,13.5-13.5,35.4,0,48.9c13.5,13.5,35.4,13.5,48.9,0
			c13.5-13.5,13.5-35.4,0-48.9C129.7,795.8,107.8,795.8,94.3,809.3z"/>
		<circle fill="none" stroke="#8A7C46" stroke-width="2.5093" cx="118.8" cy="833.8" r="18.3"/>
	</g>
	<line fill="none" stroke="#8A7C46" stroke-width="2.5093" x1="84.2" y1="799.4" x2="89.8" y2="804.8"/>
	<line fill="none" stroke="#8A7C46" stroke-width="2.5093" x1="94.3" y1="791.6" x2="98.2" y2="798.4"/>
	<line fill="none" stroke="#8A7C46" stroke-width="2.5093" x1="106.1" y1="786.8" x2="108.1" y2="794.3"/>
	<line fill="none" stroke="#8A7C46" stroke-width="2.5093" x1="118.7" y1="785.1" x2="118.8" y2="792.8"/>
	<line fill="none" stroke="#8A7C46" stroke-width="2.5093" x1="131.3" y1="786.8" x2="129.3" y2="794.2"/>
	<line fill="none" stroke="#8A7C46" stroke-width="2.5093" x1="143.1" y1="791.6" x2="139.2" y2="798.3"/>
	<line fill="none" stroke="#8A7C46" stroke-width="2.5093" x1="153.2" y1="799.4" x2="147.7" y2="804.8"/>
	<line fill="none" stroke="#8A7C46" stroke-width="2.5093" x1="160.9" y1="809.5" x2="154.3" y2="813.3"/>
	<line fill="none" stroke="#8A7C46" stroke-width="2.5093" x1="158.4" y1="823.2" x2="165.8" y2="821.3"/>
	<line fill="none" stroke="#8A7C46" stroke-width="2.5093" x1="158.3" y1="844.5" x2="165.8" y2="846.5"/>
	<line fill="none" stroke="#8A7C46" stroke-width="2.5093" x1="154.2" y1="854.4" x2="160.9" y2="858.3"/>
	<line fill="none" stroke="#8A7C46" stroke-width="2.5093" x1="139.2" y1="869.3" x2="143.1" y2="876.1"/>
	<line fill="none" stroke="#8A7C46" stroke-width="2.5093" x1="129.3" y1="873.4" x2="131.3" y2="881"/>
	<line fill="none" stroke="#8A7C46" stroke-width="2.5093" x1="118.8" y1="874.7" x2="118.7" y2="882.7"/>
	<line fill="none" stroke="#8A7C46" stroke-width="2.5093" x1="108.1" y1="873.3" x2="106.1" y2="881"/>
	<line fill="none" stroke="#8A7C46" stroke-width="2.5093" x1="98.3" y1="869.2" x2="94.3" y2="876.1"/>
	<line fill="none" stroke="#8A7C46" stroke-width="2.5093" x1="89.8" y1="862.7" x2="84.2" y2="868.4"/>
	<line fill="none" stroke="#8A7C46" stroke-width="2.5093" x1="83.3" y1="854.3" x2="76.5" y2="858.3"/>
	<line fill="none" stroke="#8A7C46" stroke-width="2.5093" x1="71.6" y1="846.5" x2="79.3" y2="844.4"/>
	<line fill="none" stroke="#8A7C46" stroke-width="2.5093" x1="69.9" y1="833.9" x2="77.9" y2="833.9"/>
	<line fill="none" stroke="#8A7C46" stroke-width="2.5093" x1="71.6" y1="821.3" x2="79.2" y2="823.2"/>
	<line fill="none" stroke="#8A7C46" stroke-width="2.5093" x1="76.5" y1="809.5" x2="83.3" y2="813.4"/>
	<line fill="none" stroke="#8A7C46" stroke-width="2.5093" x1="153.2" y1="868.4" x2="147.7" y2="862.8"/>
</g>
<circle fill="none" stroke="#8A7C46" stroke-width="2.5093" cx="171" cy="781.8" r="15.2"/>
<g>
	<path fill="none" stroke="#8A7C46" stroke-width="2.5093" d="M785.1,1210.9c5.6,2,8.4,8.2,6.4,13.7c-2,5.6-8.2,8.4-13.7,6.4
		c-5.6-2-8.4-8.2-6.4-13.7C773.4,1211.7,779.6,1208.9,785.1,1210.9z"/>
	<path fill="none" stroke="#8A7C46" stroke-width="2.5093" d="M790.7,1195.5c-14.1-5.1-29.6,2.1-34.8,16.2
		c-5.1,14.1,2.1,29.6,16.2,34.8c14.1,5.1,29.6-2.1,34.8-16.2C812,1216.2,804.8,1200.6,790.7,1195.5z"/>
	<circle fill="none" stroke="#8A7C46" stroke-width="2.5093" cx="781.5" cy="1221" r="49.2"/>
	<path fill="none" stroke="#8A7C46" stroke-width="2.5093" d="M794.2,1186c-19.3-7-40.6,2.9-47.7,22.2c-7,19.3,2.9,40.6,22.2,47.7
		c19.3,7,40.6-2.9,47.7-22.2C823.4,1214.4,813.5,1193.1,794.2,1186z"/>
	<path fill="none" stroke="#8A7C46" stroke-width="2.5093" d="M827.6,1237.8c0.9-2.4,3.5-3.6,5.8-2.7c2.4,0.9,3.6,3.5,2.7,5.8
		c-0.9,2.4-3.5,3.6-5.8,2.7C828,1242.8,826.8,1240.2,827.6,1237.8z"/>
	<circle fill="none" stroke="#8A7C46" stroke-width="2.5093" cx="731" cy="1202.5" r="4.5"/>
	<path fill="none" stroke="#8A7C46" stroke-width="2.5093" d="M758.8,1269.8c0.9-2.4,3.5-3.6,5.8-2.7c2.4,0.9,3.6,3.5,2.7,5.8
		c-0.9,2.4-3.5,3.6-5.8,2.7C759.1,1274.8,757.9,1272.2,758.8,1269.8z"/>
	<path fill="none" stroke="#8A7C46" stroke-width="2.5093" d="M761.8,1167.9c0.9-2.4,3.5-3.6,5.8-2.7c2.4,0.9,3.6,3.5,2.7,5.8
		c-0.9,2.4-3.5,3.6-5.8,2.7C762.2,1172.9,761,1170.3,761.8,1167.9z"/>
	<circle fill="none" stroke="#8A7C46" stroke-width="2.5093" cx="828" cy="1194.1" r="4.5"/>
	<path fill="none" stroke="#8A7C46" stroke-width="2.5093" d="M729,1244.9c0.9-2.4,3.5-3.6,5.8-2.7c2.4,0.9,3.6,3.5,2.7,5.8
		c-0.9,2.4-3.5,3.6-5.8,2.7C729.4,1249.8,728.2,1247.2,729,1244.9z"/>
	<path fill="none" stroke="#8A7C46" stroke-width="2.5093" d="M795.6,1269.9c0.9-2.4,3.5-3.6,5.8-2.7c2.4,0.9,3.6,3.5,2.7,5.8
		c-0.9,2.4-3.5,3.6-5.8,2.7C795.9,1274.8,794.7,1272.2,795.6,1269.9z"/>
	<path fill="none" stroke="#8A7C46" stroke-width="2.5093" d="M795.6,1168.9c0.9-2.4,3.5-3.6,5.8-2.7c2.4,0.9,3.6,3.5,2.7,5.8
		c-0.9,2.4-3.5,3.6-5.8,2.7C796,1173.9,794.7,1171.3,795.6,1168.9z"/>
</g>
<g>
	<g>
		<path fill="none" stroke="#8A7C46" stroke-width="2.5093" d="M638.6,1106.5c3.9,3.9,3.9,10.3,0,14.2c-3.9,3.9-10.3,3.9-14.2,0
			c-3.9-3.9-3.9-10.3,0-14.2C628.3,1102.6,634.7,1102.6,638.6,1106.5z"/>
	</g>
	<path fill="none" stroke="#8A7C46" stroke-width="2.5093" stroke-dasharray="7.5279" d="M631.5,1071.2c-23.4,0-42.4,19-42.4,42.4
		c0,23.4,19,42.4,42.4,42.4c23.4,0,42.4-19,42.4-42.4C673.9,1090.2,654.9,1071.2,631.5,1071.2z"/>
	<path fill="none" stroke="#8A7C46" stroke-width="2.5093" d="M631.5,1079.7c-18.7,0-33.9,15.2-33.9,33.9
		c0,18.7,15.2,33.9,33.9,33.9c18.7,0,33.9-15.2,33.9-33.9C665.3,1094.9,650.2,1079.7,631.5,1079.7z"/>
	<circle fill="none" stroke="#8A7C46" stroke-width="2.5093" cx="631.5" cy="1113.6" r="18"/>
</g>
<circle fill="none" stroke="#8A7C46" stroke-width="2.5093" cx="629.7" cy="1328.7" r="29.6"/>
<g>
	<circle fill="none" stroke="#8A7C46" stroke-width="2.5093" cx="723.1" cy="1315.3" r="8.5"/>
	<g>
		<path fill="none" stroke="#8A7C46" stroke-width="2.5093" d="M747.9,1290.5c-13.7-13.7-36-13.7-49.7,0c-13.7,13.7-13.7,36,0,49.7
			c13.7,13.7,36,13.7,49.7,0S761.6,1304.2,747.9,1290.5z"/>
		<circle fill="none" stroke="#8A7C46" stroke-width="2.5093" cx="723.1" cy="1315.3" r="30.3"/>
		<circle fill="none" stroke="#8A7C46" stroke-width="2.5093" cx="723.1" cy="1315.3" r="18.2"/>
		<polygon fill="none" stroke="#8A7C46" stroke-width="2.5093" points="752.6,1285.6 753.8,1291.6 759.3,1294.3 758.9,1300.4 
			763.4,1304.4 761.5,1310.2 764.9,1315.2 761.5,1320.3 763.4,1326.1 758.9,1330.1 759.3,1336.2 753.8,1338.9 752.6,1344.8 
			746.7,1346.1 743.9,1351.5 737.9,1351.2 733.8,1355.7 728.1,1353.8 723,1357.1 717.9,1353.8 712.2,1355.7 708.1,1351.2 
			702.1,1351.5 699.3,1346.1 693.4,1344.8 692.1,1338.9 686.7,1336.2 687.1,1330.1 682.6,1326.1 684.4,1320.3 681.1,1315.2 
			684.4,1310.2 682.6,1304.4 687.1,1300.4 686.7,1294.3 692.1,1291.6 693.4,1285.6 699.3,1284.4 702.1,1279 708.1,1279.3 
			712.2,1274.8 717.9,1276.7 723,1273.4 728.1,1276.7 733.8,1274.8 737.9,1279.3 743.9,1279 746.7,1284.4 		"/>
	</g>
</g>
<g>
	<g>
		<path fill="none" stroke="#8A7C46" stroke-width="2.5093" d="M694.5,957.9h298.9c0,0-114.7,81.3-183.8,81.3
			C740.6,1039.2,694.5,957.9,694.5,957.9z"/>
		<line fill="none" stroke="#8A7C46" stroke-width="2.5093" x1="694.5" y1="957.9" x2="388" y2="957.9"/>
	</g>
	<line fill="none" stroke="#8A7C46" stroke-width="2.5093" x1="752.3" y1="957.9" x2="778.5" y2="984"/>
	<line fill="none" stroke="#8A7C46" stroke-width="2.5093" x1="793.9" y1="957.9" x2="812" y2="975.9"/>
	<line fill="none" stroke="#8A7C46" stroke-width="2.5093" x1="837.2" y1="957.9" x2="849" y2="969.6"/>
</g>
<line fill="none" stroke="#8A7C46" stroke-width="2.5093" x1="388" y1="2726.3" x2="388" y2="-2556.8"/>
</svg>
