<?xml version="1.0" encoding="utf-8"?>
<!-- Generator: Adobe Illustrator 16.0.0, SVG Export Plug-In . SVG Version: 6.00 Build 0)  -->
<!DOCTYPE svg PUBLIC "-//W3C//DTD SVG 1.1//EN" "http://www.w3.org/Graphics/SVG/1.1/DTD/svg11.dtd">
<svg version="1.1" id="Livello_1" xmlns="http://www.w3.org/2000/svg" xmlns:xlink="http://www.w3.org/1999/xlink" x="0px" y="0px"
	 width="960.385px" height="3456.769px" viewBox="0 0 960.385 3456.769" enable-background="new 0 0 960.385 3456.769"
	 xml:space="preserve">
<g>
	<g>
		<circle fill="#FFFFFF" stroke="#010202" stroke-width="2" cx="286.435" cy="852.751" r="6.804"/>
		<g>
			<circle fill="#FFFFFF" stroke="#010202" stroke-width="2" cx="303.3" cy="810.445" r="6.803"/>
			<line fill="none" stroke="#010202" stroke-width="2" x1="344.604" y1="852.751" x2="307.583" y2="815.729"/>
		</g>
		<line fill="none" stroke="#010202" stroke-width="2" x1="476.295" y1="852.751" x2="293.238" y2="852.751"/>
		<g>
			<circle fill="#FFFFFF" stroke="#010202" stroke-width="2" cx="345.312" cy="793.63" r="6.803"/>
			<line fill="none" stroke="#010202" stroke-width="2" x1="344.604" y1="852.751" x2="344.604" y2="800.394"/>
		</g>
		<g>
			<circle fill="#FFFFFF" stroke="#010202" stroke-width="2" cx="343.896" cy="911.872" r="6.803"/>
			<line fill="none" stroke="#010202" stroke-width="2" x1="344.604" y1="852.751" x2="344.604" y2="905.107"/>
		</g>
		<g>
			<circle fill="#FFFFFF" stroke="#010202" stroke-width="2" cx="302.299" cy="894.055" r="6.804"/>
			<line fill="none" stroke="#010202" stroke-width="2" x1="344.604" y1="852.751" x2="307.582" y2="889.772"/>
		</g>
	</g>
	<g>
		<g>
			<circle fill="#FFFFFF" stroke="#010202" stroke-width="2" cx="704.261" cy="1007.855" r="6.803"/>
			<line fill="none" stroke="#010202" stroke-width="2" x1="662.957" y1="965.551" x2="699.979" y2="1002.572"/>
		</g>
		<line fill="none" stroke="#010202" stroke-width="2" x1="476.295" y1="965.551" x2="750.796" y2="965.551"/>
		<g>
			<circle fill="#FFFFFF" stroke="#010202" stroke-width="2" cx="663.664" cy="906.43" r="6.803"/>
			<line fill="none" stroke="#010202" stroke-width="2" x1="662.957" y1="965.551" x2="662.958" y2="913.193"/>
		</g>
		<g>
			<circle fill="#FFFFFF" stroke="#010202" stroke-width="2" cx="705.262" cy="924.247" r="6.804"/>
			<line fill="none" stroke="#010202" stroke-width="2" x1="662.957" y1="965.551" x2="699.979" y2="928.528"/>
		</g>
	</g>
	<circle fill="none" stroke="#010202" stroke-width="2" cx="286.435" cy="852.751" r="12.134"/>
	<circle fill="none" stroke="#010202" stroke-width="2" cx="345.312" cy="793.63" r="12.133"/>
	<circle fill="none" stroke="#010202" stroke-width="2" cx="286.435" cy="852.751" r="23.597"/>
	<circle fill="none" stroke="#010202" stroke-width="2" cx="302.32" cy="1052.272" r="23.597"/>
	<circle fill="none" stroke="#010202" stroke-width="2" cx="666.155" cy="1224.193" r="12.134"/>
	<circle fill="none" stroke="#010202" stroke-width="2" cx="666.155" cy="1224.193" r="23.597"/>
	<g>
		<g>
			<path fill="none" stroke="#010202" stroke-width="2" d="M386.262,1308.192H200.965c0,0,71.111,50.4,113.918,50.4
				S386.262,1308.192,386.262,1308.192z"/>
			<line fill="none" stroke="#010202" stroke-width="2" x1="386.262" y1="1308.192" x2="476.294" y2="1308.192"/>
		</g>
		<line fill="none" stroke="#010202" stroke-width="2" x1="350.421" y1="1308.192" x2="334.182" y2="1324.431"/>
		<line fill="none" stroke="#010202" stroke-width="2" x1="324.662" y1="1308.192" x2="313.462" y2="1319.392"/>
		<line fill="none" stroke="#010202" stroke-width="2" x1="297.782" y1="1308.192" x2="290.502" y2="1315.472"/>
	</g>
	<g>
		<g>
			<path fill="none" stroke="#010202" stroke-width="2" d="M538.053,1382.593h238.239c0,0-91.429,64.8-146.464,64.8
				C574.791,1447.393,538.053,1382.593,538.053,1382.593z"/>
			<line fill="none" stroke="#010202" stroke-width="2" x1="538.053" y1="1382.593" x2="476.294" y2="1382.593"/>
		</g>
		<line fill="none" stroke="#010202" stroke-width="2" x1="584.136" y1="1382.593" x2="605.013" y2="1403.472"/>
		<line fill="none" stroke="#010202" stroke-width="2" x1="617.253" y1="1382.593" x2="631.652" y2="1396.989"/>
		<line fill="none" stroke="#010202" stroke-width="2" x1="651.812" y1="1382.593" x2="661.173" y2="1391.951"/>
	</g>
	<g>
		<g>
			<circle fill="none" stroke="#010202" stroke-width="2" cx="260.308" cy="1069.087" r="6.803"/>
			<line fill="none" stroke="#010202" stroke-width="2" x1="301.612" y1="1111.394" x2="264.591" y2="1074.37"/>
		</g>
		<line fill="none" stroke="#010202" stroke-width="2" x1="476.295" y1="1111.394" x2="226.794" y2="1111.394"/>
		<g>
			<circle fill="none" stroke="#010202" stroke-width="2" cx="302.32" cy="1052.272" r="6.803"/>
			<line fill="none" stroke="#010202" stroke-width="2" x1="301.612" y1="1111.394" x2="301.612" y2="1059.036"/>
		</g>
		<g>
			<circle fill="none" stroke="#010202" stroke-width="2" cx="300.904" cy="1170.515" r="6.803"/>
			<line fill="none" stroke="#010202" stroke-width="2" x1="301.612" y1="1111.394" x2="301.611" y2="1163.749"/>
		</g>
		<g>
			<circle fill="none" stroke="#010202" stroke-width="2" cx="259.307" cy="1152.697" r="6.804"/>
			<line fill="none" stroke="#010202" stroke-width="2" x1="301.612" y1="1111.394" x2="264.59" y2="1148.415"/>
		</g>
	</g>
	<g>
		<circle fill="none" stroke="#010202" stroke-width="2" cx="666.156" cy="1224.192" r="6.803"/>
		<g>
			<circle fill="none" stroke="#010202" stroke-width="2" cx="649.291" cy="1266.497" r="6.803"/>
			<line fill="none" stroke="#010202" stroke-width="2" x1="607.986" y1="1224.192" x2="645.008" y2="1261.214"/>
		</g>
		<line fill="none" stroke="#010202" stroke-width="2" x1="476.295" y1="1224.192" x2="659.353" y2="1224.192"/>
		<g>
			<circle fill="none" stroke="#010202" stroke-width="2" cx="608.693" cy="1165.071" r="6.803"/>
			<line fill="none" stroke="#010202" stroke-width="2" x1="607.986" y1="1224.192" x2="607.987" y2="1171.835"/>
		</g>
		<g>
			<circle fill="none" stroke="#010202" stroke-width="2" cx="650.292" cy="1182.889" r="6.804"/>
			<line fill="none" stroke="#010202" stroke-width="2" x1="607.986" y1="1224.192" x2="645.009" y2="1187.171"/>
		</g>
	</g>
	<circle fill="none" stroke="#010202" stroke-width="2" cx="302.32" cy="1052.272" r="12.133"/>
	<g>
		<path fill="none" stroke="#010202" stroke-width="2" d="M204.535,1096.357c-7.826,7.826-7.824,20.519,0.003,28.346
			c7.828,7.828,20.519,7.828,28.344,0.003c7.83-7.83,7.829-20.52,0.001-28.348C225.056,1088.53,212.364,1088.528,204.535,1096.357z"
			/>
		<g>
			<g>
				<path fill="#FFFFFF" stroke="#010202" stroke-width="2" d="M224.499,1104.743c3.203,3.202,3.201,8.392-0.002,11.595
					c-3.202,3.202-8.394,3.202-11.593,0c-3.204-3.201-3.201-8.391-0.002-11.595C216.105,1101.54,221.299,1101.543,224.499,1104.743z
					"/>
			</g>
			<path fill="none" stroke="#010202" stroke-width="2" d="M199.201,1091.04c-10.771,10.771-10.77,28.231,0,39.001
				c10.766,10.767,28.23,10.771,39-0.001c10.769-10.768,10.766-28.232,0-38.999C227.431,1080.271,209.97,1080.272,199.201,1091.04z"
				/>
			<circle fill="none" stroke="#010202" stroke-width="2" cx="218.699" cy="1110.541" r="14.622"/>
		</g>
		<line fill="none" stroke="#010202" stroke-width="2" x1="191.142" y1="1083.113" x2="195.631" y2="1087.454"/>
		<line fill="none" stroke="#010202" stroke-width="2" x1="199.193" y1="1076.936" x2="202.313" y2="1082.306"/>
		<line fill="none" stroke="#010202" stroke-width="2" x1="208.573" y1="1073.05" x2="210.187" y2="1079.022"/>
		<line fill="none" stroke="#010202" stroke-width="2" x1="218.635" y1="1071.725" x2="218.711" y2="1077.896"/>
		<line fill="none" stroke="#010202" stroke-width="2" x1="228.7" y1="1073.051" x2="227.114" y2="1078.992"/>
		<line fill="none" stroke="#010202" stroke-width="2" x1="238.077" y1="1076.935" x2="235.01" y2="1082.253"/>
		<line fill="none" stroke="#010202" stroke-width="2" x1="246.128" y1="1083.114" x2="241.786" y2="1087.456"/>
		<line fill="none" stroke="#010202" stroke-width="2" x1="252.307" y1="1091.165" x2="246.989" y2="1094.231"/>
		<line fill="none" stroke="#010202" stroke-width="2" x1="250.249" y1="1102.126" x2="256.191" y2="1100.542"/>
		<line fill="none" stroke="#010202" stroke-width="2" x1="250.219" y1="1119.055" x2="256.191" y2="1120.669"/>
		<line fill="none" stroke="#010202" stroke-width="2" x1="246.935" y1="1126.927" x2="252.306" y2="1130.049"/>
		<line fill="none" stroke="#010202" stroke-width="2" x1="234.957" y1="1138.843" x2="238.076" y2="1144.278"/>
		<line fill="none" stroke="#010202" stroke-width="2" x1="227.083" y1="1142.077" x2="228.698" y2="1148.162"/>
		<line fill="none" stroke="#010202" stroke-width="2" x1="218.71" y1="1143.165" x2="218.635" y2="1149.485"/>
		<line fill="none" stroke="#010202" stroke-width="2" x1="210.22" y1="1142.047" x2="208.571" y2="1148.162"/>
		<line fill="none" stroke="#010202" stroke-width="2" x1="202.373" y1="1138.784" x2="199.194" y2="1144.278"/>
		<line fill="none" stroke="#010202" stroke-width="2" x1="195.636" y1="1133.605" x2="191.142" y2="1138.1"/>
		<line fill="none" stroke="#010202" stroke-width="2" x1="190.457" y1="1126.868" x2="184.963" y2="1130.048"/>
		<line fill="none" stroke="#010202" stroke-width="2" x1="181.08" y1="1120.671" x2="187.196" y2="1119.022"/>
		<line fill="none" stroke="#010202" stroke-width="2" x1="179.754" y1="1110.605" x2="186.078" y2="1110.605"/>
		<line fill="none" stroke="#010202" stroke-width="2" x1="181.079" y1="1100.544" x2="187.17" y2="1102.131"/>
		<line fill="none" stroke="#010202" stroke-width="2" x1="184.963" y1="1091.165" x2="190.412" y2="1094.264"/>
		<line fill="none" stroke="#010202" stroke-width="2" x1="246.128" y1="1138.1" x2="241.712" y2="1133.684"/>
	</g>
	<g>
		<path fill="none" stroke="#010202" stroke-width="2" d="M204.535,1096.357c-7.826,7.826-7.824,20.519,0.003,28.346
			c7.828,7.828,20.519,7.828,28.344,0.003c7.83-7.83,7.829-20.52,0.001-28.348C225.056,1088.53,212.364,1088.528,204.535,1096.357z"
			/>
		<g>
			<g>
				<path fill="#FFFFFF" stroke="#010202" stroke-width="2" d="M224.499,1104.743c3.203,3.202,3.201,8.392-0.002,11.595
					c-3.202,3.202-8.394,3.202-11.593,0c-3.204-3.201-3.201-8.391-0.002-11.595C216.105,1101.54,221.299,1101.543,224.499,1104.743z
					"/>
			</g>
			<path fill="none" stroke="#010202" stroke-width="2" d="M199.201,1091.04c-10.771,10.771-10.77,28.231,0,39.001
				c10.766,10.767,28.23,10.771,39-0.001c10.769-10.768,10.766-28.232,0-38.999C227.431,1080.271,209.97,1080.272,199.201,1091.04z"
				/>
			<circle fill="none" stroke="#010202" stroke-width="2" cx="218.699" cy="1110.541" r="14.622"/>
		</g>
		<line fill="none" stroke="#010202" stroke-width="2" x1="191.142" y1="1083.113" x2="195.631" y2="1087.454"/>
		<line fill="none" stroke="#010202" stroke-width="2" x1="199.193" y1="1076.936" x2="202.313" y2="1082.306"/>
		<line fill="none" stroke="#010202" stroke-width="2" x1="208.573" y1="1073.05" x2="210.187" y2="1079.022"/>
		<line fill="none" stroke="#010202" stroke-width="2" x1="218.635" y1="1071.725" x2="218.711" y2="1077.896"/>
		<line fill="none" stroke="#010202" stroke-width="2" x1="228.7" y1="1073.051" x2="227.114" y2="1078.992"/>
		<line fill="none" stroke="#010202" stroke-width="2" x1="238.077" y1="1076.935" x2="235.01" y2="1082.253"/>
		<line fill="none" stroke="#010202" stroke-width="2" x1="246.128" y1="1083.114" x2="241.786" y2="1087.456"/>
		<line fill="none" stroke="#010202" stroke-width="2" x1="252.307" y1="1091.165" x2="246.989" y2="1094.231"/>
		<line fill="none" stroke="#010202" stroke-width="2" x1="250.249" y1="1102.126" x2="256.191" y2="1100.542"/>
		<line fill="none" stroke="#010202" stroke-width="2" x1="250.219" y1="1119.055" x2="256.191" y2="1120.669"/>
		<line fill="none" stroke="#010202" stroke-width="2" x1="246.935" y1="1126.927" x2="252.306" y2="1130.049"/>
		<line fill="none" stroke="#010202" stroke-width="2" x1="234.957" y1="1138.843" x2="238.076" y2="1144.278"/>
		<line fill="none" stroke="#010202" stroke-width="2" x1="227.083" y1="1142.077" x2="228.698" y2="1148.162"/>
		<line fill="none" stroke="#010202" stroke-width="2" x1="218.71" y1="1143.165" x2="218.635" y2="1149.485"/>
		<line fill="none" stroke="#010202" stroke-width="2" x1="210.22" y1="1142.047" x2="208.571" y2="1148.162"/>
		<line fill="none" stroke="#010202" stroke-width="2" x1="202.373" y1="1138.784" x2="199.194" y2="1144.278"/>
		<line fill="none" stroke="#010202" stroke-width="2" x1="195.636" y1="1133.605" x2="191.142" y2="1138.1"/>
		<line fill="none" stroke="#010202" stroke-width="2" x1="190.457" y1="1126.868" x2="184.963" y2="1130.048"/>
		<line fill="none" stroke="#010202" stroke-width="2" x1="181.08" y1="1120.671" x2="187.196" y2="1119.022"/>
		<line fill="none" stroke="#010202" stroke-width="2" x1="179.754" y1="1110.605" x2="186.078" y2="1110.605"/>
		<line fill="none" stroke="#010202" stroke-width="2" x1="181.079" y1="1100.544" x2="187.17" y2="1102.131"/>
		<line fill="none" stroke="#010202" stroke-width="2" x1="184.963" y1="1091.165" x2="190.412" y2="1094.264"/>
		<line fill="none" stroke="#010202" stroke-width="2" x1="246.128" y1="1138.1" x2="241.712" y2="1133.684"/>
	</g>
	<circle fill="none" stroke="#010202" stroke-width="2" cx="260.309" cy="1069.089" r="12.133"/>
	<g>
		<circle fill="none" stroke="#010202" stroke-width="2" cx="758.869" cy="965.552" r="8.072"/>
		<circle fill="none" stroke="#010202" stroke-width="2" cx="758.869" cy="965.553" r="20.405"/>
		<circle fill="none" stroke="#010202" stroke-width="2" cx="758.869" cy="965.551" r="37.019"/>
		<circle fill="none" stroke="#010202" stroke-width="2" cx="758.869" cy="965.551" r="27.997"/>
		<g>
			<line fill="none" stroke="#010202" stroke-width="2" x1="721.85" y1="987.577" x2="721.85" y2="943.262"/>
			<circle fill="none" stroke="#010202" stroke-width="2" cx="721.85" cy="990.995" r="3.418"/>
			<path fill="none" stroke="#010202" stroke-width="2" d="M721.85,943.262c-1.888,0-3.417-1.528-3.417-3.419
				c0-1.887,1.529-3.416,3.417-3.416c1.889,0,3.418,1.529,3.418,3.416C725.268,941.733,723.738,943.262,721.85,943.262z"/>
		</g>
		<g>
			<line fill="none" stroke="#010202" stroke-width="2" x1="795.888" y1="987.577" x2="795.888" y2="943.262"/>
			<circle fill="none" stroke="#010202" stroke-width="2" cx="795.888" cy="990.995" r="3.418"/>
			<path fill="none" stroke="#010202" stroke-width="2" d="M795.888,943.262c-1.889,0-3.419-1.528-3.419-3.419
				c0-1.887,1.53-3.416,3.419-3.416c1.887,0,3.417,1.529,3.417,3.416C799.305,941.733,797.774,943.262,795.888,943.262z"/>
		</g>
		<g>
			<line fill="none" stroke="#010202" stroke-width="2" x1="736.711" y1="928.532" x2="781.026" y2="928.532"/>
			<circle fill="none" stroke="#010202" stroke-width="2" cx="733.293" cy="928.532" r="3.418"/>
			<circle fill="none" stroke="#010202" stroke-width="2" cx="784.444" cy="928.532" r="3.418"/>
		</g>
		<g>
			<line fill="none" stroke="#010202" stroke-width="2" x1="736.711" y1="1002.57" x2="781.026" y2="1002.57"/>
			<circle fill="none" stroke="#010202" stroke-width="2" cx="733.293" cy="1002.57" r="3.418"/>
			<circle fill="none" stroke="#010202" stroke-width="2" cx="784.444" cy="1002.57" r="3.418"/>
		</g>
	</g>
	<circle fill="none" stroke="#010202" stroke-width="2" cx="663.665" cy="906.43" r="23.597"/>
	<circle fill="none" stroke="#010202" stroke-width="2" cx="663.665" cy="906.43" r="17.197"/>
	<line fill="none" stroke="#010202" stroke-width="2" x1="662.957" y1="965.551" x2="662.957" y2="1045.097"/>
	<g>
		<g>
			<circle fill="none" stroke="#010202" stroke-width="2" cx="662.957" cy="1049.899" r="28.011"/>
			<circle fill="none" stroke="#010202" stroke-width="2" cx="662.957" cy="1049.899" r="24.162"/>
			<circle fill="none" stroke="#010202" stroke-width="2" cx="662.958" cy="1049.9" r="14.54"/>
			<polygon fill="none" stroke="#010202" stroke-width="2" points="686.488,1026.238 687.476,1030.972 691.792,1033.149 
				691.521,1037.977 695.126,1041.198 693.614,1045.791 696.262,1049.835 693.614,1053.88 695.126,1058.472 691.521,1061.693 
				691.792,1066.521 687.476,1068.699 686.488,1073.432 681.755,1074.418 679.577,1078.734 674.75,1078.463 671.529,1082.068 
				666.937,1080.557 662.892,1083.206 658.848,1080.557 654.255,1082.068 651.034,1078.463 646.207,1078.734 644.028,1074.418 
				639.296,1073.432 638.309,1068.699 633.993,1066.52 634.265,1061.693 630.659,1058.472 632.171,1053.879 629.522,1049.835 
				632.171,1045.79 630.659,1041.198 634.265,1037.977 633.993,1033.149 638.309,1030.972 639.296,1026.238 644.028,1025.252 
				646.207,1020.936 651.034,1021.207 654.255,1017.602 658.848,1019.113 662.892,1016.465 666.937,1019.113 671.528,1017.602 
				674.75,1021.207 679.577,1020.936 681.755,1025.252 			"/>
		</g>
		<circle fill="#FFFFFF" stroke="#010202" stroke-width="2" cx="662.957" cy="1049.9" r="6.803"/>
	</g>
	<g>
		<g>
			<path fill="#C6B979" d="M378.99,1299.981H193.693c0,0,71.111,50.399,113.918,50.399S378.99,1299.981,378.99,1299.981z"/>
		</g>
	</g>
	<g>
		<g>
			<path fill="#C6B979" d="M415.003,1313.497H183.208c0,0,88.956,63.046,142.504,63.046S415.003,1313.497,415.003,1313.497z"/>
		</g>
	</g>
	<g>
		<g>
			<path fill="#C6B979" d="M507.885,1372.277H842.48c0,0-128.407,91.008-205.704,91.008
				C559.479,1463.285,507.885,1372.277,507.885,1372.277z"/>
		</g>
	</g>
	<g>
		<g>
			<path fill="#C6B979" d="M526.339,1384.293h240.848c0,0-92.429,65.508-148.07,65.508
				C563.478,1449.801,526.339,1384.293,526.339,1384.293z"/>
		</g>
	</g>
	<circle fill="#CCE9F2" cx="195.233" cy="1101.121" r="79.248"/>
	<circle fill="#CCE9F2" cx="236.078" cy="1116.023" r="56.498"/>
	<circle fill="#CCE9F2" cx="200.689" cy="1113.751" r="41.248"/>
	<path fill="#F8E79B" d="M224.705,1115.144c0.53,8.131-5.628,15.148-13.757,15.678c-8.127,0.531-15.146-5.628-15.676-13.756
		c-0.531-8.127,5.628-15.146,13.756-15.677C217.156,1100.858,224.174,1107.017,224.705,1115.144z"/>
	<g>
		<path fill="#D7DB32" d="M626.172,1060.086c9.002-25.84,37.242-39.493,63.088-30.489c25.842,9,39.496,37.247,30.494,63.088
			c-9.002,25.842-37.247,39.496-63.091,30.494S617.169,1085.932,626.172,1060.086z"/>
		<circle fill="#D7DB32" cx="652.736" cy="1066.037" r="38.287"/>
		<path fill="#D7DB32" d="M641.197,1045.438c4.809-13.802,19.897-21.096,33.7-16.288c13.805,4.809,21.097,19.897,16.287,33.699
			c-4.808,13.803-19.895,21.098-33.698,16.287C643.684,1074.331,636.392,1059.241,641.197,1045.438z"/>
		<circle fill="#D7DB32" cx="655.57" cy="1044.244" r="18.868"/>
		<path fill="#D7DB32" d="M653.147,1045.018c2.505-7.185,10.358-10.98,17.54-8.476c7.185,2.501,10.982,10.354,8.479,17.537
			c-2.505,7.187-10.356,10.979-17.54,8.479C654.44,1060.056,650.646,1052.202,653.147,1045.018z"/>
		<path fill="#F8E79B" d="M658.307,1048.278c0.896-2.565,3.7-3.924,6.271-3.029c2.568,0.896,3.927,3.701,3.031,6.271
			c-0.895,2.568-3.703,3.927-6.271,3.031C658.768,1053.655,657.412,1050.851,658.307,1048.278z"/>
	</g>
	<path fill="#F1B1D1" d="M805.185,1033.724c-30.652,10.875-64.317-5.159-75.192-35.812c-10.875-30.652,5.16-64.316,35.813-75.193
		c30.655-10.873,64.317,5.158,75.19,35.814C851.873,989.187,835.84,1022.848,805.185,1033.724z"/>
	<circle fill="#F1B1D1" cx="760.751" cy="961.867" r="40.432"/>
	<circle fill="#F1B1D1" cx="759.11" cy="983.99" r="28.826"/>
	<circle fill="#F1B1D1" cx="755.312" cy="966.3" r="21.045"/>
	<path fill="#F8E79B" d="M761.304,976.87c-3.918,1.391-8.219-0.658-9.609-4.576c-1.39-3.916,0.659-8.219,4.576-9.604
		c3.916-1.392,8.218,0.655,9.606,4.574C767.268,971.179,765.219,975.479,761.304,976.87z"/>
	<g>
		<circle fill="#E383B4" cx="344.424" cy="792.892" r="21.967"/>
		<circle fill="#E383B4" cx="351.864" cy="802.373" r="15.661"/>
		<circle fill="#E383B4" cx="343.862" cy="796.663" r="11.434"/>
		<circle fill="#F8E79B" cx="346.531" cy="796.787" r="4.088"/>
	</g>
	<g>
		<circle fill="#E383B4" cx="258.605" cy="1067.996" r="21.967"/>
		<circle fill="#E383B4" cx="266.046" cy="1077.476" r="15.661"/>
		<circle fill="#E383B4" cx="258.044" cy="1071.767" r="11.434"/>
		<circle fill="#F8E79B" cx="260.713" cy="1071.891" r="4.088"/>
	</g>
	<g>
		<circle fill="#EE7473" cx="652.493" cy="907.509" r="42.473"/>
		<circle fill="#EE7473" cx="674.872" cy="901.011" r="30.281"/>
		<circle fill="#EE7473" cx="658.853" cy="911.24" r="22.107"/>
		<circle fill="#F8E79B" cx="658.853" cy="911.241" r="7.905"/>
	</g>
	<g>
		<circle fill="#EE7473" cx="275.338" cy="850.763" r="42.473"/>
		<circle fill="#EE7473" cx="297.717" cy="844.265" r="30.281"/>
		<circle fill="#EE7473" cx="281.697" cy="854.494" r="22.107"/>
		<circle fill="#F8E79B" cx="281.698" cy="854.495" r="7.905"/>
	</g>
	<g>
		<circle fill="#F8E79B" cx="296.905" cy="1047.73" r="35.058"/>
		<circle fill="#F8E79B" cx="313.512" cy="1057.433" r="24.994"/>
		<circle fill="#F8E79B" cx="298.285" cy="1053.657" r="18.247"/>
		<circle fill="#F8E79B" cx="302.319" cy="1052.273" r="6.524"/>
	</g>
	<g>
		<circle fill="#F8E79B" cx="660.741" cy="1219.65" r="35.058"/>
		<circle fill="#F8E79B" cx="677.348" cy="1229.353" r="24.994"/>
		<circle fill="#F8E79B" cx="662.121" cy="1225.577" r="18.247"/>
		<circle fill="#F8E79B" cx="666.155" cy="1224.193" r="6.524"/>
	</g>
	<g>
		<circle fill="#E383B4" cx="615.954" cy="1167.05" r="15.661"/>
		<circle fill="#E383B4" cx="607.952" cy="1161.341" r="11.434"/>
		<circle fill="#F8E79B" cx="610.621" cy="1161.465" r="4.088"/>
	</g>
	<g>
		<rect x="474.343" fill="#010202" width="2" height="2206.273"/>
	</g>
	<g>
		<circle fill="#FFFFFF" stroke="#010202" stroke-width="2" cx="713.836" cy="1941.436" r="42"/>
		<path fill="none" stroke="#010202" stroke-width="2" d="M713.836,1916.68c0,0-14.432,21.705-14.432,31.924
			c0,7.973,6.461,14.432,14.432,14.432c7.972,0,14.432-6.459,14.432-14.432C728.268,1939.344,713.836,1916.68,713.836,1916.68z"/>
	</g>
	<g>
		<circle fill="#FFFFFF" stroke="#010202" stroke-width="2" cx="234.058" cy="1941.426" r="41.991"/>
		<circle fill="none" stroke="#010202" stroke-width="2" cx="233.976" cy="1928.017" r="11.425"/>
		<path fill="none" stroke="#010202" stroke-width="2" d="M252.047,1965.141c0-10.138-8.219-18.356-18.355-18.356
			s-18.355,8.219-18.355,18.356"/>
	</g>
	<line fill="none" stroke="#010202" stroke-width="2" x1="795.836" y1="1632.799" x2="155.836" y2="1632.799"/>
	<line fill="none" stroke="#010202" stroke-width="2" x1="295.681" y1="1726.398" x2="655.054" y2="1726.398"/>
	<line fill="none" stroke="#010202" stroke-width="2" x1="475.345" y1="2124.428" x2="432.391" y2="2167.381"/>
	<line fill="none" stroke="#010202" stroke-width="2" x1="475.345" y1="2071.627" x2="521.19" y2="2117.473"/>
	<circle fill="#FFFFFF" stroke="#010202" stroke-width="2" cx="475.344" cy="2264.093" r="82.82"/>
	<line fill="none" stroke="#010202" stroke-width="2" x1="379.837" y1="1726.398" x2="379.836" y2="1680.799"/>
	<line fill="none" stroke="#010202" stroke-width="2" x1="341.437" y1="1726.398" x2="314.284" y2="1753.551"/>
	<line fill="none" stroke="#010202" stroke-width="2" x1="576.117" y1="1726.398" x2="576.116" y2="1772"/>
	<line fill="none" stroke="#010202" stroke-width="2" x1="627.036" y1="1726.398" x2="669.463" y2="1683.973"/>
	<g>
		<circle fill="#FFFFFF" stroke="#010202" stroke-width="2" cx="234.049" cy="1726.398" r="42"/>
		<g>
			<path fill="none" stroke="#010202" stroke-width="2" d="M210.396,1715.053c4.736,0,4.531,6.592,10.916,6.592
				c6.387,0,4.738-6.592,11.535-6.592s4.943,6.592,11.535,6.592s7.621-6.592,12.564-6.592"/>
			<path fill="none" stroke="#010202" stroke-width="2" d="M210.396,1723.999c4.736,0,4.531,6.591,10.916,6.591
				c6.387,0,4.738-6.591,11.535-6.591s4.943,6.591,11.535,6.591s7.621-6.591,12.564-6.591"/>
			<path fill="none" stroke="#010202" stroke-width="2" d="M210.396,1734.247c4.736,0,4.531,6.591,10.916,6.591
				c6.387,0,4.738-6.591,11.535-6.591s4.943,6.591,11.535,6.591s7.621-6.591,12.564-6.591"/>
		</g>
	</g>
	<line fill="none" stroke="#010202" stroke-width="2" x1="295.681" y1="1941.436" x2="655.054" y2="1941.436"/>
	<line fill="none" stroke="#010202" stroke-width="2" x1="379.837" y1="1941.436" x2="379.836" y2="1895.836"/>
	<line fill="none" stroke="#010202" stroke-width="2" x1="341.437" y1="1941.436" x2="314.284" y2="1968.588"/>
	<line fill="none" stroke="#010202" stroke-width="2" x1="576.117" y1="1941.436" x2="576.116" y2="1987.037"/>
	<line fill="none" stroke="#010202" stroke-width="2" x1="627.036" y1="1941.436" x2="669.463" y2="1899.01"/>
	<g>
		<circle fill="#FFFFFF" stroke="#010202" stroke-width="2" cx="713.836" cy="1726.398" r="42"/>
		<path fill="none" stroke="#010202" stroke-width="2" d="M681.618,1726.244c0-17.794,14.425-32.219,32.218-32.219"/>
		<path fill="none" stroke="#010202" stroke-width="2" d="M743.787,1738.137c-4.732,11.907-16.359,20.325-29.951,20.325"/>
	</g>
	<g>
		<path fill="#FFFFFF" stroke="#010202" stroke-width="3" d="M479.436,2215.327c0,0-10.003-7.224-20.839-2.5
			c-10.833,4.724-17.5,12.225-18.336,33.615c-0.832,21.393,7.502,45.564,19.587,57.789s20.976,15.558,37.646,8.889
			c16.669-6.666,17.225-29.631,14.168-34.818c-3.055-5.188-10.833-14.635-14.168-25.19
			C494.16,2242.555,490.875,2219.356,479.436,2215.327z"/>
		<g>
			<path fill="#010202" d="M476.519,2236.929c0,0,0.266,0.679,0.698,1.858c0.434,1.173,1.053,2.85,1.797,4.862
				c0.348,1.008,0.807,2.073,1.208,3.221c0.397,1.151,0.931,2.32,1.384,3.562c0.438,1.25,1.045,2.472,1.556,3.755
				c0.492,1.295,1.125,2.537,1.734,3.791c0.301,0.616,0.571,1.299,0.892,1.861c0.332,0.63,0.663,1.257,0.991,1.879
				c0.646,1.271,1.299,2.417,1.938,3.562c0.668,1.137,1.313,2.236,1.926,3.278c0.655,1.026,1.238,2.021,1.801,2.945
				c0.57,0.906,1.05,1.796,1.473,2.57c0.419,0.784,0.715,1.513,0.979,2.087c0.417,1.22,0.61,1.907,0.61,1.907
				s-0.44-0.594-1.131-1.616c-0.391-0.482-0.866-1.067-1.411-1.738c-0.57-0.654-1.213-1.393-1.915-2.199
				c-0.708-0.801-1.468-1.702-2.242-2.674c-0.757-0.99-1.584-2.013-2.333-3.166c-0.741-1.152-1.594-2.333-2.248-3.56
				c-0.347-0.612-0.696-1.229-1.047-1.848c-0.388-0.673-0.653-1.321-0.982-1.987c-0.608-1.333-1.238-2.656-1.715-4.006
				c-0.519-1.336-0.987-2.667-1.361-3.973c-0.398-1.299-0.765-2.561-1.03-3.776c-0.286-1.21-0.558-2.352-0.729-3.424
				C476.564,2239.838,476.519,2236.929,476.519,2236.929z"/>
		</g>
		<line fill="none" stroke="#010202" stroke-width="2" x1="477.552" y1="2241.857" x2="472.736" y2="2254.897"/>
		<line fill="none" stroke="#010202" stroke-width="2" x1="483.134" y1="2257.431" x2="479.814" y2="2266.423"/>
		<line fill="none" stroke="#010202" stroke-width="2" x1="490.413" y1="2271.266" x2="488.255" y2="2277.112"/>
		<line fill="none" stroke="#010202" stroke-width="2" x1="480.192" y1="2250.339" x2="493.451" y2="2254.51"/>
		<line fill="none" stroke="#010202" stroke-width="2" x1="486.821" y1="2264.983" x2="495.965" y2="2267.862"/>
	</g>
</g>
</svg>
