<?xml version="1.0" encoding="utf-8"?>
<!-- Generator: Adobe Illustrator 16.0.0, SVG Export Plug-In . SVG Version: 6.00 Build 0)  -->
<!DOCTYPE svg PUBLIC "-//W3C//DTD SVG 1.1//EN" "http://www.w3.org/Graphics/SVG/1.1/DTD/svg11.dtd">
<svg version="1.1" id="Livello_1" xmlns="http://www.w3.org/2000/svg" xmlns:xlink="http://www.w3.org/1999/xlink" x="0px" y="0px"
	 width="960.385px" height="3456.769px" viewBox="0 0 960.385 3456.769" enable-background="new 0 0 960.385 3456.769"
	 xml:space="preserve">
<g>
	<circle fill="none" stroke="#010202" stroke-width="2" cx="308.682" cy="1048.796" r="23.597"/>
	<circle fill="none" stroke="#010202" stroke-width="2" cx="672.517" cy="1220.717" r="12.134"/>
	<circle fill="none" stroke="#010202" stroke-width="2" cx="672.517" cy="1220.717" r="23.597"/>
	<g>
		<g>
			<path fill="none" stroke="#010202" stroke-width="2" d="M392.624,1304.716H207.327c0,0,71.111,50.4,113.918,50.4
				S392.624,1304.716,392.624,1304.716z"/>
			<line fill="none" stroke="#010202" stroke-width="2" x1="392.624" y1="1304.716" x2="482.656" y2="1304.716"/>
		</g>
		<line fill="none" stroke="#010202" stroke-width="2" x1="356.783" y1="1304.716" x2="340.543" y2="1320.954"/>
		<line fill="none" stroke="#010202" stroke-width="2" x1="331.024" y1="1304.716" x2="319.824" y2="1315.915"/>
		<line fill="none" stroke="#010202" stroke-width="2" x1="304.144" y1="1304.716" x2="296.864" y2="1311.995"/>
	</g>
	<g>
		<g>
			<path fill="none" stroke="#010202" stroke-width="2" d="M544.415,1379.116h238.239c0,0-91.429,64.8-146.464,64.8
				C581.153,1443.916,544.415,1379.116,544.415,1379.116z"/>
			<line fill="none" stroke="#010202" stroke-width="2" x1="544.415" y1="1379.116" x2="482.656" y2="1379.116"/>
		</g>
		<line fill="none" stroke="#010202" stroke-width="2" x1="590.498" y1="1379.116" x2="611.375" y2="1399.995"/>
		<line fill="none" stroke="#010202" stroke-width="2" x1="623.615" y1="1379.116" x2="638.014" y2="1393.513"/>
		<line fill="none" stroke="#010202" stroke-width="2" x1="658.173" y1="1379.116" x2="667.535" y2="1388.475"/>
	</g>
	<g>
		<g>
			<circle fill="none" stroke="#010202" stroke-width="2" cx="266.67" cy="1065.61" r="6.803"/>
			<line fill="none" stroke="#010202" stroke-width="2" x1="307.974" y1="1107.917" x2="270.953" y2="1070.894"/>
		</g>
		<line fill="none" stroke="#010202" stroke-width="2" x1="482.657" y1="1107.917" x2="233.156" y2="1107.917"/>
		<g>
			<circle fill="none" stroke="#010202" stroke-width="2" cx="308.682" cy="1048.796" r="6.803"/>
			<line fill="none" stroke="#010202" stroke-width="2" x1="307.974" y1="1107.917" x2="307.974" y2="1055.56"/>
		</g>
		<g>
			<circle fill="none" stroke="#010202" stroke-width="2" cx="307.266" cy="1167.038" r="6.803"/>
			<line fill="none" stroke="#010202" stroke-width="2" x1="307.974" y1="1107.917" x2="307.973" y2="1160.272"/>
		</g>
		<g>
			<circle fill="none" stroke="#010202" stroke-width="2" cx="265.669" cy="1149.221" r="6.804"/>
			<line fill="none" stroke="#010202" stroke-width="2" x1="307.974" y1="1107.917" x2="270.952" y2="1144.938"/>
		</g>
	</g>
	<g>
		<circle fill="none" stroke="#010202" stroke-width="2" cx="672.518" cy="1220.716" r="6.803"/>
		<g>
			<circle fill="none" stroke="#010202" stroke-width="2" cx="655.652" cy="1263.021" r="6.803"/>
			<line fill="none" stroke="#010202" stroke-width="2" x1="614.348" y1="1220.716" x2="651.37" y2="1257.737"/>
		</g>
		<line fill="none" stroke="#010202" stroke-width="2" x1="482.657" y1="1220.716" x2="665.714" y2="1220.716"/>
		<g>
			<circle fill="none" stroke="#010202" stroke-width="2" cx="615.055" cy="1161.595" r="6.803"/>
			<line fill="none" stroke="#010202" stroke-width="2" x1="614.348" y1="1220.716" x2="614.349" y2="1168.358"/>
		</g>
		<g>
			<circle fill="none" stroke="#010202" stroke-width="2" cx="656.653" cy="1179.412" r="6.804"/>
			<line fill="none" stroke="#010202" stroke-width="2" x1="614.348" y1="1220.716" x2="651.371" y2="1183.694"/>
		</g>
	</g>
	<circle fill="none" stroke="#010202" stroke-width="2" cx="308.682" cy="1048.796" r="12.133"/>
	<g>
		<circle fill="none" stroke="#010202" stroke-width="2" cx="225.071" cy="1107.055" r="20.045"/>
		<g>
			<g>
				<circle fill="#FFFFFF" stroke="#010202" stroke-width="2" cx="225.063" cy="1107.064" r="8.199"/>
			</g>
			<path fill="none" stroke="#010202" stroke-width="2" d="M205.563,1087.563c-10.771,10.771-10.771,28.231-0.001,39.001
				c10.767,10.767,28.23,10.771,39.001-0.001c10.769-10.768,10.766-28.232-0.001-38.999
				C233.792,1076.795,216.332,1076.796,205.563,1087.563z"/>
			<circle fill="none" stroke="#010202" stroke-width="2" cx="225.062" cy="1107.064" r="14.622"/>
		</g>
		<line fill="none" stroke="#010202" stroke-width="2" x1="197.503" y1="1079.637" x2="201.994" y2="1083.978"/>
		<line fill="none" stroke="#010202" stroke-width="2" x1="205.555" y1="1073.459" x2="208.675" y2="1078.829"/>
		<line fill="none" stroke="#010202" stroke-width="2" x1="214.935" y1="1069.573" x2="216.548" y2="1075.546"/>
		<line fill="none" stroke="#010202" stroke-width="2" x1="224.997" y1="1068.248" x2="225.073" y2="1074.419"/>
		<line fill="none" stroke="#010202" stroke-width="2" x1="235.062" y1="1069.574" x2="233.476" y2="1075.516"/>
		<line fill="none" stroke="#010202" stroke-width="2" x1="244.439" y1="1073.458" x2="241.372" y2="1078.776"/>
		<line fill="none" stroke="#010202" stroke-width="2" x1="252.49" y1="1079.638" x2="248.148" y2="1083.979"/>
		<line fill="none" stroke="#010202" stroke-width="2" x1="258.669" y1="1087.688" x2="253.351" y2="1090.755"/>
		<line fill="none" stroke="#010202" stroke-width="2" x1="256.611" y1="1098.649" x2="262.553" y2="1097.065"/>
		<line fill="none" stroke="#010202" stroke-width="2" x1="256.581" y1="1115.578" x2="262.553" y2="1117.192"/>
		<line fill="none" stroke="#010202" stroke-width="2" x1="253.296" y1="1123.45" x2="258.667" y2="1126.572"/>
		<line fill="none" stroke="#010202" stroke-width="2" x1="241.318" y1="1135.366" x2="244.438" y2="1140.802"/>
		<line fill="none" stroke="#010202" stroke-width="2" x1="233.445" y1="1138.601" x2="235.06" y2="1144.686"/>
		<line fill="none" stroke="#010202" stroke-width="2" x1="225.072" y1="1139.688" x2="224.997" y2="1146.009"/>
		<line fill="none" stroke="#010202" stroke-width="2" x1="216.582" y1="1138.57" x2="214.933" y2="1144.686"/>
		<line fill="none" stroke="#010202" stroke-width="2" x1="208.734" y1="1135.308" x2="205.556" y2="1140.802"/>
		<line fill="none" stroke="#010202" stroke-width="2" x1="201.998" y1="1130.129" x2="197.503" y2="1134.623"/>
		<line fill="none" stroke="#010202" stroke-width="2" x1="196.819" y1="1123.392" x2="191.326" y2="1126.571"/>
		<line fill="none" stroke="#010202" stroke-width="2" x1="187.442" y1="1117.194" x2="193.558" y2="1115.546"/>
		<line fill="none" stroke="#010202" stroke-width="2" x1="186.116" y1="1107.129" x2="192.44" y2="1107.129"/>
		<line fill="none" stroke="#010202" stroke-width="2" x1="187.441" y1="1097.067" x2="193.533" y2="1098.654"/>
		<line fill="none" stroke="#010202" stroke-width="2" x1="191.326" y1="1087.688" x2="196.774" y2="1090.787"/>
		<line fill="none" stroke="#010202" stroke-width="2" x1="252.49" y1="1134.623" x2="248.074" y2="1130.207"/>
	</g>
	<g>
		<circle fill="none" stroke="#010202" stroke-width="2" cx="225.071" cy="1107.055" r="20.045"/>
		<g>
			<g>
				<circle fill="#FFFFFF" stroke="#010202" stroke-width="2" cx="225.063" cy="1107.064" r="8.199"/>
			</g>
			<path fill="none" stroke="#010202" stroke-width="2" d="M205.563,1087.563c-10.771,10.771-10.771,28.231-0.001,39.001
				c10.767,10.767,28.23,10.771,39.001-0.001c10.769-10.768,10.766-28.232-0.001-38.999
				C233.792,1076.795,216.332,1076.796,205.563,1087.563z"/>
			<circle fill="none" stroke="#010202" stroke-width="2" cx="225.062" cy="1107.064" r="14.622"/>
		</g>
		<line fill="none" stroke="#010202" stroke-width="2" x1="197.503" y1="1079.637" x2="201.994" y2="1083.978"/>
		<line fill="none" stroke="#010202" stroke-width="2" x1="205.555" y1="1073.459" x2="208.675" y2="1078.829"/>
		<line fill="none" stroke="#010202" stroke-width="2" x1="214.935" y1="1069.573" x2="216.548" y2="1075.546"/>
		<line fill="none" stroke="#010202" stroke-width="2" x1="224.997" y1="1068.248" x2="225.073" y2="1074.419"/>
		<line fill="none" stroke="#010202" stroke-width="2" x1="235.062" y1="1069.574" x2="233.476" y2="1075.516"/>
		<line fill="none" stroke="#010202" stroke-width="2" x1="244.439" y1="1073.458" x2="241.372" y2="1078.776"/>
		<line fill="none" stroke="#010202" stroke-width="2" x1="252.49" y1="1079.638" x2="248.148" y2="1083.979"/>
		<line fill="none" stroke="#010202" stroke-width="2" x1="258.669" y1="1087.688" x2="253.351" y2="1090.755"/>
		<line fill="none" stroke="#010202" stroke-width="2" x1="256.611" y1="1098.649" x2="262.553" y2="1097.065"/>
		<line fill="none" stroke="#010202" stroke-width="2" x1="256.581" y1="1115.578" x2="262.553" y2="1117.192"/>
		<line fill="none" stroke="#010202" stroke-width="2" x1="253.296" y1="1123.45" x2="258.667" y2="1126.572"/>
		<line fill="none" stroke="#010202" stroke-width="2" x1="241.318" y1="1135.366" x2="244.438" y2="1140.802"/>
		<line fill="none" stroke="#010202" stroke-width="2" x1="233.445" y1="1138.601" x2="235.06" y2="1144.686"/>
		<line fill="none" stroke="#010202" stroke-width="2" x1="225.072" y1="1139.688" x2="224.997" y2="1146.009"/>
		<line fill="none" stroke="#010202" stroke-width="2" x1="216.582" y1="1138.57" x2="214.933" y2="1144.686"/>
		<line fill="none" stroke="#010202" stroke-width="2" x1="208.734" y1="1135.308" x2="205.556" y2="1140.802"/>
		<line fill="none" stroke="#010202" stroke-width="2" x1="201.998" y1="1130.129" x2="197.503" y2="1134.623"/>
		<line fill="none" stroke="#010202" stroke-width="2" x1="196.819" y1="1123.392" x2="191.326" y2="1126.571"/>
		<line fill="none" stroke="#010202" stroke-width="2" x1="187.442" y1="1117.194" x2="193.558" y2="1115.546"/>
		<line fill="none" stroke="#010202" stroke-width="2" x1="186.116" y1="1107.129" x2="192.44" y2="1107.129"/>
		<line fill="none" stroke="#010202" stroke-width="2" x1="187.441" y1="1097.067" x2="193.533" y2="1098.654"/>
		<line fill="none" stroke="#010202" stroke-width="2" x1="191.326" y1="1087.688" x2="196.774" y2="1090.787"/>
		<line fill="none" stroke="#010202" stroke-width="2" x1="252.49" y1="1134.623" x2="248.074" y2="1130.207"/>
	</g>
	<circle fill="none" stroke="#010202" stroke-width="2" cx="266.67" cy="1065.612" r="12.134"/>
	<g>
		<g>
			<path fill="none" stroke="#010202" stroke-width="2" d="M418.348,1550.413H285.993c0,0,50.794,36,81.37,36
				S418.348,1550.413,418.348,1550.413z"/>
			<line fill="none" stroke="#010202" stroke-width="2" x1="418.348" y1="1550.413" x2="482.657" y2="1550.413"/>
		</g>
		<line fill="none" stroke="#010202" stroke-width="2" x1="392.748" y1="1550.413" x2="381.148" y2="1562.012"/>
		<line fill="none" stroke="#010202" stroke-width="2" x1="374.348" y1="1550.413" x2="366.348" y2="1558.412"/>
		<line fill="none" stroke="#010202" stroke-width="2" x1="355.148" y1="1550.413" x2="349.948" y2="1555.612"/>
	</g>
	<g>
		<line fill="none" stroke="#010202" stroke-width="2" x1="675.987" y1="2191.029" x2="745.385" y2="2260.429"/>
	</g>
	<line fill="none" stroke="#010202" stroke-width="2" x1="482.657" y1="2191.029" x2="787.689" y2="2191.029"/>
	<g>
		<circle fill="#FFFFFF" stroke="#010202" stroke-width="2" cx="675.279" cy="2276.343" r="6.803"/>
		<line fill="none" stroke="#010202" stroke-width="2" x1="675.987" y1="2191.029" x2="675.987" y2="2269.58"/>
	</g>
	<g>
		<line fill="none" stroke="#010202" stroke-width="2" x1="675.987" y1="2191.029" x2="675.988" y2="2112.909"/>
	</g>
	<g>
		<circle fill="#FFFFFF" stroke="#010202" stroke-width="2" cx="718.292" cy="2149.726" r="6.804"/>
		<line fill="none" stroke="#010202" stroke-width="2" x1="675.987" y1="2191.029" x2="713.009" y2="2154.008"/>
	</g>
	<circle fill="none" stroke="#010202" stroke-width="2" cx="675.279" cy="2276.344" r="12.133"/>
	<circle fill="none" stroke="#010202" stroke-width="2" cx="351.674" cy="1746.317" r="23.597"/>
	<g>
		<g>
			<circle fill="none" stroke="#010202" stroke-width="2" cx="309.662" cy="1763.132" r="6.803"/>
			<line fill="none" stroke="#010202" stroke-width="2" x1="350.966" y1="1805.438" x2="313.945" y2="1768.415"/>
		</g>
		<line fill="none" stroke="#010202" stroke-width="2" x1="482.657" y1="1805.438" x2="276.148" y2="1805.438"/>
		<g>
			<circle fill="none" stroke="#010202" stroke-width="2" cx="351.674" cy="1746.317" r="6.803"/>
			<line fill="none" stroke="#010202" stroke-width="2" x1="350.966" y1="1805.438" x2="350.966" y2="1753.081"/>
		</g>
		<g>
			<circle fill="none" stroke="#010202" stroke-width="2" cx="350.258" cy="1864.56" r="6.803"/>
			<line fill="none" stroke="#010202" stroke-width="2" x1="350.966" y1="1805.438" x2="350.965" y2="1857.794"/>
		</g>
		<g>
			<circle fill="none" stroke="#010202" stroke-width="2" cx="308.661" cy="1846.742" r="6.804"/>
			<line fill="none" stroke="#010202" stroke-width="2" x1="350.966" y1="1805.438" x2="313.944" y2="1842.46"/>
		</g>
	</g>
	<circle fill="none" stroke="#010202" stroke-width="2" cx="351.674" cy="1746.317" r="12.133"/>
	<g>
		<circle fill="none" stroke="#010202" stroke-width="2" cx="268.063" cy="1804.576" r="20.045"/>
		<g>
			<g>
				<circle fill="#FFFFFF" stroke="#010202" stroke-width="2" cx="268.055" cy="1804.585" r="8.199"/>
			</g>
			<path fill="none" stroke="#010202" stroke-width="2" d="M248.555,1785.085c-10.771,10.771-10.771,28.231-0.001,39.001
				c10.767,10.767,28.23,10.771,39.001-0.001c10.769-10.768,10.766-28.232-0.001-38.999
				C276.785,1774.316,259.324,1774.317,248.555,1785.085z"/>
			<circle fill="none" stroke="#010202" stroke-width="2" cx="268.054" cy="1804.586" r="14.622"/>
		</g>
		<line fill="none" stroke="#010202" stroke-width="2" x1="240.496" y1="1777.158" x2="244.986" y2="1781.499"/>
		<line fill="none" stroke="#010202" stroke-width="2" x1="248.547" y1="1770.98" x2="251.667" y2="1776.351"/>
		<line fill="none" stroke="#010202" stroke-width="2" x1="257.927" y1="1767.095" x2="259.541" y2="1773.067"/>
		<line fill="none" stroke="#010202" stroke-width="2" x1="267.989" y1="1765.77" x2="268.065" y2="1771.94"/>
		<line fill="none" stroke="#010202" stroke-width="2" x1="278.054" y1="1767.096" x2="276.468" y2="1773.037"/>
		<line fill="none" stroke="#010202" stroke-width="2" x1="287.431" y1="1770.979" x2="284.364" y2="1776.298"/>
		<line fill="none" stroke="#010202" stroke-width="2" x1="295.482" y1="1777.159" x2="291.14" y2="1781.501"/>
		<line fill="none" stroke="#010202" stroke-width="2" x1="301.662" y1="1785.21" x2="296.343" y2="1788.276"/>
		<line fill="none" stroke="#010202" stroke-width="2" x1="299.603" y1="1796.171" x2="305.545" y2="1794.587"/>
		<line fill="none" stroke="#010202" stroke-width="2" x1="299.573" y1="1813.1" x2="305.545" y2="1814.714"/>
		<line fill="none" stroke="#010202" stroke-width="2" x1="296.289" y1="1820.972" x2="301.66" y2="1824.094"/>
		<line fill="none" stroke="#010202" stroke-width="2" x1="284.31" y1="1832.888" x2="287.43" y2="1838.323"/>
		<line fill="none" stroke="#010202" stroke-width="2" x1="276.437" y1="1836.122" x2="278.052" y2="1842.207"/>
		<line fill="none" stroke="#010202" stroke-width="2" x1="268.064" y1="1837.21" x2="267.989" y2="1843.53"/>
		<line fill="none" stroke="#010202" stroke-width="2" x1="259.574" y1="1836.092" x2="257.925" y2="1842.207"/>
		<line fill="none" stroke="#010202" stroke-width="2" x1="251.726" y1="1832.829" x2="248.548" y2="1838.323"/>
		<line fill="none" stroke="#010202" stroke-width="2" x1="244.99" y1="1827.65" x2="240.496" y2="1832.145"/>
		<line fill="none" stroke="#010202" stroke-width="2" x1="239.811" y1="1820.913" x2="234.318" y2="1824.093"/>
		<line fill="none" stroke="#010202" stroke-width="2" x1="230.434" y1="1814.716" x2="236.55" y2="1813.067"/>
		<line fill="none" stroke="#010202" stroke-width="2" x1="229.108" y1="1804.65" x2="235.432" y2="1804.65"/>
		<line fill="none" stroke="#010202" stroke-width="2" x1="230.433" y1="1794.589" x2="236.525" y2="1796.176"/>
		<line fill="none" stroke="#010202" stroke-width="2" x1="234.318" y1="1785.21" x2="239.766" y2="1788.309"/>
		<line fill="none" stroke="#010202" stroke-width="2" x1="295.482" y1="1832.145" x2="291.066" y2="1827.729"/>
	</g>
	<g>
		<circle fill="none" stroke="#010202" stroke-width="2" cx="268.063" cy="1804.576" r="20.045"/>
		<g>
			<g>
				<circle fill="#FFFFFF" stroke="#010202" stroke-width="2" cx="268.055" cy="1804.585" r="8.199"/>
			</g>
			<path fill="none" stroke="#010202" stroke-width="2" d="M248.555,1785.085c-10.771,10.771-10.771,28.231-0.001,39.001
				c10.767,10.767,28.23,10.771,39.001-0.001c10.769-10.768,10.766-28.232-0.001-38.999
				C276.785,1774.316,259.324,1774.317,248.555,1785.085z"/>
			<circle fill="none" stroke="#010202" stroke-width="2" cx="268.054" cy="1804.586" r="14.622"/>
		</g>
		<line fill="none" stroke="#010202" stroke-width="2" x1="240.496" y1="1777.158" x2="244.986" y2="1781.499"/>
		<line fill="none" stroke="#010202" stroke-width="2" x1="248.547" y1="1770.98" x2="251.667" y2="1776.351"/>
		<line fill="none" stroke="#010202" stroke-width="2" x1="257.927" y1="1767.095" x2="259.541" y2="1773.067"/>
		<line fill="none" stroke="#010202" stroke-width="2" x1="267.989" y1="1765.77" x2="268.065" y2="1771.94"/>
		<line fill="none" stroke="#010202" stroke-width="2" x1="278.054" y1="1767.096" x2="276.468" y2="1773.037"/>
		<line fill="none" stroke="#010202" stroke-width="2" x1="287.431" y1="1770.979" x2="284.364" y2="1776.298"/>
		<line fill="none" stroke="#010202" stroke-width="2" x1="295.482" y1="1777.159" x2="291.14" y2="1781.501"/>
		<line fill="none" stroke="#010202" stroke-width="2" x1="301.662" y1="1785.21" x2="296.343" y2="1788.276"/>
		<line fill="none" stroke="#010202" stroke-width="2" x1="299.603" y1="1796.171" x2="305.545" y2="1794.587"/>
		<line fill="none" stroke="#010202" stroke-width="2" x1="299.573" y1="1813.1" x2="305.545" y2="1814.714"/>
		<line fill="none" stroke="#010202" stroke-width="2" x1="296.289" y1="1820.972" x2="301.66" y2="1824.094"/>
		<line fill="none" stroke="#010202" stroke-width="2" x1="284.31" y1="1832.888" x2="287.43" y2="1838.323"/>
		<line fill="none" stroke="#010202" stroke-width="2" x1="276.437" y1="1836.122" x2="278.052" y2="1842.207"/>
		<line fill="none" stroke="#010202" stroke-width="2" x1="268.064" y1="1837.21" x2="267.989" y2="1843.53"/>
		<line fill="none" stroke="#010202" stroke-width="2" x1="259.574" y1="1836.092" x2="257.925" y2="1842.207"/>
		<line fill="none" stroke="#010202" stroke-width="2" x1="251.726" y1="1832.829" x2="248.548" y2="1838.323"/>
		<line fill="none" stroke="#010202" stroke-width="2" x1="244.99" y1="1827.65" x2="240.496" y2="1832.145"/>
		<line fill="none" stroke="#010202" stroke-width="2" x1="239.811" y1="1820.913" x2="234.318" y2="1824.093"/>
		<line fill="none" stroke="#010202" stroke-width="2" x1="230.434" y1="1814.716" x2="236.55" y2="1813.067"/>
		<line fill="none" stroke="#010202" stroke-width="2" x1="229.108" y1="1804.65" x2="235.432" y2="1804.65"/>
		<line fill="none" stroke="#010202" stroke-width="2" x1="230.433" y1="1794.589" x2="236.525" y2="1796.176"/>
		<line fill="none" stroke="#010202" stroke-width="2" x1="234.318" y1="1785.21" x2="239.766" y2="1788.309"/>
		<line fill="none" stroke="#010202" stroke-width="2" x1="295.482" y1="1832.145" x2="291.066" y2="1827.729"/>
	</g>
	<circle fill="none" stroke="#010202" stroke-width="2" cx="309.663" cy="1763.134" r="12.134"/>
	<g>
		<path fill="#FFFFFF" stroke="#010202" stroke-width="2" d="M799.158,2182.45c4.433,1.618,6.716,6.523,5.097,10.959
			c-1.618,4.434-6.524,6.714-10.957,5.096s-6.717-6.522-5.1-10.955C789.818,2183.112,794.724,2180.831,799.158,2182.45z"/>
		<circle fill="none" stroke="#010202" stroke-width="2" cx="796.228" cy="2190.478" r="21.601"/>
		<circle fill="none" stroke="#010202" stroke-width="2" cx="796.228" cy="2190.476" r="39.191"/>
		<circle fill="none" stroke="#010202" stroke-width="2" cx="796.228" cy="2190.477" r="29.64"/>
		<circle fill="none" stroke="#010202" stroke-width="2" cx="836.441" cy="2205.153" r="3.618"/>
		<circle fill="none" stroke="#010202" stroke-width="2" cx="756.014" cy="2175.798" r="3.618"/>
		<path fill="none" stroke="#010202" stroke-width="2" d="M778.151,2229.447c0.686-1.878,2.763-2.842,4.639-2.156
			c1.878,0.685,2.844,2.76,2.159,4.638c-0.686,1.879-2.763,2.844-4.64,2.159C778.432,2233.402,777.465,2231.326,778.151,2229.447z"
			/>
		<path fill="none" stroke="#010202" stroke-width="2" d="M780.599,2148.218c0.686-1.878,2.762-2.842,4.64-2.156
			s2.844,2.761,2.159,4.638c-0.688,1.879-2.763,2.845-4.641,2.159C780.88,2152.173,779.913,2150.098,780.599,2148.218z"/>
		<circle fill="none" stroke="#010202" stroke-width="2" cx="833.289" cy="2169.062" r="3.618"/>
		<path fill="none" stroke="#010202" stroke-width="2" d="M754.456,2209.553c0.685-1.878,2.762-2.842,4.639-2.158
			c1.878,0.687,2.844,2.762,2.159,4.639c-0.687,1.88-2.763,2.845-4.64,2.159C754.736,2213.507,753.77,2211.432,754.456,2209.553z"/>
		<path fill="none" stroke="#010202" stroke-width="2" d="M807.469,2229.461c0.684-1.877,2.761-2.843,4.638-2.158
			c1.879,0.686,2.845,2.762,2.159,4.639c-0.687,1.881-2.762,2.846-4.641,2.159C807.75,2233.416,806.783,2231.341,807.469,2229.461z"
			/>
		<circle fill="none" stroke="#010202" stroke-width="2" cx="810.905" cy="2150.262" r="3.618"/>
	</g>
	<g>
		<g>
			<path fill="#FFFFFF" stroke="#010202" stroke-width="2" d="M682.369,2099.244c3.133,3.13,3.133,8.211,0,11.347
				s-8.216,3.136-11.349,0c-3.134-3.132-3.134-8.212-0.002-11.347C674.153,2096.107,679.236,2096.107,682.369,2099.244z"/>
		</g>
		<path fill="none" stroke="#010202" stroke-width="2" stroke-dasharray="6" d="M676.695,2071.13
			c-18.661,0-33.785,15.127-33.785,33.786c0,18.655,15.124,33.786,33.785,33.786c18.659,0,33.785-15.131,33.785-33.786
			C710.48,2086.257,695.354,2071.13,676.695,2071.13z"/>
		<path fill="none" stroke="#010202" stroke-width="2" d="M676.695,2077.926c-14.908,0-26.992,12.082-26.992,26.99
			c0,14.903,12.084,26.992,26.992,26.992c14.906,0,26.991-12.089,26.991-26.992C703.686,2090.008,691.601,2077.926,676.695,2077.926
			z"/>
		<circle fill="none" stroke="#010202" stroke-width="2" cx="676.695" cy="2104.917" r="14.312"/>
	</g>
	<circle fill="none" stroke="#010202" stroke-width="2" cx="675.28" cy="2276.344" r="23.597"/>
	<g>
		<circle fill="#FFFFFF" stroke="#010202" stroke-width="2" cx="749.694" cy="2265.693" r="6.804"/>
		<g>
			<circle fill="none" stroke="#010202" stroke-width="2" cx="749.694" cy="2265.692" r="28.011"/>
			<circle fill="none" stroke="#010202" stroke-width="2" cx="749.694" cy="2265.692" r="24.162"/>
			<circle fill="none" stroke="#010202" stroke-width="2" cx="749.694" cy="2265.693" r="14.54"/>
			<polygon fill="none" stroke="#010202" stroke-width="2" points="773.225,2242.031 774.212,2246.765 778.529,2248.942 
				778.257,2253.77 781.863,2256.991 780.351,2261.584 782.999,2265.628 780.351,2269.673 781.863,2274.265 778.257,2277.486 
				778.529,2282.313 774.212,2284.492 773.225,2289.225 768.492,2290.211 766.314,2294.527 761.487,2294.256 758.266,2297.861 
				753.673,2296.35 749.628,2298.998 745.584,2296.35 740.992,2297.861 737.771,2294.256 732.944,2294.527 730.765,2290.211 
				726.033,2289.225 725.045,2284.492 720.73,2282.312 721.001,2277.486 717.396,2274.265 718.908,2269.672 716.259,2265.628 
				718.908,2261.583 717.396,2256.991 721.001,2253.77 720.73,2248.942 725.045,2246.765 726.033,2242.031 730.765,2241.045 
				732.944,2236.729 737.771,2237 740.992,2233.395 745.584,2234.906 749.628,2232.258 753.673,2234.906 758.265,2233.395 
				761.487,2237 766.314,2236.729 768.492,2241.045 			"/>
		</g>
	</g>
	<circle fill="none" stroke="#010202" stroke-width="2" cx="718.293" cy="2149.726" r="14.312"/>
	<g>
		<g>
			<path fill="none" stroke="#010202" stroke-width="2" d="M544.415,1907.448h238.239c0,0-91.429,64.8-146.464,64.8
				C581.153,1972.248,544.415,1907.448,544.415,1907.448z"/>
			<line fill="none" stroke="#010202" stroke-width="2" x1="544.415" y1="1907.448" x2="482.656" y2="1907.448"/>
		</g>
		<line fill="none" stroke="#010202" stroke-width="2" x1="590.498" y1="1907.448" x2="611.375" y2="1928.327"/>
		<line fill="none" stroke="#010202" stroke-width="2" x1="623.615" y1="1907.448" x2="638.014" y2="1921.845"/>
		<line fill="none" stroke="#010202" stroke-width="2" x1="658.173" y1="1907.448" x2="667.535" y2="1916.807"/>
	</g>
	<g>
		<g>
			<line fill="none" stroke="#010202" stroke-width="2" x1="289.327" y1="2060.464" x2="219.928" y2="1991.064"/>
		</g>
		<line fill="none" stroke="#010202" stroke-width="2" x1="482.657" y1="2060.464" x2="177.625" y2="2060.464"/>
		<g>
			<circle fill="#FFFFFF" stroke="#010202" stroke-width="2" cx="290.035" cy="1975.15" r="6.803"/>
			<line fill="none" stroke="#010202" stroke-width="2" x1="289.327" y1="2060.464" x2="289.327" y2="1981.913"/>
		</g>
		<g>
			<line fill="none" stroke="#010202" stroke-width="2" x1="289.327" y1="2060.464" x2="289.326" y2="2138.584"/>
		</g>
		<g>
			<circle fill="#FFFFFF" stroke="#010202" stroke-width="2" cx="247.021" cy="2101.768" r="6.804"/>
			<line fill="none" stroke="#010202" stroke-width="2" x1="289.327" y1="2060.464" x2="252.304" y2="2097.485"/>
		</g>
		<circle fill="none" stroke="#010202" stroke-width="2" cx="290.034" cy="1975.149" r="12.133"/>
		<g>
			<path fill="#FFFFFF" stroke="#010202" stroke-width="2" d="M166.156,2069.043c-4.433-1.618-6.716-6.523-5.097-10.959
				c1.618-4.434,6.524-6.714,10.957-5.096s6.717,6.522,5.1,10.955C175.496,2068.381,170.589,2070.662,166.156,2069.043z"/>
			<circle fill="none" stroke="#010202" stroke-width="2" cx="169.086" cy="2061.016" r="21.601"/>
			<circle fill="none" stroke="#010202" stroke-width="2" cx="169.085" cy="2061.017" r="39.191"/>
			<circle fill="none" stroke="#010202" stroke-width="2" cx="169.085" cy="2061.016" r="29.64"/>
			<circle fill="none" stroke="#010202" stroke-width="2" cx="128.873" cy="2046.34" r="3.618"/>
			<circle fill="none" stroke="#010202" stroke-width="2" cx="209.3" cy="2075.695" r="3.618"/>
			<path fill="none" stroke="#010202" stroke-width="2" d="M187.163,2022.046c-0.686,1.878-2.763,2.842-4.639,2.156
				c-1.878-0.685-2.844-2.76-2.159-4.638c0.686-1.879,2.763-2.844,4.64-2.159C186.881,2018.091,187.848,2020.167,187.163,2022.046z"
				/>
			<path fill="none" stroke="#010202" stroke-width="2" d="M184.714,2103.275c-0.686,1.878-2.762,2.842-4.64,2.156
				s-2.844-2.761-2.159-4.638c0.688-1.879,2.763-2.845,4.641-2.159C184.433,2099.32,185.401,2101.396,184.714,2103.275z"/>
			<circle fill="none" stroke="#010202" stroke-width="2" cx="132.025" cy="2082.431" r="3.618"/>
			<path fill="none" stroke="#010202" stroke-width="2" d="M210.858,2041.94c-0.685,1.878-2.762,2.842-4.639,2.158
				c-1.878-0.687-2.844-2.762-2.159-4.639c0.687-1.88,2.763-2.845,4.64-2.159C210.578,2037.986,211.543,2040.062,210.858,2041.94z"
				/>
			<path fill="none" stroke="#010202" stroke-width="2" d="M157.844,2022.032c-0.684,1.877-2.761,2.843-4.638,2.158
				c-1.879-0.686-2.845-2.762-2.159-4.639c0.687-1.881,2.762-2.846,4.641-2.159C157.564,2018.077,158.531,2020.152,157.844,2022.032
				z"/>
			<circle fill="none" stroke="#010202" stroke-width="2" cx="154.408" cy="2101.231" r="3.618"/>
		</g>
		<g>
			<g>
				<path fill="#FFFFFF" stroke="#010202" stroke-width="2" d="M282.945,2152.249c-3.133-3.13-3.133-8.211,0-11.347
					s8.216-3.136,11.349,0c3.134,3.132,3.134,8.212,0.002,11.347C291.161,2155.386,286.078,2155.386,282.945,2152.249z"/>
			</g>
			<path fill="none" stroke="#010202" stroke-width="2" stroke-dasharray="6" d="M288.619,2180.363
				c18.661,0,33.785-15.127,33.785-33.786c0-18.655-15.124-33.786-33.785-33.786c-18.659,0-33.785,15.131-33.785,33.786
				C254.833,2165.236,269.959,2180.363,288.619,2180.363z"/>
			<path fill="none" stroke="#010202" stroke-width="2" d="M288.619,2173.567c14.908,0,26.992-12.082,26.992-26.99
				c0-14.903-12.084-26.992-26.992-26.992c-14.906,0-26.991,12.089-26.991,26.992
				C261.627,2161.485,273.712,2173.567,288.619,2173.567z"/>
			<circle fill="none" stroke="#010202" stroke-width="2" cx="288.619" cy="2146.576" r="14.312"/>
		</g>
		<circle fill="none" stroke="#010202" stroke-width="2" cx="290.034" cy="1975.149" r="23.597"/>
		<g>
			<circle fill="#FFFFFF" stroke="#010202" stroke-width="2" cx="215.62" cy="1985.8" r="6.804"/>
			<g>
				<circle fill="none" stroke="#010202" stroke-width="2" cx="215.62" cy="1985.801" r="28.011"/>
				<circle fill="none" stroke="#010202" stroke-width="2" cx="215.62" cy="1985.801" r="24.162"/>
				<circle fill="none" stroke="#010202" stroke-width="2" cx="215.619" cy="1985.8" r="14.54"/>
				<polygon fill="none" stroke="#010202" stroke-width="2" points="192.088,2009.462 191.101,2004.729 186.785,2002.551 
					187.056,1997.724 183.451,1994.502 184.962,1989.909 182.315,1985.865 184.962,1981.82 183.451,1977.229 187.056,1974.007 
					186.785,1969.18 191.101,1967.001 192.088,1962.269 196.822,1961.282 199,1956.966 203.827,1957.237 207.047,1953.632 
					211.64,1955.144 215.685,1952.495 219.729,1955.144 224.322,1953.632 227.542,1957.237 232.37,1956.966 234.548,1961.282 
					239.281,1962.269 240.268,1967.001 244.583,1969.181 244.312,1974.007 247.917,1977.229 246.406,1981.821 249.054,1985.865 
					246.406,1989.91 247.917,1994.502 244.312,1997.724 244.583,2002.551 240.268,2004.729 239.281,2009.462 234.548,2010.448 
					232.37,2014.765 227.542,2014.493 224.322,2018.099 219.729,2016.587 215.685,2019.235 211.64,2016.587 207.048,2018.099 
					203.827,2014.493 199,2014.765 196.822,2010.448 				"/>
			</g>
		</g>
		<circle fill="none" stroke="#010202" stroke-width="2" cx="247.02" cy="2101.768" r="14.312"/>
	</g>
	<circle fill="none" stroke="#010202" stroke-width="2" cx="690.214" cy="1747.295" r="6.803"/>
	<line fill="none" stroke="#010202" stroke-width="2" x1="614.346" y1="1670.425" x2="685.931" y2="1742.012"/>
	<line fill="none" stroke="#010202" stroke-width="2" x1="482.656" y1="1670.425" x2="689.165" y2="1670.425"/>
	<line fill="none" stroke="#010202" stroke-width="2" x1="614.346" y1="1670.425" x2="614.346" y2="1772.359"/>
	<g>
		<circle fill="none" stroke="#010202" stroke-width="2" cx="656.651" cy="1629.121" r="6.804"/>
		<line fill="none" stroke="#010202" stroke-width="2" x1="614.346" y1="1670.425" x2="651.369" y2="1633.403"/>
	</g>
	<g>
		<circle fill="none" stroke="#010202" stroke-width="2" cx="613.848" cy="1585.738" r="23.597"/>
		<circle fill="none" stroke="#010202" stroke-width="2" cx="613.848" cy="1585.738" r="6.803"/>
		<circle fill="none" stroke="#010202" stroke-width="2" cx="613.849" cy="1585.738" r="12.133"/>
	</g>
	<g>
		<circle fill="none" stroke="#010202" stroke-width="2" cx="697.25" cy="1671.287" r="20.045"/>
		<g>
			<g>
				<circle fill="#FFFFFF" stroke="#010202" stroke-width="2" cx="697.257" cy="1671.278" r="8.199"/>
			</g>
			<path fill="none" stroke="#010202" stroke-width="2" d="M716.757,1690.778c10.771-10.771,10.771-28.231,0.001-39.001
				c-10.767-10.767-28.23-10.771-39.001,0.001c-10.769,10.768-10.766,28.232,0.001,38.999
				C688.528,1701.547,705.989,1701.546,716.757,1690.778z"/>
			<circle fill="none" stroke="#010202" stroke-width="2" cx="697.259" cy="1671.277" r="14.622"/>
		</g>
		<line fill="none" stroke="#010202" stroke-width="2" x1="724.817" y1="1698.705" x2="720.327" y2="1694.364"/>
		<line fill="none" stroke="#010202" stroke-width="2" x1="716.765" y1="1704.883" x2="713.645" y2="1699.513"/>
		<line fill="none" stroke="#010202" stroke-width="2" x1="707.385" y1="1708.769" x2="705.772" y2="1702.796"/>
		<line fill="none" stroke="#010202" stroke-width="2" x1="697.324" y1="1710.094" x2="697.248" y2="1703.923"/>
		<line fill="none" stroke="#010202" stroke-width="2" x1="687.258" y1="1708.768" x2="688.844" y2="1702.826"/>
		<line fill="none" stroke="#010202" stroke-width="2" x1="677.881" y1="1704.884" x2="680.949" y2="1699.565"/>
		<line fill="none" stroke="#010202" stroke-width="2" x1="669.831" y1="1698.704" x2="674.172" y2="1694.362"/>
		<line fill="none" stroke="#010202" stroke-width="2" x1="663.651" y1="1690.653" x2="668.969" y2="1687.587"/>
		<line fill="none" stroke="#010202" stroke-width="2" x1="665.709" y1="1679.692" x2="659.767" y2="1681.276"/>
		<line fill="none" stroke="#010202" stroke-width="2" x1="665.74" y1="1662.764" x2="659.767" y2="1661.149"/>
		<line fill="none" stroke="#010202" stroke-width="2" x1="669.024" y1="1654.892" x2="663.653" y2="1651.77"/>
		<line fill="none" stroke="#010202" stroke-width="2" x1="681.002" y1="1642.976" x2="677.882" y2="1637.54"/>
		<line fill="none" stroke="#010202" stroke-width="2" x1="688.875" y1="1639.741" x2="687.26" y2="1633.656"/>
		<line fill="none" stroke="#010202" stroke-width="2" x1="697.249" y1="1638.653" x2="697.324" y2="1632.333"/>
		<line fill="none" stroke="#010202" stroke-width="2" x1="705.739" y1="1639.771" x2="707.387" y2="1633.656"/>
		<line fill="none" stroke="#010202" stroke-width="2" x1="713.586" y1="1643.034" x2="716.764" y2="1637.54"/>
		<line fill="none" stroke="#010202" stroke-width="2" x1="720.323" y1="1648.213" x2="724.817" y2="1643.719"/>
		<line fill="none" stroke="#010202" stroke-width="2" x1="725.501" y1="1654.95" x2="730.995" y2="1651.771"/>
		<line fill="none" stroke="#010202" stroke-width="2" x1="734.878" y1="1661.147" x2="728.762" y2="1662.796"/>
		<line fill="none" stroke="#010202" stroke-width="2" x1="736.205" y1="1671.213" x2="729.88" y2="1671.213"/>
		<line fill="none" stroke="#010202" stroke-width="2" x1="734.879" y1="1681.274" x2="728.788" y2="1679.688"/>
		<line fill="none" stroke="#010202" stroke-width="2" x1="730.995" y1="1690.653" x2="725.546" y2="1687.555"/>
		<line fill="none" stroke="#010202" stroke-width="2" x1="669.831" y1="1643.719" x2="674.247" y2="1648.135"/>
	</g>
	<g>
		<circle fill="none" stroke="#010202" stroke-width="2" cx="697.25" cy="1671.287" r="20.045"/>
		<g>
			<g>
				<circle fill="#FFFFFF" stroke="#010202" stroke-width="2" cx="697.257" cy="1671.278" r="8.199"/>
			</g>
			<path fill="none" stroke="#010202" stroke-width="2" d="M716.757,1690.778c10.771-10.771,10.771-28.231,0.001-39.001
				c-10.767-10.767-28.23-10.771-39.001,0.001c-10.769,10.768-10.766,28.232,0.001,38.999
				C688.528,1701.547,705.989,1701.546,716.757,1690.778z"/>
			<circle fill="none" stroke="#010202" stroke-width="2" cx="697.259" cy="1671.277" r="14.622"/>
		</g>
		<line fill="none" stroke="#010202" stroke-width="2" x1="724.817" y1="1698.705" x2="720.327" y2="1694.364"/>
		<line fill="none" stroke="#010202" stroke-width="2" x1="716.765" y1="1704.883" x2="713.645" y2="1699.513"/>
		<line fill="none" stroke="#010202" stroke-width="2" x1="707.385" y1="1708.769" x2="705.772" y2="1702.796"/>
		<line fill="none" stroke="#010202" stroke-width="2" x1="697.324" y1="1710.094" x2="697.248" y2="1703.923"/>
		<line fill="none" stroke="#010202" stroke-width="2" x1="687.258" y1="1708.768" x2="688.844" y2="1702.826"/>
		<line fill="none" stroke="#010202" stroke-width="2" x1="677.881" y1="1704.884" x2="680.949" y2="1699.565"/>
		<line fill="none" stroke="#010202" stroke-width="2" x1="669.831" y1="1698.704" x2="674.172" y2="1694.362"/>
		<line fill="none" stroke="#010202" stroke-width="2" x1="663.651" y1="1690.653" x2="668.969" y2="1687.587"/>
		<line fill="none" stroke="#010202" stroke-width="2" x1="665.709" y1="1679.692" x2="659.767" y2="1681.276"/>
		<line fill="none" stroke="#010202" stroke-width="2" x1="665.74" y1="1662.764" x2="659.767" y2="1661.149"/>
		<line fill="none" stroke="#010202" stroke-width="2" x1="669.024" y1="1654.892" x2="663.653" y2="1651.77"/>
		<line fill="none" stroke="#010202" stroke-width="2" x1="681.002" y1="1642.976" x2="677.882" y2="1637.54"/>
		<line fill="none" stroke="#010202" stroke-width="2" x1="688.875" y1="1639.741" x2="687.26" y2="1633.656"/>
		<line fill="none" stroke="#010202" stroke-width="2" x1="697.249" y1="1638.653" x2="697.324" y2="1632.333"/>
		<line fill="none" stroke="#010202" stroke-width="2" x1="705.739" y1="1639.771" x2="707.387" y2="1633.656"/>
		<line fill="none" stroke="#010202" stroke-width="2" x1="713.586" y1="1643.034" x2="716.764" y2="1637.54"/>
		<line fill="none" stroke="#010202" stroke-width="2" x1="720.323" y1="1648.213" x2="724.817" y2="1643.719"/>
		<line fill="none" stroke="#010202" stroke-width="2" x1="725.501" y1="1654.95" x2="730.995" y2="1651.771"/>
		<line fill="none" stroke="#010202" stroke-width="2" x1="734.878" y1="1661.147" x2="728.762" y2="1662.796"/>
		<line fill="none" stroke="#010202" stroke-width="2" x1="736.205" y1="1671.213" x2="729.88" y2="1671.213"/>
		<line fill="none" stroke="#010202" stroke-width="2" x1="734.879" y1="1681.274" x2="728.788" y2="1679.688"/>
		<line fill="none" stroke="#010202" stroke-width="2" x1="730.995" y1="1690.653" x2="725.546" y2="1687.555"/>
		<line fill="none" stroke="#010202" stroke-width="2" x1="669.831" y1="1643.719" x2="674.247" y2="1648.135"/>
	</g>
	<circle fill="none" stroke="#010202" stroke-width="2" cx="690.213" cy="1747.293" r="12.134"/>
	<g>
		<circle fill="none" stroke="#010202" stroke-width="2" cx="614.346" cy="1776.432" r="8.072"/>
		<circle fill="none" stroke="#010202" stroke-width="2" cx="614.346" cy="1776.433" r="20.405"/>
		<circle fill="none" stroke="#010202" stroke-width="2" cx="614.346" cy="1776.431" r="37.019"/>
		<circle fill="none" stroke="#010202" stroke-width="2" cx="614.346" cy="1776.431" r="27.997"/>
		<g>
			<line fill="none" stroke="#010202" stroke-width="2" x1="577.327" y1="1798.457" x2="577.327" y2="1754.142"/>
			<circle fill="none" stroke="#010202" stroke-width="2" cx="577.327" cy="1801.875" r="3.418"/>
			<path fill="none" stroke="#010202" stroke-width="2" d="M577.327,1754.142c-1.888,0-3.417-1.528-3.417-3.419
				c0-1.887,1.529-3.416,3.417-3.416c1.889,0,3.418,1.529,3.418,3.416C580.745,1752.613,579.215,1754.142,577.327,1754.142z"/>
		</g>
		<g>
			<line fill="none" stroke="#010202" stroke-width="2" x1="651.365" y1="1798.457" x2="651.365" y2="1754.142"/>
			<circle fill="none" stroke="#010202" stroke-width="2" cx="651.365" cy="1801.875" r="3.418"/>
			<path fill="none" stroke="#010202" stroke-width="2" d="M651.365,1754.142c-1.889,0-3.419-1.528-3.419-3.419
				c0-1.887,1.53-3.416,3.419-3.416c1.887,0,3.417,1.529,3.417,3.416C654.782,1752.613,653.251,1754.142,651.365,1754.142z"/>
		</g>
		<g>
			<line fill="none" stroke="#010202" stroke-width="2" x1="592.188" y1="1739.412" x2="636.503" y2="1739.412"/>
			<circle fill="none" stroke="#010202" stroke-width="2" cx="588.77" cy="1739.412" r="3.418"/>
			<circle fill="none" stroke="#010202" stroke-width="2" cx="639.921" cy="1739.412" r="3.418"/>
		</g>
		<g>
			<line fill="none" stroke="#010202" stroke-width="2" x1="592.188" y1="1813.45" x2="636.503" y2="1813.45"/>
			<circle fill="none" stroke="#010202" stroke-width="2" cx="588.77" cy="1813.45" r="3.418"/>
			<circle fill="none" stroke="#010202" stroke-width="2" cx="639.921" cy="1813.45" r="3.418"/>
		</g>
	</g>
	<line fill="none" stroke="#010202" stroke-width="2" x1="614.346" y1="1670.425" x2="614.346" y2="1592.519"/>
	<circle fill="none" stroke="#010202" stroke-width="2" cx="690.214" cy="1747.293" r="23.597"/>
	<g>
		<rect x="481.656" fill="#010202" width="2" height="3456.769"/>
	</g>
	<g>
		<circle fill="#E383B4" cx="667.781" cy="1266.108" r="25.285"/>
		<circle fill="#E383B4" cx="657.74" cy="1259.794" r="17.478"/>
		<circle fill="#E383B4" cx="653.444" cy="1268.368" r="12.461"/>
		<circle fill="#E383B4" cx="654.835" cy="1260.671" r="9.097"/>
		<circle fill="#F8E79B" cx="655.653" cy="1262.633" r="3.253"/>
	</g>
	<circle fill="#CCE9F2" cx="693.227" cy="1229.301" r="79.248"/>
	<circle fill="#CCE9F2" cx="653.266" cy="1212.168" r="56.498"/>
	<circle fill="#CCE9F2" cx="688.476" cy="1216.389" r="41.248"/>
	<circle fill="#F8E79B" cx="679.321" cy="1213.525" r="14.748"/>
	<g>
		<circle fill="#D7DB32" cx="314.417" cy="1033.399" r="33.618"/>
		<circle fill="#D7DB32" cx="305.834" cy="1046.625" r="23.238"/>
		<circle fill="#D7DB32" cx="317.148" cy="1052.5" r="16.567"/>
		<circle fill="#D7DB32" cx="306.944" cy="1050.504" r="12.096"/>
		<circle fill="#F8E79B" cx="309.568" cy="1049.455" r="4.325"/>
	</g>
	<g>
		<g>
			<path fill="#C6B979" d="M385.352,1287.766H200.055c0,0,71.111,50.399,113.918,50.399S385.352,1287.766,385.352,1287.766z"/>
		</g>
	</g>
	<g>
		<g>
			<path fill="#C6B979" d="M421.365,1301.281H189.57c0,0,88.956,63.046,142.504,63.046
				C385.623,1364.327,421.365,1301.281,421.365,1301.281z"/>
		</g>
	</g>
	<g>
		<g>
			<path fill="#C6B979" d="M404.109,1529.872H258.723c0,0,55.795,39.544,89.381,39.544
				C381.691,1569.416,404.109,1529.872,404.109,1529.872z"/>
		</g>
	</g>
	<g>
		<g>
			<path fill="#C6B979" d="M432.365,1540.478H250.497c0,0,69.796,49.466,111.81,49.466
				C404.321,1589.943,432.365,1540.478,432.365,1540.478z"/>
		</g>
	</g>
	<g>
		<g>
			<path fill="#C6B979" d="M514.247,1364.815h334.596c0,0-128.407,91.008-205.704,91.008
				C565.84,1455.823,514.247,1364.815,514.247,1364.815z"/>
		</g>
	</g>
	<g>
		<g>
			<path fill="#C6B979" d="M532.701,1376.831h240.848c0,0-92.429,65.508-148.07,65.508
				C569.839,1442.339,532.701,1376.831,532.701,1376.831z"/>
		</g>
	</g>
	<g>
		<g>
			<path fill="#C6B979" d="M514.247,1882.354h334.596c0,0-128.407,91.008-205.704,91.008
				C565.84,1973.361,514.247,1882.354,514.247,1882.354z"/>
		</g>
	</g>
	<g>
		<g>
			<path fill="#C6B979" d="M532.701,1894.369h240.848c0,0-92.429,65.508-148.07,65.508
				C569.839,1959.877,532.701,1894.369,532.701,1894.369z"/>
		</g>
	</g>
	<circle fill="#CCE9F2" cx="197.777" cy="1088.649" r="79.248"/>
	<circle fill="#CCE9F2" cx="237.737" cy="1105.782" r="56.498"/>
	<circle fill="#CCE9F2" cx="202.528" cy="1101.562" r="41.247"/>
	<circle fill="#F8E79B" cx="211.682" cy="1104.425" r="14.748"/>
	<circle fill="#CCE9F2" cx="254.85" cy="1783.762" r="79.248"/>
	<circle fill="#CCE9F2" cx="270.991" cy="1824.133" r="56.498"/>
	<circle fill="#CCE9F2" cx="249.079" cy="1796.252" r="41.248"/>
	<circle fill="#F8E79B" cx="253.528" cy="1804.75" r="14.748"/>
	<g>
		<circle fill="#D7DB32" cx="701.941" cy="1753.923" r="33.617"/>
		<path fill="#D7DB32" d="M683.479,1763.354c-11.947-4.685-17.839-18.169-13.155-30.117c4.685-11.95,18.168-17.839,30.115-13.153
			c11.949,4.682,17.841,18.166,13.155,30.114C708.912,1762.146,695.427,1768.035,683.479,1763.354z"/>
		<circle fill="#D7DB32" cx="682.917" cy="1750.703" r="16.567"/>
		<circle fill="#D7DB32" cx="687.927" cy="1741.593" r="12.096"/>
		<circle fill="#F8E79B" cx="688.127" cy="1744.412" r="4.325"/>
	</g>
	<g>
		<path fill="#D7DB32" d="M233.957,1953.602c11.906,24.637,1.592,54.261-23.051,66.169c-24.637,11.909-54.266,1.59-66.172-23.047
			c-11.908-24.639-1.591-54.266,23.049-66.175S222.046,1928.96,233.957,1953.602z"/>
		<circle fill="#D7DB32" cx="210.964" cy="1968.177" r="38.288"/>
		<circle fill="#D7DB32" cx="209.861" cy="1986.102" r="26.466"/>
		<circle fill="#D7DB32" cx="224.371" cy="1985.591" r="18.868"/>
		<path fill="#D7DB32" d="M225.537,1983.331c3.309,6.852,0.439,15.089-6.409,18.396c-6.849,3.312-15.087,0.444-18.397-6.405
			c-3.31-6.853-0.439-15.087,6.408-18.397C213.99,1973.612,222.226,1976.481,225.537,1983.331z"/>
		<path fill="#F8E79B" d="M219.583,1984.674c1.18,2.447,0.158,5.391-2.293,6.577c-2.449,1.182-5.395,0.158-6.578-2.292
			c-1.184-2.448-0.158-5.396,2.291-6.578C215.455,1981.197,218.396,1982.222,219.583,1984.674z"/>
	</g>
	<g>
		<path fill="#D7DB32" d="M707.11,2269.124c9.002-25.84,37.242-39.493,63.088-30.489c25.842,9,39.496,37.247,30.494,63.088
			c-9.002,25.842-37.247,39.496-63.091,30.494S698.107,2294.97,707.11,2269.124z"/>
		<circle fill="#D7DB32" cx="733.674" cy="2275.075" r="38.287"/>
		<circle fill="#D7DB32" cx="747.129" cy="2263.181" r="26.466"/>
		<circle fill="#D7DB32" cx="736.508" cy="2253.282" r="18.868"/>
		<path fill="#D7DB32" d="M734.085,2254.056c2.505-7.185,10.358-10.98,17.54-8.476c7.185,2.501,10.982,10.354,8.479,17.537
			c-2.505,7.187-10.356,10.979-17.54,8.479C735.378,2269.094,731.583,2261.24,734.085,2254.056z"/>
		<path fill="#F8E79B" d="M739.245,2257.316c0.896-2.565,3.7-3.924,6.271-3.03c2.568,0.896,3.927,3.702,3.031,6.272
			c-0.895,2.568-3.703,3.927-6.271,3.031C739.706,2262.693,738.35,2259.889,739.245,2257.316z"/>
	</g>
	<circle fill="#F1B1D1" cx="608.067" cy="1793.573" r="52.493"/>
	<circle fill="#F1B1D1" cx="625.623" cy="1773.807" r="36.039"/>
	<circle fill="#F1B1D1" cx="606.311" cy="1769.563" r="25.694"/>
	<circle fill="#F1B1D1" cx="622.399" cy="1768.446" r="18.759"/>
	<circle fill="#F8E79B" cx="618.89" cy="1771.074" r="6.706"/>
	<g>
		<circle fill="#E383B4" cx="362.127" cy="1734.397" r="31.779"/>
		<circle fill="#E383B4" cx="349.565" cy="1742.423" r="21.967"/>
		<circle fill="#E383B4" cx="357.006" cy="1751.904" r="15.661"/>
		<circle fill="#E383B4" cx="349.003" cy="1746.194" r="11.434"/>
		<path fill="#F8E79B" d="M355.279,1748.244c-1.062,1.99-3.539,2.742-5.533,1.681c-1.988-1.064-2.742-3.54-1.68-5.532
			c1.064-1.992,3.541-2.744,5.533-1.682C355.591,1743.776,356.343,1746.251,355.279,1748.244z"/>
	</g>
	<g>
		<circle fill="#E383B4" cx="299.781" cy="1969.993" r="31.779"/>
		<circle fill="#E383B4" cx="287.218" cy="1978.019" r="21.967"/>
		<circle fill="#E383B4" cx="294.66" cy="1987.5" r="15.661"/>
		<circle fill="#E383B4" cx="286.657" cy="1981.79" r="11.434"/>
		<circle fill="#F8E79B" cx="289.326" cy="1981.914" r="4.088"/>
	</g>
	<g>
		<circle fill="#EE7473" cx="163.58" cy="2065.285" r="54.963"/>
		<path fill="#EE7473" d="M109.08,2058.187c-0.363,2.779-2.908,4.736-5.687,4.376c-2.782-0.362-4.741-2.908-4.378-5.687
			c0.361-2.781,2.907-4.738,5.688-4.375C107.482,2052.862,109.441,2055.404,109.08,2058.187z"/>
		<path fill="#EE7473" d="M176.367,2006.407c-0.361,2.781-2.907,4.738-5.687,4.376c-2.781-0.362-4.739-2.906-4.378-5.685
			c0.363-2.783,2.908-4.74,5.689-4.377C174.77,2001.083,176.73,2003.626,176.367,2006.407z"/>
		<circle fill="#EE7473" cx="192.896" cy="2117.667" r="5.075"/>
		<path fill="#EE7473" d="M124.46,2106.612c-0.361,2.777-2.908,4.736-5.686,4.375c-2.78-0.363-4.74-2.908-4.379-5.687
			c0.363-2.782,2.909-4.739,5.689-4.377C122.863,2101.286,124.822,2103.829,124.46,2106.612z"/>
		<path fill="#EE7473" d="M214.897,2026.369c-0.362,2.778-2.907,4.735-5.686,4.374c-2.781-0.363-4.739-2.905-4.378-5.686
			c0.363-2.781,2.908-4.738,5.689-4.377C213.299,2021.042,215.259,2023.587,214.897,2026.369z"/>
		<path fill="#EE7473" d="M136.242,2015.382c-0.36,2.777-2.908,4.736-5.687,4.373c-2.78-0.361-4.738-2.905-4.376-5.684
			c0.363-2.783,2.905-4.74,5.687-4.379C134.645,2010.056,136.605,2012.599,136.242,2015.382z"/>
		<path fill="#EE7473" d="M160.859,2125.476c-0.362,2.78-2.908,4.736-5.688,4.375c-2.779-0.361-4.737-2.905-4.377-5.686
			c0.363-2.781,2.907-4.738,5.688-4.377S161.22,2122.696,160.859,2125.476z"/>
	</g>
	<circle fill="#EE7473" cx="157.871" cy="2068.244" r="41.98"/>
	<circle fill="#EE7473" cx="179.989" cy="2061.822" r="29.929"/>
	<circle fill="#EE7473" cx="164.156" cy="2071.932" r="21.851"/>
	<circle fill="#F8E79B" cx="164.156" cy="2071.932" r="7.813"/>
	<g>
		<circle fill="#EE7473" cx="796.805" cy="2197.122" r="54.963"/>
		<path fill="#EE7473" d="M851.305,2204.221c0.363-2.779,2.908-4.736,5.687-4.376c2.782,0.362,4.741,2.908,4.378,5.687
			c-0.361,2.781-2.907,4.738-5.688,4.375C852.903,2209.545,850.944,2207.003,851.305,2204.221z"/>
		<path fill="#EE7473" d="M784.018,2256c0.361-2.781,2.907-4.738,5.687-4.376c2.781,0.362,4.739,2.906,4.378,5.685
			c-0.363,2.783-2.908,4.74-5.689,4.377C785.615,2261.324,783.655,2258.781,784.018,2256z"/>
		<circle fill="#EE7473" cx="767.489" cy="2144.74" r="5.075"/>
		<path fill="#EE7473" d="M835.924,2155.795c0.361-2.777,2.908-4.736,5.686-4.375c2.78,0.363,4.74,2.908,4.379,5.687
			c-0.363,2.782-2.909,4.739-5.689,4.377C837.522,2161.121,835.563,2158.578,835.924,2155.795z"/>
		<path fill="#EE7473" d="M745.488,2236.038c0.362-2.778,2.907-4.735,5.686-4.374c2.781,0.363,4.739,2.905,4.378,5.686
			c-0.363,2.781-2.908,4.738-5.689,4.377C747.085,2241.365,745.125,2238.82,745.488,2236.038z"/>
		<path fill="#EE7473" d="M824.143,2247.025c0.36-2.777,2.908-4.736,5.687-4.373c2.78,0.361,4.738,2.905,4.376,5.684
			c-0.363,2.783-2.905,4.74-5.687,4.379C825.74,2252.352,823.78,2249.809,824.143,2247.025z"/>
		<path fill="#EE7473" d="M799.526,2136.932c0.362-2.78,2.908-4.736,5.688-4.375c2.779,0.361,4.737,2.905,4.377,5.686
			c-0.363,2.781-2.907,4.738-5.688,4.377S799.165,2139.711,799.526,2136.932z"/>
	</g>
	<circle fill="#EE7473" cx="802.514" cy="2194.164" r="41.98"/>
	<circle fill="#EE7473" cx="780.396" cy="2200.585" r="29.929"/>
	<circle fill="#EE7473" cx="796.229" cy="2190.476" r="21.851"/>
	<circle fill="#F8E79B" cx="796.229" cy="2190.475" r="7.813"/>
	<g>
		<circle fill="#EE7473" cx="607.556" cy="1585.958" r="42.473"/>
		<circle fill="#EE7473" cx="629.935" cy="1579.46" r="30.281"/>
		<circle fill="#EE7473" cx="613.916" cy="1589.689" r="22.107"/>
		<circle fill="#F8E79B" cx="613.916" cy="1589.69" r="7.905"/>
	</g>
	<g>
		<circle fill="#F8E79B" cx="682.692" cy="2084.178" r="50.717"/>
		<circle fill="#F8E79B" cx="668.762" cy="2103.464" r="35.058"/>
		<circle fill="#F8E79B" cx="685.369" cy="2113.167" r="24.994"/>
		<circle fill="#F8E79B" cx="670.142" cy="2109.391" r="18.247"/>
		<circle fill="#F8E79B" cx="674.176" cy="2108.007" r="6.524"/>
	</g>
	<g>
		<path fill="#F8E79B" d="M231.275,2162.436c6.227-27.31,33.408-44.403,60.721-38.179c27.311,6.226,44.402,33.41,38.176,60.721
			c-6.223,27.311-33.408,44.4-60.719,38.178C242.142,2216.93,225.05,2189.745,231.275,2162.436z"/>
		<circle fill="#F8E79B" cx="296.693" cy="2156.071" r="35.058"/>
		<circle fill="#F8E79B" cx="281.255" cy="2144.599" r="24.994"/>
		<circle fill="#F8E79B" cx="295.974" cy="2150.029" r="18.247"/>
		<path fill="#F8E79B" d="M285.451,2149.511c0.801-3.514,4.297-5.712,7.812-4.91c3.514,0.799,5.711,4.296,4.908,7.81
			c-0.799,3.513-4.295,5.71-7.809,4.911C286.849,2156.52,284.65,2153.023,285.451,2149.511z"/>
	</g>
	<g>
		<circle fill="#F8E79B" cx="317.341" cy="1767.974" r="24.994"/>
		<circle fill="#F8E79B" cx="302.114" cy="1764.198" r="18.247"/>
		<circle fill="#F8E79B" cx="306.148" cy="1762.814" r="6.524"/>
	</g>
	<g>
		<circle fill="#E383B4" cx="725.552" cy="2151.705" r="15.661"/>
		<circle fill="#E383B4" cx="717.55" cy="2145.995" r="11.434"/>
		<circle fill="#F8E79B" cx="720.219" cy="2146.119" r="4.088"/>
	</g>
	<g>
		<circle fill="#CCE9F2" cx="242.808" cy="2101.193" r="23.89"/>
		<circle fill="#CCE9F2" cx="257.697" cy="2102.979" r="17.442"/>
		<circle fill="#F8E79B" cx="253.825" cy="2101.768" r="6.236"/>
	</g>
	<g>
		<circle fill="#CCE9F2" cx="674.983" cy="2265.254" r="23.891"/>
		<path fill="#CCE9F2" d="M662.346,2244.385c22.997,1.537,40.394,21.421,38.856,44.418c-1.537,22.993-21.422,40.391-44.42,38.858
			c-22.996-1.54-40.387-21.426-38.854-44.422C619.464,2260.244,639.35,2242.847,662.346,2244.385z"/>
		<circle fill="#CCE9F2" cx="672.063" cy="2279.963" r="17.442"/>
		<circle fill="#F8E79B" cx="673.567" cy="2276.196" r="6.236"/>
	</g>
</g>
</svg>
