<?xml version="1.0" encoding="utf-8"?>
<!-- Generator: Adobe Illustrator 18.0.0, SVG Export Plug-In . SVG Version: 6.00 Build 0)  -->
<!DOCTYPE svg PUBLIC "-//W3C//DTD SVG 1.1//EN" "http://www.w3.org/Graphics/SVG/1.1/DTD/svg11.dtd">
<svg version="1.1" id="CIPrimaryPlantIllustrationSVG"
	 xmlns="http://www.w3.org/2000/svg" xmlns:xlink="http://www.w3.org/1999/xlink" x="0px" y="0px" viewBox="0 0 740.2 858.6"
	 enable-background="new 0 0 740.2 858.6" xml:space="preserve">
	<g class="ci-animated-flower">
		<g class="ci-flower-petals">
			<g class="ci-flower-petal">
				<path id="_x3C_Path_x3E_" fill="#F07472" d="M508.9,529.4c-57,43.8-67.6,125.6-23.8,182.6c43.8,57,125.6,67.6,182.6,23.8
					c57-43.8,67.6-125.6,23.8-182.6C647.6,496.2,565.9,485.6,508.9,529.4z"/>
				<path fill="#F07472" d="M685.9,558.2c-4-5.3-3.1-12.8,2.2-16.8c5.3-4,12.8-3.1,16.9,2.2c4.1,5.3,3.1,12.8-2.2,16.9
					C697.5,564.5,690,563.5,685.9,558.2z"/>
				<path fill="#F07472" d="M661.9,744.1c-4-5.3-3.1-12.8,2.2-16.9c5.3-4.1,12.8-3.1,16.9,2.2c4,5.3,3.1,12.8-2.2,16.9
					C673.5,750.3,665.9,749.4,661.9,744.1z"/>
				<path fill="#F07472" d="M445.3,635.8c-4.1-5.3-3.1-12.8,2.2-16.9c5.3-4,12.8-3.1,16.9,2.2c4,5.3,3.1,12.8-2.2,16.9
					C456.9,642,449.4,641,445.3,635.8z"/>
				<path fill="#F07472" d="M566.6,509.7c-4-5.3-3.1-12.8,2.2-16.8c5.3-4,12.8-3.1,16.9,2.2c4.1,5.3,3.1,12.8-2.2,16.9
					C578.2,516,570.7,515,566.6,509.7z"/>
				<path fill="#F07472" d="M484.3,726.2c-4-5.3-3.1-12.8,2.2-16.8c5.3-4.1,12.8-3.1,16.9,2.2c4,5.3,3.1,12.8-2.2,16.9
					C495.9,732.4,488.4,731.4,484.3,726.2z"/>
				<path fill="#F07472" d="M705.6,670.4c-4-5.3-3.1-12.8,2.2-16.9c5.3-4,12.8-3.1,16.8,2.2c4.1,5.3,3.1,12.8-2.2,16.9
					C717.2,676.6,709.7,675.7,705.6,670.4z"/>
				<path fill="#F07472" d="M497.7,544c-4.1-5.3-3.1-12.8,2.2-16.9c5.3-4.1,12.8-3.1,16.8,2.2c4.1,5.3,3.1,12.8-2.2,16.9
					C509.3,550.2,501.8,549.3,497.7,544z"/>
			</g>
			<circle class="ci-flower-petal" fill="#F07472" cx="549" cy="653.5" r="99.4"/>
			<circle class="ci-flower-petal" fill="#F07472" cx="644" cy="573.8" r="70.9"/>
			<circle class="ci-flower-petal" fill="#F07472" cx="622.4" cy="637.5" r="51.8"/>
		</g>
		<path class="ci-flower-pollen" fill="#F7E799" d="M620.8,621.3c-10.2-0.9-17.7-9.9-16.8-20.1c0.9-10.2,9.9-17.7,20.1-16.8
			c10.2,0.9,17.7,9.9,16.8,20.1C639.9,614.7,631,622.2,620.8,621.3z"/>
		<g>
			<line fill="none" stroke="#8A7C46" stroke-width="2.5093" x1="364.8" y1="601.8" x2="601.5" y2="601.8"/>
			<path fill="none" stroke="#8A7C46" stroke-width="2.5093" d="M622.7,580.5c11.7,0,21.3,9.5,21.3,21.3c0,11.7-9.5,21.3-21.3,21.3
				c-11.7,0-21.3-9.5-21.3-21.3C601.5,590,611,580.5,622.7,580.5z"/>
		</g>
		<g class="ci-flower-disc">
			<path fill="none" stroke="#8A7C46" stroke-width="2.5093" d="M622.7,548c-29.7,0-53.7,24.1-53.7,53.7c0,29.7,24.1,53.8,53.7,53.8
				c29.7,0,53.7-24.1,53.7-53.8C676.5,572.1,652.4,548,622.7,548z"/>
			<circle fill="none" stroke="#8A7C46" stroke-width="2.5093" cx="622.7" cy="601.8" r="97.5"/>
			<path fill="none" stroke="#8A7C46" stroke-width="2.5093" d="M622.7,528c-40.7,0-73.8,33-73.8,73.7c0,40.7,33,73.7,73.8,73.7
				c40.7,0,73.7-33,73.7-73.7C696.5,561,663.5,528,622.7,528z"/>
			<path fill="none" stroke="#8A7C46" stroke-width="2.5093" d="M720.2,601.8c0-5,4-9,9-9c5,0,9,4,9,9c0,5-4,9-9,9
				C724.3,610.8,720.2,606.7,720.2,601.8z"/>
			<path fill="none" stroke="#8A7C46" stroke-width="2.5093" d="M507.2,601.8c0-5,4-9,9-9c5,0,9,4,9,9c0,5-4,9-9,9
				C511.2,610.8,507.2,606.7,507.2,601.8z"/>
			<path fill="none" stroke="#8A7C46" stroke-width="2.5093" d="M613.7,708.3c0-5,4-9,9-9c5,0,9,4,9,9c0,5-4,9-9,9
				C617.8,717.3,613.7,713.3,613.7,708.3z"/>
			<path fill="none" stroke="#8A7C46" stroke-width="2.5093" d="M550.2,516.3c0-5,4-9,9-9c5,0,9,4,9,9c0,5-4,9-9,9
				C554.2,525.3,550.2,521.3,550.2,516.3z"/>
			<path fill="none" stroke="#8A7C46" stroke-width="2.5093" d="M682.1,520.1c0-5,4-9,9-9c5,0,9,4,9,9c0,5-4,9-9,9
				C686.1,529.1,682.1,525.1,682.1,520.1z"/>
			<path fill="none" stroke="#8A7C46" stroke-width="2.5093" d="M541.4,682c0-5,4-9,9-9s9,4,9,9c0,5-4,9-9,9S541.4,687,541.4,682z"/>
			<path fill="none" stroke="#8A7C46" stroke-width="2.5093" d="M682.3,683.3c0-5,4-9,9-9c5,0,9,4,9,9c0,5-4,9-9,9
				C686.3,692.3,682.3,688.3,682.3,683.3z"/>
			<path fill="none" stroke="#8A7C46" stroke-width="2.5093" d="M613.7,495.3c0-5,4-9,9-9c5,0,9,4,9,9c0,5-4,9-9,9
				C617.8,504.3,613.7,500.2,613.7,495.3z"/>
		</g>
	</g>
	<g class="ci-animated-flower">
		<g class="ci-flower-petals">
			<polygon class="ci-flower-petal" fill="#D8DE3B" stroke="#D8DE3B" stroke-width="1.2546" points="580.8,220.7 597.5,231.6 
				616.4,225.4 629.7,240.3 649.7,239.2 658.7,257 678.2,261.1 682.3,280.6 700.1,289.6 699,309.5 713.9,322.9 707.7,341.8 
				718.6,358.5 707.7,375.2 713.9,394.2 699,407.5 700.1,427.5 682.3,436.4 678.2,456 658.7,460.1 649.7,477.9 629.7,476.8 
				616.4,491.7 597.5,485.4 580.8,496.4 564.1,485.4 545.1,491.7 531.8,476.8 511.8,477.9 502.8,460.1 483.3,456 479.2,436.4 
				461.4,427.5 462.5,407.5 447.6,394.2 453.9,375.2 442.9,358.5 453.9,341.8 447.6,322.9 462.5,309.5 461.4,289.6 479.2,280.6 
				483.3,261.1 502.8,257 511.8,239.2 531.8,240.3 545.1,225.4 564.1,231.6 		"/>
			<path class="ci-flower-petal" fill="#D8DE3B" stroke="#D8DE3B" stroke-width="1.2546" d="M610.3,465.6
				c-51.8,18.3-108.6-8.8-126.9-60.5c-18.3-51.8,8.8-108.6,60.5-126.9c51.8-18.3,108.6,8.8,126.9,60.5
				C689.1,390.5,662,447.3,610.3,465.6z"/>
			<circle class="ci-flower-petal" fill="#D8DE3B" stroke="#D8DE3B" stroke-width="1.2546" cx="573" cy="426.3" r="70.9"/>
			<path class="ci-flower-petal" fill="#D8DE3B" stroke="#D8DE3B" stroke-width="1.2546" d="M581,431.6c-26.9,9.5-56.5-4.6-66.1-31.5
				c-9.5-26.9,4.6-56.5,31.5-66.1c26.9-9.5,56.5,4.6,66.1,31.5C622,392.5,607.9,422.1,581,431.6z"/>
		</g>
		<circle class="ci-flower-pollen" fill="#F7E799" cx="570.2" cy="397.4" r="18.5"/>
		<g>
			<path fill="none" stroke="#8A7C46" stroke-width="2.5093" d="M571,418.3c-11.7,0-21.3-9.5-21.3-21.3c0-11.7,9.5-21.3,21.3-21.3
				c11.7,0,21.3,9.5,21.3,21.3C592.2,408.8,582.7,418.3,571,418.3z"/>
			<line fill="none" stroke="#8A7C46" stroke-width="2.5093" x1="364.8" y1="600.1" x2="554.5" y2="410.4"/>
		</g>
		<g class="ci-flower-disc">
			<path fill="none" stroke="#8A7C46" stroke-width="2.5093" d="M571,324c-40.3,0-73,32.7-73,73.1c0,40.3,32.7,73.1,73,73.1
				c40.3,0,73-32.7,73-73.1C644,356.7,611.3,324,571,324z"/>
			<path fill="none" stroke="#8A7C46" stroke-width="2.5093" d="M571,334c-34.8,0-63,28.2-63,63c0,34.8,28.2,63,63,63
				c34.8,0,63-28.2,63-63C634,362.3,605.8,334,571,334z"/>
			<polygon fill="none" stroke="#8A7C46" stroke-width="2.5093" points="570.7,310 581.3,316.9 593.3,313 601.7,322.4 614.2,321.7 
				619.9,333 632.3,335.5 634.8,347.9 646.1,353.5 645.4,366.1 654.8,374.5 650.9,386.5 657.8,397.1 650.9,407.6 654.8,419.6 
				645.4,428 646.1,440.6 634.8,446.3 632.3,458.6 619.9,461.2 614.2,472.4 601.7,471.7 593.3,481.1 581.3,477.2 570.7,484.1 
				560.2,477.2 548.2,481.1 539.8,471.7 527.2,472.4 521.5,461.2 509.2,458.6 506.6,446.3 495.4,440.6 496.1,428 486.7,419.6 
				490.6,407.6 483.7,397.1 490.6,386.5 486.7,374.5 496.1,366.1 495.4,353.5 506.6,347.9 509.2,335.5 521.5,333 527.2,321.7 
				539.8,322.4 548.2,313 560.2,316.9 		"/>
			<path fill="none" stroke="#8A7C46" stroke-width="2.5093" d="M571,359.1c-20.9,0-37.9,17-37.9,37.9C533,418,550,435,571,435
				c20.9,0,37.9-17,37.9-37.9C608.9,376.1,591.9,359.1,571,359.1z"/>
		</g>
	</g>
	<line class="ci-body" fill="none" stroke="#8A7C46" stroke-width="2.5093" x1="364.8" y1="600.1" x2="364.8" y2="858.6"/>
	<g class="ci-animated-flower">
		<g class="ci-flower-petals">
			<path class="ci-flower-petal" fill="#F0B0CE" d="M521.3,100.5c26.7,75.4-12.8,158.2-88.2,184.9c-75.4,26.7-158.2-12.8-184.9-88.2
				C221.6,121.8,261.1,39,336.5,12.3C411.9-14.4,494.6,25.1,521.3,100.5z"/>
			<path class="ci-flower-petal" fill="#F0B0CE" d="M438.3,176.5c18.3,51.8-8.8,108.6-60.5,126.9c-51.8,18.3-108.6-8.8-126.9-60.5
				c-18.3-51.8,8.8-108.6,60.5-126.9C363.1,97.6,420,124.7,438.3,176.5z"/>
			<circle class="ci-flower-petal" fill="#F0B0CE" cx="399" cy="213.7" r="70.9"/>
			<circle class="ci-flower-petal" fill="#F0B0CE" cx="355.5" cy="223.1" r="51.8"/>
		</g>
		<circle class="ci-flower-pollen" fill="#F7E799" cx="364" cy="220.5" r="18.5"/>
		<g class="ci-flower-disc">
			<path fill="none" stroke="#8A7C46" stroke-width="2.5093" d="M364.8,199.4c11.7,0,21.3,9.5,21.3,21.3c0,11.7-9.5,21.3-21.3,21.3
				c-11.7,0-21.3-9.5-21.3-21.3C343.5,208.9,353.1,199.4,364.8,199.4z"/>
			<path fill="none" stroke="#8A7C46" stroke-width="2.5093" d="M364.8,166.9c-29.7,0-53.7,24.1-53.7,53.7
				c0,29.7,24.1,53.8,53.7,53.8c29.7,0,53.7-24.1,53.7-53.8C418.6,191,394.5,166.9,364.8,166.9z"/>
			<circle fill="none" stroke="#8A7C46" stroke-width="2.5093" cx="364.8" cy="220.7" r="97.5"/>
			<path fill="none" stroke="#8A7C46" stroke-width="2.5093" d="M364.8,146.9c-40.7,0-73.8,33-73.8,73.7c0,40.7,33,73.7,73.8,73.7
				c40.7,0,73.7-33,73.7-73.7C438.6,180,405.5,146.9,364.8,146.9z"/>
			<g>
				<line fill="none" stroke="#8A7C46" stroke-width="2.5093" x1="267.3" y1="278.7" x2="267.3" y2="162"/>
				<path fill="none" stroke="#8A7C46" stroke-width="2.5093" d="M267.3,296.7c-5,0-9-4-9-9c0-5,4-9,9-9c5,0,9,4,9,9
					C276.3,292.7,272.3,296.7,267.3,296.7z"/>
				<path fill="none" stroke="#8A7C46" stroke-width="2.5093" d="M267.3,162c-5,0-9-4-9-9c0-5,4-9,9-9c5,0,9,4,9,9
					C276.3,157.9,272.3,162,267.3,162z"/>
			</g>
			<g>
				<line fill="none" stroke="#8A7C46" stroke-width="2.5093" x1="462.3" y1="278.7" x2="462.3" y2="162"/>
				<path fill="none" stroke="#8A7C46" stroke-width="2.5093" d="M462.3,296.7c-5,0-9-4-9-9c0-5,4-9,9-9c5,0,9,4,9,9
					C471.3,292.7,467.3,296.7,462.3,296.7z"/>
				<path fill="none" stroke="#8A7C46" stroke-width="2.5093" d="M462.3,162c-5,0-9-4-9-9c0-5,4-9,9-9c5,0,9,4,9,9
					C471.3,157.9,467.3,162,462.3,162z"/>
			</g>
			<g>
				<line fill="none" stroke="#8A7C46" stroke-width="2.5093" x1="306.4" y1="123.2" x2="423.2" y2="123.2"/>
				<path fill="none" stroke="#8A7C46" stroke-width="2.5093" d="M288.4,123.2c0-5,4-9,9-9c5,0,9,4,9,9c0,5-4,9-9,9
					C292.5,132.2,288.4,128.1,288.4,123.2z"/>
				<path fill="none" stroke="#8A7C46" stroke-width="2.5093" d="M423.2,123.2c0-5,4-9,9-9c5,0,9,4,9,9c0,5-4,9-9,9
					C427.2,132.2,423.2,128.1,423.2,123.2z"/>
			</g>
			<g>
				<line fill="none" stroke="#8A7C46" stroke-width="2.5093" x1="306.4" y1="318.2" x2="423.2" y2="318.2"/>
				<circle fill="none" stroke="#8A7C46" stroke-width="2.5093" cx="297.4" cy="318.2" r="9"/>
				<circle fill="none" stroke="#8A7C46" stroke-width="2.5093" cx="432.2" cy="318.2" r="9"/>
			</g>
		</g>
		<line fill="none" stroke="#8A7C46" stroke-width="2.5093" x1="364.8" y1="241.9" x2="364.8" y2="600.1"/>
	</g>
	<g class="ci-animated-flower">
		<g class="ci-flower-petals">
			<path class="ci-flower-petal" fill="#CCEBF2" d="M267.3,427c0,73.6-59.7,133.3-133.3,133.3S0.7,500.6,0.7,427
				c0-73.6,59.7-133.3,133.3-133.3S267.3,353.4,267.3,427z"/>
			<circle class="ci-flower-petal" fill="#CCEBF2" cx="109.5" cy="499.2" r="99.4"/>
			<circle class="ci-flower-petal" fill="#CCEBF2" cx="159.5" cy="521.2" r="70.9"/>
			<circle class="ci-flower-petal" fill="#CCEBF2" cx="115.3" cy="515.4" r="51.8"/>
		</g>
		<circle class="ci-flower-pollen" fill="#F7E799" cx="146.6" cy="503.5" r="18.5"/>
		<g>
			<path fill="none" stroke="#8A7C46" stroke-width="2.5093" d="M162,488.2c8.3,8.3,8.3,21.8,0,30.1c-8.3,8.3-21.8,8.3-30.1,0
				c-8.3-8.3-8.3-21.8,0-30.1C140.2,479.9,153.7,479.9,162,488.2z"/>
			<line fill="none" stroke="#8A7C46" stroke-width="2.5093" x1="364.8" y1="601.8" x2="168.1" y2="505.4"/>
		</g>
		<g class="ci-flower-disc">
			<path fill="none" stroke="#8A7C46" stroke-width="2.5093" stroke-dasharray="7.5279" d="M146.9,413.7c-49.4,0-89.5,40.1-89.5,89.5
				c0,49.4,40.1,89.5,89.5,89.5c49.4,0,89.5-40.1,89.5-89.5C236.5,453.8,196.4,413.7,146.9,413.7z"/>
			<path fill="none" stroke="#8A7C46" stroke-width="2.5093" d="M146.9,431.7c-39.5,0-71.5,32-71.5,71.5c0,39.5,32,71.5,71.5,71.5
				c39.5,0,71.5-32,71.5-71.5C218.5,463.7,186.4,431.7,146.9,431.7z"/>
			<path fill="none" stroke="#8A7C46" stroke-width="2.5093" d="M146.9,465.3c-20.9,0-37.9,17-37.9,37.9c0,20.9,17,37.9,37.9,37.9
				c20.9,0,37.9-17,37.9-37.9C184.9,482.3,167.9,465.3,146.9,465.3z"/>
		</g>
	</g>
</svg>
