<?xml version="1.0" encoding="utf-8"?>
<!-- Generator: Adobe Illustrator 16.0.0, SVG Export Plug-In . SVG Version: 6.00 Build 0)  -->
<!DOCTYPE svg PUBLIC "-//W3C//DTD SVG 1.1//EN" "http://www.w3.org/Graphics/SVG/1.1/DTD/svg11.dtd">
<svg version="1.1" id="Livello_1" xmlns="http://www.w3.org/2000/svg" xmlns:xlink="http://www.w3.org/1999/xlink" x="0px" y="0px"
	 width="102px" height="80.833px" viewBox="0 0 102 80.833" enable-background="new 0 0 102 80.833" xml:space="preserve">
	<g>
		<g>
			
				<path fill="#E5A5AB" stroke="#DC838C" stroke-width="4.6258" stroke-linecap="round" stroke-linejoin="round" stroke-miterlimit="10" d="
				M53.984,45.887h-0.014h-5.949c-0.415,0-0.744-0.334-0.744-0.742c0-2.051,1.67-3.717,3.719-3.717c1.998,0,3.632,1.586,3.713,3.564
				c0.012,0.047,0.016,0.1,0.016,0.152C54.725,45.553,54.396,45.887,53.984,45.887z"/>
		</g>
		<g>
			
				<path fill="#E5A5AB" stroke="#DC838C" stroke-width="4.6258" stroke-linecap="round" stroke-linejoin="round" stroke-miterlimit="10" d="
				M60.183,58.049c0-0.402-0.085-0.793-0.228-1.166c-5.437,3.734-12.477,3.734-17.915,0c-0.144,0.373-0.222,0.764-0.222,1.166"/>
			
				<path fill="#E5A5AB" stroke="#DC838C" stroke-width="4.6258" stroke-linecap="round" stroke-linejoin="round" stroke-miterlimit="10" d="
				M50.979,53.942"/>
		</g>
		<g>
			<g>
				
					<path fill="#E5A5AB" stroke="#DC838C" stroke-width="4.6258" stroke-linecap="round" stroke-linejoin="round" stroke-miterlimit="10" d="
					M74.164,21.148c2.555,0,4.953,0.995,6.759,2.801"/>
			</g>
			<g>
				
					<path fill="#E5A5AB" stroke="#DC838C" stroke-width="4.6258" stroke-linecap="round" stroke-linejoin="round" stroke-miterlimit="10" d="
					M21.077,23.949c1.803-1.806,4.204-2.801,6.76-2.801"/>
			</g>
		</g>
		<g>
			<path fill="#654E42" d="M32.408,35.331c0,3.613-2.098,4.867-4.676,4.867c-2.587,0-4.679-1.254-4.679-4.867
				s2.092-6.541,4.679-6.541C30.311,28.79,32.408,31.717,32.408,35.331z"/>
			<path fill="#654E42" d="M78.947,35.331c0,3.613-2.094,4.867-4.678,4.867c-2.582,0-4.68-1.254-4.68-4.867s2.098-6.541,4.68-6.541
				C76.854,28.79,78.947,31.717,78.947,35.331z"/>
		</g>
	</g>
</svg>
