<?xml version="1.0" encoding="utf-8"?>
<!-- Generator: Adobe Illustrator 18.0.0, SVG Export Plug-In . SVG Version: 6.00 Build 0)  -->
<!DOCTYPE svg PUBLIC "-//W3C//DTD SVG 1.1//EN" "http://www.w3.org/Graphics/SVG/1.1/DTD/svg11.dtd">
<svg version="1.1" id="Layer_1" xmlns="http://www.w3.org/2000/svg" xmlns:xlink="http://www.w3.org/1999/xlink" x="0px" y="0px"
	 viewBox="0 0 595.3 841.9" enable-background="new 0 0 595.3 841.9" xml:space="preserve">
<g>
	<g class="lc-nose">

			<path fill="#61C1A2" stroke="#61C1A2" stroke-width="29.0276" stroke-linecap="round" stroke-linejoin="round" stroke-miterlimit="10" d="
			M327.1,336.6c0,0-0.1,0-0.1,0h-58.8c-4.1,0-7.4-2.1-7.4-4.6c0-12.8,16.5-23.1,36.8-23.1c19.7,0,35.9,9.9,36.7,22.2
			c0.1,0.3,0.2,0.6,0.2,0.9C334.4,334.5,331.2,336.6,327.1,336.6z"/>
	</g>
	<g class="lc-eyes">
		<path fill="#654E42" d="M144.1,215.4c0,31-18,41.7-40.1,41.7c-22.1,0-40.1-10.8-40.1-41.7c0-31,17.9-56.1,40.1-56.1
			C126.2,159.3,144.1,184.5,144.1,215.4z"/>
		<path fill="#654E42" d="M531.3,215.4c0,31-18,41.7-40.1,41.7c-22.2,0-40.1-10.8-40.1-41.7c0-31,18-56.1,40.1-56.1
			C513.4,159.3,531.3,184.5,531.3,215.4z"/>
	</g>
	<g class="lc-eyebrows">
		<g>

				<path fill="#61C1A2" stroke="#61C1A2" stroke-width="36.579" stroke-linecap="round" stroke-linejoin="round" stroke-miterlimit="10" d="
				M481.2,54.6c25.2,0,49,9.8,66.8,27.7"/>
		</g>
		<g>

				<path fill="#61C1A2" stroke="#61C1A2" stroke-width="36.579" stroke-linecap="round" stroke-linejoin="round" stroke-miterlimit="10" d="
				M47.3,82.3c17.8-17.8,41.6-27.7,66.8-27.7"/>
		</g>
	</g>
	<g class="lc-mouth-container">
		<g class="lc-mouth">
			<path fill="#61C1A2" stroke="#61C1A2" stroke-width="11.8698" stroke-miterlimit="10" d="M122.6,525.6c0,0,0.4-0.1,0.7,0
				c0,0,130.9-17.2,174.5-17.2c43.7,0,174.8,17.2,174.8,17.2c24.3,0,43.7,19.6,43.7,43.6c0,120.3-98,218.1-218.3,218.1
				c-117.3,0-213.2-93-218-209.2c-0.7-2.8-1-5.9-1-8.9C79,545.2,98.5,525.6,122.6,525.6z"/>
		</g>
		<g class="lc-teeth">
			<g>
				<path fill="#96D1B7" d="M397.3,506.9C397.3,506.9,397.4,506.8,397.3,506.9l26.5,1.5c1.8,0.1,3.2,2.4,3,5
					c-0.8,13.4-8.8,23.8-17.9,23.3c-8.9-0.5-15.5-11.2-15.2-24.2c0-0.3,0-0.7,0-1C393.9,508.8,395.5,506.7,397.3,506.9z"/>
			</g>
			<g>
				<path fill="#96D1B7" d="M205.7,511.5c0,0.3,0,0.7,0,1c0.4,12.9-6.3,23.6-15.2,24.2c-9.1,0.5-17.1-9.9-17.9-23.3
					c-0.2-2.7,1.2-4.9,3-5l26.4-1.5c0,0,0.1,0,0.1,0C203.9,506.7,205.5,508.8,205.7,511.5z"/>
			</g>
		</g>
	</g>
</g>
</svg>
