<?xml version="1.0" encoding="utf-8"?>
<!-- Generator: Adobe Illustrator 16.0.0, SVG Export Plug-In . SVG Version: 6.00 Build 0)  -->
<!DOCTYPE svg PUBLIC "-//W3C//DTD SVG 1.1//EN" "http://www.w3.org/Graphics/SVG/1.1/DTD/svg11.dtd">
<svg version="1.1" id="Livello_1" xmlns="http://www.w3.org/2000/svg" xmlns:xlink="http://www.w3.org/1999/xlink" x="0px" y="0px"
	 width="102px" height="80.833px" viewBox="0 0 102 80.833" enable-background="new 0 0 102 80.833" xml:space="preserve">
<g>
	<g>
		<path fill="#EECDBA" d="M51,46.094c2.569,0,4.658-2.083,4.658-4.656c0-2.57-0.97-6.025-0.97-9.988c0-1.258,0-2.672,0-2.672h-7.382
			c0,0,0,1.414,0,2.672c0,3.963-0.965,7.418-0.965,9.988C46.342,44.011,48.428,46.094,51,46.094"/>
	</g>
	<g>
		<path fill="#EED6CF" d="M28.568,50.209c0,2.615-2.119,4.736-4.736,4.736l0,0c-2.613,0-4.732-2.121-4.732-4.736v-5.385
			c0-2.615,2.119-4.734,4.732-4.734l0,0c2.617,0,4.736,2.119,4.736,4.734V50.209z"/>
		<path fill="#EED6CF" d="M82.9,50.209c0,2.615-2.119,4.736-4.732,4.736l0,0c-2.617,0-4.736-2.121-4.736-4.736v-5.385
			c0-2.615,2.119-4.734,4.736-4.734l0,0c2.613,0,4.732,2.119,4.732,4.734V50.209z"/>
	</g>
	<g>
		<path fill="#654E42" d="M37.488,33.618c0,2.727-1.583,3.672-3.529,3.672c-1.952,0-3.531-0.945-3.531-3.672
			s1.579-4.936,3.531-4.936C35.905,28.682,37.488,30.891,37.488,33.618z"/>
		<path fill="#654E42" d="M71.572,33.618c0,2.727-1.58,3.672-3.529,3.672s-3.531-0.945-3.531-3.672s1.582-4.936,3.531-4.936
			S71.572,30.891,71.572,33.618z"/>
	</g>
	<g>
		<g>
			
				<path fill="none" stroke="#654E42" stroke-width="3.22" stroke-linecap="round" stroke-linejoin="round" stroke-miterlimit="10" d="
				M29.034,21.562c1.569-1.571,3.659-2.435,5.882-2.435"/>
		</g>
		<g>
			
				<path fill="none" stroke="#654E42" stroke-width="3.22" stroke-linecap="round" stroke-linejoin="round" stroke-miterlimit="10" d="
				M67.082,19.127c2.221,0,4.311,0.863,5.883,2.435"/>
		</g>
	</g>
	<g>
		
			<path fill="#E1A083" stroke="#D88260" stroke-width="3.22" stroke-linecap="round" stroke-linejoin="round" stroke-miterlimit="10" d="
			M32.994,56.016c0,3.157,7.6,5.689,16.969,5.689h2.074c9.368,0,16.969-2.532,16.969-5.689H32.994z"/>
	</g>
</g>
</svg>
